<?xml version="1.0" encoding="utf-8"?>
<!-- Generator: Adobe Illustrator 21.0.0, SVG Export Plug-In . SVG Version: 6.00 Build 0)  -->
<svg version="1.1" id="Layer_1" xmlns="http://www.w3.org/2000/svg" xmlns:xlink="http://www.w3.org/1999/xlink" x="0px" y="0px"
	 viewBox="0 0 39 36" style="enable-background:new 0 0 39 36;" xml:space="preserve">
<style type="text/css">
	.st0{fill:#FBF2E3;}
	.st1{fill:#231F20;}
</style>
<g>
	<path class="st0" d="M12.2,31.3c-5.1-2-8-6.3-7.1-14.1C6.1,9.5,13.2,3.9,21,4.9c7.8,0.9,13.3,8,12.4,15.8
		c-0.6,5.6-2.5,7.8-7.3,10.8"/>
	<g>
		<path class="st1" d="M13.1,29.8c-12-5.2-5.8-23.5,6.5-23.3c5.9,0.1,10.9,4.6,11.9,10.4c1,5.9-1.5,10-6.3,13.1
			c-1.9,1.2-0.1,4.2,1.8,3c6-3.9,9.3-9.4,8-16.8C33.7,8.8,27.1,3.2,19.6,3C4,2.7-3.9,26.2,11.4,32.8C13.4,33.7,15.2,30.7,13.1,29.8
			L13.1,29.8z"/>
	</g>
</g>
<g>
	<g>
		<path class="st1" d="M21,13.9c0-0.5,0-0.9,0-1.4c0-0.9-0.8-1.8-1.8-1.8c-0.9,0-1.8,0.8-1.8,1.8c0,0.5,0,0.9,0,1.4
			c0,0.9,0.8,1.8,1.8,1.8C20.2,15.6,21,14.9,21,13.9L21,13.9z"/>
	</g>
</g>
<g>
	<g>
		<path class="st1" d="M17.5,20c0,3.8,0,7.5,0,11.2c0,2.3,3.5,2.3,3.5,0c0-3.8,0-7.5,0-11.2C21,17.7,17.5,17.7,17.5,20L17.5,20z"/>
	</g>
</g>
</svg>
