<?xml version="1.0" encoding="utf-8"?>
<!-- Generator: Adobe Illustrator 16.0.0, SVG Export Plug-In . SVG Version: 6.00 Build 0)  -->
<!DOCTYPE svg PUBLIC "-//W3C//DTD SVG 1.1//EN" "http://www.w3.org/Graphics/SVG/1.1/DTD/svg11.dtd">
<svg version="1.1" id="Layer_1" xmlns="http://www.w3.org/2000/svg" xmlns:xlink="http://www.w3.org/1999/xlink" x="0px" y="0px"
	 width="31px" height="53px" viewBox="0 0 31 53" enable-background="new 0 0 31 53" xml:space="preserve">
<g>
	<g>
		<path d="M28.448,48.086C20.795,40.433,13.142,32.78,5.489,25.127c-0.726-0.726-2.144-1.056-3.029-0.391
			c-0.056,0.042-0.111,0.083-0.167,0.125c1.01,1.309,2.02,2.618,3.029,3.926c7.653-7.653,15.306-15.306,22.959-22.959
			c2.282-2.282-1.253-5.817-3.535-3.535C17.092,9.947,9.439,17.6,1.787,25.253c-1.954,1.954,0.709,5.67,3.029,3.926
			c0.056-0.042,0.111-0.083,0.167-0.125c-1.01-0.13-2.02-0.261-3.029-0.391c7.653,7.653,15.306,15.306,22.959,22.959
			C27.194,53.904,30.73,50.368,28.448,48.086L28.448,48.086z"/>
	</g>
</g>
</svg>
