<?xml version="1.0" encoding="utf-8"?>
<!-- Generator: Adobe Illustrator 16.0.0, SVG Export Plug-In . SVG Version: 6.00 Build 0)  -->
<!DOCTYPE svg PUBLIC "-//W3C//DTD SVG 1.1//EN" "http://www.w3.org/Graphics/SVG/1.1/DTD/svg11.dtd">
<svg version="1.1" id="Layer_1" xmlns="http://www.w3.org/2000/svg" xmlns:xlink="http://www.w3.org/1999/xlink" x="0px" y="0px"
	 width="31px" height="53px" viewBox="0 0 31 53" enable-background="new 0 0 31 53" xml:space="preserve">
<g>
	<g>
		<path d="M1.787,5.828c7.653,7.653,15.306,15.306,22.959,22.959c0.726,0.726,2.144,1.056,3.029,0.391
			c0.056-0.042,0.111-0.083,0.167-0.125c-1.01-1.309-2.02-2.618-3.029-3.926C17.259,32.779,9.606,40.432,1.954,48.085
			c-2.282,2.282,1.253,5.817,3.535,3.535c7.653-7.653,15.306-15.306,22.959-22.959c1.954-1.954-0.709-5.67-3.029-3.926
			c-0.056,0.042-0.111,0.083-0.167,0.125c1.01,0.13,2.02,0.261,3.029,0.391C20.628,17.599,12.975,9.946,5.322,2.293
			C3.04,0.011-0.496,3.546,1.787,5.828L1.787,5.828z"/>
	</g>
</g>
</svg>
