<?xml version="1.0" encoding="utf-8"?>
<!-- Generator: Adobe Illustrator 16.0.0, SVG Export Plug-In . SVG Version: 6.00 Build 0)  -->
<!DOCTYPE svg PUBLIC "-//W3C//DTD SVG 1.1//EN" "http://www.w3.org/Graphics/SVG/1.1/DTD/svg11.dtd">
<svg version="1.1" id="Layer_1" xmlns="http://www.w3.org/2000/svg" xmlns:xlink="http://www.w3.org/1999/xlink" x="0px" y="0px"
	 width="576px" height="576px" viewBox="19.485 0 576 576" enable-background="new 19.485 0 576 576" xml:space="preserve">
<rect x="53.566" y="34.083" opacity="0.4" fill="#59595A" enable-background="new    " width="541.257" height="541.258"/>
<rect x="19.484" fill="#FCF3E3" width="541.257" height="541.259"/>
<g>
	<g>
		<path d="M160.276,466.602c1.217,0,2.029,0,3.652,0c4.463,0,4.463-6.492,0-6.492c-1.218,0-2.029,0-3.652,0
			C156.219,460.109,156.219,466.602,160.276,466.602L160.276,466.602z"/>
	</g>
</g>
<g>
	<g>
		<path d="M455.656,466.602c1.218,0,2.028,0,3.652,0c4.463,0,4.463-6.492,0-6.492c-1.216,0-2.028,0-3.652,0
			C451.598,460.109,451.598,466.602,455.656,466.602L455.656,466.602z"/>
	</g>
</g>
<rect x="150.945" y="445.098" fill="none" width="300.653" height="76.279"/>
<g enable-background="new    ">
	<path d="M223.029,479.165c3.019,2.625,6.956,4.462,10.499,4.462c4.004,0,5.972-1.575,5.972-4.136c0-2.688-2.429-3.543-6.168-5.116
		l-5.512-2.362c-4.461-1.773-8.661-5.445-8.661-11.679c0-7.087,6.364-12.73,15.223-12.73c4.92,0,10.104,1.969,13.779,5.644
		l-4.856,6.102c-2.82-2.167-5.512-3.414-8.924-3.414c-3.28,0-5.446,1.444-5.446,3.872c0,2.624,2.822,3.545,6.563,5.053l5.446,2.23
		c5.183,2.101,8.465,5.577,8.465,11.614c0,7.086-5.905,13.255-16.076,13.255c-5.578,0-11.484-2.098-15.88-6.169L223.029,479.165z"/>
	<path d="M256.556,448.392h15.618c9.316,0,16.731,3.412,16.731,13.779c0,10.039-7.677,14.501-16.731,14.501h-5.905v14.499h-9.713
		V448.392z M271.582,468.994c5.316,0,7.874-2.363,7.874-6.823c0-4.462-2.756-6.103-7.874-6.103h-5.313v12.926H271.582z"/>
	<path d="M296.253,448.392h26.837v8.136h-17.128v8.597h14.567v8.069h-14.567v9.844h17.782v8.134h-27.493L296.253,448.392
		L296.253,448.392z"/>
	<path d="M352.221,481.003h-13.123l-2.625,10.17h-9.842l13.452-42.781h11.548l13.45,42.781h-10.236L352.221,481.003z
		 M350.253,473.456l-1.049-3.937c-1.18-4.266-2.297-9.317-3.477-13.779h-0.263c-0.985,4.528-2.167,9.514-3.347,13.779l-1.051,3.937
		H350.253z"/>
	<path d="M369.542,448.392h9.711v17.52h0.196l12.796-17.52h10.563l-12.924,17.061l15.354,25.721h-10.632l-10.367-18.044
		l-4.988,6.563v11.481h-9.709V448.392L369.542,448.392z"/>
</g>
<g>
	<g>
		<path d="M479.189,197.19c17.446-5.68,34.893-11.766,52.743-17.446c4.06-1.217,2.437-7.709-2.026-6.492
			c-17.446,5.681-34.895,11.766-52.747,17.446C473.102,191.915,475.13,198.406,479.189,197.19L479.189,197.19z"/>
	</g>
</g>
<g>
	<g>
		<path d="M486.086,248.718c18.257,1.217,36.922,2.84,55.179,4.464c4.463,0.406,4.463-6.492,0-6.492
			c-18.257-1.217-36.922-2.84-55.179-4.463C481.624,241.822,481.624,248.718,486.086,248.718L486.086,248.718z"/>
	</g>
</g>
<g>
	<g>
		<path d="M471.479,299.03c16.638,8.522,32.866,17.041,49.501,25.562c3.65,2.028,7.304-3.65,3.65-5.68
			c-16.634-8.521-32.864-17.041-49.5-25.562C470.667,291.322,467.422,297.002,471.479,299.03L471.479,299.03z"/>
	</g>
</g>
<g>
	<g>
		<path d="M106.718,190.698c-17.446-5.68-34.894-11.766-52.747-17.446c-4.057-1.217-5.68,5.275-2.028,6.492
			c17.447,5.68,34.894,11.766,52.747,17.446C109.153,198.406,110.776,191.915,106.718,190.698L106.718,190.698z"/>
	</g>
</g>
<g>
	<g>
		<path d="M98.198,242.227c-18.258,1.217-36.922,2.84-55.181,4.463c-4.463,0.405-4.463,6.897,0,6.492
			c18.259-1.217,36.922-2.841,55.181-4.464C102.661,248.718,102.661,241.822,98.198,242.227L98.198,242.227z"/>
	</g>
</g>
<g>
	<g>
		<path d="M109.559,293.35c-16.636,8.521-32.866,17.041-49.5,25.562c-3.652,1.623-0.407,7.708,3.651,5.68
			c16.635-8.521,32.865-17.04,49.5-25.562C116.862,297.002,113.21,291.322,109.559,293.35L109.559,293.35z"/>
	</g>
</g>
<g>
	<path fill="#CC3333" d="M139.177,255.211c19.881,55.587,248.72,89.263,306.74,0.811
		C428.47,204.493,168.797,198.406,139.177,255.211z"/>
	<g>
		<path d="M135.932,256.022c5.68,15.013,20.693,24.75,34.083,31.242c22.315,10.955,47.066,17.447,71.409,21.504
			c52.341,8.521,111.58,8.521,161.082-13.795c10.549-4.869,20.691-10.955,29.617-18.258c5.275-4.463,17.446-14.606,17.04-21.911
			c-1.216-12.983-23.126-21.504-32.458-25.156c-46.663-17.853-101.436-19.475-150.937-17.446
			c-27.995,1.217-56.803,4.463-83.988,12.578c-17.041,5.274-36.517,12.983-45.443,28.808c-2.029,3.651,3.652,7.303,5.68,3.651
			c7.303-13.389,23.939-19.881,37.329-24.75c21.099-6.897,43.414-10.143,65.729-12.171c47.472-4.058,96.972-2.84,143.228,7.708
			c15.823,3.652,34.082,8.115,46.661,18.664c7.304,6.085,8.115,8.521,1.622,15.823c-7.302,8.521-16.228,15.418-26.372,20.693
			c-43.413,24.751-98.188,26.373-146.878,21.504c-25.967-2.841-51.935-8.116-76.685-17.447
			c-16.229-6.086-38.139-15.823-44.632-33.271C141.207,250.342,134.309,251.965,135.932,256.022z"/>
	</g>
</g>
<g>
	<path fill="#CC3333" d="M443.888,249.53c-18.258-38.139-102.247-131.865-151.745-77.496
		c-49.502-54.368-133.49,39.763-151.749,77.496"/>
	<g>
		<path d="M447.135,247.908c-23.128-46.66-104.275-133.083-156.617-77.903c1.625,0,3.247,0,4.869,0
			c-52.747-55.18-134.3,31.648-157.021,77.903c-2.028,3.651,3.651,7.303,5.68,3.651c20.693-42.197,97.784-127.808,146.066-76.686
			c1.218,1.218,3.653,1.218,4.869,0c48.689-51.123,125.375,34.489,146.067,76.686C443.079,255.211,448.759,251.965,447.135,247.908
			L447.135,247.908z"/>
	</g>
</g>
<g>
	<path fill="#CC3333" d="M150.538,268.601c45.849,45.849,93.321,79.12,141.199,79.525c47.876,0.406,95.756-32.46,142.819-79.525"/>
	<g>
		<path d="M148.104,270.629c38.14,37.734,86.422,80.338,143.632,80.742c57.208,0.405,106.709-42.603,144.848-80.337
			c2.841-2.84-1.622-7.708-4.867-4.869c-36.923,36.517-84.803,78.713-140.388,78.308c-55.18-0.407-102.246-41.791-138.762-78.308
			C149.728,262.92,145.264,267.789,148.104,270.629L148.104,270.629z"/>
	</g>
</g>
<g>
	<path fill="#220D0E" d="M160.682,255.211c23.127,15.013,83.583,30.025,130.647,30.025c49.908,0.405,110.767-14.201,133.895-29.214
		c-38.952-23.938-92.509-47.065-133.489-46.66C251.973,209.362,200.04,231.272,160.682,255.211z"/>
	<g>
		<path d="M158.653,259.268c17.446,10.549,37.734,16.229,57.615,21.099c25.56,5.68,51.529,9.738,77.495,9.738
			c25.562,0,51.529-3.651,76.279-8.926c19.885-4.462,40.574-9.737,58.024-20.692c2.839-2.03,2.839-6.087,0-8.116
			c-39.766-23.938-88.048-47.472-135.924-47.472c-47.067,0-94.133,22.722-133.49,46.254c-5.275,3.246-0.406,11.361,4.869,8.115
			c37.734-23.127,83.582-45.038,128.619-45.443c45.85-0.406,92.509,23.127,131.055,46.254c0-2.84,0-5.274,0-8.114
			c-16.23,10.144-35.299,15.418-53.558,19.476c-24.75,5.68-50.313,8.926-75.469,8.926c-24.75,0-49.094-3.651-73.033-8.926
			c-19.476-4.463-40.167-9.738-57.209-20.693C157.841,247.908,152.973,256.022,158.653,259.268z"/>
	</g>
</g>
<path fill="#FCF3E3" d="M367.61,226.404l1.216,6.491c0,6.492-8.113,7.709-17.852,7.709c-5.273,0-9.333-0.406-12.983-1.218
	c-0.408-0.405-1.217-0.405-1.625-0.405c-1.218,6.897-10.548,8.114-21.503,8.114c-6.087,0-11.361-0.405-15.418-1.623
	c-2.84-0.812-4.463-2.029-5.681-4.058c-2.839,4.869-10.955,5.68-20.691,5.68c-6.087,0-11.361-0.405-15.419-1.623
	c-4.057-1.218-6.898-4.058-6.898-8.114l0,0c-2.839,2.84-8.924,3.651-16.228,3.651c-5.275,0-9.332-0.405-12.984-1.217
	c-3.247-1.217-5.274-2.84-5.274-6.491l1.623-10.549c0,0,6.491-2.029,16.636-2.029c3.651,0,6.492-3.246,8.926-3.246
	c4.057,0,6.897,0.406,8.114,2.84c2.839-5.275,10.955-7.303,20.693-7.303c6.085,0,11.361,1.218,15.418,2.84
	c2.84,1.217,4.463,2.84,5.679,5.273c2.841-5.273,10.957-8.114,20.694-8.114c6.085,0,11.36,1.218,15.417,2.84
	c1.626,0.811,3.247,2.028,4.463,3.246c2.843-2.028,8.927-0.812,16.23-0.812c3.652,0,7.71,3.652,10.551,3.652
	C366.393,220.723,367.61,222.346,367.61,226.404z"/>
<g>
	<path fill="#FCF3E3" d="M374.914,229.244c-53.562-23.534-110.768-23.939-165.948,0"/>
	<g>
		<path d="M376.536,226.809c-55.182-23.533-114.014-23.533-168.788,0c-4.057,1.623-0.405,7.303,3.652,5.68
			c52.746-22.315,109.55-22.315,162.297,0C377.348,234.112,380.593,228.432,376.536,226.809L376.536,226.809z"/>
	</g>
</g>
<g>
	<path fill="#CC3333" d="M241.831,204.087c32.866,23.938,68.163,23.938,101.436,0"/>
	<g>
		<path d="M240.207,206.928c34.082,23.127,71.005,23.127,105.088,0c3.65-2.434,0.406-8.114-3.653-5.68
			c-32.052,21.91-66.134,22.316-98.188,0C239.802,198.813,236.555,204.493,240.207,206.928L240.207,206.928z"/>
	</g>
</g>
</svg>
