<?xml version="1.0" encoding="utf-8"?>
<!-- Generator: Adobe Illustrator 16.0.0, SVG Export Plug-In . SVG Version: 6.00 Build 0)  -->
<!DOCTYPE svg PUBLIC "-//W3C//DTD SVG 1.1//EN" "http://www.w3.org/Graphics/SVG/1.1/DTD/svg11.dtd">
<svg version="1.1" id="Layer_1" xmlns="http://www.w3.org/2000/svg" xmlns:xlink="http://www.w3.org/1999/xlink" x="0px" y="0px"
	 width="614.97px" height="612px" viewBox="88.105 0 614.97 612" enable-background="new 88.105 0 614.97 612" xml:space="preserve"
	>
<rect x="126.444" y="36.229" opacity="0.4" fill="#59595A" enable-background="new    " width="575.34" height="575.34"/>
<rect x="90.216" fill="#FCF3E3" width="575.34" height="575.341"/>
<g>
	<g>
		<path d="M239.873,495.983c1.294,0,2.157,0,3.882,0c4.744,0,4.744-6.901,0-6.901c-1.294,0-2.157,0-3.882,0
			C235.56,489.082,235.56,495.983,239.873,495.983L239.873,495.983z"/>
	</g>
</g>
<g>
	<g>
		<path d="M553.852,495.983c1.295,0,2.157,0,3.883,0c4.744,0,4.744-6.901,0-6.901c-1.294,0-2.156,0-3.883,0
			C549.539,489.082,549.539,495.983,553.852,495.983L553.852,495.983z"/>
	</g>
</g>
<rect x="229.954" y="473.125" fill="none" width="319.585" height="81.082"/>
<g enable-background="new    ">
	<path d="M306.577,509.338c3.208,2.79,7.394,4.742,11.16,4.742c4.255,0,6.347-1.674,6.347-4.395c0-2.858-2.581-3.767-6.556-5.439
		l-5.859-2.511c-4.743-1.885-9.207-5.789-9.207-12.415c0-7.533,6.765-13.531,16.181-13.531c5.231,0,10.741,2.093,14.647,5.998
		l-5.162,6.486c-2.999-2.303-5.859-3.628-9.486-3.628c-3.487,0-5.789,1.535-5.789,4.115c0,2.79,3,3.768,6.975,5.371l5.789,2.371
		c5.51,2.232,8.998,5.929,8.998,12.346c0,7.532-6.277,14.089-17.088,14.089c-5.929,0-12.206-2.23-16.879-6.557L306.577,509.338z"/>
	<path d="M342.216,476.626h16.6c9.904,0,17.786,3.627,17.786,14.647c0,10.671-8.161,15.414-17.786,15.414h-6.277v15.413h-10.323
		V476.626z M358.188,498.526c5.65,0,8.37-2.512,8.37-7.253c0-4.743-2.93-6.487-8.37-6.487h-5.649v13.74H358.188z"/>
	<path d="M384.412,476.626h28.527v8.648h-18.206v9.138h15.484v8.578h-15.484v10.463h18.902v8.647h-29.225L384.412,476.626
		L384.412,476.626z"/>
	<path d="M443.905,511.291h-13.95l-2.79,10.811h-10.462l14.299-45.476h12.275l14.298,45.476h-10.881L443.905,511.291z
		 M441.813,503.27l-1.115-4.185c-1.255-4.534-2.441-9.904-3.696-14.647h-0.279c-1.046,4.813-2.302,10.113-3.557,14.647l-1.116,4.185
		H441.813z"/>
	<path d="M462.317,476.626h10.322v18.623h0.209l13.602-18.623h11.229l-13.739,18.135l16.32,27.341h-11.3l-11.02-19.181l-5.302,6.976
		v12.205h-10.322L462.317,476.626L462.317,476.626z"/>
</g>
<g>
	<g>
		<path d="M578.867,209.607c18.545-6.038,37.091-12.507,56.066-18.545c4.313-1.294,2.589-8.195-2.155-6.901
			c-18.546,6.038-37.091,12.507-56.068,18.545C572.396,204,574.554,210.9,578.867,209.607L578.867,209.607z"/>
	</g>
</g>
<g>
	<g>
		<path d="M586.199,264.38c19.406,1.294,39.247,3.019,58.654,4.745c4.744,0.431,4.744-6.901,0-6.901
			c-19.407-1.294-39.247-3.019-58.654-4.744C581.455,257.049,581.455,264.38,586.199,264.38L586.199,264.38z"/>
	</g>
</g>
<g>
	<g>
		<path d="M570.672,317.86c17.685,9.058,34.936,18.113,52.618,27.171c3.881,2.156,7.763-3.881,3.881-6.037
			c-17.683-9.059-34.935-18.114-52.617-27.172C569.81,309.666,566.359,315.704,570.672,317.86L570.672,317.86z"/>
	</g>
</g>
<g>
	<g>
		<path d="M182.943,202.706c-18.545-6.038-37.091-12.507-56.068-18.545c-4.313-1.294-6.038,5.607-2.156,6.901
			c18.545,6.038,37.091,12.507,56.068,18.545C185.531,210.9,187.256,204,182.943,202.706L182.943,202.706z"/>
	</g>
</g>
<g>
	<g>
		<path d="M173.886,257.48c-19.408,1.294-39.247,3.019-58.655,4.744c-4.744,0.431-4.744,7.332,0,6.901
			c19.408-1.294,39.247-3.02,58.655-4.745C178.63,264.38,178.63,257.049,173.886,257.48L173.886,257.48z"/>
	</g>
</g>
<g>
	<g>
		<path d="M185.962,311.822c-17.683,9.058-34.935,18.113-52.617,27.172c-3.882,1.725-0.432,8.193,3.881,6.037
			c17.683-9.058,34.935-18.113,52.618-27.171C193.725,315.704,189.844,309.666,185.962,311.822L185.962,311.822z"/>
	</g>
</g>
<g>
	<path fill="#CC3333" d="M217.446,271.281c21.133,59.087,264.38,94.884,326.055,0.862C524.955,217.37,248.93,210.9,217.446,271.281z
		"/>
	<g>
		<path d="M213.996,272.144c6.038,15.958,21.996,26.309,36.229,33.209c23.721,11.645,50.03,18.545,75.907,22.858
			c55.637,9.059,118.604,9.059,171.224-14.663c11.213-5.176,21.994-11.645,31.482-19.408c5.607-4.744,18.546-15.526,18.114-23.29
			c-1.294-13.801-24.583-22.858-34.503-26.74c-49.6-18.977-107.822-20.702-160.44-18.545c-29.759,1.294-60.38,4.744-89.277,13.37
			c-18.114,5.606-38.816,13.801-48.305,30.622c-2.156,3.881,3.882,7.763,6.038,3.881c7.763-14.232,25.446-21.133,39.679-26.309
			c22.427-7.332,46.148-10.782,69.869-12.938c50.461-4.313,103.078-3.019,152.245,8.194c16.82,3.882,36.229,8.626,49.6,19.839
			c7.763,6.469,8.626,9.057,1.725,16.82c-7.763,9.057-17.251,16.389-28.033,21.996c-46.147,26.309-104.372,28.034-156.127,22.858
			c-27.603-3.02-55.205-8.626-81.514-18.545c-17.251-6.469-40.541-16.82-47.442-35.366
			C219.603,266.106,212.271,267.831,213.996,272.144z"/>
	</g>
</g>
<g>
	<path fill="#CC3333" d="M541.345,265.243c-19.408-40.541-108.686-140.169-161.302-82.376
		c-52.618-57.792-141.895,42.267-161.303,82.376"/>
	<g>
		<path d="M544.795,263.518c-24.584-49.598-110.842-141.463-166.478-82.808c1.726,0,3.451,0,5.176,0
			c-56.068-58.655-142.757,33.641-166.909,82.808c-2.156,3.881,3.881,7.763,6.038,3.881
			c21.996-44.854,103.941-135.856,155.264-81.514c1.294,1.294,3.882,1.294,5.176,0c51.755-54.342,133.269,36.66,155.264,81.514
			C540.482,271.281,546.521,267.831,544.795,263.518L544.795,263.518z"/>
	</g>
</g>
<g>
	<path fill="#CC3333" d="M229.522,285.514c48.736,48.736,99.197,84.102,150.089,84.533s101.786-34.504,151.814-84.533"/>
	<g>
		<path d="M226.935,287.67c40.541,40.11,91.865,85.396,152.676,85.827c60.812,0.431,113.429-45.286,153.97-85.396
			c3.02-3.019-1.725-8.194-5.175-5.175c-39.248,38.816-90.141,83.67-149.227,83.239c-58.655-0.432-108.685-44.423-147.501-83.239
			C228.66,279.476,223.916,284.651,226.935,287.67L226.935,287.67z"/>
	</g>
</g>
<g>
	<path fill="#220D0E" d="M240.304,271.281c24.583,15.958,88.846,31.916,138.875,31.916c53.049,0.431,117.742-15.095,142.325-31.053
		c-41.403-25.446-98.334-50.029-141.894-49.598C337.345,222.545,282.14,245.835,240.304,271.281z"/>
	<g>
		<path d="M238.148,275.594c18.545,11.213,40.11,17.251,61.243,22.427c27.171,6.038,54.774,10.351,82.376,10.351
			c27.17,0,54.773-3.881,81.082-9.488c21.135-4.744,43.129-10.351,61.676-21.996c3.019-2.157,3.019-6.47,0-8.626
			c-42.268-25.446-93.591-50.461-144.482-50.461c-50.03,0-100.06,24.152-141.895,49.167c-5.607,3.45-0.431,12.076,5.175,8.626
			c40.11-24.583,88.846-47.874,136.719-48.305c48.736-0.431,98.333,24.583,139.306,49.167c0-3.019,0-5.606,0-8.625
			c-17.251,10.782-37.521,16.389-56.93,20.702c-26.309,6.038-53.48,9.488-80.22,9.488c-26.309,0-52.186-3.881-77.632-9.488
			c-20.702-4.744-42.697-10.351-60.812-21.996C237.285,263.518,232.11,272.144,238.148,275.594z"/>
	</g>
</g>
<path fill="#FCF3E3" d="M460.262,240.66l1.294,6.9c0,6.901-8.625,8.195-18.977,8.195c-5.606,0-9.92-0.432-13.801-1.294
	c-0.433-0.431-1.294-0.431-1.727-0.431c-1.294,7.332-11.213,8.625-22.857,8.625c-6.47,0-12.076-0.431-16.389-1.725
	c-3.019-0.862-4.744-2.156-6.038-4.313c-3.019,5.176-11.645,6.038-21.996,6.038c-6.469,0-12.076-0.431-16.389-1.725
	c-4.313-1.294-7.332-4.313-7.332-8.625l0,0c-3.019,3.019-9.488,3.881-17.251,3.881c-5.607,0-9.92-0.431-13.801-1.294
	c-3.451-1.294-5.607-3.019-5.607-6.9l1.725-11.213c0,0,6.901-2.157,17.683-2.157c3.881,0,6.9-3.45,9.488-3.45
	c4.313,0,7.332,0.431,8.625,3.019c3.019-5.607,11.645-7.763,21.996-7.763c6.469,0,12.076,1.294,16.389,3.019
	c3.019,1.294,4.745,3.019,6.038,5.606c3.019-5.606,11.645-8.625,21.996-8.625c6.469,0,12.076,1.294,16.389,3.019
	c1.727,0.862,3.45,2.156,4.744,3.45c3.021-2.156,9.488-0.863,17.252-0.863c3.882,0,8.194,3.882,11.214,3.882
	C458.969,234.622,460.262,236.347,460.262,240.66z"/>
<g>
	<path fill="#FCF3E3" d="M468.025,243.679c-56.932-25.015-117.742-25.446-176.397,0"/>
	<g>
		<path d="M469.751,241.091c-58.656-25.015-121.193-25.015-179.417,0c-4.313,1.725-0.431,7.763,3.882,6.038
			c56.067-23.721,116.448-23.721,172.517,0C470.613,248.854,474.063,242.816,469.751,241.091L469.751,241.091z"/>
	</g>
</g>
<g>
	<path fill="#CC3333" d="M326.563,216.938c34.935,25.446,72.456,25.446,107.822,0"/>
	<g>
		<path d="M324.837,219.958c36.228,24.583,75.476,24.583,111.704,0c3.882-2.587,0.432-8.625-3.882-6.038
			c-34.071,23.29-70.3,23.721-104.372,0C324.406,211.332,320.956,217.37,324.837,219.958L324.837,219.958z"/>
	</g>
</g>
</svg>
