<?xml version="1.0" encoding="utf-8"?>
<!-- Generator: Adobe Illustrator 16.0.0, SVG Export Plug-In . SVG Version: 6.00 Build 0)  -->
<!DOCTYPE svg PUBLIC "-//W3C//DTD SVG 1.1//EN" "http://www.w3.org/Graphics/SVG/1.1/DTD/svg11.dtd">
<svg version="1.1" id="Layer_1" xmlns="http://www.w3.org/2000/svg" xmlns:xlink="http://www.w3.org/1999/xlink" x="0px" y="0px"
	 width="576px" height="576px" viewBox="0 0 576 576" enable-background="new 0 0 576 576" xml:space="preserve">
<g>
	<polygon fill="#39B54A" points="294.521,78.595 149.517,223.992 104.785,223.992 104.785,352.379 149.427,352.379 294.491,483.854 
			"/>
	<g>
		<path d="M290.81,74.882c-34.535,34.628-69.07,69.257-103.604,103.885c-13.8,13.838-27.6,27.675-41.4,41.513
			c1.237-0.513,2.475-1.025,3.712-1.538c-14.911,0-29.822,0-44.732,0c-2.862,0-5.25,2.388-5.25,5.25c0,42.795,0,85.591,0,128.387
			c0,2.862,2.388,5.25,5.25,5.25c14.881,0,29.761,0,44.642,0c-1.237-0.513-2.475-1.025-3.712-1.538
			c36.687,33.25,73.373,66.5,110.059,99.75c11.668,10.575,23.337,21.15,35.006,31.726c3.324,3.014,8.962,1.036,8.962-3.712
			c0.003-34.235,0.005-68.47,0.008-102.705c0.005-64.239,0.01-128.478,0.015-192.717c0.002-36.543,0.005-73.086,0.008-109.629
			c0-0.069,0-0.139,0-0.208c0.001-6.771-10.499-6.771-10.5,0c-0.003,34.235-0.005,68.47-0.008,102.705
			c-0.005,64.239-0.01,128.478-0.015,192.717c-0.002,36.543-0.005,73.086-0.008,109.629c0,0.07,0,0.14,0,0.209
			c2.987-1.237,5.975-2.475,8.962-3.712c-36.686-33.25-73.373-66.5-110.059-99.75c-11.434-10.362-22.867-20.725-34.3-31.087
			c-4.485-4.064-13.811-2.177-19.368-2.177c-9.897,0-19.794,0-29.692,0c1.75,1.75,3.5,3.5,5.25,5.25c0-42.796,0-85.591,0-128.387
			c-1.75,1.75-3.5,3.5-5.25,5.25c12.33,0,24.659,0,36.989,0c3.302,0,8.939,0.986,11.528-1.61c1.173-1.176,2.346-2.353,3.52-3.529
			c17.041-17.087,34.083-34.175,51.124-51.263c30.096-30.178,60.193-60.355,90.289-90.533
			C303.019,77.509,295.595,70.084,290.81,74.882z"/>
	</g>
</g>
<g>
	<g>
		<path d="M320.594,230.553c5.693,4.372,9.106,11.96,11.559,18.478c3.651,9.704,5.589,20.06,6.311,30.377
			c1.227,17.531-0.627,41.636-15.872,53.305c-5.299,4.056-0.079,13.184,5.299,9.066c18.715-14.324,22.407-40.271,21.073-62.371
			c-1.193-19.786-6.402-45.125-23.07-57.922C320.521,217.362,315.302,226.49,320.594,230.553L320.594,230.553z"/>
	</g>
</g>
<g>
	<g>
		<path d="M363.952,184.579c10.91,8.252,17.604,22.085,22.417,34.51c6.651,17.166,10.397,35.52,12.021,53.822
			c2.988,33.672-0.063,75.747-25.391,101.052c-1.688,1.687-3.497,3.287-5.401,4.725c-5.332,4.025-0.109,13.149,5.299,9.066
			c29.12-21.985,36.732-61.71,36.81-96.171c0.043-19.198-2.522-38.542-7.382-57.107c-4.12-15.747-10.164-31.646-19.664-44.977
			c-3.809-5.344-8.177-10.028-13.41-13.986C363.847,171.425,358.625,180.55,363.952,184.579L363.952,184.579z"/>
	</g>
</g>
<g>
	<g>
		<path d="M413.428,117.843c23.059,17.315,35.543,47.904,44.047,74.432c11.593,36.161,16.66,74.541,16.018,112.462
			c-0.835,49.249-12.053,109.206-54.021,140.687c-5.347,4.011-0.123,13.134,5.299,9.066c27.575-20.684,43.055-52.527,51.241-85.337
			c9.292-37.236,9.896-76.655,5.381-114.613c-3.551-29.858-10.373-59.572-21.971-87.374c-9.128-21.881-21.406-43.905-40.695-58.39
			C413.307,104.707,408.083,113.83,413.428,117.843L413.428,117.843z"/>
	</g>
</g>
</svg>
