<?xml version="1.0" encoding="utf-8"?>
<!-- Generator: Adobe Illustrator 16.0.0, SVG Export Plug-In . SVG Version: 6.00 Build 0)  -->
<!DOCTYPE svg PUBLIC "-//W3C//DTD SVG 1.1//EN" "http://www.w3.org/Graphics/SVG/1.1/DTD/svg11.dtd">
<svg version="1.1" id="Layer_1" xmlns="http://www.w3.org/2000/svg" xmlns:xlink="http://www.w3.org/1999/xlink" x="0px" y="0px"
	 width="612px" height="612px" viewBox="0 0 612 612" enable-background="new 0 0 612 612" xml:space="preserve">
<rect x="38.487" y="38.635" opacity="0.4" fill="#5A5A5B" enable-background="new    " width="572.365" height="572.365"/>
<rect y="1" fill="#FCF3E3" width="572.365" height="572.365"/>
<g>
	<g>
		<path fill="#010101" d="M151.853,495.931c1.278,0,2.131,0,3.835,0c4.688,0,4.688-7.245,0-7.245c-1.278,0-2.131,0-3.835,0
			C147.165,489.111,147.165,495.931,151.853,495.931L151.853,495.931z"/>
	</g>
</g>
<g>
	<g>
		<path fill="#010101" d="M463.819,495.931c1.276,0,2.131,0,3.835,0c4.688,0,4.688-7.245,0-7.245c-1.278,0-2.131,0-3.835,0
			C459.557,489.111,459.557,495.931,463.819,495.931L463.819,495.931z"/>
	</g>
</g>
<rect x="141.624" y="472.916" fill="none" width="317.933" height="80.976"/>
<g>
	<path d="M241.656,482.791l-7.523,29.709h-9.794l-12.389-43.266h10.313l7.59,31.266l8.236-31.266h7.202l8.173,31.266l7.523-31.266
		h10.378L259.041,512.5h-9.795L241.656,482.791z"/>
	<path d="M291.699,497.125h-6.744V512.5h-9.211v-43.266h20.238c9.016,0,14.53,5.904,14.53,13.947c0,7.654-4.802,11.742-9.47,12.846
		l9.728,16.473h-10.572L291.699,497.125z M294.62,477.346h-9.665v11.674h9.665c3.697,0,6.485-2.203,6.485-5.838
		C301.105,479.549,298.317,477.346,294.62,477.346z"/>
	<path d="M317.473,469.234h9.212V512.5h-9.212V469.234z"/>
	<path d="M345.244,477.346h-12.649v-8.111h34.507v8.111h-12.583V512.5h-9.274V477.346z"/>
	<path d="M373.024,469.234h30.617v8.111h-21.406v9.143h20.952v8.107h-20.952v9.797h21.406v8.107h-30.617V469.234z"/>
</g>
<g>
	<polyline fill="#FCF3E3" points="205.912,233.636 304.058,76.013 402.202,233.636 	"/>
	<g>
		<path d="M210.445,236.286c26.332-42.289,52.663-84.578,78.995-126.868c6.383-10.252,12.767-20.504,19.15-30.756
			c-3.022,0-6.044,0-9.066,0c26.331,42.289,52.663,84.578,78.994,126.867c6.384,10.252,12.767,20.504,19.15,30.756
			c3.569,5.733,12.656,0.466,9.066-5.3c-26.331-42.289-52.663-84.578-78.994-126.867c-6.384-10.252-12.767-20.504-19.15-30.756
			c-2.112-3.392-6.955-3.392-9.066,0c-26.332,42.289-52.663,84.579-78.995,126.868c-6.383,10.252-12.767,20.504-19.15,30.756
			C197.789,236.752,206.875,242.019,210.445,236.286L210.445,236.286z"/>
	</g>
</g>
<g>
	<polyline fill="#69C9CA" points="402.202,408.659 402.202,234.958 377.011,261.934 340.66,223.599 304.31,263.255 265.974,222.276 
		234.25,264.577 205.912,234.958 205.914,406.016 	"/>
	<g>
		<path d="M407.452,408.659c0-49.891,0-99.781,0-149.672c0-8.01,0-16.02,0-24.029c0-4.464-5.792-7.107-8.962-3.712
			c-8.397,8.992-16.795,17.984-25.191,26.976c2.475,0,4.949,0,7.424,0c-12.116-12.778-24.233-25.557-36.351-38.335
			c-1.905-2.01-5.527-2.069-7.424,0c-12.117,13.219-24.234,26.438-36.351,39.657c2.475,0,4.95,0,7.424,0
			c-12.778-13.66-25.557-27.319-38.335-40.979c-2.52-2.694-6.304-1.526-8.246,1.063c-10.575,14.1-21.15,28.2-31.725,42.3
			c2.749-0.354,5.497-0.708,8.246-1.063c-9.446-9.873-18.892-19.746-28.337-29.619c-3.196-3.34-8.962-0.792-8.962,3.712
			c0,49.849,0.001,99.698,0.001,149.547c0,7.17,0,14.341,0,21.511c0,6.771,10.5,6.771,10.5,0c0-49.849-0.001-99.698-0.001-149.547
			c0-7.17,0-14.34,0-21.511c-2.987,1.237-5.975,2.475-8.962,3.712c9.446,9.873,18.892,19.746,28.337,29.619
			c2.548,2.663,6.285,1.551,8.246-1.063c10.575-14.1,21.15-28.2,31.725-42.3c-2.749,0.354-5.497,0.708-8.246,1.063
			c12.778,13.66,25.557,27.319,38.335,40.979c1.893,2.023,5.538,2.059,7.424,0c12.117-13.219,24.234-26.438,36.351-39.657
			c-2.475,0-4.949,0-7.424,0c12.116,12.778,24.233,25.557,36.351,38.335c1.919,2.024,5.509,2.051,7.424,0
			c8.397-8.992,16.795-17.984,25.191-26.976c-2.987-1.237-5.975-2.475-8.962-3.712c0,49.891,0,99.781,0,149.672
			c0,8.01,0,16.02,0,24.029C396.952,415.431,407.452,415.431,407.452,408.659L407.452,408.659z"/>
	</g>
</g>
<polygon points="276.549,121.815 334.711,121.817 303.092,76.979 "/>
<g>
	<g>
		<path d="M266.755,278.579c0,42.479,0,84.958,0.001,127.437c0,6.771,10.5,6.771,10.5,0c0-42.479,0-84.958-0.001-127.437
			C277.255,271.808,266.755,271.808,266.755,278.579L266.755,278.579z"/>
	</g>
</g>
<g>
	<g>
		<path d="M336.813,278.579c0.001,42.479,0.001,84.958,0.002,127.437c0,6.771,10.5,6.771,10.5,0
			c-0.001-42.479-0.001-84.958-0.002-127.437C347.313,271.808,336.813,271.808,336.813,278.579L336.813,278.579z"/>
	</g>
</g>
</svg>
