<?xml version="1.0" encoding="utf-8"?>
<!-- Generator: Adobe Illustrator 16.0.0, SVG Export Plug-In . SVG Version: 6.00 Build 0)  -->
<!DOCTYPE svg PUBLIC "-//W3C//DTD SVG 1.1//EN" "http://www.w3.org/Graphics/SVG/1.1/DTD/svg11.dtd">
<svg version="1.1" id="Layer_1" xmlns="http://www.w3.org/2000/svg" xmlns:xlink="http://www.w3.org/1999/xlink" x="0px" y="0px"
	 width="145.674px" height="189.194px" viewBox="0 0 145.674 189.194" enable-background="new 0 0 145.674 189.194"
	 xml:space="preserve">
<path fill="#FCF9CE" d="M143.137,108.837c0,51.656-31.089,78.227-69.439,78.227c-38.351,0-69.44-26.57-69.44-78.227
	C4.258,57.181,45.639,0,73.698,0C99.49,0,143.137,57.181,143.137,108.837z"/>
<path fill="#CECAAA" d="M29.968,171.99c16.151,17.504,81.929,30.989,106.367-25.71C158.5,94.861,120.747,37.75,123.942,44.327
	C154.085,106.386,124.828,200.362,29.968,171.99z"/>
<path fill="none" stroke="#A4A089" stroke-miterlimit="10" d="M38.154,119.411c-0.011-0.83-0.104-1.727-0.007-2.549
	c0.167-1.41,0.897-2.238,1.728-3.287c0.711-0.898,0.966-1.475,2.153-1.545c0.98-0.058,1.537,0.129,2.304,0.712
	c2.28-1.915,4.241-4.318,6.629-6.092c1.424-1.057,2.407-2.12,2.776-3.971c0.368-1.85-0.585-2.203-1.473-3.638
	c-0.533-0.857-1.1-2.064-0.215-2.799c0.993-0.828,2.31-0.731,3.487-0.739c0.524-0.003,1.27,0.216,1.763,0.073
	c0.686-0.2,0.971-1.05,1.465-1.5c0.558-0.507,1.239-0.772,1.74-1.368c0.405-0.48,0.703-1.051,1.11-1.537"/>
<path fill="none" stroke="#A4A089" stroke-miterlimit="10" d="M45.104,112.46c1.392-0.025,2.226,1.122,3.457,1.848
	c1.22,0.72,1.52,1.115,1.842,2.452c0.526-0.16,0.684-0.547,1.076-0.856c0.545-0.433,0.71-0.404,1.442-0.397
	c1.339,0.014,2.362,0.056,3.653,0.354c0.978,0.226,2.408,0.438,2.841,1.57c0.194,0.506-0.285,1.33,0.047,1.749
	c0.37,0.465,1.179,0.218,1.715,0.231"/>
<path fill="none" stroke="#A4A089" stroke-miterlimit="10" d="M44.67,111.157c-0.537-1.146-1.049-2.263-1.505-3.474
	c-0.73-1.938-1.787-1.753-3.699-1.75c-1.14,0.004-3.062,0.384-3.945-0.405c-0.616-0.552-0.369-1.107-0.398-1.998
	c-0.021-0.643-0.024-1.828-0.879-1.931"/>
<path fill="none" stroke="#A4A089" stroke-miterlimit="10" d="M42.498,110.722c-0.438,0.124-1.326-0.309-1.723-0.433
	c-0.792-0.251-1.304-0.425-2.141-0.431c-1.4-0.01-2.8-0.005-4.201-0.005c-1.512,0-3.024-0.001-4.537-0.003
	c-1.059-0.001-1.09,0.07-1.607-0.823c-0.439-0.759-0.398-1.394-0.628-2.183c-1.34-0.143-2.393,2.529-4.048,1.712
	c-0.611-0.3-0.559-1.227-0.772-1.756c-0.343-0.854-0.823-1.806-1.309-2.583c-2.518,0.156-4.749,1.043-6.96,2.214
	c-0.917,0.488-2.302,1.642-3.433,1.268c-1.442-0.475-2.007-2.895-2.352-4.119c-0.294-1.042-0.999-2.746-0.637-3.846
	c0.352-1.074,1.702-1.995,2.396-2.848c0.368-0.453,1.342-1.417,1.505-1.983c0.343-1.182-1.037-3.281-1.53-4.285
	c-0.532-1.087-1.207-2.112-1.557-3.279c-0.117-0.025-0.234-0.05-0.351-0.075"/>
<path fill="none" stroke="#A4A089" stroke-miterlimit="10" d="M45.104,108.115c-0.032-0.832,0.116-1.78-0.184-2.578
	c-0.236-0.627-0.748-1.136-1.052-1.732c-0.572-1.125-1.135-2.374-1.858-3.418c-0.674-0.976-1.738-1.29-2.553-2.058
	c-0.804-0.754-1.448-1.458-2.105-2.369c-0.544-0.753-0.439-0.49-0.476-1.375c-0.023-0.589-0.146-1.25-0.095-1.839
	c0.184-2.167,1.634-4.074,2.952-5.682c0.96-1.169,2.112-2.26,3.208-3.304c0.994-0.947,1.385-1.913,2.162-3.015"/>
<path fill="none" stroke="#A4A089" stroke-miterlimit="10" d="M49.014,109.853c2.347,0.913,5.898,0.81,8.044-0.421
	c1.233-0.706,2.654-1.278,4.077-0.826c1.536,0.488,3.177,2.266,4.359,3.333c1.708,1.544,2.696,3.34,5.026,1.271
	c0.612-0.546,0.938-1.358,1.747-1.611c1.014-0.319,2.578-0.002,3.639-0.022c5.864-0.116,11.67,1.594,17.472,2.283
	c1.532,0.184,3.078,0.242,4.453,0.991c0.935,0.51,1.78,1.092,2.769,1.514c0.734-1.834,1.737-3.784,2.699-5.505
	c0.701-1.252,1.259-2.842,2.172-3.953c0.303-0.367,1.081-0.764,1.272-1.116c0.123-0.228-0.053-0.689,0.056-0.925
	c0.157-0.348,0.753-0.548,1.04-0.799c0.622-0.548,1.112-1.268,1.764-1.793c0.887-0.716,1.827-1.375,2.72-2.085
	c0.769-0.611,1.169-1.389,1.863-2.078c0.827-0.821,1.698-1.36,1.756-2.589c0.041-0.854-0.025-1.751-0.027-2.611"/>
<path fill="none" stroke="#A4A089" stroke-miterlimit="10" d="M44.235,114.197c0.621,0.207,0.851,0.896,1.277,1.341
	c0.519,0.541,1.254,0.742,1.769,1.265c0.496,0.502,0.567,1.203,0.988,1.746c0.365,0.468,0.9,0.72,1.353,1.093
	c1.05,0.869,2.52,1.144,2.828,2.609c0.189,0.901,0.248,2.376-0.352,3.13c1.351,0.993,2.657,0.448,4.071,0.134
	c0.79-0.174,1.61-0.174,2.412-0.355c0.717-0.164,1.446-0.419,2.162-0.535"/>
<path fill="none" stroke="#A4A089" stroke-miterlimit="10" d="M46.407,111.157c1.246-0.002,2.23-0.194,3.315-0.814
	c0.917-0.524,1.721-1.347,2.812-1.713c0.437-0.148,0.708-0.005,1.12-0.21c0.396-0.199,1.026-0.884,1.327-1.21
	c0.716-0.776,1.334-1.41,2.217-2.046c1.729-1.247,4.002-1.978,5.927-2.882c2.094-0.984,4.168-2.022,6.296-2.933
	c0.631-0.271,2.236-1.238,2.992-1.28c0.59-0.032,0.708,0.213,1.319,0.384c2.181,0.611,4.763,0.882,6.895,1.844
	c0.301-1.466,1.331-2.64,1.967-3.967c0.275-0.573,0.517-1.327,1.144-1.609c0.494-0.222,1.072-0.02,1.585-0.268
	c1.109-0.534,1.679-0.991,3-1.114c1.112-0.105,2.12-0.346,3.264-0.429"/>
<path fill="none" stroke="#A4A089" stroke-miterlimit="10" d="M39.022,112.025c-0.962,0.326-1.889,0.733-2.781,1.218
	c-0.344,0.246-0.68,0.501-1.008,0.768c-0.842,0.365-1.816,0.115-2.679,0.433c-0.516,0.192-0.772,0.487-1.357,0.595
	c-0.426,0.078-0.9-0.046-1.314,0.106c-0.345,0.128-0.722,0.738-0.981,0.766c-0.468,0.047-1.512-0.559-1.903-0.821
	c-1.106-0.744-0.887-1.616-2.324-1.177c-3.944,1.21-7.331-1.888-11.282-1.886"/>
</svg>
