<?xml version="1.0" encoding="utf-8"?>
<!-- Generator: Adobe Illustrator 16.0.0, SVG Export Plug-In . SVG Version: 6.00 Build 0)  -->
<!DOCTYPE svg PUBLIC "-//W3C//DTD SVG 1.1//EN" "http://www.w3.org/Graphics/SVG/1.1/DTD/svg11.dtd">
<svg version="1.1" id="Layer_1" xmlns="http://www.w3.org/2000/svg" xmlns:xlink="http://www.w3.org/1999/xlink" x="0px" y="0px"
	 width="124.49px" height="58.163px" viewBox="0 0 124.49 58.163" enable-background="new 0 0 124.49 58.163" xml:space="preserve">
<path fill="#F7941E" d="M121.389,46.163c0,6.627-5.373,12-12,12H14c-6.627,0-12-5.373-12-12V15.062c0-6.627,5.373-12,12-12h95.389
	c6.627,0,12,5.373,12,12V46.163z"/>
<g>
	<path fill="#FFFFFF" d="M44.632,24.908h0.08c1.359-1.72,3.359-2.72,5.359-2.72c3.399,0,6.118,2.319,6.118,7.239v11.078h-3.559
		V29.387c0-2.64-1.36-4.359-3.52-4.359c-1.56,0-2.8,0.72-4.479,2.6v12.878h-3.56V22.548h3.56V24.908z"/>
	<path fill="#FFFFFF" d="M79.27,31.347c0,5.679-3.96,9.519-9.719,9.519c-5.519,0-9.479-3.999-9.479-9.519
		c0-5.159,4.119-9.158,9.479-9.158C75.19,22.188,79.27,26.028,79.27,31.347z M63.712,31.347c0,3.8,2.359,6.319,5.799,6.319
		c3.76,0,6.119-2.4,6.119-6.279c0-3.479-2.56-5.999-6.119-5.999C66.151,25.388,63.712,27.908,63.712,31.347z"/>
	<path fill="#FFFFFF" d="M86.271,38.466c0,1.32-1.08,2.399-2.399,2.399c-1.32,0-2.399-1.08-2.399-2.399s1.079-2.4,2.399-2.4
		C85.19,36.066,86.271,37.146,86.271,38.466z"/>
</g>
</svg>
