<?xml version="1.0" encoding="utf-8"?>
<!-- Generator: Adobe Illustrator 16.0.0, SVG Export Plug-In . SVG Version: 6.00 Build 0)  -->
<!DOCTYPE svg PUBLIC "-//W3C//DTD SVG 1.1//EN" "http://www.w3.org/Graphics/SVG/1.1/DTD/svg11.dtd">
<svg version="1.1" id="Layer_1" xmlns="http://www.w3.org/2000/svg" xmlns:xlink="http://www.w3.org/1999/xlink" x="0px" y="0px"
	 width="86.735px" height="123.469px" viewBox="0 0 86.735 123.469" enable-background="new 0 0 86.735 123.469"
	 xml:space="preserve">
<path fill="#EAE8C1" stroke="#BABABA" stroke-miterlimit="10" d="M32.724,34.5c0.5,12.5-42.881,29.628-30.5,58
	c12,27.5,22.5,31.5,45,31.5s54-46.5,29.5-69s-25-15-29.5-23.5s9.5-21,9.5-23c-8.5,5-15,18.5-15,18.5s4.5-11.5,3-22
	c0,0-3,14-4.5,15.5c0,0-3.5-6.5-7-13.5C33.224,7,39.224,23.5,32.724,34.5z"/>
<path fill="#BCBBAD" d="M25.724,120c-10.5-5.5-24-31.5-22.5-39.5c10,22,16,33,22.5,36c-5.5-8.5-14.5-15-13-38.5
	c2.5,13,9.5,37,17,39.5c-12.5-29.5-15-39.5-10-56.5c0,2.5-1.5,28,11.5,49.5c-1-19-9-25.5-0.5-49.5c0,12.5-2,41.5,7.5,50
	c0.5-11-3.5-29,3-47.5c1.5,13.5,4.5,45.5,4,50.5c5.5-6,16-40.5,10-58.5c6,18,3.5,51,0.5,56.5c6-4.5,10-19.5,10-30
	c1,12-2.5,25.5-4,31c7.5-6.5,24.5-27,16-49c4.5,7,9.5,25.5-3.5,40.5S53.224,125.5,25.724,120z"/>
<path fill="none" stroke="#BABABA" stroke-miterlimit="10" d="M45.224,27.5c2.123-1.321,4.094-3.736,6.004-5.488
	c2.463-2.258,4.65-3.195,7.495-4.518C62.805,15.596,69.727,13.703,69.224,8"/>
<path fill="none" stroke="#BABABA" stroke-miterlimit="10" d="M44.224,21.5c-0.771-6.745,4.64-7.739,7.5-12.5"/>
<path fill="none" stroke="#BABABA" stroke-miterlimit="10" d="M39.224,20.5c0.174-2.035-1.027-4.513-0.512-6.418
	c0.523-1.93,2.593-2.35,2.512-4.582"/>
<path fill="none" stroke="#BABABA" stroke-miterlimit="10" d="M33.724,32.5c0.714-6.377-0.307-12.354,0.122-18.678
	c0.253-3.738,0.898-6.22-1.047-9.068C31.873,3.397,30.146,2.629,29.224,1"/>
<path fill="none" stroke="#BABABA" stroke-miterlimit="10" d="M41.224,16.5c-3.971-3.61-4.237-7.462-2-12"/>
<path fill="none" stroke="#BABABA" stroke-miterlimit="10" d="M45.224,15.5c1.357-1.725,3.607-3.004,2.925-5.425
	c-6.907,0.29,2.936-7.956,3.575-9.075"/>
<path fill="none" stroke="#BABABA" stroke-miterlimit="10" d="M34.224,25c-0.733-4.208-0.774-14.539-7-13.5"/>
</svg>
