<?xml version="1.0" encoding="utf-8"?>
<!-- Generator: Adobe Illustrator 16.0.0, SVG Export Plug-In . SVG Version: 6.00 Build 0)  -->
<!DOCTYPE svg PUBLIC "-//W3C//DTD SVG 1.1//EN" "http://www.w3.org/Graphics/SVG/1.1/DTD/svg11.dtd">
<svg version="1.1" id="Layer_1" xmlns="http://www.w3.org/2000/svg" xmlns:xlink="http://www.w3.org/1999/xlink" x="0px" y="0px"
	 width="612px" height="612px" viewBox="0 0 612 612" enable-background="new 0 0 612 612" xml:space="preserve">
<rect x="141.624" y="472.916" fill="none" width="317.933" height="80.976"/>
<g>
	<g>
		<path fill="#E89B46" d="M330.363,498.414c0,0,52.27-16.759,84.301-38.604c44.809-30.563,48.385-91.646,48.847-113.451
			c0.854-40.285-9.454-113.451-72.482-130.784C288.692,187.432,372.12,43.823,343.634,41.886
			c-104.593-7.114-83.389,107.51-61.449,200.102c0,0-169.368,62.461-148.109,108.72c14.294,31.104,47.384,24.013,47.384,24.013
			c-51.883,6.682-44.12,70.907,21.156,67.374c-51.882,17.715-18.672,77.976,42.66,49.229c-60.544,18.506-37.475,52.019,11.03,48.06
			C294.91,536.23,313.81,513.716,330.363,498.414c9.933-9.182,21.375-23.297,14.182-30.727c-16.019-16.545-27.838-4.727-55.15,2.364
			c45.434-18.909,53.574-41.174,44.908-58.826c-7.091-14.444-49.635,5.515-74.846,14.706c63.029-35.19,74.221-50.177,63.291-68.281
			c-16.807-27.837-42.018,2.102-86.138,10.768c64.604-38.604,92.441-41.23,76.825-63.666c-17.079-24.537-70.905-1.575-70.905-1.575"
			/>
		<g>
			<path d="M331.858,503.838c13.427-4.316,26.592-9.522,39.563-15.039c21.578-9.174,44.258-19.728,60.997-36.555
				c26.703-26.845,35.521-66.806,36.655-103.448c1.066-34.474-4.871-71.829-24.441-100.91
				c-11.424-16.978-27.689-29.482-47.013-36.175c-8.877-3.075-17.457-5.299-25.569-10.243c-6.13-3.735-11.576-8.725-15.761-14.562
				c-17.004-23.713-13.297-56.658-8.759-83.704c2.123-12.652,5.01-25.178,6.867-37.874c1.166-7.973,3.098-18.615-2.608-25.367
				c-3.609-4.272-9.672-3.868-14.717-3.993c-9.518-0.235-19.186,0.723-28.384,3.216c-15.187,4.116-27.996,13.529-36.449,26.767
				c-8.753,13.707-11.938,30.377-13.185,46.342c-1.504,19.252,0.385,38.666,3.038,57.73c3.442,24.741,8.918,49.168,14.667,73.458
				c1.31-2.306,2.619-4.613,3.929-6.919c-17.498,6.46-34.686,13.901-51.602,21.739c-28.585,13.246-57.957,28.035-81.709,49.056
				c-11.881,10.515-25.964,27.346-18.955,44.332c8.797,21.32,32.022,33.165,54.532,28.454c7.258-1.519,3.975-11.809-2.991-10.848
				c-22.173,3.058-41.762,19.739-37.433,43.721c4.873,26.997,36.659,35.802,60.084,34.702c-0.499-3.683-0.997-7.366-1.495-11.049
				c-11.078,3.901-22.143,10.468-27.133,21.614c-4.173,9.319-3.134,19.841,2.428,28.367c15.67,24.021,49.337,19.796,71.7,9.528
				c5.845-2.684,1.676-12.157-4.334-10.281c-14.93,4.66-40.793,14.034-40.471,33.623c0.268,16.297,20.275,23.188,33.437,24.974
				c23.171,3.146,47.185-2.694,66.664-15.488c8.203-5.389,15.548-11.988,22.64-18.736c7.849-7.47,16.048-14.652,21.966-23.835
				c3.938-6.11,6.333-14.215,2.087-20.767c-3.675-5.671-10.976-10.091-17.495-11.466c-6.548-1.381-13.238,0.212-19.479,2.197
				c-8.443,2.685-16.651,5.943-25.229,8.227c0.997,3.616,1.994,7.231,2.991,10.848c23.85-10.057,62.366-31.509,49.782-63.634
				c-5.527-14.112-20.778-12.031-33.036-9.045c-17.083,4.163-33.219,11.672-49.676,17.711c1.445,3.427,2.89,6.854,4.334,10.281
				c19.795-11.077,40.897-22.384,57.414-38.208c8.114-7.774,14.473-17.98,11.516-29.555c-1.598-6.256-5.722-12.46-10.507-16.667
				c-6.399-5.628-14.341-6.583-22.474-5.244c-9.413,1.55-18.408,6.235-27.088,9.969c-11.672,5.021-23.565,9.371-36.042,11.91
				c1.445,3.427,2.89,6.854,4.334,10.281c20.808-12.395,42.579-22.936,63.583-34.946c8.763-5.011,21.72-12.641,20.148-24.606
				c-2.144-16.316-17.977-24.573-32.906-25.779c-15.449-1.248-31.72,3.173-46.077,8.56c-1.518,0.569-3.015,1.184-4.506,1.817
				c-6.659,2.826-0.919,12.514,5.678,9.714c-2.953,1.253,0.682-0.248,1.37-0.513c2.393-0.918,4.816-1.753,7.252-2.548
				c7.263-2.369,14.785-4.313,22.37-5.293c13.281-1.714,30.844-0.186,35.323,13.608c0.867,2.668,0.324,4.123-1.682,6.339
				c-3.827,4.227-9.253,7.071-14.32,9.938c-20.504,11.601-41.653,21.928-61.912,33.995c-5.671,3.379-1.793,11.528,4.334,10.281
				c11.153-2.269,21.831-5.98,32.327-10.331c8.314-3.446,16.463-7.404,25.059-10.121c5.768-1.822,11.692-2.792,16.98,0.706
				c4.307,2.849,7.04,8.53,8.03,12.408c0.617,2.415,0.236,5.571-0.983,8.132c-2.227,4.674-5.903,8.323-9.703,11.808
				c-15.477,14.19-35.009,24.453-53.197,34.631c-5.47,3.062-1.741,12.511,4.334,10.281c13.718-5.034,27.156-10.812,41.086-15.259
				c6.154-1.965,12.543-3.811,19.012-4.272c3.946-0.282,7.292-0.073,8.729,2.939c11.698,24.541-24.989,42.741-41.88,49.864
				c-6.463,2.726-4.246,12.774,2.991,10.848c11.056-2.942,21.624-8.027,32.849-10.251c6.374-1.263,19.309,2.697,16.875,10.957
				c-2.943,9.993-13.732,17.716-20.965,24.648c-6.917,6.63-13.955,13.095-21.917,18.464c-18.475,12.456-42.745,18.064-64.679,13.165
				c-6.056-1.354-13.524-3.995-17.077-9.221c-1.148-1.689-1.633-3.517-1.461-4.751c0.405-2.91,2.073-5.191,4.099-7.313
				c7.241-7.586,18.432-11.391,28.157-14.427c-1.444-3.427-2.889-6.854-4.334-10.281c-16.526,7.588-43.165,12.431-55.867-4.855
				c-4.084-5.56-4.967-11.91-2.595-18.274c3.055-8.2,12.459-13.113,20.136-15.817c5.717-2.014,5.17-11.361-1.495-11.049
				c-18.54,0.87-43.497-4.104-48.922-25.013c-4.726-18.214,13.491-29.137,29.262-31.313c-0.997-3.616-1.994-7.231-2.991-10.848
				c-0.237,0.05-0.477,0.09-0.716,0.131c-1.719,0.293,0.809-0.066-0.965,0.12c-2.704,0.284-5.43,0.293-8.142,0.146
				c-7.377-0.401-14.857-2.968-20.634-7.628c-3.937-3.176-6.868-7.183-9.286-11.587c-1.074-1.956-1.15-2.11-1.706-3.843
				c-0.404-1.257-0.585-2.545-0.598-2.688c-0.394-4.226,0.828-7.852,2.903-11.689c5.833-10.788,16.421-19.181,26.267-26.329
				c13.119-9.526,27.291-17.595,41.634-25.109c24.182-12.668,49.337-23.949,74.958-33.407c2.956-1.092,4.682-3.739,3.929-6.919
				c-9.239-39.038-18.663-79.252-17.729-119.624c0.365-15.778,2.662-32.207,10.304-46.237c7.145-13.117,19.132-21.447,33.458-25.115
				c9.332-2.389,19.082-2.607,28.652-2.091c3.433,0.185-0.311-0.387,1.61,0.23c-1.519-0.488-0.793-0.354-0.347-0.103
				c0.911,0.514-1.065-0.926-0.279-0.235c0.944,0.831-0.567-1.104,0.311,0.408c0.199,0.343,0.573,1.346-0.055-0.23
				c0.164,0.414,0.282,0.845,0.397,1.274c0.093,0.349,0.159,0.704,0.227,1.058c0.249,1.313-0.141-1.341,0.011,0.047
				c0.093,0.858,0.12,1.723,0.136,2.585c0.041,2.217-0.139,4.438-0.36,6.642c-0.465,4.629-1.483,10.106-2.48,15.431
				c-5.385,28.758-11.895,58.135-6.974,87.445c2.45,14.595,8.759,28.437,19.118,39.104c5.658,5.826,12.585,10.444,19.873,13.961
				c9.069,4.377,19.008,6.153,28.16,10.259c35.879,16.1,50.828,55.998,54.973,92.615c3.613,31.925,0.967,66.753-12.166,96.336
				c-4.361,9.826-10.086,19.056-17.227,27.1c-7.792,8.779-17.321,15.253-27.424,21.08c-18.989,10.953-39.471,19.389-60.061,26.812
				c-3.604,1.3-7.222,2.573-10.869,3.746C321.99,495.201,324.933,506.064,331.858,503.838L331.858,503.838z"/>
		</g>
	</g>
	<g>
		<path fill="#E89B46" d="M361.09,381.024c-17.333-28.363-23.636-88.24-4.728-97.694"/>
		<g>
			<path d="M365.947,378.186c-9.146-15.243-13.489-33.659-15.043-51.227c-0.723-8.18-0.811-16.628,0.731-24.72
				c0.988-5.186,2.792-11.496,7.565-14.052c6.397-3.425,0.716-13.137-5.678-9.714c-14.7,7.871-14.856,30.514-14.13,44.754
				c1.056,20.676,6.107,42.751,16.839,60.636C359.96,390.075,369.689,384.423,365.947,378.186L365.947,378.186z"/>
		</g>
	</g>
</g>
</svg>
