<?xml version="1.0" encoding="utf-8"?>
<!-- Generator: Adobe Illustrator 21.0.0, SVG Export Plug-In . SVG Version: 6.00 Build 0)  -->
<svg version="1.1" id="Layer_1" xmlns="http://www.w3.org/2000/svg" xmlns:xlink="http://www.w3.org/1999/xlink" x="0px" y="0px"
	 viewBox="0 0 225 402.7" style="enable-background:new 0 0 225 402.7;" xml:space="preserve">
<style type="text/css">
	.st0{fill:#E69A45;}
	.st1{fill:#010101;}
	.st2{fill:#3DB54A;}
	.st3{fill:#FFFFFF;}
	.st4{fill:none;stroke:#010101;stroke-width:2;stroke-miterlimit:10;}
	.st5{fill:#E6D365;}
	.st6{fill:#69C9CA;}
	.st7{fill:#74AD66;}
</style>
<rect class="st0" width="225" height="402.7"/>
<g>
	<path class="st1" d="M32.2,77.6c0,0.3-0.1,0.5-0.2,0.6c-0.2,0.1-0.3,0.2-0.5,0.2c-0.2,0-0.3-0.1-0.5-0.2c-0.2-0.1-0.2-0.3-0.3-0.6
		c-0.1-0.6-0.1-1.2-0.2-1.8c-0.1-0.6-0.2-1.3-0.3-2c-0.1-0.7-0.2-1.3-0.4-1.9c-0.1-0.6-0.3-1.2-0.4-1.8c-0.2,0.6-0.5,1.1-0.7,1.7
		c-0.2,0.6-0.5,1.2-0.7,1.8c-0.2,0.6-0.5,1.2-0.7,1.9c-0.2,0.6-0.5,1.2-0.7,1.8c-0.2,0.2-0.4,0.3-0.6,0.3c-0.2,0-0.4-0.1-0.6-0.3
		l-3.6-7c-0.1,0.6-0.1,1.2-0.2,1.8c-0.1,0.6-0.1,1.3-0.2,1.9c-0.1,0.7-0.1,1.3-0.2,1.9s-0.1,1.2-0.2,1.8c-0.1,0.2-0.2,0.4-0.3,0.5
		c-0.1,0.1-0.3,0.1-0.4,0.1c-0.2,0-0.3-0.1-0.5-0.2c-0.1-0.1-0.2-0.3-0.3-0.6c0.1-0.8,0.1-1.6,0.2-2.4c0.1-0.8,0.2-1.7,0.2-2.5
		c0.1-0.8,0.2-1.7,0.2-2.5c0.1-0.8,0.2-1.6,0.2-2.4c0-0.2,0.1-0.4,0.3-0.5c0.1-0.1,0.3-0.2,0.5-0.2c0.3,0,0.5,0.1,0.7,0.4
		c0.3,0.6,0.7,1.2,1,1.9c0.3,0.6,0.7,1.3,1,2c0.3,0.7,0.7,1.3,1,2c0.3,0.6,0.7,1.3,1,1.9c0.2-0.6,0.5-1.2,0.7-1.9
		c0.2-0.6,0.5-1.3,0.7-2c0.2-0.7,0.5-1.3,0.7-2c0.2-0.7,0.5-1.3,0.8-1.9c0.1-0.2,0.2-0.3,0.3-0.3c0.1-0.1,0.2-0.1,0.4-0.1
		c0.1,0,0.3,0.1,0.4,0.2c0.1,0.1,0.2,0.3,0.3,0.5c0.2,0.8,0.4,1.5,0.6,2.4c0.2,0.8,0.4,1.6,0.6,2.5c0.2,0.8,0.3,1.7,0.5,2.5
		C32,76,32.1,76.8,32.2,77.6z"/>
	<path class="st1" d="M40.8,77.3C40.8,77.3,40.8,77.3,40.8,77.3c0.1,0.2,0.1,0.3,0,0.5c0,0.1-0.1,0.3-0.2,0.4
		c-0.1,0.1-0.2,0.1-0.4,0.2c-0.2,0-0.3,0-0.5-0.1c-0.1-0.1-0.2-0.2-0.3-0.4c-0.1-0.1-0.2-0.3-0.3-0.4c-0.2,0.2-0.5,0.4-0.8,0.6
		s-0.6,0.3-0.8,0.3c-0.5,0-1,0-1.4,0c-0.5,0-0.9-0.2-1.3-0.5c-0.3-0.3-0.6-0.6-0.8-0.9c-0.2-0.3-0.3-0.7-0.4-1.1
		c-0.1-0.4-0.1-0.8,0-1.2c0.1-0.4,0.2-0.8,0.3-1.2c0.1-0.2,0.1-0.3,0.2-0.5c0.1-0.2,0.2-0.3,0.3-0.5c0.1-0.2,0.3-0.5,0.5-0.7
		c0.2-0.2,0.4-0.4,0.6-0.6c0.2-0.1,0.3-0.2,0.5-0.3c0.2-0.1,0.3-0.2,0.5-0.3c0.1-0.1,0.3-0.1,0.5-0.2c0.2-0.1,0.5-0.1,0.7-0.2
		s0.5-0.1,0.8-0.1s0.5,0,0.7,0.1c0.2,0,0.3,0,0.5,0.1c0.2,0.1,0.3,0.3,0.4,0.5c0,0.8,0,1.6,0,2.5c0,0.8,0,1.7,0.2,2.5
		c0,0.1,0.1,0.2,0.1,0.4c0.1,0.2,0.2,0.3,0.3,0.4c0.1,0.1,0.2,0.3,0.2,0.4C40.7,77.2,40.8,77.3,40.8,77.3z M38.5,76.1
		C38.5,76.1,38.5,76.1,38.5,76.1c0.1,0,0.1-0.1,0.1-0.1c-0.2-0.7-0.2-1.5-0.2-2.3c0-0.8,0-1.5,0-2.1c-0.1,0-0.2,0-0.4,0
		c-0.1,0-0.3,0.1-0.4,0.1c-0.1,0-0.2,0.1-0.3,0.1c-0.1,0-0.2,0.1-0.2,0.1c-0.4,0.2-0.7,0.4-0.9,0.7c-0.3,0.3-0.5,0.6-0.6,0.9
		c-0.2,0.3-0.3,0.7-0.4,1c-0.1,0.4-0.1,0.7-0.1,1.1c0,0.1,0.1,0.2,0.1,0.3c0,0.1,0.1,0.2,0.1,0.3c0.1,0.1,0.1,0.1,0.2,0.2
		c0.1,0.1,0.1,0.1,0.2,0.2c0.1,0,0.2,0.1,0.3,0.1c0.1,0,0.2,0.1,0.3,0.1c0.2,0,0.4,0,0.6,0c0.2,0,0.4,0,0.6-0.1
		c0.2-0.1,0.4-0.2,0.5-0.4S38.3,76.2,38.5,76.1z"/>
	<path class="st1" d="M41.8,71.5c-0.1-0.1-0.2-0.3-0.2-0.5c0-0.2,0.1-0.3,0.2-0.5c0.1-0.2,0.3-0.2,0.6-0.2h1v-2.9
		c0.1-0.2,0.2-0.4,0.3-0.5c0.1-0.1,0.3-0.2,0.5-0.2c0.2,0,0.3,0.1,0.4,0.2c0.1,0.1,0.2,0.3,0.3,0.5v2.9h1.7c0.2,0.1,0.4,0.2,0.5,0.3
		c0.1,0.1,0.2,0.3,0.2,0.4c0,0.2-0.1,0.3-0.2,0.5s-0.3,0.2-0.5,0.3h-1.7c0,0.9,0,1.9,0,2.9c0,1,0,1.9,0,2.9c0,0.3-0.1,0.5-0.2,0.6
		c-0.2,0.1-0.3,0.2-0.5,0.2c-0.2,0-0.3-0.1-0.5-0.2c-0.1-0.1-0.2-0.3-0.3-0.6c0-0.9,0-1.9,0-2.9c0-1,0-2,0-2.9h-1.1
		C42.1,71.7,41.9,71.6,41.8,71.5z"/>
	<path class="st1" d="M52.9,76.2c0.2-0.2,0.4-0.2,0.6-0.2c0.2,0,0.4,0.1,0.5,0.2c0.1,0.1,0.2,0.3,0.2,0.5c0,0.2-0.1,0.4-0.2,0.6
		c-0.4,0.4-0.9,0.7-1.4,0.9c-0.5,0.2-1.1,0.2-1.6,0.2c-0.5-0.1-1-0.3-1.5-0.6c-0.4-0.3-0.8-0.8-1-1.4c-0.1-0.3-0.2-0.7-0.3-1
		s-0.1-0.7-0.1-1.1c0-0.6,0.2-1.2,0.4-1.7c0.2-0.6,0.6-1.1,1-1.5c0.4-0.4,0.9-0.8,1.4-0.9c0.5-0.2,1.1-0.2,1.8,0
		c0.3,0.1,0.6,0.2,0.9,0.4c0.3,0.2,0.5,0.4,0.8,0.6c0.1,0.2,0.2,0.4,0.2,0.6s-0.1,0.3-0.2,0.4c-0.1,0.1-0.2,0.2-0.4,0.2
		c-0.2,0-0.4,0-0.6-0.1c-0.4-0.4-0.8-0.6-1.2-0.7c-0.4-0.1-0.7,0-1,0.1c-0.3,0.1-0.6,0.4-0.8,0.7s-0.4,0.7-0.6,1.1
		c-0.1,0.4-0.2,0.8-0.2,1.3s0.1,0.8,0.3,1.2c0.1,0.3,0.3,0.6,0.6,0.8c0.2,0.2,0.5,0.3,0.8,0.3c0.3,0,0.6,0,0.9-0.1
		C52.4,76.6,52.7,76.4,52.9,76.2z"/>
	<path class="st1" d="M57.7,78.2c-0.1,0.1-0.3,0.2-0.5,0.2c-0.2,0-0.3-0.1-0.5-0.2c-0.2-0.1-0.2-0.3-0.3-0.6v-10
		c0-0.2,0.1-0.4,0.3-0.5c0.1-0.1,0.3-0.2,0.4-0.2c0.2,0,0.3,0,0.4,0.2c0.1,0.1,0.3,0.3,0.3,0.5v4.2c0.2-0.2,0.3-0.3,0.5-0.4
		c0.2-0.2,0.5-0.3,0.7-0.4c0.2-0.1,0.5-0.2,0.7-0.2c0.2-0.1,0.4-0.1,0.7,0c0.2,0,0.4,0.1,0.7,0.1c0.4,0.1,0.7,0.3,0.9,0.5
		s0.5,0.5,0.7,0.8c0.2,0.3,0.3,0.7,0.4,1c0.1,0.4,0.1,0.7,0.1,1c0,0.6,0,1.1,0,1.7c0,0.6,0,1.1,0,1.7c0,0.3-0.1,0.5-0.2,0.6
		c-0.1,0.1-0.3,0.2-0.5,0.2c-0.2,0-0.3-0.1-0.5-0.2c-0.2-0.1-0.2-0.3-0.3-0.6c0-0.6,0-1.1,0-1.7s0-1.1,0-1.7c0-0.4-0.1-0.8-0.2-1.2
		c-0.2-0.4-0.4-0.6-0.8-0.9c-0.3-0.1-0.6-0.1-0.8,0c-0.3,0.1-0.5,0.2-0.7,0.4c-0.2,0.2-0.4,0.4-0.6,0.6c-0.2,0.2-0.4,0.5-0.5,0.7
		c0,0-0.1,0.1-0.1,0.1c0,0-0.1,0.1-0.1,0.1v3.5C57.9,77.8,57.8,78,57.7,78.2z"/>
	<path class="st1" d="M72,71.5c-0.1-0.1-0.2-0.3-0.2-0.5c0-0.2,0.1-0.3,0.2-0.5c0.1-0.2,0.3-0.2,0.6-0.2h1v-2.9
		c0.1-0.2,0.2-0.4,0.3-0.5c0.1-0.1,0.3-0.2,0.5-0.2c0.2,0,0.3,0.1,0.4,0.2c0.1,0.1,0.2,0.3,0.3,0.5v2.9h1.7c0.2,0.1,0.4,0.2,0.5,0.3
		c0.1,0.1,0.2,0.3,0.2,0.4c0,0.2-0.1,0.3-0.2,0.5s-0.3,0.2-0.5,0.3h-1.7c0,0.9,0,1.9,0,2.9c0,1,0,1.9,0,2.9c0,0.3-0.1,0.5-0.2,0.6
		c-0.2,0.1-0.3,0.2-0.5,0.2c-0.2,0-0.3-0.1-0.5-0.2c-0.1-0.1-0.2-0.3-0.3-0.6c0-0.9,0-1.9,0-2.9c0-1,0-2,0-2.9h-1.1
		C72.3,71.7,72.1,71.6,72,71.5z"/>
	<path class="st1" d="M80.3,78.2c-0.1,0.1-0.3,0.2-0.5,0.2c-0.2,0-0.3-0.1-0.5-0.2c-0.2-0.1-0.2-0.3-0.3-0.6v-10
		c0-0.2,0.1-0.4,0.3-0.5c0.1-0.1,0.3-0.2,0.4-0.2c0.2,0,0.3,0,0.4,0.2c0.1,0.1,0.3,0.3,0.3,0.5v4.2c0.2-0.2,0.3-0.3,0.5-0.4
		c0.2-0.2,0.5-0.3,0.7-0.4c0.2-0.1,0.5-0.2,0.7-0.2c0.2-0.1,0.4-0.1,0.7,0c0.2,0,0.4,0.1,0.7,0.1c0.4,0.1,0.7,0.3,0.9,0.5
		s0.5,0.5,0.7,0.8c0.2,0.3,0.3,0.7,0.4,1c0.1,0.4,0.1,0.7,0.1,1c0,0.6,0,1.1,0,1.7c0,0.6,0,1.1,0,1.7c0,0.3-0.1,0.5-0.2,0.6
		c-0.1,0.1-0.3,0.2-0.5,0.2c-0.2,0-0.3-0.1-0.5-0.2s-0.2-0.3-0.3-0.6c0-0.6,0-1.1,0-1.7s0-1.1,0-1.7c0-0.4-0.1-0.8-0.2-1.2
		c-0.2-0.4-0.4-0.6-0.8-0.9c-0.3-0.1-0.6-0.1-0.8,0c-0.3,0.1-0.5,0.2-0.7,0.4c-0.2,0.2-0.4,0.4-0.6,0.6c-0.2,0.2-0.4,0.5-0.5,0.7
		c0,0-0.1,0.1-0.1,0.1c0,0-0.1,0.1-0.1,0.1v3.5C80.6,77.8,80.5,78,80.3,78.2z"/>
	<path class="st1" d="M93.9,76c0.3-0.1,0.5-0.1,0.7,0c0.2,0.1,0.3,0.2,0.4,0.3c0.1,0.2,0.1,0.3,0,0.5s-0.2,0.4-0.4,0.5
		c-0.4,0.2-0.8,0.4-1.3,0.6c-0.5,0.2-0.9,0.3-1.4,0.4c-0.5,0.1-0.9,0.1-1.4,0c-0.5-0.1-0.9-0.3-1.3-0.6c-0.5-0.3-0.9-0.8-1.2-1.4
		c-0.3-0.6-0.4-1.2-0.4-1.9c0-0.6,0.1-1.3,0.4-1.9c0.2-0.6,0.6-1.1,1.2-1.4c0.6-0.4,1.2-0.7,1.8-0.8c0.7-0.2,1.3-0.2,2-0.1
		c0.3,0.1,0.6,0.2,0.9,0.5c0.3,0.2,0.5,0.5,0.6,0.8c0.2,0.3,0.3,0.6,0.3,1c0,0.3-0.1,0.7-0.3,1c-0.2,0.3-0.5,0.6-0.9,0.9
		c-0.4,0.2-0.8,0.4-1.3,0.6c-0.5,0.2-0.9,0.3-1.4,0.4c-0.5,0.1-0.8,0.2-1.2,0.3c-0.1,0-0.3,0-0.4,0c0.2,0.4,0.4,0.7,0.8,0.9
		c0.4,0.2,0.8,0.4,1.3,0.3c0.4,0,0.8-0.1,1.3-0.4C93.2,76.4,93.6,76.2,93.9,76z M90.4,72.1c-0.4,0.2-0.8,0.6-1,1
		c-0.2,0.4-0.3,0.9-0.3,1.3c0.1-0.1,0.2-0.1,0.3-0.1c0.2-0.1,0.4-0.1,0.7-0.2c0.2-0.1,0.4-0.1,0.7-0.2c0.1,0,0.3-0.1,0.6-0.2
		c0.2-0.1,0.5-0.2,0.8-0.3c0.3-0.1,0.5-0.2,0.7-0.3c0.2-0.1,0.4-0.3,0.4-0.4c0-0.4-0.1-0.7-0.3-0.8c-0.2-0.1-0.5-0.2-0.8-0.2
		c-0.3,0-0.6,0.1-0.9,0.2C90.9,71.9,90.6,72,90.4,72.1z"/>
	<path class="st1" d="M102.2,76.8c-0.1-0.2-0.1-0.4-0.1-0.6c0-0.2,0.1-0.3,0.2-0.4c0.1-0.1,0.3-0.2,0.4-0.2c0.2,0,0.4,0.1,0.6,0.2
		c0.3,0.3,0.6,0.6,1,0.8s0.8,0.3,1.2,0.3l0.4-0.1c0.1-0.1,0.2-0.1,0.2-0.1c0,0,0.1,0,0.1-0.1c0,0,0,0,0.1-0.1c0,0,0.1-0.1,0.2-0.2
		c0,0,0-0.1,0.1-0.1c0,0,0-0.1,0.1-0.2c0-0.1,0-0.1,0-0.2c0,0,0-0.1,0-0.2l-0.1-0.3c0,0-0.1-0.1-0.1-0.1c0,0-0.1-0.1-0.1-0.1
		c-0.3-0.2-0.6-0.3-0.9-0.4c-0.3-0.1-0.6-0.2-0.9-0.3c-0.3-0.1-0.6-0.2-0.8-0.4c-0.3-0.1-0.5-0.4-0.8-0.7c-0.2-0.3-0.4-0.6-0.4-1
		c0-0.4,0-0.7,0.2-1.1c0.1-0.3,0.3-0.7,0.6-0.9c0.3-0.3,0.6-0.4,0.9-0.5c0.5-0.1,1-0.1,1.5,0c0.5,0.1,1,0.3,1.5,0.5
		c0.2,0.2,0.3,0.3,0.4,0.5c0,0.2,0,0.4-0.1,0.5c-0.1,0.1-0.2,0.2-0.4,0.3c-0.2,0.1-0.4,0-0.6-0.1c-0.3-0.2-0.6-0.3-0.9-0.3
		c-0.3,0-0.6,0-1,0c0,0-0.1,0-0.1,0.1c0,0-0.1,0-0.1,0.1c-0.1,0.1-0.2,0.3-0.3,0.4c-0.1,0.1-0.1,0.3-0.1,0.5c0,0,0,0.1,0.1,0.2
		c0,0,0.1,0.1,0.1,0.1c0,0,0.1,0.1,0.1,0.1c0.3,0.2,0.6,0.3,0.9,0.4c0.3,0.1,0.7,0.2,1,0.3c0.3,0.1,0.6,0.3,0.9,0.5
		c0.3,0.2,0.5,0.5,0.7,0.8c0.3,0.7,0.3,1.3,0.1,1.9c-0.2,0.6-0.6,1.1-1.2,1.5c-0.2,0.1-0.3,0.2-0.5,0.2c-0.2,0.1-0.4,0.1-0.5,0.1
		c-0.7,0-1.3-0.1-1.9-0.4C103.1,77.7,102.6,77.3,102.2,76.8z"/>
	<path class="st1" d="M109.5,73.7c0.1-0.4,0.3-0.8,0.5-1.1c0.2-0.4,0.4-0.7,0.7-1c0.3-0.3,0.6-0.6,0.9-0.8c0.3-0.2,0.7-0.4,1.1-0.5
		c0.7-0.2,1.3-0.1,1.8,0.2s0.9,0.6,1.3,1.1c0.3,0.5,0.5,1.1,0.6,1.7c0.1,0.6,0.1,1.2-0.1,1.8c-0.2,0.7-0.5,1.4-1,2
		c-0.5,0.6-1,1.1-1.7,1.3c-0.5,0.2-1,0.3-1.5,0.2c-0.5-0.1-0.9-0.2-1.3-0.5c-0.4-0.3-0.7-0.6-1-1c-0.3-0.4-0.4-0.9-0.5-1.4
		c-0.1-0.3-0.1-0.6-0.1-1c0-0.3,0.1-0.6,0.1-0.9L109.5,73.7z M110.9,74.1c0,0.3-0.1,0.5-0.1,0.7c0,0.2,0,0.4,0,0.7
		c0,0.3,0.1,0.6,0.3,0.9c0.2,0.3,0.4,0.5,0.6,0.6s0.5,0.2,0.8,0.2c0.3,0,0.6-0.1,0.9-0.3c0.4-0.2,0.7-0.6,0.9-0.9
		c0.2-0.4,0.4-0.8,0.5-1.2c0.1-0.4,0.1-0.7,0.1-1.2c-0.1-0.4-0.2-0.8-0.4-1.1c-0.2-0.3-0.5-0.5-0.8-0.7c-0.3-0.1-0.7-0.1-1.2,0.1
		c-0.5,0.2-0.9,0.5-1.1,0.9C111.2,73.2,111,73.6,110.9,74.1z"/>
	<path class="st1" d="M125.3,76.9c0.1,0.2,0.2,0.4,0.2,0.6s-0.1,0.4-0.2,0.5c-0.1,0.1-0.3,0.2-0.5,0.2c-0.3,0-0.5-0.1-0.7-0.4
		c-0.2-0.2-0.4-0.5-0.5-0.8c-0.3,0.3-0.7,0.6-1.1,0.9c-0.4,0.2-0.9,0.4-1.3,0.4c-0.3,0-0.6-0.1-0.9-0.2c-0.3-0.1-0.6-0.3-0.8-0.5
		c-0.3-0.2-0.5-0.4-0.7-0.7c-0.2-0.3-0.3-0.5-0.4-0.8c-0.1-0.3-0.2-0.7-0.2-1c0-0.4-0.1-0.8-0.1-1.2c0-0.5,0-1,0-1.4
		c0-0.5,0-0.9,0-1.2c0.1-0.2,0.2-0.4,0.3-0.5c0.1-0.1,0.3-0.2,0.5-0.2c0.2,0,0.3,0.1,0.4,0.2c0.1,0.1,0.2,0.3,0.3,0.5
		c0,0.6,0,1.1,0,1.6c0,0.5,0,1.1,0,1.7c0,0.7,0.1,1.2,0.4,1.7c0.3,0.4,0.7,0.7,1.2,0.7c0.2,0,0.4,0,0.5-0.1c0.2-0.1,0.3-0.2,0.5-0.3
		s0.3-0.3,0.4-0.4c0.1-0.2,0.3-0.3,0.4-0.5c0,0,0.1,0,0.1-0.1c0,0,0.1,0,0.1-0.1c-0.1-0.6-0.1-1.2-0.1-1.8c0-0.3,0-0.7,0-1.1
		c0-0.4,0-0.7,0.1-1c0.1-0.3,0.1-0.5,0.3-0.7c0.1-0.2,0.3-0.3,0.5-0.3c0.2,0,0.3,0.1,0.5,0.2c0.1,0.1,0.2,0.3,0.2,0.6
		c0,0.3,0,0.6-0.1,1c0,0.4-0.1,0.8-0.1,1.2c0,0.3,0,0.7,0,1c0,0.3,0.1,0.7,0.1,1c0.1,0.3,0.1,0.6,0.2,0.8
		C125,76.5,125.2,76.7,125.3,76.9z"/>
	<path class="st1" d="M133.3,78.2c-0.2,0.1-0.3,0.2-0.5,0.2c-0.2,0-0.3-0.1-0.5-0.2c-0.1-0.1-0.2-0.3-0.3-0.6c0-0.6,0-1.1,0-1.7
		c0-0.5,0-1.1,0-1.7c0-0.4,0-0.8,0-1.2c0-0.4,0-0.8-0.1-1.2c-0.1-0.2-0.2-0.3-0.3-0.3c-0.1,0-0.3-0.1-0.4-0.1
		c-0.4,0-0.8,0.1-1.2,0.3c-0.4,0.2-0.7,0.5-0.9,0.8c-0.1,0.2-0.2,0.4-0.3,0.5c-0.1,0.1-0.1,0.3-0.2,0.6c0,0.6,0,1.2,0,1.8
		s0,1.2,0,1.8c0,0.3-0.1,0.5-0.2,0.6c-0.2,0.1-0.3,0.2-0.5,0.2c-0.2,0-0.3-0.1-0.5-0.2c-0.1-0.1-0.2-0.3-0.3-0.6c0-0.6,0-1.1,0-1.7
		c0-0.5,0-1.1,0-1.6c0-0.5,0-1.1,0-1.6c0-0.5,0-1.1,0-1.7c0.1-0.2,0.2-0.4,0.3-0.5c0.1-0.1,0.3-0.2,0.5-0.2c0.2,0,0.3,0.1,0.4,0.2
		c0.1,0.1,0.2,0.3,0.3,0.5V71c0.3-0.3,0.7-0.5,1.2-0.7c0.4-0.2,0.9-0.3,1.3-0.3c0.4,0,0.9,0.1,1.3,0.3c0.4,0.2,0.7,0.5,0.9,1
		c0.1,0.2,0.1,0.4,0.2,0.6s0,0.5,0.1,0.7c0,0.3,0,0.5,0,0.8c0,0.3,0,0.5,0,0.8v2.1v1.2C133.6,77.8,133.5,78,133.3,78.2z"/>
	<path class="st1" d="M142.6,76.8c0.2,0.2,0.2,0.4,0.2,0.6s-0.1,0.4-0.2,0.5c-0.1,0.1-0.3,0.2-0.5,0.2c-0.2,0-0.4-0.1-0.6-0.3
		c-0.1-0.1-0.1-0.1-0.2-0.2c0-0.1-0.1-0.1-0.1-0.2c-0.4,0.3-0.8,0.6-1.3,0.7c-0.5,0.2-1,0.3-1.4,0.3s-1-0.1-1.4-0.3
		c-0.4-0.2-0.8-0.5-1.1-0.9c-0.2-0.3-0.4-0.7-0.5-1.1c-0.1-0.4-0.2-0.8-0.2-1.2c0-0.4,0.1-0.8,0.2-1.2c0.1-0.4,0.2-0.8,0.4-1.1
		c0.1-0.3,0.4-0.6,0.6-0.8c0.3-0.3,0.6-0.5,0.9-0.6c0.3-0.2,0.6-0.3,0.9-0.4c0.3-0.1,0.7-0.2,1-0.2c0.3,0,0.6,0,0.9,0
		c0.3,0,0.6,0.1,0.8,0.1c0-0.9,0-1.6,0-2.2c0-0.6,0-1,0-1.2c0-0.2,0.1-0.4,0.3-0.5c0.1-0.1,0.3-0.2,0.4-0.2c0.2,0,0.3,0,0.4,0.2
		c0.1,0.1,0.3,0.3,0.3,0.5v9.5C142.4,76.7,142.5,76.7,142.6,76.8C142.5,76.8,142.5,76.8,142.6,76.8z M141,75.5v-0.3
		c0-0.4,0-0.9,0-1.5s0-1,0-1.5l-0.1-0.1c0,0-0.1,0-0.1-0.1c0,0-0.1,0-0.1-0.1c-0.4-0.1-0.7-0.2-1.1-0.1c-0.4,0-0.8,0.1-1.1,0.2
		c-0.4,0.1-0.7,0.3-0.9,0.6c-0.3,0.3-0.5,0.6-0.6,1c-0.1,0.4-0.1,0.7-0.1,1c0,0.3,0.1,0.6,0.1,1c0,0.1,0.1,0.2,0.1,0.3
		c0,0.1,0.1,0.2,0.1,0.3l0.4,0.4c0.1,0,0.3,0.1,0.4,0.2c0.5,0,0.9,0,1.3-0.1c0.4-0.1,0.8-0.3,1.2-0.6c0,0,0-0.1,0.1-0.1
		c0,0,0.1-0.1,0.1-0.1c0,0,0.1-0.1,0.1-0.1c0,0,0.1-0.1,0.1-0.1L141,75.5z"/>
	<path class="st1" d="M156.7,70.4c0.1-0.2,0.2-0.3,0.3-0.4c0.1-0.1,0.2-0.1,0.4-0.1c0.2,0,0.4,0.1,0.5,0.2c0.1,0.2,0.2,0.4,0.2,0.7
		c-0.3,1-0.6,1.9-1,2.8c-0.4,0.9-0.8,1.8-1.3,2.7c-0.5,0.9-0.9,1.7-1.4,2.6c-0.5,0.9-1,1.7-1.5,2.6c-0.1,0.1-0.2,0.2-0.3,0.3
		s-0.2,0.1-0.3,0.1c-0.2,0-0.3-0.1-0.5-0.2c-0.1-0.1-0.2-0.3-0.2-0.6c0,0,0-0.1,0-0.1c0,0,0-0.1,0-0.1c0.4-0.7,0.8-1.5,1.2-2.2
		c0.4-0.7,0.8-1.4,1.2-2.2c-0.5-0.4-0.9-0.8-1.3-1.2c-0.4-0.4-0.7-0.8-1-1.3c-0.3-0.5-0.6-0.9-0.8-1.5c-0.2-0.5-0.4-1.1-0.6-1.7
		c0-0.3,0.1-0.6,0.2-0.7c0.1-0.2,0.3-0.2,0.5-0.2c0.2,0,0.3,0.1,0.4,0.2c0.1,0.1,0.2,0.3,0.3,0.5c0.1,0.5,0.3,1,0.5,1.4
		c0.2,0.4,0.4,0.8,0.7,1.2c0.2,0.4,0.5,0.7,0.8,1c0.3,0.3,0.6,0.7,1,1c0.4-0.8,0.8-1.6,1.1-2.4C156.2,72.1,156.5,71.2,156.7,70.4z"
		/>
	<path class="st1" d="M158.9,73.7c0.1-0.4,0.3-0.8,0.5-1.1c0.2-0.4,0.4-0.7,0.7-1c0.3-0.3,0.6-0.6,0.9-0.8c0.3-0.2,0.7-0.4,1.1-0.5
		c0.7-0.2,1.3-0.1,1.8,0.2s0.9,0.6,1.3,1.1c0.3,0.5,0.5,1.1,0.6,1.7c0.1,0.6,0.1,1.2-0.1,1.8c-0.2,0.7-0.5,1.4-1,2
		c-0.5,0.6-1,1.1-1.7,1.3c-0.5,0.2-1,0.3-1.5,0.2s-0.9-0.2-1.3-0.5c-0.4-0.3-0.7-0.6-1-1c-0.3-0.4-0.4-0.9-0.5-1.4
		c-0.1-0.3-0.1-0.6-0.1-1c0-0.3,0.1-0.6,0.1-0.9L158.9,73.7z M160.3,74.1c0,0.3-0.1,0.5-0.1,0.7c0,0.2,0,0.4,0,0.7
		c0,0.3,0.1,0.6,0.3,0.9c0.2,0.3,0.4,0.5,0.6,0.6s0.5,0.2,0.8,0.2c0.3,0,0.6-0.1,0.9-0.3c0.4-0.2,0.7-0.6,0.9-0.9
		c0.2-0.4,0.4-0.8,0.5-1.2c0.1-0.4,0.1-0.7,0.1-1.2c-0.1-0.4-0.2-0.8-0.4-1.1c-0.2-0.3-0.5-0.5-0.8-0.7c-0.3-0.1-0.7-0.1-1.2,0.1
		c-0.5,0.2-0.9,0.5-1.1,0.9C160.7,73.2,160.4,73.6,160.3,74.1z"/>
	<path class="st1" d="M174.7,76.9c0.1,0.2,0.2,0.4,0.2,0.6s-0.1,0.4-0.2,0.5c-0.1,0.1-0.3,0.2-0.5,0.2c-0.3,0-0.5-0.1-0.7-0.4
		c-0.2-0.2-0.4-0.5-0.5-0.8c-0.3,0.3-0.7,0.6-1.1,0.9c-0.4,0.2-0.9,0.4-1.3,0.4c-0.3,0-0.6-0.1-0.9-0.2c-0.3-0.1-0.6-0.3-0.8-0.5
		c-0.3-0.2-0.5-0.4-0.7-0.7c-0.2-0.3-0.3-0.5-0.4-0.8c-0.1-0.3-0.2-0.7-0.2-1c0-0.4-0.1-0.8-0.1-1.2c0-0.5,0-1,0-1.4
		c0-0.5,0-0.9,0-1.2c0.1-0.2,0.2-0.4,0.3-0.5c0.1-0.1,0.3-0.2,0.5-0.2c0.2,0,0.3,0.1,0.4,0.2c0.1,0.1,0.2,0.3,0.3,0.5
		c0,0.6,0,1.1,0,1.6c0,0.5,0,1.1,0,1.7c0,0.7,0.1,1.2,0.4,1.7c0.3,0.4,0.7,0.7,1.2,0.7c0.2,0,0.4,0,0.5-0.1c0.2-0.1,0.3-0.2,0.5-0.3
		c0.2-0.1,0.3-0.3,0.4-0.4c0.1-0.2,0.3-0.3,0.4-0.5c0,0,0.1,0,0.1-0.1c0,0,0.1,0,0.1-0.1c-0.1-0.6-0.1-1.2-0.1-1.8
		c0-0.3,0-0.7,0-1.1c0-0.4,0-0.7,0.1-1c0.1-0.3,0.1-0.5,0.3-0.7c0.1-0.2,0.3-0.3,0.5-0.3c0.2,0,0.3,0.1,0.5,0.2
		c0.1,0.1,0.2,0.3,0.2,0.6c0,0.3,0,0.6-0.1,1c0,0.4-0.1,0.8-0.1,1.2c0,0.3,0,0.7,0,1c0,0.3,0.1,0.7,0.1,1c0.1,0.3,0.1,0.6,0.2,0.8
		C174.5,76.5,174.6,76.7,174.7,76.9z"/>
	<path class="st1" d="M182.1,76.8c-0.1-0.2-0.1-0.4-0.1-0.6c0-0.2,0.1-0.3,0.2-0.4c0.1-0.1,0.3-0.2,0.4-0.2c0.2,0,0.4,0.1,0.6,0.2
		c0.3,0.3,0.6,0.6,1,0.8s0.8,0.3,1.2,0.3l0.4-0.1c0.1-0.1,0.2-0.1,0.2-0.1c0,0,0.1,0,0.1-0.1c0,0,0,0,0.1-0.1c0,0,0.1-0.1,0.2-0.2
		c0,0,0-0.1,0.1-0.1c0,0,0-0.1,0.1-0.2c0-0.1,0-0.1,0-0.2c0,0,0-0.1,0-0.2l-0.1-0.3c0,0-0.1-0.1-0.1-0.1c0,0-0.1-0.1-0.1-0.1
		c-0.3-0.2-0.6-0.3-0.9-0.4c-0.3-0.1-0.6-0.2-0.9-0.3c-0.3-0.1-0.6-0.2-0.8-0.4c-0.3-0.1-0.5-0.4-0.8-0.7c-0.2-0.3-0.4-0.6-0.4-1
		c0-0.4,0-0.7,0.2-1.1c0.1-0.3,0.3-0.7,0.6-0.9c0.3-0.3,0.6-0.4,0.9-0.5c0.5-0.1,1-0.1,1.5,0c0.5,0.1,1,0.3,1.5,0.5
		c0.2,0.2,0.3,0.3,0.4,0.5c0,0.2,0,0.4-0.1,0.5c-0.1,0.1-0.2,0.2-0.4,0.3s-0.4,0-0.6-0.1c-0.3-0.2-0.6-0.3-0.9-0.3c-0.3,0-0.6,0-1,0
		c0,0-0.1,0-0.1,0.1c0,0-0.1,0-0.1,0.1c-0.1,0.1-0.2,0.3-0.3,0.4c-0.1,0.1-0.1,0.3-0.1,0.5c0,0,0,0.1,0.1,0.2c0,0,0.1,0.1,0.1,0.1
		c0,0,0.1,0.1,0.1,0.1c0.3,0.2,0.6,0.3,0.9,0.4c0.3,0.1,0.7,0.2,1,0.3c0.3,0.1,0.6,0.3,0.9,0.5c0.3,0.2,0.5,0.5,0.7,0.8
		c0.3,0.7,0.3,1.3,0.1,1.9c-0.2,0.6-0.6,1.1-1.2,1.5c-0.2,0.1-0.3,0.2-0.5,0.2c-0.2,0.1-0.4,0.1-0.5,0.1c-0.7,0-1.3-0.1-1.9-0.4
		C183,77.7,182.4,77.3,182.1,76.8z"/>
	<path class="st1" d="M195.7,76c0.3-0.1,0.5-0.1,0.7,0c0.2,0.1,0.3,0.2,0.4,0.3c0.1,0.2,0.1,0.3,0,0.5s-0.2,0.4-0.4,0.5
		c-0.4,0.2-0.8,0.4-1.3,0.6c-0.5,0.2-0.9,0.3-1.4,0.4c-0.5,0.1-0.9,0.1-1.4,0c-0.5-0.1-0.9-0.3-1.3-0.6c-0.5-0.3-0.9-0.8-1.2-1.4
		c-0.3-0.6-0.4-1.2-0.4-1.9c0-0.6,0.1-1.3,0.4-1.9c0.2-0.6,0.6-1.1,1.2-1.4c0.6-0.4,1.2-0.7,1.8-0.8c0.7-0.2,1.3-0.2,2-0.1
		c0.3,0.1,0.6,0.2,0.9,0.5c0.3,0.2,0.5,0.5,0.6,0.8c0.2,0.3,0.3,0.6,0.3,1c0,0.3-0.1,0.7-0.3,1c-0.2,0.3-0.5,0.6-0.9,0.9
		c-0.4,0.2-0.8,0.4-1.3,0.6c-0.5,0.2-0.9,0.3-1.4,0.4c-0.5,0.1-0.8,0.2-1.2,0.3c-0.1,0-0.3,0-0.4,0c0.2,0.4,0.4,0.7,0.8,0.9
		c0.4,0.2,0.8,0.4,1.3,0.3c0.4,0,0.8-0.1,1.3-0.4C194.9,76.4,195.3,76.2,195.7,76z M192.1,72.1c-0.4,0.2-0.8,0.6-1,1
		s-0.3,0.9-0.3,1.3c0.1-0.1,0.2-0.1,0.3-0.1c0.2-0.1,0.4-0.1,0.7-0.2c0.2-0.1,0.4-0.1,0.7-0.2c0.1,0,0.3-0.1,0.6-0.2
		c0.2-0.1,0.5-0.2,0.8-0.3c0.3-0.1,0.5-0.2,0.7-0.3c0.2-0.1,0.4-0.3,0.4-0.4c0-0.4-0.1-0.7-0.3-0.8c-0.2-0.1-0.5-0.2-0.8-0.2
		s-0.6,0.1-0.9,0.2C192.6,71.9,192.3,72,192.1,72.1z"/>
	<path class="st1" d="M204.3,76c0.3-0.1,0.5-0.1,0.7,0c0.2,0.1,0.3,0.2,0.4,0.3c0.1,0.2,0.1,0.3,0,0.5s-0.2,0.4-0.4,0.5
		c-0.4,0.2-0.8,0.4-1.3,0.6c-0.5,0.2-0.9,0.3-1.4,0.4c-0.5,0.1-0.9,0.1-1.4,0c-0.5-0.1-0.9-0.3-1.3-0.6c-0.5-0.3-0.9-0.8-1.2-1.4
		c-0.3-0.6-0.4-1.2-0.4-1.9c0-0.6,0.1-1.3,0.4-1.9c0.2-0.6,0.6-1.1,1.2-1.4c0.6-0.4,1.2-0.7,1.8-0.8c0.7-0.2,1.3-0.2,2-0.1
		c0.3,0.1,0.6,0.2,0.9,0.5c0.3,0.2,0.5,0.5,0.6,0.8c0.2,0.3,0.3,0.6,0.3,1c0,0.3-0.1,0.7-0.3,1c-0.2,0.3-0.5,0.6-0.9,0.9
		c-0.4,0.2-0.8,0.4-1.3,0.6c-0.5,0.2-0.9,0.3-1.4,0.4c-0.5,0.1-0.8,0.2-1.2,0.3c-0.1,0-0.3,0-0.4,0c0.2,0.4,0.4,0.7,0.8,0.9
		c0.4,0.2,0.8,0.4,1.3,0.3c0.4,0,0.8-0.1,1.3-0.4C203.5,76.4,203.9,76.2,204.3,76z M200.7,72.1c-0.4,0.2-0.8,0.6-1,1
		s-0.3,0.9-0.3,1.3c0.1-0.1,0.2-0.1,0.3-0.1c0.2-0.1,0.4-0.1,0.7-0.2c0.2-0.1,0.4-0.1,0.7-0.2c0.1,0,0.3-0.1,0.6-0.2
		c0.2-0.1,0.5-0.2,0.8-0.3c0.3-0.1,0.5-0.2,0.7-0.3c0.2-0.1,0.4-0.3,0.4-0.4c0-0.4-0.1-0.7-0.3-0.8c-0.2-0.1-0.5-0.2-0.8-0.2
		s-0.6,0.1-0.9,0.2C201.2,71.9,201,72,200.7,72.1z"/>
	<path class="st1" d="M30.6,90.2c0.1-0.2,0.3-0.3,0.4-0.4c0.2-0.1,0.3-0.1,0.5,0c0.2,0,0.3,0.1,0.4,0.3c0.1,0.1,0.1,0.3,0.1,0.6
		c-0.3,1.2-0.7,2.3-1.1,3.5s-0.8,2.3-1.3,3.4c-0.2,0.2-0.4,0.3-0.6,0.3c-0.2,0-0.4-0.1-0.6-0.3c-0.3-0.7-0.7-1.4-0.9-2
		c-0.3-0.7-0.6-1.4-0.8-2.1c0-0.1-0.1-0.2-0.1-0.3c0-0.1-0.1-0.2-0.1-0.3c-0.2,0.4-0.3,0.8-0.5,1.1c-0.1,0.4-0.3,0.7-0.4,1.1
		c-0.1,0.4-0.3,0.8-0.5,1.2c-0.2,0.4-0.3,0.8-0.5,1.3c-0.2,0.3-0.5,0.4-0.7,0.3c-0.3,0-0.5-0.2-0.6-0.5c-0.3-0.7-0.5-1.3-0.7-2
		c-0.2-0.7-0.4-1.3-0.6-2c-0.1-0.5-0.3-0.9-0.4-1.4c-0.1-0.5-0.2-0.9-0.3-1.4c0-0.3,0-0.5,0.1-0.6c0.1-0.2,0.3-0.3,0.4-0.3
		c0.2,0,0.3,0,0.5,0.1c0.2,0.1,0.3,0.3,0.4,0.5c0.1,0.8,0.3,1.6,0.5,2.4c0.2,0.8,0.5,1.6,0.8,2.4c0.2-0.4,0.3-0.8,0.4-1.1
		c0.1-0.3,0.3-0.7,0.4-1c0.1-0.4,0.3-0.7,0.5-1.1c0.2-0.4,0.3-0.8,0.5-1.3c0.1-0.2,0.2-0.3,0.4-0.4c0.1-0.1,0.3-0.1,0.4-0.1
		c0.1,0,0.3,0.1,0.4,0.2c0.1,0.1,0.2,0.3,0.3,0.4c0.1,0.4,0.2,0.8,0.4,1.1c0.2,0.4,0.3,0.7,0.4,1.1c0.2,0.4,0.3,0.8,0.5,1.2
		c0.2,0.4,0.3,0.8,0.5,1.2c0.3-0.8,0.6-1.7,0.9-2.6C30,91.9,30.3,91,30.6,90.2z"/>
	<path class="st1" d="M33.8,87.3c0-0.3,0.1-0.5,0.3-0.7c0.2-0.2,0.4-0.3,0.6-0.3s0.4,0.1,0.6,0.3c0.2,0.2,0.3,0.4,0.3,0.7
		c0,0.3-0.1,0.5-0.3,0.7c-0.2,0.2-0.4,0.3-0.6,0.3s-0.4-0.1-0.6-0.3C33.9,87.8,33.8,87.6,33.8,87.3z M35.5,97.2
		c0,0.3-0.1,0.5-0.2,0.6c-0.2,0.1-0.3,0.2-0.5,0.2c-0.2,0-0.3-0.1-0.5-0.2c-0.1-0.1-0.2-0.3-0.3-0.6c0-1.1,0-2.3,0-3.5
		c0-1.2,0-2.3,0-3.5c0.1-0.2,0.2-0.4,0.3-0.5c0.1-0.1,0.3-0.2,0.5-0.2c0.2,0,0.3,0.1,0.4,0.2c0.1,0.1,0.2,0.3,0.3,0.5
		c0,1.1,0,2.3,0,3.5C35.5,94.9,35.5,96,35.5,97.2z"/>
	<path class="st1" d="M37.2,91.1C37.1,91,37,90.8,37,90.6c0-0.2,0.1-0.3,0.2-0.5c0.1-0.2,0.3-0.2,0.6-0.2h1V87
		c0.1-0.2,0.2-0.4,0.3-0.5s0.3-0.2,0.5-0.2c0.2,0,0.3,0.1,0.4,0.2s0.2,0.3,0.3,0.5v2.9h1.7c0.2,0.1,0.4,0.2,0.5,0.3
		c0.1,0.1,0.2,0.3,0.2,0.4c0,0.2-0.1,0.3-0.2,0.5c-0.1,0.1-0.3,0.2-0.5,0.3h-1.7c0,0.9,0,1.9,0,2.9c0,1,0,1.9,0,2.9
		c0,0.3-0.1,0.5-0.2,0.6c-0.2,0.1-0.3,0.2-0.5,0.2c-0.2,0-0.3-0.1-0.5-0.2c-0.1-0.1-0.2-0.3-0.3-0.6c0-0.9,0-1.9,0-2.9
		c0-1,0-2,0-2.9h-1.1C37.5,91.3,37.3,91.2,37.2,91.1z"/>
	<path class="st1" d="M45.6,97.8c-0.1,0.1-0.3,0.2-0.5,0.2c-0.2,0-0.3-0.1-0.5-0.2c-0.2-0.1-0.2-0.3-0.3-0.6v-10
		c0-0.2,0.1-0.4,0.3-0.5c0.1-0.1,0.3-0.2,0.4-0.2c0.2,0,0.3,0,0.4,0.2c0.1,0.1,0.3,0.3,0.3,0.5v4.2c0.2-0.2,0.3-0.3,0.5-0.4
		c0.2-0.2,0.5-0.3,0.7-0.4c0.2-0.1,0.5-0.2,0.7-0.2c0.2-0.1,0.4-0.1,0.7,0c0.2,0,0.4,0.1,0.7,0.1c0.4,0.1,0.7,0.3,0.9,0.5
		c0.3,0.2,0.5,0.5,0.7,0.8c0.2,0.3,0.3,0.7,0.4,1c0.1,0.4,0.1,0.7,0.1,1c0,0.6,0,1.1,0,1.7c0,0.6,0,1.1,0,1.7c0,0.3-0.1,0.5-0.2,0.6
		c-0.1,0.1-0.3,0.2-0.5,0.2c-0.2,0-0.3-0.1-0.5-0.2c-0.2-0.1-0.2-0.3-0.3-0.6c0-0.6,0-1.1,0-1.7s0-1.1,0-1.7c0-0.4-0.1-0.8-0.2-1.2
		c-0.2-0.4-0.4-0.6-0.8-0.9c-0.3-0.1-0.6-0.1-0.8,0c-0.3,0.1-0.5,0.2-0.7,0.4c-0.2,0.2-0.4,0.4-0.6,0.6c-0.2,0.2-0.4,0.5-0.5,0.7
		c0,0-0.1,0.1-0.1,0.1c0,0-0.1,0.1-0.1,0.1v3.5C45.8,97.4,45.7,97.6,45.6,97.8z"/>
	<path class="st1" d="M59.8,91.1c-0.1-0.1-0.2-0.3-0.2-0.5c0-0.2,0.1-0.3,0.2-0.5c0.1-0.2,0.3-0.2,0.6-0.2h1V87
		c0.1-0.2,0.2-0.4,0.3-0.5c0.1-0.1,0.3-0.2,0.5-0.2c0.2,0,0.3,0.1,0.4,0.2s0.2,0.3,0.3,0.5v2.9h1.7c0.2,0.1,0.4,0.2,0.5,0.3
		c0.1,0.1,0.2,0.3,0.2,0.4c0,0.2-0.1,0.3-0.2,0.5c-0.1,0.1-0.3,0.2-0.5,0.3H63c0,0.9,0,1.9,0,2.9c0,1,0,1.9,0,2.9
		c0,0.3-0.1,0.5-0.2,0.6c-0.2,0.1-0.3,0.2-0.5,0.2c-0.2,0-0.3-0.1-0.5-0.2c-0.1-0.1-0.2-0.3-0.3-0.6c0-0.9,0-1.9,0-2.9
		c0-1,0-2,0-2.9h-1.1C60.1,91.3,60,91.2,59.8,91.1z"/>
	<path class="st1" d="M68.2,97.8c-0.1,0.1-0.3,0.2-0.5,0.2s-0.3-0.1-0.5-0.2c-0.2-0.1-0.2-0.3-0.3-0.6v-10c0-0.2,0.1-0.4,0.3-0.5
		c0.1-0.1,0.3-0.2,0.4-0.2c0.2,0,0.3,0,0.4,0.2c0.1,0.1,0.3,0.3,0.3,0.5v4.2c0.2-0.2,0.3-0.3,0.5-0.4c0.2-0.2,0.5-0.3,0.7-0.4
		c0.2-0.1,0.5-0.2,0.7-0.2c0.2-0.1,0.4-0.1,0.7,0c0.2,0,0.4,0.1,0.7,0.1c0.4,0.1,0.7,0.3,0.9,0.5c0.3,0.2,0.5,0.5,0.7,0.8
		c0.2,0.3,0.3,0.7,0.4,1c0.1,0.4,0.1,0.7,0.1,1c0,0.6,0,1.1,0,1.7c0,0.6,0,1.1,0,1.7c0,0.3-0.1,0.5-0.2,0.6
		c-0.1,0.1-0.3,0.2-0.5,0.2c-0.2,0-0.3-0.1-0.5-0.2c-0.2-0.1-0.2-0.3-0.3-0.6c0-0.6,0-1.1,0-1.7s0-1.1,0-1.7c0-0.4-0.1-0.8-0.2-1.2
		c-0.2-0.4-0.4-0.6-0.8-0.9c-0.3-0.1-0.6-0.1-0.8,0c-0.3,0.1-0.5,0.2-0.7,0.4c-0.2,0.2-0.4,0.4-0.6,0.6c-0.2,0.2-0.4,0.5-0.5,0.7
		c0,0-0.1,0.1-0.1,0.1c0,0-0.1,0.1-0.1,0.1v3.5C68.4,97.4,68.3,97.6,68.2,97.8z"/>
	<path class="st1" d="M81.8,95.6c0.3-0.1,0.5-0.1,0.7,0c0.2,0.1,0.3,0.2,0.4,0.3c0.1,0.2,0.1,0.3,0,0.5c-0.1,0.2-0.2,0.4-0.4,0.5
		c-0.4,0.2-0.8,0.4-1.3,0.6c-0.5,0.2-0.9,0.3-1.4,0.4c-0.5,0.1-0.9,0.1-1.4,0c-0.5-0.1-0.9-0.3-1.3-0.6c-0.5-0.3-0.9-0.8-1.2-1.4
		c-0.3-0.6-0.4-1.2-0.4-1.9c0-0.6,0.1-1.3,0.4-1.9c0.2-0.6,0.6-1.1,1.2-1.4c0.6-0.4,1.2-0.7,1.8-0.8c0.7-0.2,1.3-0.2,2-0.1
		c0.3,0.1,0.6,0.2,0.9,0.5c0.3,0.2,0.5,0.5,0.6,0.8c0.2,0.3,0.3,0.6,0.3,1c0,0.3-0.1,0.7-0.3,1c-0.2,0.3-0.5,0.6-0.9,0.9
		c-0.4,0.2-0.8,0.4-1.3,0.6c-0.5,0.2-0.9,0.3-1.4,0.4c-0.5,0.1-0.8,0.2-1.2,0.3c-0.1,0-0.3,0-0.4,0c0.2,0.4,0.4,0.7,0.8,0.9
		c0.4,0.2,0.8,0.4,1.3,0.3c0.4,0,0.8-0.1,1.3-0.4C81.1,96,81.4,95.8,81.8,95.6z M78.3,91.8c-0.4,0.2-0.8,0.6-1,1
		C77.1,93.2,77,93.6,77,94c0.1-0.1,0.2-0.1,0.3-0.1c0.2-0.1,0.4-0.1,0.7-0.2s0.4-0.1,0.7-0.2c0.1,0,0.3-0.1,0.6-0.2
		c0.2-0.1,0.5-0.2,0.8-0.3c0.3-0.1,0.5-0.2,0.7-0.3c0.2-0.1,0.4-0.3,0.4-0.4c0-0.4-0.1-0.7-0.3-0.8c-0.2-0.1-0.5-0.2-0.8-0.2
		c-0.3,0-0.6,0.1-0.9,0.2C78.7,91.6,78.5,91.7,78.3,91.8z"/>
	<path class="st1" d="M90.1,96.4C90,96.2,89.9,96,90,95.8c0-0.2,0.1-0.3,0.2-0.4c0.1-0.1,0.3-0.2,0.4-0.2c0.2,0,0.4,0.1,0.6,0.2
		c0.3,0.3,0.6,0.6,1,0.8c0.4,0.2,0.8,0.3,1.2,0.3l0.4-0.1c0.1-0.1,0.2-0.1,0.2-0.1c0,0,0.1,0,0.1-0.1c0,0,0,0,0.1-0.1
		c0,0,0.1-0.1,0.2-0.2c0,0,0-0.1,0.1-0.1c0,0,0-0.1,0.1-0.2c0-0.1,0-0.1,0-0.2c0,0,0-0.1,0-0.2l-0.1-0.3c0,0-0.1-0.1-0.1-0.1
		c0,0-0.1-0.1-0.1-0.1c-0.3-0.2-0.6-0.3-0.9-0.4c-0.3-0.1-0.6-0.2-0.9-0.3c-0.3-0.1-0.6-0.2-0.8-0.4c-0.3-0.1-0.5-0.4-0.8-0.7
		c-0.2-0.3-0.4-0.6-0.4-1c0-0.4,0-0.7,0.2-1.1c0.1-0.3,0.3-0.7,0.6-0.9c0.3-0.3,0.6-0.4,0.9-0.5c0.5-0.1,1-0.1,1.5,0
		c0.5,0.1,1,0.3,1.5,0.5c0.2,0.2,0.3,0.3,0.4,0.5c0,0.2,0,0.4-0.1,0.5c-0.1,0.1-0.2,0.2-0.4,0.3c-0.2,0.1-0.4,0-0.6-0.1
		c-0.3-0.2-0.6-0.3-0.9-0.3c-0.3,0-0.6,0-1,0c0,0-0.1,0-0.1,0.1c0,0-0.1,0-0.1,0.1c-0.1,0.1-0.2,0.3-0.3,0.4
		c-0.1,0.1-0.1,0.3-0.1,0.5c0,0,0,0.1,0.1,0.2c0,0,0.1,0.1,0.1,0.1c0,0,0.1,0.1,0.1,0.1c0.3,0.2,0.6,0.3,0.9,0.4
		c0.3,0.1,0.7,0.2,1,0.3c0.3,0.1,0.6,0.3,0.9,0.5c0.3,0.2,0.5,0.5,0.7,0.8c0.3,0.7,0.3,1.3,0.1,1.9c-0.2,0.6-0.6,1.1-1.2,1.5
		c-0.2,0.1-0.3,0.2-0.5,0.2c-0.2,0.1-0.4,0.1-0.5,0.1c-0.7,0-1.3-0.1-1.9-0.4C91,97.4,90.5,96.9,90.1,96.4z"/>
	<path class="st1" d="M97.3,93.3c0.1-0.4,0.3-0.8,0.5-1.1c0.2-0.4,0.4-0.7,0.7-1c0.3-0.3,0.6-0.6,0.9-0.8c0.3-0.2,0.7-0.4,1.1-0.5
		c0.7-0.2,1.3-0.1,1.8,0.2c0.5,0.3,0.9,0.6,1.3,1.1s0.5,1.1,0.6,1.7s0.1,1.2-0.1,1.8c-0.2,0.7-0.5,1.4-1,2c-0.5,0.6-1,1.1-1.7,1.3
		c-0.5,0.2-1,0.3-1.5,0.2c-0.5-0.1-0.9-0.2-1.3-0.5c-0.4-0.3-0.7-0.6-1-1c-0.3-0.4-0.4-0.9-0.5-1.4c-0.1-0.3-0.1-0.6-0.1-1
		c0-0.3,0.1-0.6,0.1-0.9L97.3,93.3z M98.7,93.7c0,0.3-0.1,0.5-0.1,0.7c0,0.2,0,0.4,0,0.7c0,0.3,0.1,0.6,0.3,0.9
		c0.2,0.3,0.4,0.5,0.6,0.6s0.5,0.2,0.8,0.2c0.3,0,0.6-0.1,0.9-0.3c0.4-0.2,0.7-0.6,0.9-0.9c0.2-0.4,0.4-0.8,0.5-1.2
		c0.1-0.4,0.1-0.7,0.1-1.2c-0.1-0.4-0.2-0.8-0.4-1.1c-0.2-0.3-0.5-0.5-0.8-0.7c-0.3-0.1-0.7-0.1-1.2,0.1c-0.5,0.2-0.9,0.5-1.1,0.9
		C99.1,92.8,98.9,93.3,98.7,93.7z"/>
	<path class="st1" d="M113.2,96.5c0.1,0.2,0.2,0.4,0.2,0.6c0,0.2-0.1,0.4-0.2,0.5c-0.1,0.1-0.3,0.2-0.5,0.2c-0.3,0-0.5-0.1-0.7-0.4
		c-0.2-0.2-0.4-0.5-0.5-0.8c-0.3,0.3-0.7,0.6-1.1,0.9c-0.4,0.2-0.9,0.4-1.3,0.4c-0.3,0-0.6-0.1-0.9-0.2c-0.3-0.1-0.6-0.3-0.8-0.5
		c-0.3-0.2-0.5-0.4-0.7-0.7c-0.2-0.3-0.3-0.5-0.4-0.8c-0.1-0.3-0.2-0.7-0.2-1c0-0.4-0.1-0.8-0.1-1.2c0-0.5,0-1,0-1.4
		c0-0.5,0-0.9,0-1.2c0.1-0.2,0.2-0.4,0.3-0.5c0.1-0.1,0.3-0.2,0.5-0.2c0.2,0,0.3,0.1,0.4,0.2c0.1,0.1,0.2,0.3,0.3,0.5
		c0,0.6,0,1.1,0,1.6c0,0.5,0,1.1,0,1.7c0,0.7,0.1,1.2,0.4,1.7s0.7,0.7,1.2,0.7c0.2,0,0.4,0,0.5-0.1c0.2-0.1,0.3-0.2,0.5-0.3
		c0.2-0.1,0.3-0.3,0.4-0.4c0.1-0.2,0.3-0.3,0.4-0.5c0,0,0.1,0,0.1-0.1c0,0,0.1,0,0.1-0.1c-0.1-0.6-0.1-1.2-0.1-1.8
		c0-0.3,0-0.7,0-1.1s0-0.7,0.1-1c0.1-0.3,0.1-0.5,0.3-0.7c0.1-0.2,0.3-0.3,0.5-0.3c0.2,0,0.3,0.1,0.5,0.2c0.1,0.1,0.2,0.3,0.2,0.6
		c0,0.3,0,0.6-0.1,1c0,0.4-0.1,0.8-0.1,1.2c0,0.3,0,0.7,0,1c0,0.3,0.1,0.7,0.1,1c0.1,0.3,0.1,0.6,0.2,0.8
		C112.9,96.1,113,96.3,113.2,96.5z"/>
	<path class="st1" d="M121.2,97.8c-0.2,0.1-0.3,0.2-0.5,0.2c-0.2,0-0.3-0.1-0.5-0.2c-0.1-0.1-0.2-0.3-0.3-0.6c0-0.6,0-1.1,0-1.7
		c0-0.5,0-1.1,0-1.7c0-0.4,0-0.8,0-1.2c0-0.4,0-0.8-0.1-1.2c-0.1-0.2-0.2-0.3-0.3-0.3c-0.1,0-0.3-0.1-0.4-0.1
		c-0.4,0-0.8,0.1-1.2,0.3c-0.4,0.2-0.7,0.5-0.9,0.8c-0.1,0.2-0.2,0.4-0.3,0.5c-0.1,0.1-0.1,0.3-0.2,0.6c0,0.6,0,1.2,0,1.8
		c0,0.6,0,1.2,0,1.8c0,0.3-0.1,0.5-0.2,0.6c-0.2,0.1-0.3,0.2-0.5,0.2c-0.2,0-0.3-0.1-0.5-0.2c-0.1-0.1-0.2-0.3-0.3-0.6
		c0-0.6,0-1.1,0-1.7c0-0.5,0-1.1,0-1.6c0-0.5,0-1.1,0-1.6c0-0.5,0-1.1,0-1.7c0.1-0.2,0.2-0.4,0.3-0.5c0.1-0.1,0.3-0.2,0.5-0.2
		c0.2,0,0.3,0.1,0.4,0.2c0.1,0.1,0.2,0.3,0.3,0.5v0.1c0.3-0.3,0.7-0.5,1.2-0.7s0.9-0.3,1.3-0.3c0.4,0,0.9,0.1,1.3,0.3
		c0.4,0.2,0.7,0.5,0.9,1c0.1,0.2,0.1,0.4,0.2,0.6s0,0.5,0.1,0.7c0,0.3,0,0.5,0,0.8c0,0.3,0,0.5,0,0.8V96v1.2
		C121.4,97.5,121.3,97.7,121.2,97.8z"/>
	<path class="st1" d="M130.4,96.5c0.2,0.2,0.2,0.4,0.2,0.6s-0.1,0.4-0.2,0.5c-0.1,0.1-0.3,0.2-0.5,0.2c-0.2,0-0.4-0.1-0.6-0.3
		c-0.1-0.1-0.1-0.1-0.2-0.2c0-0.1-0.1-0.1-0.1-0.2c-0.4,0.3-0.8,0.6-1.3,0.7c-0.5,0.2-1,0.3-1.4,0.3c-0.5,0-1-0.1-1.4-0.3
		c-0.4-0.2-0.8-0.5-1.1-0.9c-0.2-0.3-0.4-0.7-0.5-1.1c-0.1-0.4-0.2-0.8-0.2-1.2s0.1-0.8,0.2-1.2c0.1-0.4,0.2-0.8,0.4-1.1
		c0.1-0.3,0.4-0.6,0.6-0.8c0.3-0.3,0.6-0.5,0.9-0.6c0.3-0.2,0.6-0.3,0.9-0.4c0.3-0.1,0.7-0.2,1-0.2c0.3,0,0.6,0,0.9,0
		c0.3,0,0.6,0.1,0.8,0.1c0-0.9,0-1.6,0-2.2c0-0.6,0-1,0-1.2c0-0.2,0.1-0.4,0.3-0.5c0.1-0.1,0.3-0.2,0.4-0.2c0.2,0,0.3,0,0.4,0.2
		s0.3,0.3,0.3,0.5v9.5C130.3,96.3,130.3,96.3,130.4,96.5C130.4,96.4,130.4,96.4,130.4,96.5z M128.8,95.2v-0.3c0-0.4,0-0.9,0-1.5
		s0-1,0-1.5l-0.1-0.1c0,0-0.1,0-0.1-0.1c0,0-0.1,0-0.1-0.1c-0.4-0.1-0.7-0.2-1.1-0.1c-0.4,0-0.8,0.1-1.1,0.2
		c-0.4,0.1-0.7,0.3-0.9,0.6c-0.3,0.3-0.5,0.6-0.6,1c-0.1,0.4-0.1,0.7-0.1,1c0,0.3,0.1,0.6,0.1,1c0,0.1,0.1,0.2,0.1,0.3
		c0,0.1,0.1,0.2,0.1,0.3l0.4,0.4c0.1,0,0.3,0.1,0.4,0.2c0.5,0,0.9,0,1.3-0.1c0.4-0.1,0.8-0.3,1.2-0.6c0,0,0-0.1,0.1-0.1
		c0,0,0.1-0.1,0.1-0.1c0,0,0.1-0.1,0.1-0.1c0,0,0.1-0.1,0.1-0.1L128.8,95.2z"/>
	<path class="st1" d="M144.6,90c0.1-0.2,0.2-0.3,0.3-0.4s0.2-0.1,0.4-0.1c0.2,0,0.4,0.1,0.5,0.2c0.1,0.2,0.2,0.4,0.2,0.7
		c-0.3,1-0.6,1.9-1,2.8c-0.4,0.9-0.8,1.8-1.3,2.7c-0.5,0.9-0.9,1.7-1.4,2.6c-0.5,0.9-1,1.7-1.5,2.6c-0.1,0.1-0.2,0.2-0.3,0.3
		c-0.1,0.1-0.2,0.1-0.3,0.1c-0.2,0-0.3-0.1-0.5-0.2c-0.1-0.1-0.2-0.3-0.2-0.6c0,0,0-0.1,0-0.1c0,0,0-0.1,0-0.1
		c0.4-0.7,0.8-1.5,1.2-2.2c0.4-0.7,0.8-1.4,1.2-2.2c-0.5-0.4-0.9-0.8-1.3-1.2c-0.4-0.4-0.7-0.8-1-1.3c-0.3-0.5-0.6-0.9-0.8-1.5
		c-0.2-0.5-0.4-1.1-0.6-1.7c0-0.3,0.1-0.6,0.2-0.7c0.1-0.2,0.3-0.2,0.5-0.2c0.2,0,0.3,0.1,0.4,0.2c0.1,0.1,0.2,0.3,0.3,0.5
		c0.1,0.5,0.3,1,0.5,1.4c0.2,0.4,0.4,0.8,0.7,1.2c0.2,0.4,0.5,0.7,0.8,1c0.3,0.3,0.6,0.7,1,1c0.4-0.8,0.8-1.6,1.1-2.4
		C144.1,91.7,144.4,90.9,144.6,90z"/>
	<path class="st1" d="M146.7,93.3c0.1-0.4,0.3-0.8,0.5-1.1c0.2-0.4,0.4-0.7,0.7-1c0.3-0.3,0.6-0.6,0.9-0.8c0.3-0.2,0.7-0.4,1.1-0.5
		c0.7-0.2,1.3-0.1,1.8,0.2c0.5,0.3,0.9,0.6,1.3,1.1c0.3,0.5,0.5,1.1,0.6,1.7s0.1,1.2-0.1,1.8c-0.2,0.7-0.5,1.4-1,2
		c-0.5,0.6-1,1.1-1.7,1.3c-0.5,0.2-1,0.3-1.5,0.2c-0.5-0.1-0.9-0.2-1.3-0.5c-0.4-0.3-0.7-0.6-1-1c-0.3-0.4-0.4-0.9-0.5-1.4
		c-0.1-0.3-0.1-0.6-0.1-1c0-0.3,0.1-0.6,0.1-0.9L146.7,93.3z M148.1,93.7c0,0.3-0.1,0.5-0.1,0.7c0,0.2,0,0.4,0,0.7
		c0,0.3,0.1,0.6,0.3,0.9c0.2,0.3,0.4,0.5,0.6,0.6s0.5,0.2,0.8,0.2c0.3,0,0.6-0.1,0.9-0.3c0.4-0.2,0.7-0.6,0.9-0.9
		c0.2-0.4,0.4-0.8,0.5-1.2c0.1-0.4,0.1-0.7,0.1-1.2c-0.1-0.4-0.2-0.8-0.4-1.1c-0.2-0.3-0.5-0.5-0.8-0.7c-0.3-0.1-0.7-0.1-1.2,0.1
		c-0.5,0.2-0.9,0.5-1.1,0.9C148.5,92.8,148.3,93.3,148.1,93.7z"/>
	<path class="st1" d="M162.6,96.5c0.1,0.2,0.2,0.4,0.2,0.6c0,0.2-0.1,0.4-0.2,0.5c-0.1,0.1-0.3,0.2-0.5,0.2c-0.3,0-0.5-0.1-0.7-0.4
		c-0.2-0.2-0.4-0.5-0.5-0.8c-0.3,0.3-0.7,0.6-1.1,0.9c-0.4,0.2-0.9,0.4-1.3,0.4c-0.3,0-0.6-0.1-0.9-0.2c-0.3-0.1-0.6-0.3-0.8-0.5
		c-0.3-0.2-0.5-0.4-0.7-0.7c-0.2-0.3-0.3-0.5-0.4-0.8c-0.1-0.3-0.2-0.7-0.2-1c0-0.4-0.1-0.8-0.1-1.2c0-0.5,0-1,0-1.4
		c0-0.5,0-0.9,0-1.2c0.1-0.2,0.2-0.4,0.3-0.5c0.1-0.1,0.3-0.2,0.5-0.2c0.2,0,0.3,0.1,0.4,0.2c0.1,0.1,0.2,0.3,0.3,0.5
		c0,0.6,0,1.1,0,1.6c0,0.5,0,1.1,0,1.7c0,0.7,0.1,1.2,0.4,1.7s0.7,0.7,1.2,0.7c0.2,0,0.4,0,0.5-0.1c0.2-0.1,0.3-0.2,0.5-0.3
		c0.2-0.1,0.3-0.3,0.4-0.4c0.1-0.2,0.3-0.3,0.4-0.5c0,0,0.1,0,0.1-0.1c0,0,0.1,0,0.1-0.1c-0.1-0.6-0.1-1.2-0.1-1.8
		c0-0.3,0-0.7,0-1.1s0-0.7,0.1-1c0.1-0.3,0.1-0.5,0.3-0.7c0.1-0.2,0.3-0.3,0.5-0.3c0.2,0,0.3,0.1,0.5,0.2c0.1,0.1,0.2,0.3,0.2,0.6
		c0,0.3,0,0.6-0.1,1c0,0.4-0.1,0.8-0.1,1.2c0,0.3,0,0.7,0,1c0,0.3,0.1,0.7,0.1,1c0.1,0.3,0.1,0.6,0.2,0.8
		C162.3,96.1,162.4,96.3,162.6,96.5z"/>
	<path class="st1" d="M171.8,97.8c-0.1,0.1-0.3,0.2-0.5,0.2c-0.2,0-0.3-0.1-0.5-0.2c-0.2-0.1-0.2-0.3-0.3-0.6v-10
		c0-0.2,0.1-0.4,0.3-0.5c0.1-0.1,0.3-0.2,0.4-0.2c0.2,0,0.3,0,0.4,0.2c0.1,0.1,0.3,0.3,0.3,0.5v4.2c0.2-0.2,0.3-0.3,0.5-0.4
		c0.2-0.2,0.5-0.3,0.7-0.4c0.2-0.1,0.5-0.2,0.7-0.2c0.2-0.1,0.4-0.1,0.7,0c0.2,0,0.4,0.1,0.7,0.1c0.4,0.1,0.7,0.3,0.9,0.5
		c0.3,0.2,0.5,0.5,0.7,0.8c0.2,0.3,0.3,0.7,0.4,1c0.1,0.4,0.1,0.7,0.1,1c0,0.6,0,1.1,0,1.7c0,0.6,0,1.1,0,1.7c0,0.3-0.1,0.5-0.2,0.6
		c-0.1,0.1-0.3,0.2-0.5,0.2c-0.2,0-0.3-0.1-0.5-0.2c-0.2-0.1-0.2-0.3-0.3-0.6c0-0.6,0-1.1,0-1.7s0-1.1,0-1.7c0-0.4-0.1-0.8-0.2-1.2
		c-0.2-0.4-0.4-0.6-0.8-0.9c-0.3-0.1-0.6-0.1-0.8,0c-0.3,0.1-0.5,0.2-0.7,0.4c-0.2,0.2-0.4,0.4-0.6,0.6c-0.2,0.2-0.4,0.5-0.5,0.7
		c0,0-0.1,0.1-0.1,0.1c0,0-0.1,0.1-0.1,0.1v3.5C172,97.4,171.9,97.6,171.8,97.8z"/>
	<path class="st1" d="M185.4,95.6c0.3-0.1,0.5-0.1,0.7,0c0.2,0.1,0.3,0.2,0.4,0.3c0.1,0.2,0.1,0.3,0,0.5c-0.1,0.2-0.2,0.4-0.4,0.5
		c-0.4,0.2-0.8,0.4-1.3,0.6c-0.5,0.2-0.9,0.3-1.4,0.4c-0.5,0.1-0.9,0.1-1.4,0c-0.5-0.1-0.9-0.3-1.3-0.6c-0.5-0.3-0.9-0.8-1.2-1.4
		c-0.3-0.6-0.4-1.2-0.4-1.9c0-0.6,0.1-1.3,0.4-1.9c0.2-0.6,0.6-1.1,1.2-1.4c0.6-0.4,1.2-0.7,1.8-0.8c0.7-0.2,1.3-0.2,2-0.1
		c0.3,0.1,0.6,0.2,0.9,0.5c0.3,0.2,0.5,0.5,0.6,0.8c0.2,0.3,0.3,0.6,0.3,1c0,0.3-0.1,0.7-0.3,1c-0.2,0.3-0.5,0.6-0.9,0.9
		c-0.4,0.2-0.8,0.4-1.3,0.6c-0.5,0.2-0.9,0.3-1.4,0.4c-0.5,0.1-0.8,0.2-1.2,0.3c-0.1,0-0.3,0-0.4,0c0.2,0.4,0.4,0.7,0.8,0.9
		c0.4,0.2,0.8,0.4,1.3,0.3c0.4,0,0.8-0.1,1.3-0.4C184.6,96,185,95.8,185.4,95.6z M181.9,91.8c-0.4,0.2-0.8,0.6-1,1
		c-0.2,0.4-0.3,0.9-0.3,1.3c0.1-0.1,0.2-0.1,0.3-0.1c0.2-0.1,0.4-0.1,0.7-0.2s0.4-0.1,0.7-0.2c0.1,0,0.3-0.1,0.6-0.2
		c0.2-0.1,0.5-0.2,0.8-0.3c0.3-0.1,0.5-0.2,0.7-0.3c0.2-0.1,0.4-0.3,0.4-0.4c0-0.4-0.1-0.7-0.3-0.8c-0.2-0.1-0.5-0.2-0.8-0.2
		s-0.6,0.1-0.9,0.2C182.3,91.6,182.1,91.7,181.9,91.8z"/>
	<path class="st1" d="M195,97C195,97,195,97,195,97c0.1,0.2,0.1,0.3,0,0.5c0,0.1-0.1,0.3-0.2,0.4c-0.1,0.1-0.2,0.1-0.4,0.2
		c-0.2,0-0.3,0-0.5-0.1c-0.1-0.1-0.2-0.2-0.3-0.4c-0.1-0.1-0.2-0.3-0.3-0.4c-0.2,0.2-0.5,0.4-0.8,0.6c-0.3,0.2-0.6,0.3-0.8,0.3
		c-0.5,0-1,0-1.4,0c-0.5,0-0.9-0.2-1.3-0.5c-0.3-0.3-0.6-0.6-0.8-0.9c-0.2-0.3-0.3-0.7-0.4-1.1c-0.1-0.4-0.1-0.8,0-1.2
		c0.1-0.4,0.2-0.8,0.3-1.2c0.1-0.2,0.1-0.3,0.2-0.5c0.1-0.2,0.2-0.3,0.3-0.5c0.1-0.2,0.3-0.5,0.5-0.7c0.2-0.2,0.4-0.4,0.6-0.6
		c0.2-0.1,0.3-0.2,0.5-0.3c0.2-0.1,0.3-0.2,0.5-0.3c0.1-0.1,0.3-0.1,0.5-0.2c0.2-0.1,0.5-0.1,0.7-0.2c0.3-0.1,0.5-0.1,0.8-0.1
		s0.5,0,0.7,0.1c0.2,0,0.3,0,0.5,0.1c0.2,0.1,0.3,0.3,0.4,0.5c0,0.8,0,1.6,0,2.5c0,0.8,0,1.7,0.2,2.5c0,0.1,0.1,0.2,0.1,0.4
		c0.1,0.2,0.2,0.3,0.3,0.4c0.1,0.1,0.2,0.3,0.2,0.4C195,96.8,195,96.9,195,97z M192.7,95.7C192.8,95.7,192.8,95.7,192.7,95.7
		c0.1,0,0.1-0.1,0.1-0.1c-0.2-0.7-0.2-1.5-0.2-2.3c0-0.8,0-1.5,0-2.1c-0.1,0-0.2,0-0.4,0c-0.1,0-0.3,0.1-0.4,0.1
		c-0.1,0-0.2,0.1-0.3,0.1c-0.1,0-0.2,0.1-0.2,0.1c-0.4,0.2-0.7,0.4-0.9,0.7c-0.3,0.3-0.5,0.6-0.6,0.9c-0.2,0.3-0.3,0.7-0.4,1
		c-0.1,0.4-0.1,0.7-0.1,1.1c0,0.1,0.1,0.2,0.1,0.3c0,0.1,0.1,0.2,0.1,0.3c0.1,0.1,0.1,0.1,0.2,0.2c0.1,0.1,0.1,0.1,0.2,0.2
		c0.1,0,0.2,0.1,0.3,0.1c0.1,0,0.2,0.1,0.3,0.1c0.2,0,0.4,0,0.6,0c0.2,0,0.4,0,0.6-0.1c0.2-0.1,0.4-0.2,0.5-0.4
		C192.4,96,192.6,95.9,192.7,95.7z"/>
	<path class="st1" d="M196.8,91.4c-0.2-0.1-0.3-0.2-0.4-0.3c-0.1-0.1-0.1-0.3-0.1-0.4c0-0.2,0.1-0.3,0.2-0.5
		c0.1-0.1,0.3-0.2,0.5-0.2c0.2,0,0.4,0.1,0.6,0.2c0.3,0.1,0.5,0.3,0.6,0.4c0.4-0.3,0.8-0.6,1.2-0.8c0.4-0.2,0.8-0.3,1.2-0.3
		c0.1,0,0.3,0,0.5,0.1c0.2,0.1,0.5,0.2,0.7,0.3c0.2,0.1,0.4,0.3,0.6,0.5c0.2,0.2,0.3,0.4,0.3,0.7c0,0.2-0.1,0.4-0.2,0.5
		c-0.1,0.1-0.3,0.2-0.5,0.2c-0.1,0-0.3,0-0.4-0.1c-0.1-0.1-0.2-0.2-0.3-0.3c-0.1-0.1-0.2-0.2-0.3-0.2c-0.1-0.1-0.2-0.1-0.4-0.1
		c-0.2,0-0.4,0.1-0.6,0.2s-0.4,0.2-0.6,0.4c-0.2,0.1-0.4,0.3-0.6,0.5c-0.2,0.2-0.3,0.3-0.5,0.5v4.8c0,0.3-0.1,0.5-0.2,0.6
		c-0.2,0.1-0.3,0.2-0.5,0.2c-0.2,0-0.3-0.1-0.5-0.2c-0.1-0.1-0.2-0.3-0.3-0.6v-4.9c0,0,0-0.1,0-0.1c0,0,0-0.1,0-0.1c0,0,0-0.1,0-0.1
		c0,0,0-0.1,0-0.1v-0.5C196.8,91.5,196.8,91.5,196.8,91.4z"/>
	<path class="st1" d="M204.1,96.8c0,0.3-0.1,0.5-0.3,0.7s-0.5,0.3-0.8,0.3c-0.3,0-0.6-0.1-0.8-0.3s-0.3-0.4-0.3-0.7
		c0-0.3,0.1-0.5,0.3-0.7c0.2-0.2,0.5-0.3,0.8-0.3c0.3,0,0.5,0.1,0.8,0.3C204,96.3,204.1,96.5,204.1,96.8z"/>
</g>
<g>
	<path class="st1" d="M20.4,25.4c-0.3,0-0.5-0.1-0.7-0.3c-0.1-0.2-0.2-0.3-0.2-0.5c0-0.1,0-0.2,0.1-0.3v-8.6c-0.1,0-0.2,0.1-0.4,0.1
		c-0.2,0-0.4-0.1-0.6-0.2c-0.1-0.1-0.2-0.3-0.2-0.5c0-0.3,0.2-0.6,0.5-0.8c0.3-0.3,0.7-0.5,1.2-0.7c0.5-0.2,0.9-0.3,1.4-0.5
		c0.5-0.1,0.9-0.2,1.2-0.2c0.6,0,1.1,0.1,1.6,0.3s0.9,0.5,1.2,0.8c0.3,0.3,0.6,0.7,0.8,1c0.2,0.4,0.3,0.8,0.3,1.1
		c0,0.5-0.1,1-0.4,1.5c-0.3,0.5-0.6,0.9-1.1,1.2c0.7,0.3,1.2,0.8,1.5,1.3c0.3,0.5,0.5,1.1,0.5,1.6c0,0.4-0.1,0.7-0.2,1.1
		c-0.1,0.4-0.3,0.7-0.5,1c-0.2,0.3-0.5,0.6-0.8,0.8c-0.3,0.2-0.7,0.4-1.1,0.5c-0.5,0.2-1,0.3-1.5,0.3c-0.5,0-1,0.1-1.5,0.1
		c-0.2,0-0.4,0-0.6,0C20.7,25.4,20.6,25.4,20.4,25.4z M21.9,18c0.2,0,0.4,0,0.6,0c0.2,0,0.4-0.1,0.7-0.1c0.3-0.1,0.6-0.2,0.8-0.4
		c0.3-0.2,0.5-0.3,0.7-0.6c0.2-0.2,0.3-0.5,0.3-0.8c0-0.3-0.1-0.5-0.2-0.8s-0.3-0.4-0.6-0.5c-0.2-0.1-0.5-0.2-0.8-0.3
		c-0.3-0.1-0.6-0.1-0.8-0.1c-0.5,0-1,0.1-1.4,0.3V18C21.4,18,21.7,18,21.9,18z M24.8,20.4c-0.3-0.2-0.6-0.4-1-0.5
		c-0.4-0.1-0.7-0.2-1.1-0.2c-0.2,0-0.5,0.1-0.7,0.1c-0.2,0-0.5,0-0.7,0v4c0.3,0,0.7,0,1.1,0c0.5,0,1-0.1,1.4-0.2
		c0.5-0.1,0.9-0.3,1.2-0.6c0.3-0.3,0.5-0.7,0.5-1.2c0-0.3-0.1-0.5-0.2-0.8C25.2,20.8,25,20.6,24.8,20.4z"/>
	<path class="st1" d="M37.1,24.5C37.1,24.5,37.1,24.5,37.1,24.5c0.1,0.2,0.1,0.4,0,0.5c0,0.2-0.1,0.3-0.2,0.4
		c-0.1,0.1-0.3,0.2-0.4,0.2c-0.2,0-0.4,0-0.6-0.1c-0.1-0.1-0.2-0.3-0.3-0.4c-0.1-0.1-0.2-0.3-0.3-0.4c-0.3,0.2-0.6,0.4-0.9,0.6
		c-0.3,0.2-0.6,0.3-0.9,0.3c-0.5,0-1.1,0-1.6,0c-0.5,0-1-0.2-1.5-0.5c-0.4-0.3-0.7-0.6-0.9-1c-0.2-0.4-0.3-0.8-0.4-1.2
		c-0.1-0.4-0.1-0.9,0-1.3c0.1-0.5,0.2-0.9,0.3-1.3c0.1-0.2,0.2-0.4,0.3-0.5c0.1-0.2,0.2-0.4,0.3-0.5c0.1-0.3,0.3-0.5,0.5-0.8
		c0.2-0.2,0.4-0.4,0.6-0.6c0.2-0.1,0.3-0.2,0.5-0.4c0.2-0.1,0.3-0.2,0.5-0.3c0.1-0.1,0.3-0.2,0.5-0.3c0.2-0.1,0.5-0.2,0.8-0.2
		c0.3-0.1,0.6-0.1,0.9-0.1s0.5,0,0.7,0.1c0.2,0,0.4,0,0.5,0.1c0.2,0.1,0.3,0.3,0.4,0.6c0,0.9,0,1.8,0,2.7c0,0.9,0,1.8,0.2,2.7
		c0,0.1,0.1,0.3,0.1,0.4c0.1,0.2,0.2,0.3,0.3,0.5c0.1,0.2,0.2,0.3,0.3,0.4C37.1,24.3,37.1,24.4,37.1,24.5z M34.6,23.1
		C34.6,23.1,34.6,23.1,34.6,23.1c0.1-0.1,0.1-0.1,0.1-0.1c-0.2-0.8-0.3-1.6-0.3-2.5c0-0.9,0-1.7,0-2.4c-0.1,0-0.3,0-0.4,0
		c-0.1,0-0.3,0.1-0.4,0.1c-0.1,0-0.3,0.1-0.4,0.1c-0.1,0-0.2,0.1-0.3,0.1c-0.4,0.2-0.7,0.4-1,0.7c-0.3,0.3-0.5,0.6-0.7,1
		c-0.2,0.4-0.3,0.8-0.4,1.2c-0.1,0.4-0.1,0.8-0.1,1.2c0,0.1,0.1,0.2,0.1,0.3c0,0.1,0.1,0.2,0.1,0.3c0.1,0.1,0.1,0.1,0.2,0.2
		c0.1,0.1,0.1,0.2,0.2,0.2c0.1,0.1,0.2,0.1,0.4,0.1c0.1,0,0.2,0.1,0.4,0.1c0.2,0,0.4,0,0.7,0c0.2,0,0.4,0,0.6-0.1
		c0.2-0.1,0.4-0.3,0.6-0.4C34.2,23.4,34.4,23.2,34.6,23.1z"/>
	<path class="st1" d="M43.6,23.2c0.2-0.2,0.5-0.3,0.7-0.3c0.2,0,0.4,0.1,0.5,0.2c0.1,0.1,0.2,0.3,0.2,0.5c0,0.2-0.1,0.4-0.3,0.7
		c-0.4,0.5-1,0.8-1.6,1c-0.6,0.2-1.2,0.3-1.8,0.2c-0.6-0.1-1.1-0.3-1.6-0.7c-0.5-0.4-0.9-0.9-1.1-1.5c-0.1-0.4-0.3-0.7-0.3-1.1
		s-0.1-0.8-0.1-1.2c0-0.6,0.2-1.3,0.5-1.9c0.3-0.6,0.6-1.2,1.1-1.7c0.4-0.5,1-0.8,1.6-1.1c0.6-0.2,1.3-0.2,2,0
		c0.4,0.1,0.7,0.3,1,0.4c0.3,0.2,0.6,0.4,0.8,0.7c0.1,0.2,0.2,0.4,0.2,0.6c0,0.2-0.1,0.4-0.2,0.5c-0.1,0.1-0.3,0.2-0.5,0.3
		c-0.2,0-0.4,0-0.7-0.1c-0.4-0.4-0.9-0.7-1.3-0.8c-0.4-0.1-0.8-0.1-1.1,0.1c-0.4,0.2-0.7,0.4-0.9,0.8c-0.3,0.4-0.5,0.8-0.6,1.2
		c-0.1,0.4-0.2,0.9-0.2,1.4c0,0.5,0.1,0.9,0.3,1.4c0.2,0.4,0.4,0.7,0.7,0.9c0.3,0.2,0.6,0.3,0.9,0.3c0.3,0,0.6,0,1-0.1
		C43,23.6,43.3,23.4,43.6,23.2z"/>
	<path class="st1" d="M48.6,25.3c-0.2,0.2-0.3,0.2-0.5,0.2c-0.2,0-0.4-0.1-0.5-0.2c-0.2-0.1-0.3-0.4-0.3-0.7V13.2
		c0.1-0.3,0.2-0.4,0.3-0.6c0.2-0.1,0.3-0.2,0.5-0.2c0.2,0,0.3,0.1,0.5,0.2c0.2,0.1,0.3,0.3,0.4,0.6v5.9c0.3-0.2,0.7-0.4,0.9-0.6
		c0.3-0.2,0.5-0.4,0.8-0.7c0.3-0.3,0.5-0.5,0.8-0.8c0.3-0.3,0.6-0.6,0.9-1c0.2-0.2,0.5-0.3,0.7-0.3c0.2,0,0.4,0.1,0.5,0.2
		s0.2,0.3,0.2,0.5c0,0.2-0.1,0.4-0.3,0.7c-0.5,0.6-1,1.1-1.4,1.5c-0.4,0.4-0.9,0.8-1.4,1.2c0.7,0.8,1.3,1.5,1.9,2.2
		c0.6,0.7,1.3,1.4,1.9,2.2c0.2,0.2,0.2,0.5,0.2,0.7c0,0.2-0.1,0.4-0.3,0.5c-0.1,0.1-0.3,0.2-0.5,0.2c-0.2,0-0.4-0.1-0.7-0.3
		c-0.7-0.8-1.4-1.5-2-2.2c-0.6-0.7-1.3-1.4-2-2.2c-0.1,0-0.2,0.1-0.2,0.1c-0.1,0-0.1,0.1-0.2,0.1v3.7C48.8,24.9,48.7,25.1,48.6,25.3
		z"/>
</g>
<g>
	<polygon class="st2" points="119.1,137.4 88.5,162.1 79.1,162.1 79.1,184 88.5,184 119.1,206.3 	"/>
	<g>
		<path class="st1" d="M118.3,136.8c-7.3,5.9-14.5,11.8-21.8,17.7c-2.9,2.4-5.8,4.7-8.7,7.1c0.3-0.1,0.5-0.2,0.8-0.3
			c-3.1,0-6.3,0-9.4,0c-0.6,0-1.1,0.4-1.1,0.9c0,7.3,0,14.6,0,21.8c0,0.5,0.5,0.9,1.1,0.9c3.1,0,6.3,0,9.4,0
			c-0.3-0.1-0.5-0.2-0.8-0.3c7.7,5.7,15.5,11.3,23.2,17c2.5,1.8,4.9,3.6,7.4,5.4c0.7,0.5,1.9,0.2,1.9-0.6c0-5.8,0-11.6,0-17.5
			c0-10.9,0-21.8,0-32.8c0-6.2,0-12.4,0-18.6c0,0,0,0,0,0c0-1.2-2.2-1.2-2.2,0c0,5.8,0,11.6,0,17.5c0,10.9,0,21.8,0,32.8
			c0,6.2,0,12.4,0,18.6c0,0,0,0,0,0c0.6-0.2,1.3-0.4,1.9-0.6c-7.7-5.7-15.5-11.3-23.2-17c-2.4-1.8-4.8-3.5-7.2-5.3
			c-0.9-0.7-2.9-0.4-4.1-0.4c-2.1,0-4.2,0-6.3,0c0.4,0.3,0.7,0.6,1.1,0.9c0-7.3,0-14.6,0-21.8c-0.4,0.3-0.7,0.6-1.1,0.9
			c2.6,0,5.2,0,7.8,0c0.7,0,1.9,0.2,2.4-0.3c0.2-0.2,0.5-0.4,0.7-0.6c3.6-2.9,7.2-5.8,10.8-8.7c6.3-5.1,12.7-10.3,19-15.4
			C120.9,137.2,119.3,136,118.3,136.8z"/>
	</g>
</g>
<g>
	<g>
		<path class="st1" d="M124.6,163.2c1.2,0.7,1.9,2,2.4,3.1c0.8,1.7,1.2,3.4,1.3,5.2c0.3,3-0.1,7.1-3.3,9.1c-1.1,0.7,0,2.2,1.1,1.5
			c3.9-2.4,4.7-6.8,4.4-10.6c-0.3-3.4-1.3-7.7-4.9-9.8C124.5,161,123.4,162.6,124.6,163.2L124.6,163.2z"/>
	</g>
</g>
<g>
	<g>
		<path class="st1" d="M133.7,155.4c2.3,1.4,3.7,3.8,4.7,5.9c1.4,2.9,2.2,6,2.5,9.2c0.6,5.7,0,12.9-5.3,17.2
			c-0.4,0.3-0.7,0.6-1.1,0.8c-1.1,0.7,0,2.2,1.1,1.5c6.1-3.7,7.7-10.5,7.8-16.4c0-3.3-0.5-6.6-1.6-9.7c-0.9-2.7-2.1-5.4-4.1-7.6
			c-0.8-0.9-1.7-1.7-2.8-2.4C133.7,153.2,132.6,154.7,133.7,155.4L133.7,155.4z"/>
	</g>
</g>
<g>
	<g>
		<path class="st1" d="M144.1,144.1c4.9,2.9,7.5,8.1,9.3,12.7c2.4,6.1,3.5,12.7,3.4,19.1c-0.2,8.4-2.5,18.6-11.4,23.9
			c-1.1,0.7,0,2.2,1.1,1.5c5.8-3.5,9.1-8.9,10.8-14.5c2-6.3,2.1-13,1.1-19.5c-0.7-5.1-2.2-10.1-4.6-14.9c-1.9-3.7-4.5-7.5-8.6-9.9
			C144.1,141.8,143,143.4,144.1,144.1L144.1,144.1z"/>
	</g>
</g>
<circle class="st3" cx="56.9" cy="285.2" r="29"/>
<circle class="st3" cx="171.2" cy="285.2" r="29"/>
<g>
	<path class="st1" d="M154.9,277.3c0.3,0.6,0.6,1.3,1,2c0.3,0.7,0.6,1.3,1,2c0,0.1,0,0.2,0,0.4c0,0.3-0.1,0.6-0.3,0.8
		c-0.2,0.2-0.4,0.3-0.7,0.3c-0.2,0-0.3,0-0.5-0.1c-0.2-0.1-0.3-0.2-0.5-0.4c-0.3-0.6-0.6-1.3-1-2c-0.3-0.7-0.6-1.3-1-2
		c-0.1-0.2-0.1-0.4-0.1-0.6c0-0.3,0.1-0.6,0.3-0.7c0.2-0.2,0.4-0.3,0.7-0.3C154.3,276.7,154.6,276.9,154.9,277.3z M159,276.5
		c0.3,0.6,0.6,1.3,1,2c0.3,0.7,0.6,1.3,1,2c0,0.1,0,0.2,0,0.4c0,0.3-0.1,0.6-0.3,0.8c-0.2,0.2-0.4,0.3-0.7,0.3c-0.2,0-0.3,0-0.5-0.1
		c-0.2-0.1-0.3-0.2-0.5-0.4c-0.3-0.6-0.6-1.3-1-2c-0.3-0.7-0.6-1.3-1-2c-0.1-0.2-0.1-0.4-0.1-0.6c0-0.3,0.1-0.6,0.3-0.7
		c0.2-0.2,0.4-0.3,0.7-0.3C158.4,275.8,158.7,276.1,159,276.5z"/>
	<path class="st1" d="M165.4,294.1c-0.2,0.2-0.4,0.3-0.7,0.3c-0.2,0-0.5-0.1-0.7-0.3c-0.2-0.2-0.3-0.5-0.4-0.8v-14.5
		c0.1-0.3,0.2-0.6,0.4-0.7c0.2-0.2,0.4-0.3,0.6-0.3c0.2,0,0.4,0.1,0.6,0.2c0.2,0.2,0.4,0.4,0.5,0.7v7.5c0.4-0.3,0.8-0.5,1.2-0.8
		c0.3-0.3,0.7-0.6,1-0.9c0.3-0.3,0.7-0.7,1-1.1c0.3-0.4,0.7-0.8,1.1-1.3c0.3-0.2,0.6-0.3,0.9-0.3c0.3,0,0.5,0.1,0.7,0.3
		c0.2,0.2,0.3,0.4,0.3,0.7c0,0.3-0.1,0.6-0.3,0.9c-0.6,0.7-1.2,1.4-1.8,1.9c-0.5,0.6-1.1,1.1-1.7,1.5c0.9,1,1.7,1.9,2.5,2.7
		c0.8,0.9,1.6,1.8,2.5,2.7c0.2,0.3,0.3,0.6,0.3,0.9c0,0.3-0.2,0.5-0.3,0.7c-0.2,0.2-0.4,0.2-0.7,0.2c-0.3,0-0.6-0.1-0.8-0.4
		c-0.9-1-1.8-2-2.5-2.9c-0.8-0.9-1.6-1.8-2.5-2.8c-0.1,0.1-0.2,0.1-0.3,0.2c-0.1,0.1-0.2,0.1-0.3,0.2v4.7
		C165.7,293.6,165.6,293.9,165.4,294.1z"/>
	<path class="st1" d="M184.6,293.1C184.6,293.1,184.6,293.1,184.6,293.1c0.1,0.3,0.1,0.5,0.1,0.7c-0.1,0.2-0.1,0.4-0.3,0.5
		c-0.1,0.1-0.3,0.2-0.6,0.2s-0.5,0-0.8-0.2c-0.2-0.2-0.3-0.3-0.4-0.5s-0.3-0.4-0.4-0.5c-0.3,0.3-0.7,0.6-1.1,0.8
		c-0.4,0.2-0.8,0.4-1.2,0.4c-0.7,0-1.4,0-2,0s-1.3-0.2-1.9-0.7c-0.5-0.4-0.9-0.8-1.1-1.3c-0.3-0.5-0.4-1-0.5-1.6
		c-0.1-0.6-0.1-1.1,0-1.7c0.1-0.6,0.2-1.1,0.4-1.7c0.1-0.2,0.2-0.5,0.3-0.7c0.1-0.2,0.3-0.5,0.4-0.7c0.2-0.3,0.4-0.7,0.6-1
		c0.2-0.3,0.5-0.6,0.8-0.8c0.2-0.2,0.4-0.3,0.7-0.5c0.2-0.2,0.4-0.3,0.6-0.4c0.2-0.1,0.4-0.2,0.7-0.3c0.3-0.1,0.7-0.2,1-0.3
		c0.4-0.1,0.7-0.1,1.1-0.1s0.7,0.1,0.9,0.2c0.2,0,0.5,0,0.7,0.2s0.4,0.4,0.5,0.7c0,1.2,0,2.3,0,3.5c0,1.2,0.1,2.3,0.2,3.5
		c0,0.2,0.1,0.3,0.2,0.5c0.1,0.2,0.2,0.4,0.4,0.6c0.1,0.2,0.2,0.4,0.3,0.6C184.6,292.9,184.6,293,184.6,293.1z M181.4,291.3
		C181.4,291.3,181.4,291.3,181.4,291.3c0.1-0.1,0.1-0.1,0.2-0.1c-0.2-1-0.3-2.1-0.3-3.2c0-1.1,0-2.1,0-3c-0.2,0-0.3,0-0.5,0.1
		c-0.2,0-0.4,0.1-0.5,0.1c-0.2,0.1-0.3,0.1-0.5,0.2c-0.1,0.1-0.3,0.1-0.3,0.1c-0.5,0.2-0.9,0.5-1.3,0.9c-0.4,0.4-0.7,0.8-0.9,1.3
		c-0.2,0.5-0.4,1-0.5,1.5c-0.1,0.5-0.2,1-0.2,1.6c0,0.1,0.1,0.3,0.1,0.4c0.1,0.1,0.1,0.3,0.1,0.4c0.1,0.1,0.2,0.2,0.3,0.3
		c0.1,0.1,0.2,0.2,0.3,0.3c0.2,0.1,0.3,0.1,0.5,0.2c0.2,0.1,0.3,0.1,0.5,0.2c0.3,0,0.6,0,0.8,0c0.3,0,0.5,0,0.8-0.1
		c0.3-0.2,0.5-0.3,0.8-0.5C180.9,291.7,181.1,291.5,181.4,291.3z"/>
	<path class="st1" d="M188.9,276.5c0.1-0.2,0.3-0.4,0.5-0.5c0.2-0.1,0.3-0.2,0.5-0.2c0.3,0,0.5,0.1,0.7,0.3c0.2,0.2,0.3,0.4,0.3,0.7
		c0,0.2,0,0.4-0.1,0.6c-0.3,0.6-0.6,1.3-1,2c-0.3,0.7-0.6,1.3-1,2c-0.1,0.2-0.3,0.3-0.5,0.4c-0.2,0.1-0.3,0.1-0.5,0.1
		c-0.3,0-0.5-0.1-0.7-0.3c-0.2-0.2-0.3-0.5-0.3-0.8c0-0.1,0-0.1,0-0.2c0-0.1,0-0.1,0-0.2c0.3-0.6,0.6-1.3,1-2
		C188.3,277.8,188.6,277.1,188.9,276.5z M193.1,277.3c0.1-0.2,0.3-0.4,0.5-0.5c0.2-0.1,0.3-0.2,0.5-0.2c0.3,0,0.5,0.1,0.7,0.3
		c0.2,0.2,0.3,0.4,0.3,0.7c0,0.2,0,0.4-0.1,0.6c-0.3,0.6-0.6,1.3-1,2c-0.3,0.7-0.6,1.3-1,2c-0.1,0.2-0.3,0.3-0.5,0.4
		s-0.3,0.1-0.5,0.1c-0.3,0-0.5-0.1-0.7-0.3c-0.2-0.2-0.3-0.5-0.3-0.8c0-0.1,0-0.1,0-0.2c0-0.1,0-0.1,0-0.2c0.3-0.6,0.6-1.3,1-2
		C192.4,278.6,192.7,278,193.1,277.3z"/>
</g>
<g>
	<path class="st1" d="M36.9,275.2c0.3,0.6,0.6,1.3,1,2c0.3,0.7,0.6,1.3,1,2c0,0.1,0,0.2,0,0.4c0,0.3-0.1,0.6-0.3,0.8
		c-0.2,0.2-0.4,0.3-0.7,0.3c-0.2,0-0.3,0-0.5-0.1c-0.2-0.1-0.3-0.2-0.5-0.4c-0.3-0.6-0.6-1.3-1-2c-0.3-0.7-0.6-1.3-1-2
		c-0.1-0.2-0.1-0.4-0.1-0.6c0-0.3,0.1-0.6,0.3-0.7c0.2-0.2,0.4-0.3,0.7-0.3C36.3,274.6,36.6,274.8,36.9,275.2z M41,274.4
		c0.3,0.6,0.6,1.3,1,2c0.3,0.7,0.6,1.3,1,2c0,0.1,0,0.2,0,0.4c0,0.3-0.1,0.6-0.3,0.8c-0.2,0.2-0.4,0.3-0.7,0.3c-0.2,0-0.3,0-0.5-0.1
		c-0.2-0.1-0.3-0.2-0.5-0.4c-0.3-0.6-0.6-1.3-1-2c-0.3-0.7-0.6-1.3-1-2c-0.1-0.2-0.1-0.4-0.1-0.6c0-0.3,0.1-0.6,0.3-0.7
		c0.2-0.2,0.4-0.3,0.7-0.3C40.4,273.8,40.7,274,41,274.4z"/>
	<path class="st1" d="M46,297.1c-0.2-0.2-0.4-0.5-0.4-0.7c0-0.3,0-0.5,0.1-0.7c0.1-0.2,0.3-0.3,0.5-0.4c0.2-0.1,0.5-0.1,0.8,0
		c0.2,0.1,0.4,0.2,0.6,0.3c0.2,0.1,0.3,0.2,0.5,0.3c0.2,0.1,0.3,0.1,0.5,0.2c0.2,0.1,0.4,0.1,0.6,0.2c0.3,0.1,0.6,0.1,1,0.1
		s0.7,0,1.1-0.1c0.3-0.1,0.7-0.2,1-0.4c0.3-0.2,0.5-0.4,0.7-0.7c0.1-0.2,0.2-0.5,0.2-0.7c0-0.3,0-0.6,0-0.8v-1.7
		c-0.3,0.1-0.5,0.2-0.8,0.3c-0.3,0.1-0.6,0.2-0.8,0.3c-0.4,0.1-0.8,0.1-1.2,0.2c-0.4,0-0.8,0-1.2-0.1c-0.9-0.2-1.6-0.5-2.2-1.1
		c-0.6-0.6-1-1.2-1.3-2c-0.3-0.8-0.5-1.6-0.5-2.4c0-0.9,0.1-1.7,0.4-2.4c0.2-0.6,0.6-1.2,1-1.7c0.5-0.5,1-0.9,1.6-1.2
		c0.6-0.3,1.2-0.5,1.9-0.5c0.7-0.1,1.3,0.1,1.9,0.4c0.5,0.2,1,0.5,1.4,0.8c0.1-0.2,0.2-0.4,0.4-0.5c0.2-0.1,0.4-0.2,0.6-0.1
		c0.2,0,0.4,0.1,0.6,0.3c0.2,0.2,0.3,0.4,0.4,0.7v10.9c0,0.9-0.1,1.7-0.4,2.4c-0.3,0.7-0.8,1.2-1.6,1.7c-0.3,0.2-0.7,0.4-1,0.5
		c-0.4,0.2-0.7,0.2-1.1,0.3c-0.8,0.1-1.6,0.1-2.3-0.1c-0.5-0.1-1-0.3-1.4-0.5C46.9,297.6,46.5,297.4,46,297.1z M52.9,289.5
		c0.1,0,0.1-0.1,0.2-0.1v-4.6c0,0,0,0,0,0c-0.3-0.3-0.7-0.6-1.2-0.9s-0.9-0.5-1.4-0.6c-0.2,0-0.4,0-0.6,0.1s-0.4,0-0.6,0.1
		c-0.1,0.1-0.3,0.1-0.4,0.2c-0.1,0.1-0.3,0.1-0.4,0.2c-0.9,0.9-1.3,1.8-1.4,2.7c-0.1,0.9,0.1,1.9,0.6,3c0.1,0.1,0.2,0.2,0.3,0.3
		s0.2,0.2,0.3,0.3C49.9,290.9,51.4,290.7,52.9,289.5z"/>
	<path class="st1" d="M67.6,291C67.6,291,67.6,291,67.6,291c0.1,0.3,0.1,0.5,0.1,0.7c-0.1,0.2-0.1,0.4-0.3,0.5
		c-0.1,0.1-0.3,0.2-0.6,0.2c-0.2,0-0.5,0-0.8-0.2c-0.2-0.2-0.3-0.3-0.4-0.5c-0.1-0.2-0.3-0.4-0.4-0.5c-0.3,0.3-0.7,0.6-1.1,0.8
		c-0.4,0.2-0.8,0.4-1.2,0.4c-0.7,0-1.4,0-2,0s-1.3-0.2-1.9-0.7c-0.5-0.4-0.9-0.8-1.1-1.3c-0.3-0.5-0.4-1-0.5-1.6
		c-0.1-0.6-0.1-1.1,0-1.7c0.1-0.6,0.2-1.1,0.4-1.7c0.1-0.2,0.2-0.5,0.3-0.7c0.1-0.2,0.3-0.5,0.4-0.7c0.2-0.3,0.4-0.7,0.6-1
		c0.2-0.3,0.5-0.6,0.8-0.8c0.2-0.2,0.4-0.3,0.7-0.5c0.2-0.2,0.4-0.3,0.6-0.4c0.2-0.1,0.4-0.2,0.7-0.3c0.3-0.1,0.7-0.2,1-0.3
		c0.4-0.1,0.7-0.1,1.1-0.1s0.7,0.1,0.9,0.2c0.2,0,0.5,0,0.7,0.2c0.2,0.2,0.4,0.4,0.5,0.7c0,1.2,0,2.3,0,3.5c0,1.2,0.1,2.3,0.2,3.5
		c0,0.2,0.1,0.3,0.2,0.5c0.1,0.2,0.2,0.4,0.4,0.6c0.1,0.2,0.2,0.4,0.3,0.6C67.6,290.8,67.6,290.9,67.6,291z M64.4,289.2
		C64.4,289.2,64.4,289.2,64.4,289.2c0.1-0.1,0.1-0.1,0.2-0.1c-0.2-1-0.3-2.1-0.3-3.2c0-1.1,0-2.1,0-3c-0.2,0-0.3,0-0.5,0.1
		s-0.4,0.1-0.5,0.1c-0.2,0.1-0.3,0.1-0.5,0.2c-0.1,0.1-0.3,0.1-0.3,0.1c-0.5,0.2-0.9,0.5-1.3,0.9c-0.4,0.4-0.7,0.8-0.9,1.3
		c-0.2,0.5-0.4,1-0.5,1.5c-0.1,0.5-0.2,1-0.2,1.6c0,0.1,0.1,0.3,0.1,0.4c0.1,0.1,0.1,0.3,0.1,0.4c0.1,0.1,0.2,0.2,0.3,0.3
		c0.1,0.1,0.2,0.2,0.3,0.3c0.2,0.1,0.3,0.1,0.5,0.2c0.2,0.1,0.3,0.1,0.5,0.2c0.3,0,0.6,0,0.8,0c0.3,0,0.5,0,0.8-0.1
		c0.3-0.2,0.5-0.3,0.8-0.5C63.9,289.6,64.1,289.4,64.4,289.2z"/>
	<path class="st1" d="M71.9,274.4c0.1-0.2,0.3-0.4,0.5-0.5c0.2-0.1,0.3-0.2,0.5-0.2c0.3,0,0.5,0.1,0.7,0.3c0.2,0.2,0.3,0.4,0.3,0.7
		c0,0.2,0,0.4-0.1,0.6c-0.3,0.6-0.6,1.3-1,2c-0.3,0.7-0.6,1.3-1,2c-0.1,0.2-0.3,0.3-0.5,0.4c-0.2,0.1-0.3,0.1-0.5,0.1
		c-0.3,0-0.5-0.1-0.7-0.3c-0.2-0.2-0.3-0.5-0.3-0.8c0-0.1,0-0.1,0-0.2c0-0.1,0-0.1,0-0.2c0.3-0.6,0.6-1.3,1-2
		C71.3,275.7,71.6,275.1,71.9,274.4z M76,275.2c0.1-0.2,0.3-0.4,0.5-0.5s0.3-0.2,0.5-0.2c0.3,0,0.5,0.1,0.7,0.3
		c0.2,0.2,0.3,0.4,0.3,0.7c0,0.2,0,0.4-0.1,0.6c-0.3,0.6-0.6,1.3-1,2c-0.3,0.7-0.6,1.3-1,2c-0.1,0.2-0.3,0.3-0.5,0.4
		c-0.2,0.1-0.3,0.1-0.5,0.1c-0.3,0-0.5-0.1-0.7-0.3c-0.2-0.2-0.3-0.5-0.3-0.8c0-0.1,0-0.1,0-0.2c0-0.1,0-0.1,0-0.2
		c0.3-0.6,0.6-1.3,1-2C75.4,276.5,75.7,275.9,76,275.2z"/>
</g>
<polyline class="st4" points="17.2,8.6 6.5,19.4 16.9,29.8 "/>
</svg>
