<?xml version="1.0" encoding="utf-8"?>
<!-- Generator: Adobe Illustrator 16.0.0, SVG Export Plug-In . SVG Version: 6.00 Build 0)  -->
<!DOCTYPE svg PUBLIC "-//W3C//DTD SVG 1.1//EN" "http://www.w3.org/Graphics/SVG/1.1/DTD/svg11.dtd">
<svg version="1.1" id="Layer_1" xmlns="http://www.w3.org/2000/svg" xmlns:xlink="http://www.w3.org/1999/xlink" x="0px" y="0px"
	 width="613.469px" height="612px" viewBox="89.606 0 613.469 612" enable-background="new 89.606 0 613.469 612"
	 xml:space="preserve">
<rect x="130.487" y="39.635" opacity="0.4" fill="#59595A" enable-background="new    " width="572.365" height="572.365"/>
<rect x="94.688" y="3.835" fill="#FCF3E3" width="572.365" height="572.365"/>
<g>
	<g>
		<path d="M243.853,496.931c1.278,0,2.131,0,3.835,0c4.688,0,4.688-7.245,0-7.245c-1.278,0-2.131,0-3.835,0
			C239.165,490.111,239.165,496.931,243.853,496.931L243.853,496.931z"/>
	</g>
</g>
<g>
	<g>
		<path d="M555.819,496.931c1.277,0,2.131,0,3.835,0c4.688,0,4.688-7.245,0-7.245c-1.278,0-2.131,0-3.835,0
			C551.557,490.111,551.557,496.931,555.819,496.931L555.819,496.931z"/>
	</g>
</g>
<rect x="233.624" y="473.916" fill="none" width="317.933" height="80.976"/>
<g enable-background="new    ">
	<path d="M340.072,522.734l-8.668-16.299h-5.548v16.299h-10.264v-45.218h16.298c9.57,0,17.477,3.329,17.477,14.078
		c0,6.657-3.26,10.889-8.045,13.038l10.195,18.102H340.072z M325.855,498.322h5.201c5.34,0,8.253-2.288,8.253-6.728
		c0-4.438-2.913-5.964-8.253-5.964h-5.201V498.322z"/>
	<path d="M358.237,477.518h28.365v8.601h-18.101v9.085h15.396v8.53h-15.396v10.401h18.794v8.601h-29.058V477.518L358.237,477.518z"
		/>
	<path d="M417.39,511.985h-13.87l-2.772,10.749h-10.403l14.217-45.218h12.205l14.219,45.218h-10.819L417.39,511.985z M415.31,504.01
		l-1.108-4.161c-1.249-4.508-2.428-9.848-3.676-14.563h-0.277c-1.04,4.785-2.289,10.056-3.537,14.563l-1.109,4.161H415.31z"/>
	<path d="M435.695,477.518h12.761c13.87,0,22.747,6.865,22.747,22.4c0,15.534-8.877,22.816-22.123,22.816h-13.385V477.518z
		 M447.901,514.481c7.629,0,12.83-3.745,12.83-14.563c0-10.819-5.201-14.146-12.83-14.146h-1.942v28.711L447.901,514.481
		L447.901,514.481z"/>
</g>
<g>
	<path fill="none" d="M208.905,326.457c45.602-127.003,244.63-141.067,341.374-4.262c0,0-34.521,76.713-167.064,76.713
		C273.259,398.908,196.972,360.978,208.905,326.457z"/>
	<g>
		<g>
			<path fill="#010101" d="M213.593,326.457c28.554-58.387,86.515-93.334,150.869-96.318
				c72.877-2.557,138.083,36.226,178.146,95.464c5.539,8.099,18.752,0.427,12.784-8.098
				c-43.044-63.501-112.513-105.267-190.93-102.71c-69.042,2.557-133.396,40.061-164.507,103.137
				C196.12,327.31,208.905,334.98,213.593,326.457L213.593,326.457z"/>
		</g>
	</g>
	<g>
		<g>
			<path fill="#010101" d="M536.215,341.8c-31.11,44.749-98.875,56.256-148.738,57.534c-60.092,1.279-126.577-13.211-168.769-59.665
				c-6.393-6.819-17.047,3.409-10.655,10.654c46.454,49.862,119.332,65.632,184.964,63.075
				c54.978-2.132,123.167-16.195,156.836-64.78C555.393,341.373,541.755,334.128,536.215,341.8L536.215,341.8z"/>
		</g>
	</g>
	<g>
		<path fill="#75AD66" d="M320.565,330.719c-16.195-21.31-8.098-59.666,19.604-78.418s66.059-11.507,85.236,16.195
			c19.179,27.702,11.508,66.059-16.194,85.237c-23.014,15.343-49.864,13.212-69.895,0"/>
		<g>
			<path fill="#010101" d="M326.958,326.457c-31.538-48.585,40.914-100.58,82.254-64.354c20.457,17.047,25.571,46.454,11.507,69.468
				c-17.048,27.274-50.716,31.537-77.565,15.343c-8.098-5.114-16.195,8.097-8.098,12.785c30.685,18.752,69.895,14.49,93.333-14.064
				c22.589-28.128,19.604-69.468-6.817-93.76c-53.699-49.863-149.165,17.9-107.825,82.253
				C319.287,342.651,332.072,334.98,326.958,326.457L326.958,326.457z"/>
		</g>
	</g>
	<g>
		<g>
			<path fill="#010101" d="M207.627,265.086c-11.507-6.819-23.014-13.638-34.521-20.457c-8.098-5.114-16.195,8.098-8.098,12.786
				c11.507,6.819,23.014,13.638,34.521,20.457C208.479,283.412,216.15,270.201,207.627,265.086L207.627,265.086z"/>
		</g>
	</g>
	<g>
		<g>
			<path fill="#010101" d="M278.373,216.075c-6.819-11.507-13.638-23.014-20.457-34.521c-4.688-8.097-17.9-0.852-12.786,8.098
				c6.819,11.507,13.638,23.014,20.457,34.521C270.702,231.844,283.062,224.173,278.373,216.075L278.373,216.075z"/>
		</g>
	</g>
	<g>
		<g>
			<path fill="#010101" d="M367.02,192.635c-2.557-13.638-5.114-27.702-8.098-41.766c-1.705-9.802-16.195-5.541-14.49,3.835
				c2.557,13.638,5.114,27.702,8.098,41.766C353.808,206.699,368.724,202.438,367.02,192.635L367.02,192.635z"/>
		</g>
	</g>
	<g>
		<g>
			<path fill="#010101" d="M450.978,204.142c5.541-12.359,11.508-24.719,17.049-37.504c3.835-8.95-8.95-16.195-12.786-8.097
				c-5.54,12.359-11.507,24.718-17.047,37.504C433.931,204.995,447.142,212.24,450.978,204.142L450.978,204.142z"/>
		</g>
	</g>
	<g>
		<g>
			<path fill="#010101" d="M528.117,252.301c9.802-8.95,18.752-17.899,28.554-27.702c6.819-6.819-3.835-17.047-10.654-10.654
				c-9.802,8.95-18.752,17.9-28.554,27.702C510.217,248.465,521.298,259.546,528.117,252.301L528.117,252.301z"/>
		</g>
	</g>
	<circle fill="#010101" cx="375.117" cy="303.017" r="22.162"/>
	
		<circle opacity="0.7" fill="#FFFFFF" stroke="#010101" stroke-miterlimit="10" enable-background="new    " cx="393.443" cy="285.543" r="16.195"/>
	<g>
		<g>
			<path fill="#010101" d="M165.861,67.763c33.242,0,66.484,0,99.727,0c6.819,0,6.819-10.655,0-10.655c-33.243,0-66.485,0-99.727,0
				C159.042,57.108,159.042,67.763,165.861,67.763L165.861,67.763z"/>
		</g>
	</g>
	<g>
		<g>
			<path fill="#010101" d="M299.256,67.763c11.507,0,22.162,0,33.242,0c6.819,0,6.819-10.655,0-10.655c-11.507,0-22.162,0-33.242,0
				C292.438,57.108,292.438,67.763,299.256,67.763L299.256,67.763z"/>
		</g>
	</g>
	<g>
		<g>
			<path fill="#010101" d="M384.067,159.819c12.359,0,25.145,0,37.504,0c6.817,0,6.817-10.654,0-10.654c-12.359,0-25.146,0-37.504,0
				C377.248,149.165,377.248,159.819,384.067,159.819L384.067,159.819z"/>
		</g>
	</g>
	<g>
		<g>
			<path fill="#010101" d="M364.036,67.763c25.571,0,50.716,0,76.713,0c6.819,0,6.819-10.655,0-10.655c-25.57,0-50.716,0-76.713,0
				C357.217,57.108,356.791,67.763,364.036,67.763L364.036,67.763z"/>
		</g>
	</g>
	<g>
		<g>
			<path fill="#010101" d="M367.02,99.727c21.309,0,42.192,0,63.501,0c6.818,0,6.818-10.655,0-10.655c-21.31,0-42.192,0-63.501,0
				C360.201,89.072,360.201,99.727,367.02,99.727L367.02,99.727z"/>
		</g>
	</g>
	<g>
		<g>
			<path fill="#010101" d="M464.189,99.727c11.507,0,22.16,0,33.241,0c6.819,0,6.819-10.655,0-10.655c-11.507,0-22.161,0-33.241,0
				C456.944,89.072,456.944,99.727,464.189,99.727L464.189,99.727z"/>
		</g>
	</g>
	<g>
		<g>
			<path fill="#010101" d="M528.97,99.727c25.57,0,50.716,0,76.713,0c6.818,0,6.818-10.655,0-10.655c-25.57,0-50.716,0-76.713,0
				C522.15,89.072,522.15,99.727,528.97,99.727L528.97,99.727z"/>
		</g>
	</g>
	<g>
		<g>
			<path fill="#010101" d="M165.861,98.448c11.507,0,22.162,0,33.242,0c6.819,0,6.819-10.654,0-10.654c-11.507,0-22.162,0-33.242,0
				C159.042,87.368,159.042,98.448,165.861,98.448L165.861,98.448z"/>
		</g>
	</g>
	<g>
		<g>
			<path fill="#010101" d="M230.641,98.448c25.571,0,50.716,0,76.713,0c6.819,0,6.819-10.654,0-10.654c-25.571,0-50.716,0-76.713,0
				C223.822,87.368,223.822,98.448,230.641,98.448L230.641,98.448z"/>
		</g>
	</g>
	<g>
		<g>
			<path fill="#010101" d="M165.861,159.819c11.507,0,22.162,0,33.242,0c6.819,0,6.819-10.654,0-10.654c-11.507,0-22.162,0-33.242,0
				C159.042,149.165,159.042,159.819,165.861,159.819L165.861,159.819z"/>
		</g>
	</g>
	<g>
		<g>
			<path fill="#010101" d="M247.688,159.819c23.014,0,45.602,0,68.616,0c6.819,0,6.819-10.654,0-10.654c-23.014,0-45.602,0-68.616,0
				C240.443,149.165,240.443,159.819,247.688,159.819L247.688,159.819z"/>
		</g>
	</g>
	<g>
		<g>
			<path fill="#010101" d="M467.173,225.025c13.212,0,26.851,0,40.063,0c6.817,0,6.817-10.654,0-10.654c-13.212,0-26.851,0-40.063,0
				C459.928,214.371,459.928,225.025,467.173,225.025L467.173,225.025z"/>
		</g>
	</g>
	<g>
		<g>
			<path fill="#010101" d="M582.669,225.025c8.097,0,16.194,0,24.292,0c6.819,0,6.819-10.654,0-10.654c-8.098,0-16.195,0-24.292,0
				C575.424,214.371,575.424,225.025,582.669,225.025L582.669,225.025z"/>
		</g>
	</g>
	<g>
		<g>
			<path fill="#010101" d="M566.474,256.563c15.344,0,30.26,0,44.749,0c6.819,0,6.819-10.654,0-10.654c-15.343,0-30.259,0-44.749,0
				C559.654,245.908,559.654,256.563,566.474,256.563L566.474,256.563z"/>
		</g>
	</g>
	<g>
		<g>
			<path fill="#010101" d="M574.571,289.805c8.098,0,16.193,0,24.292,0c6.818,0,6.818-10.655,0-10.655c-8.099,0-16.194,0-24.292,0
				C567.752,279.15,567.752,289.805,574.571,289.805L574.571,289.805z"/>
		</g>
	</g>
	<g>
		<g>
			<path fill="#010101" d="M488.056,159.819c24.292,0,48.159,0,72.451,0c6.819,0,6.819-10.654,0-10.654c-24.292,0-48.159,0-72.451,0
				C481.236,149.165,481.236,159.819,488.056,159.819L488.056,159.819z"/>
		</g>
	</g>
	<g>
		<g>
			<path fill="#010101" d="M470.156,67.763c24.292,0,48.158,0,72.451,0c6.817,0,6.817-10.655,0-10.655c-24.293,0-48.159,0-72.451,0
				C463.337,57.108,463.337,67.763,470.156,67.763L470.156,67.763z"/>
		</g>
	</g>
	<g>
		<g>
			<path fill="#010101" d="M570.735,67.763c1.277,0,2.558,0,3.408,0c6.819,0,6.819-10.655,0-10.655c-1.277,0-2.557,0-3.408,0
				C563.916,57.108,563.916,67.763,570.735,67.763L570.735,67.763z"/>
		</g>
	</g>
	<g>
		<g>
			<path fill="#010101" d="M469.304,130.838c33.242,0,66.484,0,99.728,0c6.818,0,6.818-10.655,0-10.655c-33.242,0-66.484,0-99.728,0
				C462.484,120.184,462.484,130.838,469.304,130.838L469.304,130.838z"/>
		</g>
	</g>
	<g>
		<g>
			<path fill="#010101" d="M281.356,130.838c11.507,0,22.162,0,33.242,0c6.819,0,6.819-10.655,0-10.655c-11.507,0-22.161,0-33.242,0
				C274.111,120.184,274.111,130.838,281.356,130.838L281.356,130.838z"/>
		</g>
	</g>
	<g>
		<g>
			<path fill="#010101" d="M287.323,190.504c8.95,0,17.899,0,27.276,0c6.819,0,6.819-10.655,0-10.655c-8.95,0-17.9,0-27.276,0
				C280.078,179.85,280.078,190.504,287.323,190.504L287.323,190.504z"/>
		</g>
	</g>
	<g>
		<g>
			<path fill="#010101" d="M391.312,190.504c9.802,0,19.604,0,29.407,0c6.819,0,6.819-10.655,0-10.655c-9.803,0-19.604,0-29.407,0
				C384.493,179.85,384.493,190.504,391.312,190.504L391.312,190.504z"/>
		</g>
	</g>
	<g>
		<g>
			<path fill="#010101" d="M482.941,190.504c11.507,0,22.161,0,33.241,0c6.819,0,6.819-10.655,0-10.655c-11.507,0-22.161,0-33.241,0
				C476.123,179.85,476.123,190.504,482.941,190.504L482.941,190.504z"/>
		</g>
	</g>
	<g>
		<g>
			<path fill="#010101" d="M538.346,190.504c23.866,0,47.308,0,71.173,0c6.818,0,6.818-10.655,0-10.655c-23.865,0-47.307,0-71.173,0
				C531.526,179.85,531.526,190.504,538.346,190.504L538.346,190.504z"/>
		</g>
	</g>
	<g>
		<g>
			<path fill="#010101" d="M166.713,130.838c25.571,0,50.716,0,76.713,0c6.819,0,6.819-10.655,0-10.655c-25.571,0-50.716,0-76.713,0
				C159.894,120.184,159.894,130.838,166.713,130.838L166.713,130.838z"/>
		</g>
	</g>
	<g>
		<g>
			<path fill="#010101" d="M166.713,190.504c18.752,0,38.357,0,57.109,0c6.819,0,6.819-10.655,0-10.655c-18.752,0-38.356,0-57.109,0
				C159.894,179.85,159.894,190.504,166.713,190.504L166.713,190.504z"/>
		</g>
	</g>
	<g>
		<g>
			<path fill="#010101" d="M341.875,130.838c24.292,0,48.159,0,72.452,0c6.817,0,6.817-10.655,0-10.655c-24.292,0-48.159,0-72.452,0
				C334.629,120.184,334.629,130.838,341.875,130.838L341.875,130.838z"/>
		</g>
	</g>
	<g>
		<g>
			<path fill="#010101" d="M439.045,130.838c1.278,0,2.557,0,3.409,0c6.819,0,6.819-10.655,0-10.655c-1.278,0-2.558,0-3.409,0
				C432.226,120.184,432.226,130.838,439.045,130.838L439.045,130.838z"/>
		</g>
	</g>
	<g>
		<g>
			<path fill="#010101" d="M592.045,159.819c1.278,0,2.557,0,3.409,0c6.819,0,6.819-10.654,0-10.654c-1.278,0-2.558,0-3.409,0
				C585.226,149.165,585.226,159.819,592.045,159.819L592.045,159.819z"/>
		</g>
	</g>
	<g>
		<g>
			<path fill="#010101" d="M552.409,289.805c1.278,0,2.558,0,3.41,0c6.817,0,6.817-10.655,0-10.655c-1.279,0-2.559,0-3.41,0
				C545.164,279.15,545.164,289.805,552.409,289.805L552.409,289.805z"/>
		</g>
	</g>
	<g>
		<g>
			<path fill="#010101" d="M336.76,98.875c1.279,0,2.557,0,3.41,0c6.819,0,6.819-10.654,0-10.654c-1.278,0-2.557,0-3.41,0
				C329.515,88.22,329.515,98.875,336.76,98.875L336.76,98.875z"/>
		</g>
	</g>
	<g>
		<g>
			<path fill="#010101" d="M223.396,159.819c1.279,0,2.557,0,3.41,0c6.819,0,6.819-10.654,0-10.654c-1.279,0-2.557,0-3.41,0
				C216.15,149.165,216.15,159.819,223.396,159.819L223.396,159.819z"/>
		</g>
	</g>
	<g>
		<g>
			<path fill="#010101" d="M165.861,225.025c11.507,0,22.162,0,33.242,0c6.819,0,6.819-10.654,0-10.654c-11.507,0-22.162,0-33.242,0
				C159.042,214.371,159.042,225.025,165.861,225.025L165.861,225.025z"/>
		</g>
	</g>
	<g>
		<g>
			<path fill="#010101" d="M165.861,289.805c2.557,0,5.114,0,8.097,0c6.819,0,6.819-10.655,0-10.655c-2.557,0-5.114,0-8.097,0
				C159.042,279.15,159.042,289.805,165.861,289.805L165.861,289.805z"/>
		</g>
	</g>
	<g>
		<g>
			<path fill="#010101" d="M223.396,225.025c1.279,0,2.557,0,3.41,0c6.819,0,6.819-10.654,0-10.654c-1.279,0-2.557,0-3.41,0
				C216.15,214.371,216.15,225.025,223.396,225.025L223.396,225.025z"/>
		</g>
	</g>
</g>
</svg>
