<?xml version="1.0" encoding="utf-8"?>
<!-- Generator: Adobe Illustrator 21.0.0, SVG Export Plug-In . SVG Version: 6.00 Build 0)  -->
<svg version="1.1" id="Layer_1" xmlns="http://www.w3.org/2000/svg" xmlns:xlink="http://www.w3.org/1999/xlink" x="0px" y="0px"
	 viewBox="0 0 225 402.7" style="enable-background:new 0 0 225 402.7;" xml:space="preserve">
<style type="text/css">
	.st0{fill:#E6D365;}
	.st1{fill:#69C9CA;}
	.st2{fill:#E69A45;}
	.st3{fill:#74AD66;}
	.st4{fill:#010101;}
	.st5{fill:#FFFFFF;}
	.st6{fill:none;stroke:#010101;stroke-width:2;stroke-miterlimit:10;}
	.st7{fill:#EF3D38;}
</style>
<rect y="1.1" class="st3" width="225" height="400.5"/>
<g>
	<path class="st4" d="M20.4,23.3c-0.3,0-0.5-0.1-0.7-0.3c-0.1-0.2-0.2-0.3-0.2-0.5c0-0.1,0-0.2,0.1-0.3v-8.6c-0.1,0-0.2,0.1-0.4,0.1
		c-0.2,0-0.4-0.1-0.6-0.2c-0.1-0.1-0.2-0.3-0.2-0.5c0-0.3,0.2-0.6,0.5-0.8c0.3-0.3,0.7-0.5,1.2-0.7c0.5-0.2,0.9-0.3,1.4-0.5
		c0.5-0.1,0.9-0.2,1.2-0.2c0.6,0,1.1,0.1,1.6,0.3s0.9,0.5,1.2,0.8c0.3,0.3,0.6,0.7,0.8,1c0.2,0.4,0.3,0.8,0.3,1.1
		c0,0.5-0.1,1-0.4,1.5c-0.3,0.5-0.6,0.9-1.1,1.2c0.7,0.3,1.2,0.8,1.5,1.3c0.3,0.5,0.5,1.1,0.5,1.6c0,0.4-0.1,0.7-0.2,1.1
		c-0.1,0.4-0.3,0.7-0.5,1c-0.2,0.3-0.5,0.6-0.8,0.8c-0.3,0.2-0.7,0.4-1.1,0.5c-0.5,0.2-1,0.3-1.5,0.3c-0.5,0-1,0.1-1.5,0.1
		c-0.2,0-0.4,0-0.6,0C20.7,23.3,20.6,23.3,20.4,23.3z M21.9,16c0.2,0,0.4,0,0.6,0c0.2,0,0.4-0.1,0.7-0.1c0.3-0.1,0.6-0.2,0.8-0.4
		c0.3-0.2,0.5-0.3,0.7-0.6s0.3-0.5,0.3-0.8c0-0.3-0.1-0.5-0.2-0.8s-0.3-0.4-0.6-0.5c-0.2-0.1-0.5-0.2-0.8-0.3
		c-0.3-0.1-0.6-0.1-0.8-0.1c-0.5,0-1,0.1-1.4,0.3v3.3C21.4,15.9,21.7,15.9,21.9,16z M24.8,18.3c-0.3-0.2-0.6-0.4-1-0.5
		c-0.4-0.1-0.7-0.2-1.1-0.2c-0.2,0-0.5,0.1-0.7,0.1c-0.2,0-0.5,0-0.7,0v4c0.3,0,0.7,0,1.1,0c0.5,0,1-0.1,1.4-0.2
		c0.5-0.1,0.9-0.3,1.2-0.6c0.3-0.3,0.5-0.7,0.5-1.2c0-0.3-0.1-0.5-0.2-0.8C25.2,18.7,25,18.5,24.8,18.3z"/>
	<path class="st4" d="M37.1,22.4C37.1,22.4,37.1,22.4,37.1,22.4c0.1,0.2,0.1,0.4,0,0.5c0,0.2-0.1,0.3-0.2,0.4
		c-0.1,0.1-0.3,0.2-0.4,0.2c-0.2,0-0.4,0-0.6-0.1c-0.1-0.1-0.2-0.3-0.3-0.4c-0.1-0.1-0.2-0.3-0.3-0.4c-0.3,0.2-0.6,0.4-0.9,0.6
		c-0.3,0.2-0.6,0.3-0.9,0.3c-0.5,0-1.1,0-1.6,0c-0.5,0-1-0.2-1.5-0.5c-0.4-0.3-0.7-0.6-0.9-1c-0.2-0.4-0.3-0.8-0.4-1.2
		c-0.1-0.4-0.1-0.9,0-1.3c0.1-0.5,0.2-0.9,0.3-1.3c0.1-0.2,0.2-0.4,0.3-0.5c0.1-0.2,0.2-0.4,0.3-0.5c0.1-0.3,0.3-0.5,0.5-0.8
		c0.2-0.2,0.4-0.4,0.6-0.6c0.2-0.1,0.3-0.2,0.5-0.4c0.2-0.1,0.3-0.2,0.5-0.3c0.1-0.1,0.3-0.2,0.5-0.3c0.2-0.1,0.5-0.2,0.8-0.2
		c0.3-0.1,0.6-0.1,0.9-0.1s0.5,0,0.7,0.1c0.2,0,0.4,0,0.5,0.1c0.2,0.1,0.3,0.3,0.4,0.6c0,0.9,0,1.8,0,2.7c0,0.9,0,1.8,0.2,2.7
		c0,0.1,0.1,0.3,0.1,0.4c0.1,0.2,0.2,0.3,0.3,0.5c0.1,0.2,0.2,0.3,0.3,0.4C37.1,22.2,37.1,22.3,37.1,22.4z M34.6,21
		C34.6,21,34.6,21,34.6,21c0.1-0.1,0.1-0.1,0.1-0.1c-0.2-0.8-0.3-1.6-0.3-2.5c0-0.9,0-1.7,0-2.4c-0.1,0-0.3,0-0.4,0
		c-0.1,0-0.3,0.1-0.4,0.1c-0.1,0-0.3,0.1-0.4,0.1c-0.1,0-0.2,0.1-0.3,0.1c-0.4,0.2-0.7,0.4-1,0.7c-0.3,0.3-0.5,0.6-0.7,1
		c-0.2,0.4-0.3,0.8-0.4,1.2c-0.1,0.4-0.1,0.8-0.1,1.2c0,0.1,0.1,0.2,0.1,0.3c0,0.1,0.1,0.2,0.1,0.3c0.1,0.1,0.1,0.1,0.2,0.2
		c0.1,0.1,0.1,0.2,0.2,0.2c0.1,0.1,0.2,0.1,0.4,0.1c0.1,0,0.2,0.1,0.4,0.1c0.2,0,0.4,0,0.7,0c0.2,0,0.4,0,0.6-0.1
		c0.2-0.1,0.4-0.3,0.6-0.4C34.2,21.3,34.4,21.1,34.6,21z"/>
	<path class="st4" d="M43.6,21.1c0.2-0.2,0.5-0.3,0.7-0.3c0.2,0,0.4,0.1,0.5,0.2c0.1,0.1,0.2,0.3,0.2,0.5c0,0.2-0.1,0.4-0.3,0.7
		c-0.4,0.5-1,0.8-1.6,1c-0.6,0.2-1.2,0.3-1.8,0.2c-0.6-0.1-1.1-0.3-1.6-0.7c-0.5-0.4-0.9-0.9-1.1-1.5c-0.1-0.4-0.3-0.7-0.3-1.1
		s-0.1-0.8-0.1-1.2c0-0.6,0.2-1.3,0.5-1.9c0.3-0.6,0.6-1.2,1.1-1.7c0.4-0.5,1-0.8,1.6-1.1c0.6-0.2,1.3-0.2,2,0
		c0.4,0.1,0.7,0.3,1,0.4c0.3,0.2,0.6,0.4,0.8,0.7c0.1,0.2,0.2,0.4,0.2,0.6s-0.1,0.4-0.2,0.5c-0.1,0.1-0.3,0.2-0.5,0.3
		c-0.2,0-0.4,0-0.7-0.1c-0.4-0.4-0.9-0.7-1.3-0.8s-0.8-0.1-1.1,0.1c-0.4,0.2-0.7,0.4-0.9,0.8c-0.3,0.4-0.5,0.8-0.6,1.2
		c-0.1,0.4-0.2,0.9-0.2,1.4c0,0.5,0.1,0.9,0.3,1.4c0.2,0.4,0.4,0.7,0.7,0.9c0.3,0.2,0.6,0.3,0.9,0.3c0.3,0,0.6,0,1-0.1
		C43,21.6,43.3,21.3,43.6,21.1z"/>
	<path class="st4" d="M48.6,23.2c-0.2,0.2-0.3,0.2-0.5,0.2c-0.2,0-0.4-0.1-0.5-0.2c-0.2-0.1-0.3-0.4-0.3-0.7V11.2
		c0.1-0.3,0.2-0.4,0.3-0.6c0.2-0.1,0.3-0.2,0.5-0.2c0.2,0,0.3,0.1,0.5,0.2c0.2,0.1,0.3,0.3,0.4,0.6V17c0.3-0.2,0.7-0.4,0.9-0.6
		c0.3-0.2,0.5-0.4,0.8-0.7c0.3-0.3,0.5-0.5,0.8-0.8c0.3-0.3,0.6-0.6,0.9-1c0.2-0.2,0.5-0.3,0.7-0.3c0.2,0,0.4,0.1,0.5,0.2
		s0.2,0.3,0.2,0.5c0,0.2-0.1,0.4-0.3,0.7c-0.5,0.6-1,1.1-1.4,1.5c-0.4,0.4-0.9,0.8-1.4,1.2c0.7,0.8,1.3,1.5,1.9,2.2
		c0.6,0.7,1.3,1.4,1.9,2.2c0.2,0.2,0.2,0.5,0.2,0.7c0,0.2-0.1,0.4-0.3,0.5c-0.1,0.1-0.3,0.2-0.5,0.2c-0.2,0-0.4-0.1-0.7-0.3
		c-0.7-0.8-1.4-1.5-2-2.2c-0.6-0.7-1.3-1.4-2-2.2c-0.1,0-0.2,0.1-0.2,0.1c-0.1,0-0.1,0.1-0.2,0.1v3.7C48.8,22.8,48.7,23,48.6,23.2z"
		/>
</g>
<rect x="19" y="78.4" class="st5" width="187.1" height="123"/>
<polyline class="st6" points="17.5,6.4 6.7,17.2 17.1,27.6 "/>
<path class="st3" d="M22.4,103.7c-0.1-0.2-0.1-0.4-0.1-0.5c0-0.2,0.1-0.4,0.2-0.5c0.1-0.1,0.3-0.2,0.5-0.2c0.2,0,0.4,0.1,0.6,0.2
	c0.2,0.3,0.5,0.5,0.8,0.7c0.3,0.2,0.6,0.3,0.9,0.4c0.3,0.1,0.7,0.2,1,0.2c0.3,0,0.7,0.1,1,0.1c0.2-0.1,0.4-0.1,0.5-0.1
	c0.1,0,0.2,0,0.2-0.1c0.1,0,0.1-0.1,0.2-0.1s0.2-0.1,0.4-0.3c0.1-0.1,0.1-0.2,0.2-0.3c0.1-0.1,0.1-0.2,0.2-0.3l0.2-0.5
	c0-0.1,0-0.2,0-0.3c0-0.1,0-0.2,0-0.3c0-0.1-0.1-0.2-0.1-0.3c0-0.1-0.1-0.2-0.1-0.3c-0.1-0.1-0.2-0.2-0.2-0.3
	c-0.1-0.1-0.1-0.2-0.2-0.3c-0.1-0.1-0.2-0.1-0.4-0.2c-0.1-0.1-0.2-0.1-0.4-0.2c-0.5-0.2-1-0.3-1.5-0.4c-0.5-0.1-0.9-0.2-1.3-0.3
	c-0.4-0.1-0.8-0.3-1.1-0.5c-0.4-0.2-0.7-0.6-1-1.1c-0.1-0.1-0.1-0.2-0.1-0.2c0-0.1,0-0.1,0-0.3c0-0.1,0-0.2,0-0.3c0-0.1,0-0.2,0-0.3
	c0-0.2,0-0.4,0.1-0.6c0-0.2,0.1-0.4,0.2-0.5c0.1-0.2,0.2-0.3,0.4-0.5c0.1-0.2,0.3-0.4,0.5-0.6c0.2-0.2,0.5-0.4,0.8-0.6
	c0.3-0.2,0.6-0.3,0.9-0.4c0.3-0.1,0.6-0.1,1-0.2c0.3,0,0.7,0,1,0c0.1,0,0.2,0,0.3,0c0.1,0,0.2,0,0.3,0c0.3,0,0.6,0.1,0.9,0.2
	c0.3,0.1,0.5,0.2,0.8,0.3c0.3,0.2,0.5,0.5,0.5,0.8c0,0.2-0.1,0.4-0.2,0.5c-0.2,0.2-0.4,0.2-0.6,0.2c0,0-0.1,0-0.1,0c0,0-0.1,0-0.1,0
	c-0.4-0.1-0.8-0.2-1.1-0.3s-0.6-0.1-0.9-0.1c-0.3,0-0.6,0.1-1,0.2c-0.3,0.1-0.7,0.3-1.1,0.5c-0.1,0.1-0.2,0.2-0.2,0.3
	c-0.1,0.1-0.2,0.2-0.2,0.3c0,0.1-0.1,0.2-0.1,0.2c0,0.1-0.1,0.2-0.1,0.2c0,0.1,0,0.2,0,0.2s0,0.2,0,0.2c0.1,0.1,0.1,0.1,0.1,0.2
	c0,0.1,0.1,0.1,0.1,0.2l0.8,0.5c0.4,0.1,0.8,0.2,1.1,0.2s0.7,0.1,1,0.2c0.3,0.1,0.6,0.2,0.9,0.3c0.3,0.1,0.6,0.3,1,0.5
	c0.2,0.1,0.3,0.2,0.5,0.4c0.1,0.2,0.3,0.3,0.4,0.5c0.2,0.2,0.4,0.5,0.5,0.8c0.1,0.3,0.1,0.6,0.1,1c0,0.5-0.1,0.9-0.3,1.4
	c-0.2,0.4-0.4,0.8-0.8,1.1c-0.1,0.1-0.2,0.2-0.4,0.3c-0.1,0.1-0.2,0.2-0.4,0.2c-0.3,0.2-0.6,0.3-0.9,0.4c-0.3,0.1-0.7,0.1-1.1,0.1
	c-0.4,0-0.9,0-1.3-0.1s-0.9-0.2-1.3-0.4c-0.4-0.2-0.8-0.4-1.1-0.6C22.9,104.2,22.6,104,22.4,103.7z"/>
<path class="st3" d="M34.1,105.2c-0.2,0.1-0.3,0.2-0.5,0.2c-0.2,0-0.4-0.1-0.5-0.2c-0.2-0.1-0.3-0.4-0.3-0.6V93.7
	c0.1-0.2,0.2-0.4,0.3-0.6c0.2-0.1,0.3-0.2,0.5-0.2c0.2,0,0.3,0,0.5,0.2c0.2,0.1,0.3,0.3,0.4,0.6v4.6c0.2-0.2,0.4-0.4,0.6-0.5
	c0.3-0.2,0.5-0.3,0.7-0.4c0.2-0.1,0.5-0.2,0.8-0.3c0.2-0.1,0.5-0.1,0.7,0c0.2,0,0.5,0.1,0.7,0.2c0.4,0.1,0.7,0.3,1,0.6
	c0.3,0.3,0.5,0.6,0.7,0.9c0.2,0.3,0.3,0.7,0.4,1.1c0.1,0.4,0.1,0.8,0.2,1.1c0,0.6,0,1.2,0,1.9c0,0.6,0,1.2,0,1.9
	c0,0.3-0.1,0.5-0.3,0.7c-0.2,0.1-0.3,0.2-0.5,0.2c-0.2,0-0.4-0.1-0.5-0.2c-0.2-0.1-0.3-0.4-0.3-0.6c0-0.6,0-1.2,0-1.9
	c0-0.6,0-1.2,0-1.9c0-0.5-0.1-0.9-0.3-1.3c-0.2-0.4-0.4-0.7-0.9-1c-0.3-0.1-0.6-0.1-0.9,0c-0.3,0.1-0.5,0.2-0.8,0.4
	c-0.2,0.2-0.4,0.4-0.6,0.7c-0.2,0.2-0.4,0.5-0.6,0.7c0,0-0.1,0.1-0.1,0.1c0,0-0.1,0.1-0.1,0.1v3.8C34.4,104.9,34.3,105.1,34.1,105.2
	z"/>
<path class="st3" d="M48.9,102.9c0.3-0.1,0.5-0.1,0.7,0c0.2,0.1,0.3,0.2,0.4,0.4c0.1,0.2,0.1,0.4,0,0.6s-0.2,0.4-0.5,0.5
	c-0.4,0.2-0.9,0.5-1.4,0.7c-0.5,0.2-1,0.4-1.5,0.4c-0.5,0.1-1,0.1-1.5,0c-0.5-0.1-1-0.3-1.4-0.6c-0.6-0.4-1-0.9-1.3-1.5
	c-0.3-0.6-0.4-1.3-0.5-2c0-0.7,0.1-1.4,0.4-2c0.3-0.6,0.7-1.2,1.3-1.6c0.6-0.4,1.3-0.7,2-0.9c0.7-0.2,1.4-0.2,2.1-0.1
	c0.4,0.1,0.7,0.2,1,0.5c0.3,0.3,0.5,0.5,0.7,0.9c0.2,0.3,0.3,0.7,0.3,1.1c0,0.4-0.1,0.7-0.3,1.1c-0.2,0.4-0.5,0.7-1,0.9
	c-0.4,0.3-0.9,0.5-1.4,0.6c-0.5,0.2-1,0.3-1.5,0.4c-0.5,0.1-0.9,0.2-1.3,0.3c-0.2,0-0.3,0-0.5,0c0.2,0.4,0.5,0.8,0.9,1
	c0.4,0.3,0.9,0.4,1.4,0.3c0.5,0,0.9-0.2,1.4-0.4C48.1,103.3,48.5,103.1,48.9,102.9z M45.1,98.7c-0.5,0.2-0.8,0.6-1.1,1.1
	s-0.4,0.9-0.4,1.4c0.1-0.1,0.2-0.1,0.3-0.2c0.2-0.1,0.5-0.1,0.7-0.2c0.2-0.1,0.5-0.1,0.7-0.2c0.2,0,0.4-0.1,0.6-0.2
	c0.3-0.1,0.5-0.2,0.8-0.3c0.3-0.1,0.6-0.2,0.8-0.4c0.2-0.1,0.4-0.3,0.5-0.5c0-0.4-0.1-0.7-0.3-0.9c-0.2-0.2-0.5-0.2-0.8-0.2
	s-0.7,0.1-1,0.2C45.6,98.5,45.3,98.6,45.1,98.7z"/>
<path class="st3" d="M58.9,96.7c0.1-0.1,0.3-0.2,0.5-0.2c0.2,0,0.3,0.1,0.5,0.2c0.2,0.1,0.3,0.3,0.3,0.6v0.2c0.3-0.3,0.6-0.5,1-0.6
	c0.4-0.1,0.8-0.2,1.1-0.2c0.5,0,1,0.1,1.4,0.3c0.4,0.2,0.8,0.5,1.1,0.9c0.3,0.4,0.6,0.8,0.8,1.3c0.2,0.5,0.3,1,0.3,1.6
	c0,0.6-0.1,1.2-0.3,1.7c-0.2,0.5-0.5,1-0.9,1.4c-0.4,0.4-0.9,0.7-1.5,0.9c-0.6,0.2-1.3,0.3-2,0.3c-0.2,0-0.4,0-0.5,0
	c-0.2,0-0.4,0-0.5-0.1v4.1c0,0.3-0.1,0.5-0.3,0.7c-0.2,0.1-0.3,0.2-0.5,0.2c-0.2,0-0.4-0.1-0.5-0.2c-0.2-0.1-0.3-0.4-0.3-0.6v-12
	C58.6,97,58.7,96.8,58.9,96.7z M60.4,99.5c0,0-0.1,0.1-0.1,0.1c0,0-0.1,0.1-0.1,0.1v3.7c0.2,0,0.4,0.1,0.5,0.1c0.2,0,0.4,0,0.5,0
	c0.4,0,0.9-0.1,1.2-0.2c0.4-0.1,0.7-0.3,1-0.5c0.3-0.2,0.5-0.5,0.7-0.8s0.2-0.7,0.2-1.1c0-0.3-0.1-0.6-0.1-1
	c-0.1-0.3-0.2-0.6-0.4-0.9c-0.2-0.3-0.4-0.5-0.6-0.6c-0.2-0.2-0.5-0.2-0.8-0.2c-0.2,0-0.4,0-0.6,0.1c-0.2,0.1-0.4,0.2-0.6,0.3
	c-0.2,0.1-0.3,0.3-0.5,0.4C60.6,99.2,60.5,99.3,60.4,99.5z"/>
<path class="st3" d="M70,104.2c0.2,0.2,0.4,0.4,0.4,0.6c0,0.2,0,0.4-0.1,0.6c-0.1,0.2-0.2,0.3-0.5,0.3c-0.2,0.1-0.4,0-0.7-0.1
	c-0.1-0.1-0.2-0.2-0.4-0.2c-0.1-0.1-0.2-0.2-0.4-0.2c-0.1-0.1-0.2-0.2-0.2-0.3c0-0.1-0.1-0.2-0.1-0.4V93.6c0.1-0.2,0.2-0.4,0.3-0.6
	c0.2-0.1,0.3-0.2,0.5-0.2c0.2,0,0.3,0,0.5,0.2s0.3,0.3,0.4,0.6v10.6c0,0,0.1,0.1,0.1,0.1C69.9,104.2,70,104.2,70,104.2z"/>
<path class="st3" d="M79.7,104.3C79.7,104.4,79.7,104.4,79.7,104.3c0.1,0.2,0.1,0.4,0,0.5c0,0.2-0.1,0.3-0.2,0.4
	c-0.1,0.1-0.3,0.2-0.4,0.2c-0.2,0-0.4,0-0.6-0.1c-0.1-0.1-0.2-0.2-0.3-0.4c-0.1-0.1-0.2-0.3-0.3-0.4c-0.3,0.2-0.5,0.4-0.8,0.6
	c-0.3,0.2-0.6,0.3-0.9,0.3c-0.5,0-1,0-1.6,0c-0.5,0-1-0.2-1.5-0.5c-0.4-0.3-0.7-0.6-0.9-1c-0.2-0.4-0.3-0.8-0.4-1.2
	c-0.1-0.4-0.1-0.9,0-1.3c0.1-0.4,0.2-0.9,0.3-1.3c0.1-0.2,0.2-0.4,0.3-0.5c0.1-0.2,0.2-0.3,0.3-0.5c0.1-0.3,0.3-0.5,0.5-0.7
	c0.2-0.2,0.4-0.4,0.6-0.6c0.2-0.1,0.3-0.2,0.5-0.4c0.2-0.1,0.3-0.2,0.5-0.3c0.1-0.1,0.3-0.2,0.5-0.2c0.2-0.1,0.5-0.2,0.8-0.2
	c0.3-0.1,0.6-0.1,0.8-0.1s0.5,0,0.7,0.1c0.2,0,0.4,0,0.5,0.1c0.2,0.1,0.3,0.3,0.4,0.6c0,0.9,0,1.8,0,2.7c0,0.9,0,1.8,0.2,2.7
	c0,0.1,0.1,0.3,0.1,0.4c0.1,0.2,0.2,0.3,0.3,0.5c0.1,0.2,0.2,0.3,0.3,0.4C79.7,104.2,79.7,104.3,79.7,104.3z M77.3,103
	C77.3,103,77.3,103,77.3,103c0.1-0.1,0.1-0.1,0.1-0.1c-0.2-0.8-0.3-1.6-0.2-2.4c0-0.8,0-1.6,0-2.3c-0.1,0-0.2,0-0.4,0
	s-0.3,0.1-0.4,0.1c-0.1,0-0.3,0.1-0.4,0.1c-0.1,0-0.2,0.1-0.2,0.1c-0.4,0.2-0.7,0.4-1,0.7c-0.3,0.3-0.5,0.6-0.7,1
	c-0.2,0.4-0.3,0.7-0.4,1.1c-0.1,0.4-0.1,0.8-0.1,1.2c0,0.1,0.1,0.2,0.1,0.3c0,0.1,0.1,0.2,0.1,0.3c0.1,0.1,0.1,0.1,0.2,0.2
	c0.1,0.1,0.1,0.2,0.2,0.2c0.1,0.1,0.2,0.1,0.4,0.1c0.1,0,0.2,0.1,0.4,0.1c0.2,0,0.4,0,0.6,0c0.2,0,0.4,0,0.6-0.1
	c0.2-0.1,0.4-0.3,0.6-0.4C76.9,103.3,77.1,103.1,77.3,103z"/>
<path class="st3" d="M87.9,96.8c0.1-0.2,0.2-0.3,0.4-0.4s0.3-0.1,0.4-0.1c0.2,0,0.4,0.1,0.6,0.3c0.1,0.2,0.2,0.4,0.2,0.7
	c-0.3,1.1-0.6,2.1-1,3.1c-0.4,1-0.9,2-1.4,2.9c-0.5,1-1,1.9-1.6,2.8c-0.6,0.9-1.1,1.9-1.6,2.8c-0.1,0.1-0.2,0.2-0.4,0.3
	c-0.1,0.1-0.3,0.1-0.4,0.1c-0.2,0-0.4-0.1-0.5-0.2s-0.2-0.3-0.2-0.6c0,0,0-0.1,0-0.1c0,0,0-0.1,0-0.1c0.4-0.8,0.9-1.6,1.3-2.4
	c0.5-0.8,0.9-1.6,1.3-2.3c-0.5-0.4-1-0.8-1.4-1.3c-0.4-0.4-0.8-0.9-1.1-1.4c-0.3-0.5-0.6-1-0.9-1.6c-0.2-0.6-0.5-1.2-0.6-1.9
	c0-0.3,0.1-0.6,0.2-0.8c0.1-0.2,0.3-0.3,0.6-0.3c0.2,0,0.3,0.1,0.5,0.2c0.1,0.1,0.3,0.3,0.3,0.5c0.1,0.6,0.3,1.1,0.5,1.5
	c0.2,0.5,0.4,0.9,0.7,1.3c0.3,0.4,0.6,0.8,0.9,1.1c0.3,0.4,0.7,0.7,1.1,1.1c0.4-0.9,0.8-1.7,1.2-2.6C87.4,98.6,87.7,97.7,87.9,96.8z
	"/>
<path class="st3" d="M97,102.9c0.3-0.1,0.5-0.1,0.7,0c0.2,0.1,0.3,0.2,0.4,0.4c0.1,0.2,0.1,0.4,0,0.6c-0.1,0.2-0.2,0.4-0.5,0.5
	c-0.4,0.2-0.9,0.5-1.4,0.7c-0.5,0.2-1,0.4-1.5,0.4c-0.5,0.1-1,0.1-1.5,0c-0.5-0.1-1-0.3-1.4-0.6c-0.6-0.4-1-0.9-1.3-1.5
	c-0.3-0.6-0.4-1.3-0.5-2c0-0.7,0.1-1.4,0.4-2c0.3-0.6,0.7-1.2,1.3-1.6c0.6-0.4,1.3-0.7,2-0.9c0.7-0.2,1.4-0.2,2.1-0.1
	c0.4,0.1,0.7,0.2,1,0.5c0.3,0.3,0.5,0.5,0.7,0.9c0.2,0.3,0.3,0.7,0.3,1.1c0,0.4-0.1,0.7-0.3,1.1c-0.2,0.4-0.5,0.7-1,0.9
	c-0.4,0.3-0.9,0.5-1.4,0.6c-0.5,0.2-1,0.3-1.5,0.4c-0.5,0.1-0.9,0.2-1.3,0.3c-0.2,0-0.3,0-0.5,0c0.2,0.4,0.5,0.8,0.9,1
	c0.4,0.3,0.9,0.4,1.4,0.3c0.5,0,0.9-0.2,1.4-0.4C96.2,103.3,96.6,103.1,97,102.9z M93.2,98.7c-0.5,0.2-0.8,0.6-1.1,1.1
	c-0.2,0.5-0.4,0.9-0.4,1.4c0.1-0.1,0.2-0.1,0.3-0.2c0.2-0.1,0.5-0.1,0.7-0.2c0.2-0.1,0.5-0.1,0.7-0.2c0.2,0,0.4-0.1,0.6-0.2
	s0.5-0.2,0.8-0.3c0.3-0.1,0.6-0.2,0.8-0.4c0.2-0.1,0.4-0.3,0.5-0.5c0-0.4-0.1-0.7-0.3-0.9c-0.2-0.2-0.5-0.2-0.8-0.2
	c-0.3,0-0.7,0.1-1,0.2C93.7,98.5,93.4,98.6,93.2,98.7z"/>
<path class="st3" d="M107.5,103.8c0.2,0.2,0.2,0.5,0.2,0.7c0,0.2-0.1,0.4-0.3,0.5c-0.1,0.1-0.3,0.2-0.5,0.2c-0.2,0-0.4-0.1-0.6-0.3
	c-0.1-0.1-0.1-0.1-0.2-0.2c-0.1-0.1-0.1-0.1-0.1-0.2c-0.4,0.3-0.8,0.6-1.4,0.8c-0.5,0.2-1,0.3-1.6,0.3c-0.5,0-1-0.1-1.5-0.3
	c-0.5-0.2-0.9-0.6-1.2-1c-0.2-0.4-0.4-0.7-0.5-1.2c-0.1-0.4-0.2-0.9-0.2-1.3s0.1-0.9,0.2-1.3c0.1-0.4,0.3-0.8,0.4-1.2
	c0.2-0.3,0.4-0.6,0.7-0.9c0.3-0.3,0.6-0.5,0.9-0.7c0.3-0.2,0.6-0.3,1-0.4c0.4-0.1,0.7-0.2,1.1-0.2c0.3,0,0.6,0,0.9,0
	c0.3,0,0.6,0.1,0.9,0.2c0-0.9,0-1.7,0-2.4c0-0.6,0-1.1,0-1.3c0.1-0.2,0.2-0.4,0.3-0.6c0.2-0.1,0.3-0.2,0.5-0.2c0.2,0,0.3,0,0.5,0.2
	s0.3,0.3,0.4,0.6v10.3c0,0,0.1,0.1,0.1,0.1C107.5,103.7,107.5,103.8,107.5,103.8z M105.8,102.4v-0.3c0-0.5,0-1,0-1.6
	c0-0.6,0-1.1,0-1.7l-0.1-0.1c0,0-0.1-0.1-0.1-0.1c0,0-0.1-0.1-0.1-0.1c-0.4-0.1-0.8-0.2-1.2-0.2c-0.4,0-0.8,0.1-1.2,0.2
	c-0.4,0.2-0.7,0.4-1,0.7c-0.3,0.3-0.5,0.7-0.6,1.1c-0.1,0.4-0.1,0.8-0.1,1.1c0,0.3,0.1,0.7,0.1,1.1c0.1,0.1,0.1,0.2,0.1,0.3
	c0,0.1,0.1,0.2,0.1,0.3l0.4,0.4c0.2,0.1,0.3,0.1,0.5,0.2c0.5,0.1,1,0,1.4-0.1c0.4-0.1,0.9-0.3,1.3-0.7c0,0,0-0.1,0.1-0.1
	c0,0,0.1-0.1,0.1-0.1c0.1-0.1,0.1-0.1,0.1-0.1c0,0,0.1-0.1,0.1-0.1L105.8,102.4z"/>
<path class="st7" d="M116.9,98.4c-0.2-0.1-0.3-0.2-0.4-0.4s-0.1-0.3-0.1-0.4c0-0.2,0.1-0.4,0.2-0.5c0.1-0.1,0.3-0.2,0.6-0.2
	c0.2,0,0.4,0.1,0.7,0.2c0.3,0.1,0.5,0.3,0.6,0.4c0.4-0.3,0.8-0.6,1.3-0.8c0.4-0.2,0.9-0.3,1.3-0.3c0.1,0,0.3,0,0.6,0.1
	s0.5,0.2,0.7,0.3c0.2,0.1,0.5,0.3,0.6,0.5c0.2,0.2,0.3,0.5,0.3,0.7c0,0.2-0.1,0.4-0.2,0.5c-0.1,0.1-0.3,0.2-0.5,0.2
	c-0.1,0-0.3,0-0.4-0.1c-0.1-0.1-0.2-0.2-0.3-0.3c-0.1-0.1-0.2-0.2-0.4-0.3c-0.1-0.1-0.3-0.1-0.4-0.1c-0.2,0-0.4,0.1-0.6,0.2
	c-0.2,0.1-0.4,0.2-0.6,0.4c-0.2,0.2-0.4,0.3-0.6,0.5c-0.2,0.2-0.4,0.3-0.5,0.5v5.2c0,0.3-0.1,0.5-0.3,0.7c-0.2,0.1-0.3,0.2-0.5,0.2
	c-0.2,0-0.4-0.1-0.5-0.2c-0.2-0.1-0.3-0.4-0.3-0.6v-5.4c0,0,0-0.1,0-0.1c0,0,0-0.1,0-0.1c0,0,0-0.1,0-0.1c0,0,0-0.1,0-0.1v-0.6
	C117,98.4,116.9,98.4,116.9,98.4z"/>
<path class="st7" d="M130.9,104.3C130.9,104.4,130.9,104.4,130.9,104.3c0.1,0.2,0.1,0.4,0,0.5c0,0.2-0.1,0.3-0.2,0.4
	c-0.1,0.1-0.3,0.2-0.4,0.2c-0.2,0-0.4,0-0.6-0.1c-0.1-0.1-0.2-0.2-0.3-0.4c-0.1-0.1-0.2-0.3-0.3-0.4c-0.3,0.2-0.5,0.4-0.8,0.6
	c-0.3,0.2-0.6,0.3-0.9,0.3c-0.5,0-1,0-1.6,0c-0.5,0-1-0.2-1.5-0.5c-0.4-0.3-0.7-0.6-0.9-1c-0.2-0.4-0.3-0.8-0.4-1.2
	c-0.1-0.4-0.1-0.9,0-1.3c0.1-0.4,0.2-0.9,0.3-1.3c0.1-0.2,0.2-0.4,0.3-0.5c0.1-0.2,0.2-0.3,0.3-0.5c0.1-0.3,0.3-0.5,0.5-0.7
	c0.2-0.2,0.4-0.4,0.6-0.6c0.2-0.1,0.3-0.2,0.5-0.4s0.3-0.2,0.5-0.3c0.1-0.1,0.3-0.2,0.5-0.2c0.2-0.1,0.5-0.2,0.8-0.2
	c0.3-0.1,0.6-0.1,0.8-0.1c0.3,0,0.5,0,0.7,0.1c0.2,0,0.4,0,0.5,0.1c0.2,0.1,0.3,0.3,0.4,0.6c0,0.9,0,1.8,0,2.7c0,0.9,0,1.8,0.2,2.7
	c0,0.1,0.1,0.3,0.1,0.4c0.1,0.2,0.2,0.3,0.3,0.5c0.1,0.2,0.2,0.3,0.3,0.4C130.8,104.2,130.9,104.3,130.9,104.3z M128.4,103
	C128.4,103,128.4,103,128.4,103c0.1-0.1,0.1-0.1,0.1-0.1c-0.2-0.8-0.3-1.6-0.2-2.4c0-0.8,0-1.6,0-2.3c-0.1,0-0.2,0-0.4,0
	c-0.1,0-0.3,0.1-0.4,0.1c-0.1,0-0.3,0.1-0.4,0.1c-0.1,0-0.2,0.1-0.2,0.1c-0.4,0.2-0.7,0.4-1,0.7c-0.3,0.3-0.5,0.6-0.7,1
	c-0.2,0.4-0.3,0.7-0.4,1.1c-0.1,0.4-0.1,0.8-0.1,1.2c0,0.1,0.1,0.2,0.1,0.3c0,0.1,0.1,0.2,0.1,0.3c0.1,0.1,0.1,0.1,0.2,0.2
	c0.1,0.1,0.1,0.2,0.2,0.2c0.1,0.1,0.2,0.1,0.4,0.1c0.1,0,0.2,0.1,0.4,0.1c0.2,0,0.4,0,0.6,0c0.2,0,0.4,0,0.6-0.1
	c0.2-0.1,0.4-0.3,0.6-0.4C128,103.3,128.2,103.1,128.4,103z"/>
<path class="st7" d="M165.4,109.9c-0.2,0.2-0.3,0.2-0.5,0.2c-0.2,0-0.4-0.1-0.5-0.2c-0.2-0.1-0.3-0.4-0.3-0.6v-4.5
	c-0.5,0.2-0.9,0.3-1.4,0.3c-0.3,0-0.6,0-0.9,0c-0.3,0-0.7-0.1-0.9-0.1c-0.7-0.2-1.2-0.5-1.6-1c-0.4-0.5-0.6-1-0.8-1.6
	c-0.1-0.6-0.2-1.2-0.1-1.8c0.1-0.6,0.2-1.2,0.5-1.8c0.2-0.4,0.4-0.8,0.7-1.1c0.3-0.3,0.7-0.5,1.1-0.7c0.4-0.2,0.8-0.3,1.3-0.4
	c0.5-0.1,0.9-0.1,1.3-0.1c0.4,0,0.8,0.1,1.2,0.3c0.2-0.1,0.4-0.2,0.7-0.1c0.3,0.1,0.4,0.3,0.5,0.6v11.7
	C165.6,109.5,165.6,109.7,165.4,109.9z M160.7,103.3c0.5,0.2,1.1,0.3,1.7,0.3c0.6,0,1.1-0.2,1.6-0.5v-4.5c-0.1,0-0.1-0.1-0.1-0.1
	c-0.3-0.1-0.7-0.2-1-0.2c-0.4,0-0.7,0-1,0.1c-0.3,0.1-0.6,0.2-0.9,0.5c-0.3,0.2-0.5,0.5-0.7,0.8c-0.2,0.4-0.3,0.9-0.3,1.4
	c0,0.5,0,1,0.1,1.5c0.1,0.1,0.1,0.2,0.1,0.2c0,0.1,0.1,0.2,0.1,0.3c0.1,0.1,0.1,0.1,0.2,0.2C160.6,103.2,160.7,103.2,160.7,103.3z"
	/>
<path class="st7" d="M147.5,103.8c0.1,0.2,0.2,0.4,0.2,0.6c0,0.2-0.1,0.4-0.2,0.5c-0.1,0.1-0.3,0.2-0.5,0.2c-0.3,0-0.5-0.1-0.7-0.4
	c-0.2-0.3-0.4-0.6-0.5-0.9c-0.3,0.4-0.7,0.7-1.2,0.9c-0.5,0.3-0.9,0.4-1.4,0.4c-0.4,0-0.7-0.1-1-0.2c-0.3-0.1-0.6-0.3-0.9-0.5
	c-0.3-0.2-0.5-0.5-0.7-0.8c-0.2-0.3-0.4-0.6-0.5-0.9c-0.1-0.3-0.2-0.7-0.2-1.1c0-0.4-0.1-0.8-0.1-1.3c0-0.5,0-1.1,0-1.6
	c0-0.5,0-1,0-1.4c0.1-0.3,0.2-0.5,0.3-0.6c0.1-0.1,0.3-0.2,0.5-0.2c0.2,0,0.3,0.1,0.5,0.2c0.2,0.1,0.3,0.3,0.3,0.6
	c0,0.6,0,1.2,0,1.8c0,0.6,0,1.2,0,1.8c0,0.7,0.2,1.3,0.5,1.8c0.3,0.5,0.7,0.7,1.3,0.7c0.2,0,0.4,0,0.6-0.1s0.4-0.2,0.6-0.3
	c0.2-0.1,0.3-0.3,0.5-0.5c0.1-0.2,0.3-0.3,0.4-0.5c0,0,0.1,0,0.1-0.1c0,0,0.1,0,0.1-0.1c-0.1-0.7-0.1-1.3-0.1-2c0-0.4,0-0.8,0-1.1
	s0-0.7,0.1-1.1c0.1-0.3,0.2-0.6,0.3-0.8c0.1-0.2,0.3-0.3,0.6-0.3c0.2,0,0.4,0.1,0.5,0.2c0.2,0.2,0.2,0.4,0.2,0.7
	c0,0.3,0,0.7-0.1,1.1c0,0.4-0.1,0.9-0.1,1.4c0,0.4,0,0.7,0,1.1c0,0.4,0.1,0.7,0.1,1.1c0.1,0.3,0.1,0.6,0.2,0.9
	C147.2,103.4,147.4,103.6,147.5,103.8z"/>
<path class="st7" d="M155.8,102.9c0.3-0.1,0.5-0.1,0.7,0c0.2,0.1,0.3,0.2,0.4,0.4c0.1,0.2,0.1,0.4,0,0.6c-0.1,0.2-0.2,0.4-0.5,0.5
	c-0.4,0.2-0.9,0.5-1.4,0.7c-0.5,0.2-1,0.4-1.5,0.4c-0.5,0.1-1,0.1-1.5,0c-0.5-0.1-1-0.3-1.4-0.6c-0.6-0.4-1-0.9-1.3-1.5
	c-0.3-0.6-0.4-1.3-0.5-2c0-0.7,0.1-1.4,0.4-2c0.3-0.6,0.7-1.2,1.3-1.6c0.6-0.4,1.3-0.7,2-0.9c0.7-0.2,1.4-0.2,2.1-0.1
	c0.4,0.1,0.7,0.2,1,0.5c0.3,0.3,0.5,0.5,0.7,0.9c0.2,0.3,0.3,0.7,0.3,1.1c0,0.4-0.1,0.7-0.3,1.1c-0.2,0.4-0.5,0.7-1,0.9
	c-0.4,0.3-0.9,0.5-1.4,0.6c-0.5,0.2-1,0.3-1.5,0.4c-0.5,0.1-0.9,0.2-1.3,0.3c-0.2,0-0.3,0-0.5,0c0.2,0.4,0.5,0.8,0.9,1
	c0.4,0.3,0.9,0.4,1.4,0.3c0.5,0,0.9-0.2,1.4-0.4C155,103.3,155.5,103.1,155.8,102.9z M152,98.7c-0.5,0.2-0.8,0.6-1.1,1.1
	c-0.2,0.5-0.4,0.9-0.4,1.4c0.1-0.1,0.2-0.1,0.3-0.2c0.2-0.1,0.5-0.1,0.7-0.2c0.2-0.1,0.5-0.1,0.7-0.2c0.2,0,0.4-0.1,0.6-0.2
	c0.3-0.1,0.5-0.2,0.8-0.3c0.3-0.1,0.6-0.2,0.8-0.4c0.2-0.1,0.4-0.3,0.5-0.5c0-0.4-0.1-0.7-0.3-0.9c-0.2-0.2-0.5-0.2-0.8-0.2
	c-0.3,0-0.7,0.1-1,0.2C152.5,98.5,152.2,98.6,152,98.7z"/>
<path class="st7" d="M132.4,98c-0.1-0.2-0.2-0.3-0.2-0.5c0-0.2,0.1-0.4,0.2-0.5c0.1-0.2,0.4-0.3,0.7-0.3h1.1v-3.1
	c0.1-0.3,0.2-0.5,0.3-0.6c0.1-0.1,0.3-0.2,0.5-0.2c0.2,0,0.3,0.1,0.5,0.2c0.1,0.1,0.3,0.3,0.3,0.6v3.2h1.9c0.2,0.1,0.4,0.2,0.6,0.3
	c0.1,0.2,0.2,0.3,0.2,0.5c0,0.2-0.1,0.3-0.2,0.5c-0.1,0.1-0.3,0.2-0.6,0.3h-1.8c0,1,0,2,0,3.1c0,1.1,0,2.1,0,3.1
	c0,0.3-0.1,0.5-0.3,0.7c-0.2,0.1-0.4,0.2-0.5,0.2c-0.2,0-0.4-0.1-0.5-0.2s-0.3-0.4-0.3-0.6c0-1,0-2.1,0-3.1c0-1.1,0-2.1,0-3.1H133
	C132.7,98.2,132.5,98.1,132.4,98z"/>
<path class="st3" d="M176.2,104.9c-0.2,0.1-0.4,0.2-0.6,0.2c-0.2,0-0.4-0.1-0.5-0.2c-0.1-0.1-0.2-0.3-0.2-0.5c0-0.2,0-0.4,0.2-0.6
	l0.1-0.1V93.5c0.1-0.2,0.2-0.4,0.3-0.6c0.1-0.1,0.3-0.2,0.5-0.2c0.2,0,0.3,0,0.5,0.2c0.2,0.1,0.3,0.3,0.4,0.5v4.7
	c0.3-0.3,0.6-0.5,0.9-0.6c0.3-0.2,0.6-0.3,0.9-0.4s0.6-0.1,0.9-0.2c0.3-0.1,0.7,0,1,0.1c0.3,0.1,0.6,0.3,0.9,0.4
	c0.4,0.2,0.7,0.5,0.9,0.9c0.2,0.4,0.3,0.8,0.4,1.3c0.1,0.5,0.1,0.9,0.1,1.4c0,0.5-0.1,0.9-0.1,1.2c0,0.2-0.1,0.4-0.2,0.6
	c-0.1,0.2-0.2,0.4-0.3,0.6c-0.2,0.4-0.4,0.7-0.7,0.9s-0.7,0.5-1.1,0.6c-0.4,0.2-0.8,0.3-1.2,0.3c-0.4,0.1-0.8,0.1-1.2,0
	c-0.3,0-0.6-0.1-0.9-0.1S176.5,105,176.2,104.9C176.2,104.9,176.2,104.9,176.2,104.9z M176.7,100.5v2.8c0,0,0.1,0.1,0.2,0.1
	c0,0,0.1,0,0.1,0.1c0,0,0.1,0,0.1,0.1c0.7,0.3,1.3,0.3,1.9,0.1c0.6-0.2,1.2-0.5,1.6-1.1c0.1-0.3,0.2-0.6,0.3-0.9s0.1-0.5,0.1-0.8
	s0-0.5-0.1-0.8c-0.1-0.3-0.1-0.6-0.3-0.9c-0.1-0.1-0.1-0.1-0.2-0.2c0-0.1-0.1-0.1-0.2-0.2c-0.1,0-0.1-0.1-0.2-0.1
	c-0.1,0-0.1-0.1-0.2-0.1c-0.1,0-0.1,0-0.2,0c-0.1,0-0.1,0-0.2,0c-0.6,0.1-1.1,0.3-1.6,0.6c-0.4,0.3-0.8,0.7-1.1,1.2L176.7,100.5z"/>
<path class="st3" d="M192,104.3C192,104.4,192,104.4,192,104.3c0.1,0.2,0.1,0.4,0,0.5c0,0.2-0.1,0.3-0.2,0.4
	c-0.1,0.1-0.3,0.2-0.4,0.2c-0.2,0-0.4,0-0.6-0.1c-0.1-0.1-0.2-0.2-0.3-0.4c-0.1-0.1-0.2-0.3-0.3-0.4c-0.3,0.2-0.5,0.4-0.8,0.6
	c-0.3,0.2-0.6,0.3-0.9,0.3c-0.5,0-1,0-1.6,0c-0.5,0-1-0.2-1.5-0.5c-0.4-0.3-0.7-0.6-0.9-1c-0.2-0.4-0.3-0.8-0.4-1.2
	c-0.1-0.4-0.1-0.9,0-1.3c0.1-0.4,0.2-0.9,0.3-1.3c0.1-0.2,0.1-0.4,0.3-0.5c0.1-0.2,0.2-0.3,0.3-0.5c0.1-0.3,0.3-0.5,0.5-0.7
	c0.2-0.2,0.4-0.4,0.6-0.6c0.2-0.1,0.3-0.2,0.5-0.4c0.2-0.1,0.3-0.2,0.5-0.3c0.1-0.1,0.3-0.2,0.5-0.2c0.2-0.1,0.5-0.2,0.8-0.2
	c0.3-0.1,0.6-0.1,0.8-0.1c0.3,0,0.5,0,0.7,0.1c0.2,0,0.4,0,0.5,0.1c0.2,0.1,0.3,0.3,0.4,0.6c0,0.9,0,1.8,0,2.7c0,0.9,0,1.8,0.2,2.7
	c0,0.1,0.1,0.3,0.1,0.4c0.1,0.2,0.2,0.3,0.3,0.5c0.1,0.2,0.2,0.3,0.3,0.4C192,104.2,192,104.3,192,104.3z M189.5,103
	C189.5,103,189.6,103,189.5,103c0.1-0.1,0.1-0.1,0.1-0.1c-0.2-0.8-0.3-1.6-0.2-2.4c0-0.8,0-1.6,0-2.3c-0.1,0-0.2,0-0.4,0
	c-0.1,0-0.3,0.1-0.4,0.1c-0.1,0-0.3,0.1-0.4,0.1c-0.1,0-0.2,0.1-0.2,0.1c-0.4,0.2-0.7,0.4-1,0.7c-0.3,0.3-0.5,0.6-0.7,1
	c-0.2,0.4-0.3,0.7-0.4,1.1c-0.1,0.4-0.1,0.8-0.1,1.2c0,0.1,0.1,0.2,0.1,0.3c0,0.1,0.1,0.2,0.1,0.3c0.1,0.1,0.1,0.1,0.2,0.2
	c0.1,0.1,0.1,0.2,0.2,0.2c0.1,0.1,0.2,0.1,0.4,0.1c0.1,0,0.2,0.1,0.4,0.1c0.2,0,0.4,0,0.6,0c0.2,0,0.4,0,0.6-0.1
	c0.2-0.1,0.4-0.3,0.6-0.4C189.1,103.3,189.3,103.1,189.5,103z"/>
<path class="st3" d="M195.9,104.2c0.2,0.2,0.4,0.4,0.4,0.6c0,0.2,0,0.4-0.1,0.6c-0.1,0.2-0.2,0.3-0.5,0.3c-0.2,0.1-0.4,0-0.7-0.1
	c-0.1-0.1-0.2-0.2-0.4-0.2c-0.1-0.1-0.2-0.2-0.4-0.2c-0.1-0.1-0.2-0.2-0.2-0.3c0-0.1-0.1-0.2-0.1-0.4V93.6c0.1-0.2,0.2-0.4,0.3-0.6
	c0.2-0.1,0.3-0.2,0.5-0.2c0.2,0,0.3,0,0.5,0.2s0.3,0.3,0.4,0.6v10.6c0,0,0.1,0.1,0.1,0.1C195.8,104.2,195.8,104.2,195.9,104.2z"/>
<path class="st3" d="M200.9,104.2c0.2,0.2,0.4,0.4,0.4,0.6c0,0.2,0,0.4-0.1,0.6c-0.1,0.2-0.2,0.3-0.5,0.3c-0.2,0.1-0.4,0-0.7-0.1
	c-0.1-0.1-0.2-0.2-0.4-0.2c-0.1-0.1-0.2-0.2-0.4-0.2c-0.1-0.1-0.2-0.2-0.2-0.3c0-0.1-0.1-0.2-0.1-0.4V93.6c0.1-0.2,0.2-0.4,0.3-0.6
	c0.2-0.1,0.3-0.2,0.5-0.2c0.2,0,0.3,0,0.5,0.2s0.3,0.3,0.4,0.6v10.6c0,0,0.1,0.1,0.1,0.1C200.8,104.2,200.9,104.2,200.9,104.2z"/>
<path d="M22.4,62.2c-0.1-0.2-0.1-0.4-0.1-0.5c0-0.2,0.1-0.4,0.2-0.5S22.8,61,23,61c0.2,0,0.4,0.1,0.6,0.2c0.2,0.3,0.5,0.5,0.8,0.7
	c0.3,0.2,0.6,0.3,0.9,0.4c0.3,0.1,0.7,0.2,1,0.2c0.3,0,0.7,0.1,1,0.1c0.2-0.1,0.4-0.1,0.5-0.1c0.1,0,0.2,0,0.2-0.1
	c0.1,0,0.1-0.1,0.2-0.1s0.2-0.1,0.4-0.3c0.1-0.1,0.1-0.2,0.2-0.3c0.1-0.1,0.1-0.2,0.2-0.3l0.2-0.5c0-0.1,0-0.2,0-0.3
	c0-0.1,0-0.2,0-0.3c0-0.1-0.1-0.2-0.1-0.3s-0.1-0.2-0.1-0.3c-0.1-0.1-0.2-0.2-0.2-0.3c-0.1-0.1-0.1-0.2-0.2-0.3
	c-0.1-0.1-0.2-0.1-0.4-0.2c-0.1-0.1-0.2-0.1-0.4-0.2c-0.5-0.2-1-0.3-1.5-0.4c-0.5-0.1-0.9-0.2-1.3-0.3c-0.4-0.1-0.8-0.3-1.1-0.5
	c-0.4-0.2-0.7-0.6-1-1.1c-0.1-0.1-0.1-0.2-0.1-0.2c0-0.1,0-0.1,0-0.3c0-0.1,0-0.2,0-0.3c0-0.1,0-0.2,0-0.3c0-0.2,0-0.4,0.1-0.6
	c0-0.2,0.1-0.4,0.2-0.5c0.1-0.2,0.2-0.3,0.4-0.5c0.1-0.2,0.3-0.4,0.5-0.6c0.2-0.2,0.5-0.4,0.8-0.6c0.3-0.2,0.6-0.3,0.9-0.4
	c0.3-0.1,0.6-0.1,1-0.2c0.3,0,0.7,0,1,0c0.1,0,0.2,0,0.3,0c0.1,0,0.2,0,0.3,0c0.3,0,0.6,0.1,0.9,0.2c0.3,0.1,0.5,0.2,0.8,0.3
	c0.3,0.2,0.5,0.5,0.5,0.8c0,0.2-0.1,0.4-0.2,0.5c-0.2,0.2-0.4,0.2-0.6,0.2c0,0-0.1,0-0.1,0c0,0-0.1,0-0.1,0
	c-0.4-0.1-0.8-0.2-1.1-0.3s-0.6-0.1-0.9-0.1c-0.3,0-0.6,0.1-1,0.2c-0.3,0.1-0.7,0.3-1.1,0.5c-0.1,0.1-0.2,0.2-0.2,0.3
	c-0.1,0.1-0.2,0.2-0.2,0.3c0,0.1-0.1,0.2-0.1,0.2c0,0.1-0.1,0.2-0.1,0.2c0,0.1,0,0.2,0,0.2c0,0.1,0,0.2,0,0.2
	c0.1,0.1,0.1,0.1,0.1,0.2c0,0.1,0.1,0.1,0.1,0.2l0.8,0.5c0.4,0.1,0.8,0.2,1.1,0.2s0.7,0.1,1,0.2c0.3,0.1,0.6,0.2,0.9,0.3
	c0.3,0.1,0.6,0.3,1,0.5c0.2,0.1,0.3,0.2,0.5,0.4c0.1,0.2,0.3,0.3,0.4,0.5c0.2,0.2,0.4,0.5,0.5,0.8c0.1,0.3,0.1,0.6,0.1,1
	c0,0.5-0.1,0.9-0.3,1.4c-0.2,0.4-0.4,0.8-0.8,1.1c-0.1,0.1-0.2,0.2-0.4,0.3c-0.1,0.1-0.2,0.2-0.4,0.2c-0.3,0.2-0.6,0.3-0.9,0.4
	c-0.3,0.1-0.7,0.1-1.1,0.1c-0.4,0-0.9,0-1.3-0.1c-0.4-0.1-0.9-0.2-1.3-0.4c-0.4-0.2-0.8-0.4-1.1-0.6C22.9,62.8,22.6,62.5,22.4,62.2z
	"/>
<path d="M34.1,63.8C34,63.9,33.8,64,33.6,64c-0.2,0-0.4-0.1-0.5-0.2c-0.2-0.1-0.3-0.4-0.3-0.6V52.2c0.1-0.2,0.2-0.4,0.3-0.6
	c0.2-0.1,0.3-0.2,0.5-0.2c0.2,0,0.3,0,0.5,0.2c0.2,0.1,0.3,0.3,0.4,0.6v4.6c0.2-0.2,0.4-0.4,0.6-0.5c0.3-0.2,0.5-0.3,0.7-0.4
	c0.2-0.1,0.5-0.2,0.8-0.3c0.2-0.1,0.5-0.1,0.7,0c0.2,0,0.5,0.1,0.7,0.2c0.4,0.1,0.7,0.3,1,0.6c0.3,0.3,0.5,0.6,0.7,0.9
	c0.2,0.3,0.3,0.7,0.4,1.1c0.1,0.4,0.1,0.8,0.2,1.1c0,0.6,0,1.2,0,1.9c0,0.6,0,1.2,0,1.9c0,0.3-0.1,0.5-0.3,0.7
	c-0.2,0.1-0.3,0.2-0.5,0.2c-0.2,0-0.4-0.1-0.5-0.2c-0.2-0.1-0.3-0.4-0.3-0.6c0-0.6,0-1.2,0-1.9c0-0.6,0-1.2,0-1.9
	c0-0.5-0.1-0.9-0.3-1.3c-0.2-0.4-0.4-0.7-0.9-1c-0.3-0.1-0.6-0.1-0.9,0c-0.3,0.1-0.5,0.2-0.8,0.4c-0.2,0.2-0.4,0.4-0.6,0.7
	c-0.2,0.2-0.4,0.5-0.6,0.7c0,0-0.1,0.1-0.1,0.1c0,0-0.1,0.1-0.1,0.1v3.8C34.4,63.4,34.3,63.6,34.1,63.8z"/>
<path d="M48.9,61.4c0.3-0.1,0.5-0.1,0.7,0c0.2,0.1,0.3,0.2,0.4,0.4c0.1,0.2,0.1,0.4,0,0.6c-0.1,0.2-0.2,0.4-0.5,0.5
	c-0.4,0.2-0.9,0.5-1.4,0.7c-0.5,0.2-1,0.4-1.5,0.4c-0.5,0.1-1,0.1-1.5,0c-0.5-0.1-1-0.3-1.4-0.6c-0.6-0.4-1-0.9-1.3-1.5
	c-0.3-0.6-0.4-1.3-0.5-2c0-0.7,0.1-1.4,0.4-2c0.3-0.6,0.7-1.2,1.3-1.6c0.6-0.4,1.3-0.7,2-0.9c0.7-0.2,1.4-0.2,2.1-0.1
	c0.4,0.1,0.7,0.2,1,0.5c0.3,0.3,0.5,0.5,0.7,0.9c0.2,0.3,0.3,0.7,0.3,1.1c0,0.4-0.1,0.7-0.3,1.1c-0.2,0.4-0.5,0.7-1,0.9
	c-0.4,0.3-0.9,0.5-1.4,0.6c-0.5,0.2-1,0.3-1.5,0.4c-0.5,0.1-0.9,0.2-1.3,0.3c-0.2,0-0.3,0-0.5,0c0.2,0.4,0.5,0.8,0.9,1
	c0.4,0.3,0.9,0.4,1.4,0.3c0.5,0,0.9-0.2,1.4-0.4C48.1,61.9,48.5,61.6,48.9,61.4z M45.1,57.2c-0.5,0.2-0.8,0.6-1.1,1.1
	s-0.4,0.9-0.4,1.4c0.1-0.1,0.2-0.1,0.3-0.2c0.2-0.1,0.5-0.1,0.7-0.2s0.5-0.1,0.7-0.2c0.2,0,0.4-0.1,0.6-0.2c0.3-0.1,0.5-0.2,0.8-0.3
	c0.3-0.1,0.6-0.2,0.8-0.4c0.2-0.1,0.4-0.3,0.5-0.5c0-0.4-0.1-0.7-0.3-0.9c-0.2-0.2-0.5-0.2-0.8-0.2s-0.7,0.1-1,0.2
	C45.6,57,45.3,57.1,45.1,57.2z"/>
<path d="M58.9,55.2c0.1-0.1,0.3-0.2,0.5-0.2c0.2,0,0.3,0.1,0.5,0.2c0.2,0.1,0.3,0.3,0.3,0.6v0.2c0.3-0.3,0.6-0.5,1-0.6
	c0.4-0.1,0.8-0.2,1.1-0.2c0.5,0,1,0.1,1.4,0.3c0.4,0.2,0.8,0.5,1.1,0.9c0.3,0.4,0.6,0.8,0.8,1.3c0.2,0.5,0.3,1,0.3,1.6
	c0,0.6-0.1,1.2-0.3,1.7c-0.2,0.5-0.5,1-0.9,1.4c-0.4,0.4-0.9,0.7-1.5,0.9c-0.6,0.2-1.3,0.3-2,0.3c-0.2,0-0.4,0-0.5,0
	c-0.2,0-0.4,0-0.5-0.1v4.1c0,0.3-0.1,0.5-0.3,0.7c-0.2,0.1-0.3,0.2-0.5,0.2c-0.2,0-0.4-0.1-0.5-0.2c-0.2-0.1-0.3-0.4-0.3-0.6v-12
	C58.6,55.5,58.7,55.3,58.9,55.2z M60.4,58c0,0-0.1,0.1-0.1,0.1c0,0-0.1,0.1-0.1,0.1v3.7c0.2,0,0.4,0.1,0.5,0.1c0.2,0,0.4,0,0.5,0
	c0.4,0,0.9-0.1,1.2-0.2c0.4-0.1,0.7-0.3,1-0.5c0.3-0.2,0.5-0.5,0.7-0.8s0.2-0.7,0.2-1.1c0-0.3-0.1-0.6-0.1-1
	c-0.1-0.3-0.2-0.6-0.4-0.9c-0.2-0.3-0.4-0.5-0.6-0.6c-0.2-0.2-0.5-0.2-0.8-0.2c-0.2,0-0.4,0-0.6,0.1c-0.2,0.1-0.4,0.2-0.6,0.3
	c-0.2,0.1-0.3,0.3-0.5,0.4C60.6,57.7,60.5,57.8,60.4,58z"/>
<path d="M70,62.8c0.2,0.2,0.4,0.4,0.4,0.6c0,0.2,0,0.4-0.1,0.6c-0.1,0.2-0.2,0.3-0.5,0.3c-0.2,0.1-0.4,0-0.7-0.1
	c-0.1-0.1-0.2-0.2-0.4-0.2s-0.2-0.2-0.4-0.2c-0.1-0.1-0.2-0.2-0.2-0.3c0-0.1-0.1-0.2-0.1-0.4V52.1c0.1-0.2,0.2-0.4,0.3-0.6
	c0.2-0.1,0.3-0.2,0.5-0.2c0.2,0,0.3,0,0.5,0.2s0.3,0.3,0.4,0.6v10.6c0,0,0.1,0.1,0.1,0.1C69.9,62.7,70,62.7,70,62.8z"/>
<path d="M79.7,62.9C79.7,62.9,79.7,62.9,79.7,62.9c0.1,0.2,0.1,0.4,0,0.5c0,0.2-0.1,0.3-0.2,0.4c-0.1,0.1-0.3,0.2-0.4,0.2
	c-0.2,0-0.4,0-0.6-0.1c-0.1-0.1-0.2-0.2-0.3-0.4c-0.1-0.1-0.2-0.3-0.3-0.4c-0.3,0.2-0.5,0.4-0.8,0.6c-0.3,0.2-0.6,0.3-0.9,0.3
	c-0.5,0-1,0-1.6,0c-0.5,0-1-0.2-1.5-0.5c-0.4-0.3-0.7-0.6-0.9-1c-0.2-0.4-0.3-0.8-0.4-1.2c-0.1-0.4-0.1-0.9,0-1.3
	c0.1-0.4,0.2-0.9,0.3-1.3c0.1-0.2,0.2-0.4,0.3-0.5c0.1-0.2,0.2-0.3,0.3-0.5c0.1-0.3,0.3-0.5,0.5-0.7c0.2-0.2,0.4-0.4,0.6-0.6
	c0.2-0.1,0.3-0.2,0.5-0.4c0.2-0.1,0.3-0.2,0.5-0.3c0.1-0.1,0.3-0.2,0.5-0.2c0.2-0.1,0.5-0.2,0.8-0.2c0.3-0.1,0.6-0.1,0.8-0.1
	s0.5,0,0.7,0.1c0.2,0,0.4,0,0.5,0.1c0.2,0.1,0.3,0.3,0.4,0.6c0,0.9,0,1.8,0,2.7c0,0.9,0,1.8,0.2,2.7c0,0.1,0.1,0.3,0.1,0.4
	c0.1,0.2,0.2,0.3,0.3,0.5c0.1,0.2,0.2,0.3,0.3,0.4C79.7,62.7,79.7,62.8,79.7,62.9z M77.3,61.5C77.3,61.5,77.3,61.5,77.3,61.5
	c0.1-0.1,0.1-0.1,0.1-0.1c-0.2-0.8-0.3-1.6-0.2-2.4c0-0.8,0-1.6,0-2.3c-0.1,0-0.2,0-0.4,0s-0.3,0.1-0.4,0.1c-0.1,0-0.3,0.1-0.4,0.1
	c-0.1,0-0.2,0.1-0.2,0.1c-0.4,0.2-0.7,0.4-1,0.7c-0.3,0.3-0.5,0.6-0.7,1c-0.2,0.4-0.3,0.7-0.4,1.1c-0.1,0.4-0.1,0.8-0.1,1.2
	c0,0.1,0.1,0.2,0.1,0.3c0,0.1,0.1,0.2,0.1,0.3c0.1,0.1,0.1,0.1,0.2,0.2c0.1,0.1,0.1,0.2,0.2,0.2c0.1,0.1,0.2,0.1,0.4,0.1
	c0.1,0,0.2,0.1,0.4,0.1c0.2,0,0.4,0,0.6,0c0.2,0,0.4,0,0.6-0.1c0.2-0.1,0.4-0.3,0.6-0.4C76.9,61.8,77.1,61.7,77.3,61.5z"/>
<path d="M87.9,55.3c0.1-0.2,0.2-0.3,0.4-0.4c0.1-0.1,0.3-0.1,0.4-0.1c0.2,0,0.4,0.1,0.6,0.3c0.1,0.2,0.2,0.4,0.2,0.7
	c-0.3,1.1-0.6,2.1-1,3.1c-0.4,1-0.9,2-1.4,2.9c-0.5,1-1,1.9-1.6,2.8c-0.6,0.9-1.1,1.9-1.6,2.8c-0.1,0.1-0.2,0.2-0.4,0.3
	c-0.1,0.1-0.3,0.1-0.4,0.1c-0.2,0-0.4-0.1-0.5-0.2c-0.1-0.1-0.2-0.3-0.2-0.6c0,0,0-0.1,0-0.1c0,0,0-0.1,0-0.1
	c0.4-0.8,0.9-1.6,1.3-2.4c0.5-0.8,0.9-1.6,1.3-2.3c-0.5-0.4-1-0.8-1.4-1.3c-0.4-0.4-0.8-0.9-1.1-1.4c-0.3-0.5-0.6-1-0.9-1.6
	c-0.2-0.6-0.5-1.2-0.6-1.9c0-0.3,0.1-0.6,0.2-0.8c0.1-0.2,0.3-0.3,0.6-0.3c0.2,0,0.3,0.1,0.5,0.2c0.1,0.1,0.3,0.3,0.3,0.5
	c0.1,0.6,0.3,1.1,0.5,1.5s0.4,0.9,0.7,1.3c0.3,0.4,0.6,0.8,0.9,1.1c0.3,0.4,0.7,0.7,1.1,1.1c0.4-0.9,0.8-1.7,1.2-2.6
	C87.4,57.2,87.7,56.2,87.9,55.3z"/>
<path d="M97,61.4c0.3-0.1,0.5-0.1,0.7,0c0.2,0.1,0.3,0.2,0.4,0.4c0.1,0.2,0.1,0.4,0,0.6c-0.1,0.2-0.2,0.4-0.5,0.5
	c-0.4,0.2-0.9,0.5-1.4,0.7c-0.5,0.2-1,0.4-1.5,0.4c-0.5,0.1-1,0.1-1.5,0c-0.5-0.1-1-0.3-1.4-0.6c-0.6-0.4-1-0.9-1.3-1.5
	c-0.3-0.6-0.4-1.3-0.5-2c0-0.7,0.1-1.4,0.4-2c0.3-0.6,0.7-1.2,1.3-1.6c0.6-0.4,1.3-0.7,2-0.9c0.7-0.2,1.4-0.2,2.1-0.1
	c0.4,0.1,0.7,0.2,1,0.5c0.3,0.3,0.5,0.5,0.7,0.9c0.2,0.3,0.3,0.7,0.3,1.1c0,0.4-0.1,0.7-0.3,1.1c-0.2,0.4-0.5,0.7-1,0.9
	c-0.4,0.3-0.9,0.5-1.4,0.6c-0.5,0.2-1,0.3-1.5,0.4c-0.5,0.1-0.9,0.2-1.3,0.3c-0.2,0-0.3,0-0.5,0c0.2,0.4,0.5,0.8,0.9,1
	c0.4,0.3,0.9,0.4,1.4,0.3c0.5,0,0.9-0.2,1.4-0.4C96.2,61.9,96.6,61.6,97,61.4z M93.2,57.2c-0.5,0.2-0.8,0.6-1.1,1.1
	c-0.2,0.5-0.4,0.9-0.4,1.4c0.1-0.1,0.2-0.1,0.3-0.2c0.2-0.1,0.5-0.1,0.7-0.2s0.5-0.1,0.7-0.2c0.2,0,0.4-0.1,0.6-0.2
	c0.3-0.1,0.5-0.2,0.8-0.3c0.3-0.1,0.6-0.2,0.8-0.4c0.2-0.1,0.4-0.3,0.5-0.5c0-0.4-0.1-0.7-0.3-0.9c-0.2-0.2-0.5-0.2-0.8-0.2
	c-0.3,0-0.7,0.1-1,0.2C93.7,57,93.4,57.1,93.2,57.2z"/>
<path d="M107.5,62.3c0.2,0.2,0.2,0.5,0.2,0.7c0,0.2-0.1,0.4-0.3,0.5c-0.1,0.1-0.3,0.2-0.5,0.2c-0.2,0-0.4-0.1-0.6-0.3
	c-0.1-0.1-0.1-0.1-0.2-0.2c-0.1-0.1-0.1-0.1-0.1-0.2c-0.4,0.3-0.8,0.6-1.4,0.8c-0.5,0.2-1,0.3-1.6,0.3c-0.5,0-1-0.1-1.5-0.3
	c-0.5-0.2-0.9-0.6-1.2-1c-0.2-0.4-0.4-0.7-0.5-1.2c-0.1-0.4-0.2-0.9-0.2-1.3s0.1-0.9,0.2-1.3c0.1-0.4,0.3-0.8,0.4-1.2
	c0.2-0.3,0.4-0.6,0.7-0.9c0.3-0.3,0.6-0.5,0.9-0.7c0.3-0.2,0.6-0.3,1-0.4c0.4-0.1,0.7-0.2,1.1-0.2c0.3,0,0.6,0,0.9,0
	c0.3,0,0.6,0.1,0.9,0.2c0-0.9,0-1.7,0-2.4c0-0.6,0-1.1,0-1.3c0.1-0.2,0.2-0.4,0.3-0.6c0.2-0.1,0.3-0.2,0.5-0.2c0.2,0,0.3,0,0.5,0.2
	c0.2,0.1,0.3,0.3,0.4,0.6v10.3c0,0,0.1,0.1,0.1,0.1C107.5,62.2,107.5,62.3,107.5,62.3z M105.8,60.9v-0.3c0-0.5,0-1,0-1.6
	c0-0.6,0-1.1,0-1.7l-0.1-0.1c0,0-0.1-0.1-0.1-0.1c0,0-0.1-0.1-0.1-0.1c-0.4-0.1-0.8-0.2-1.2-0.2c-0.4,0-0.8,0.1-1.2,0.2
	c-0.4,0.2-0.7,0.4-1,0.7c-0.3,0.3-0.5,0.7-0.6,1.1c-0.1,0.4-0.1,0.8-0.1,1.1c0,0.3,0.1,0.7,0.1,1.1c0.1,0.1,0.1,0.2,0.1,0.3
	c0,0.1,0.1,0.2,0.1,0.3l0.4,0.4c0.2,0.1,0.3,0.1,0.5,0.2c0.5,0.1,1,0,1.4-0.1c0.4-0.1,0.9-0.3,1.3-0.7c0,0,0-0.1,0.1-0.1
	c0,0,0.1-0.1,0.1-0.1c0.1-0.1,0.1-0.1,0.1-0.1c0,0,0.1-0.1,0.1-0.1L105.8,60.9z"/>
<path d="M116.9,56.9c-0.2-0.1-0.3-0.2-0.4-0.4c-0.1-0.1-0.1-0.3-0.1-0.4c0-0.2,0.1-0.4,0.2-0.5c0.1-0.1,0.3-0.2,0.6-0.2
	c0.2,0,0.4,0.1,0.7,0.2c0.3,0.1,0.5,0.3,0.6,0.4c0.4-0.3,0.8-0.6,1.3-0.8c0.4-0.2,0.9-0.3,1.3-0.3c0.1,0,0.3,0,0.6,0.1
	c0.2,0.1,0.5,0.2,0.7,0.3c0.2,0.1,0.5,0.3,0.6,0.5c0.2,0.2,0.3,0.5,0.3,0.7c0,0.2-0.1,0.4-0.2,0.5c-0.1,0.1-0.3,0.2-0.5,0.2
	c-0.1,0-0.3,0-0.4-0.1c-0.1-0.1-0.2-0.2-0.3-0.3c-0.1-0.1-0.2-0.2-0.4-0.3c-0.1-0.1-0.3-0.1-0.4-0.1c-0.2,0-0.4,0.1-0.6,0.2
	c-0.2,0.1-0.4,0.2-0.6,0.4c-0.2,0.2-0.4,0.3-0.6,0.5c-0.2,0.2-0.4,0.3-0.5,0.5v5.2c0,0.3-0.1,0.5-0.3,0.7c-0.2,0.1-0.3,0.2-0.5,0.2
	c-0.2,0-0.4-0.1-0.5-0.2c-0.2-0.1-0.3-0.4-0.3-0.6v-5.4c0,0,0-0.1,0-0.1c0,0,0-0.1,0-0.1c0,0,0-0.1,0-0.1c0,0,0-0.1,0-0.1v-0.6
	C117,56.9,116.9,56.9,116.9,56.9z"/>
<path d="M130.9,62.9C130.9,62.9,130.9,62.9,130.9,62.9c0.1,0.2,0.1,0.4,0,0.5c0,0.2-0.1,0.3-0.2,0.4c-0.1,0.1-0.3,0.2-0.4,0.2
	c-0.2,0-0.4,0-0.6-0.1c-0.1-0.1-0.2-0.2-0.3-0.4c-0.1-0.1-0.2-0.3-0.3-0.4c-0.3,0.2-0.5,0.4-0.8,0.6c-0.3,0.2-0.6,0.3-0.9,0.3
	c-0.5,0-1,0-1.6,0c-0.5,0-1-0.2-1.5-0.5c-0.4-0.3-0.7-0.6-0.9-1c-0.2-0.4-0.3-0.8-0.4-1.2c-0.1-0.4-0.1-0.9,0-1.3
	c0.1-0.4,0.2-0.9,0.3-1.3c0.1-0.2,0.2-0.4,0.3-0.5c0.1-0.2,0.2-0.3,0.3-0.5c0.1-0.3,0.3-0.5,0.5-0.7c0.2-0.2,0.4-0.4,0.6-0.6
	c0.2-0.1,0.3-0.2,0.5-0.4c0.2-0.1,0.3-0.2,0.5-0.3c0.1-0.1,0.3-0.2,0.5-0.2c0.2-0.1,0.5-0.2,0.8-0.2c0.3-0.1,0.6-0.1,0.8-0.1
	c0.3,0,0.5,0,0.7,0.1c0.2,0,0.4,0,0.5,0.1c0.2,0.1,0.3,0.3,0.4,0.6c0,0.9,0,1.8,0,2.7c0,0.9,0,1.8,0.2,2.7c0,0.1,0.1,0.3,0.1,0.4
	c0.1,0.2,0.2,0.3,0.3,0.5c0.1,0.2,0.2,0.3,0.3,0.4C130.8,62.7,130.9,62.8,130.9,62.9z M128.4,61.5C128.4,61.5,128.4,61.5,128.4,61.5
	c0.1-0.1,0.1-0.1,0.1-0.1c-0.2-0.8-0.3-1.6-0.2-2.4c0-0.8,0-1.6,0-2.3c-0.1,0-0.2,0-0.4,0c-0.1,0-0.3,0.1-0.4,0.1
	c-0.1,0-0.3,0.1-0.4,0.1c-0.1,0-0.2,0.1-0.2,0.1c-0.4,0.2-0.7,0.4-1,0.7c-0.3,0.3-0.5,0.6-0.7,1c-0.2,0.4-0.3,0.7-0.4,1.1
	c-0.1,0.4-0.1,0.8-0.1,1.2c0,0.1,0.1,0.2,0.1,0.3c0,0.1,0.1,0.2,0.1,0.3c0.1,0.1,0.1,0.1,0.2,0.2c0.1,0.1,0.1,0.2,0.2,0.2
	c0.1,0.1,0.2,0.1,0.4,0.1c0.1,0,0.2,0.1,0.4,0.1c0.2,0,0.4,0,0.6,0c0.2,0,0.4,0,0.6-0.1c0.2-0.1,0.4-0.3,0.6-0.4
	C128,61.8,128.2,61.7,128.4,61.5z"/>
<path d="M139.4,68.4c-0.2,0.2-0.3,0.2-0.5,0.2c-0.2,0-0.4-0.1-0.5-0.2c-0.2-0.1-0.3-0.4-0.3-0.6v-4.5c-0.5,0.2-0.9,0.3-1.4,0.3
	c-0.3,0-0.6,0-0.9,0c-0.3,0-0.7-0.1-0.9-0.1c-0.7-0.2-1.2-0.5-1.6-1c-0.4-0.5-0.6-1-0.8-1.6c-0.1-0.6-0.2-1.2-0.1-1.8
	c0.1-0.6,0.2-1.2,0.5-1.8c0.2-0.4,0.4-0.8,0.7-1.1c0.3-0.3,0.7-0.5,1.1-0.7c0.4-0.2,0.8-0.3,1.3-0.4c0.5-0.1,0.9-0.1,1.3-0.1
	c0.4,0,0.8,0.1,1.2,0.3c0.2-0.1,0.4-0.2,0.7-0.1c0.3,0.1,0.4,0.3,0.5,0.6v11.7C139.7,68.1,139.6,68.3,139.4,68.4z M134.8,61.8
	c0.5,0.2,1.1,0.3,1.7,0.3c0.6,0,1.1-0.2,1.6-0.5v-4.5c-0.1,0-0.1-0.1-0.1-0.1c-0.3-0.1-0.7-0.2-1-0.2c-0.4,0-0.7,0-1,0.1
	c-0.3,0.1-0.6,0.2-0.9,0.5s-0.5,0.5-0.7,0.8c-0.2,0.4-0.3,0.9-0.3,1.4c0,0.5,0,1,0.1,1.5c0.1,0.1,0.1,0.2,0.1,0.2
	c0,0.1,0.1,0.2,0.1,0.3c0.1,0.1,0.1,0.1,0.2,0.2C134.6,61.7,134.7,61.7,134.8,61.8z"/>
<path d="M149.5,62.4c0.1,0.2,0.2,0.4,0.2,0.6c0,0.2-0.1,0.4-0.2,0.5c-0.1,0.1-0.3,0.2-0.5,0.2c-0.3,0-0.5-0.1-0.7-0.4
	c-0.2-0.3-0.4-0.6-0.5-0.9c-0.3,0.4-0.7,0.7-1.2,0.9c-0.5,0.3-0.9,0.4-1.4,0.4c-0.4,0-0.7-0.1-1-0.2c-0.3-0.1-0.6-0.3-0.9-0.5
	c-0.3-0.2-0.5-0.5-0.7-0.8c-0.2-0.3-0.4-0.6-0.5-0.9c-0.1-0.3-0.2-0.7-0.2-1.1c0-0.4-0.1-0.8-0.1-1.3c0-0.5,0-1.1,0-1.6
	c0-0.5,0-1,0-1.4c0.1-0.3,0.2-0.5,0.3-0.6c0.1-0.1,0.3-0.2,0.5-0.2c0.2,0,0.3,0.1,0.5,0.2c0.2,0.1,0.3,0.3,0.3,0.6
	c0,0.6,0,1.2,0,1.8c0,0.6,0,1.2,0,1.8c0,0.7,0.2,1.3,0.5,1.8c0.3,0.5,0.7,0.7,1.3,0.7c0.2,0,0.4,0,0.6-0.1c0.2-0.1,0.4-0.2,0.6-0.3
	c0.2-0.1,0.3-0.3,0.5-0.5c0.1-0.2,0.3-0.3,0.4-0.5c0,0,0.1,0,0.1-0.1c0,0,0.1,0,0.1-0.1c-0.1-0.7-0.1-1.3-0.1-2c0-0.4,0-0.8,0-1.1
	s0-0.7,0.1-1.1c0.1-0.3,0.2-0.6,0.3-0.8c0.1-0.2,0.3-0.3,0.6-0.3c0.2,0,0.4,0.1,0.5,0.2c0.2,0.2,0.2,0.4,0.2,0.7
	c0,0.3,0,0.7-0.1,1.1c0,0.4-0.1,0.9-0.1,1.4c0,0.4,0,0.7,0,1.1c0,0.4,0.1,0.7,0.1,1.1c0.1,0.3,0.1,0.6,0.2,0.9
	C149.2,61.9,149.4,62.2,149.5,62.4z"/>
<path d="M157.8,61.4c0.3-0.1,0.5-0.1,0.7,0c0.2,0.1,0.3,0.2,0.4,0.4c0.1,0.2,0.1,0.4,0,0.6c-0.1,0.2-0.2,0.4-0.5,0.5
	c-0.4,0.2-0.9,0.5-1.4,0.7c-0.5,0.2-1,0.4-1.5,0.4c-0.5,0.1-1,0.1-1.5,0c-0.5-0.1-1-0.3-1.4-0.6c-0.6-0.4-1-0.9-1.3-1.5
	c-0.3-0.6-0.4-1.3-0.5-2c0-0.7,0.1-1.4,0.4-2c0.3-0.6,0.7-1.2,1.3-1.6c0.6-0.4,1.3-0.7,2-0.9c0.7-0.2,1.4-0.2,2.1-0.1
	c0.4,0.1,0.7,0.2,1,0.5c0.3,0.3,0.5,0.5,0.7,0.9c0.2,0.3,0.3,0.7,0.3,1.1c0,0.4-0.1,0.7-0.3,1.1c-0.2,0.4-0.5,0.7-1,0.9
	c-0.4,0.3-0.9,0.5-1.4,0.6c-0.5,0.2-1,0.3-1.5,0.4c-0.5,0.1-0.9,0.2-1.3,0.3c-0.2,0-0.3,0-0.5,0c0.2,0.4,0.5,0.8,0.9,1
	c0.4,0.3,0.9,0.4,1.4,0.3c0.5,0,0.9-0.2,1.4-0.4C157,61.9,157.5,61.6,157.8,61.4z M154,57.2c-0.5,0.2-0.8,0.6-1.1,1.1
	c-0.2,0.5-0.4,0.9-0.4,1.4c0.1-0.1,0.2-0.1,0.3-0.2c0.2-0.1,0.5-0.1,0.7-0.2c0.2-0.1,0.5-0.1,0.7-0.2c0.2,0,0.4-0.1,0.6-0.2
	c0.3-0.1,0.5-0.2,0.8-0.3c0.3-0.1,0.6-0.2,0.8-0.4c0.2-0.1,0.4-0.3,0.5-0.5c0-0.4-0.1-0.7-0.3-0.9c-0.2-0.2-0.5-0.2-0.8-0.2
	c-0.3,0-0.7,0.1-1,0.2C154.5,57,154.2,57.1,154,57.2z"/>
<path d="M160.3,56.5c-0.1-0.2-0.2-0.3-0.2-0.5c0-0.2,0.1-0.4,0.2-0.5c0.1-0.2,0.4-0.3,0.7-0.3h1.1v-3.1c0.1-0.3,0.2-0.5,0.3-0.6
	c0.1-0.1,0.3-0.2,0.5-0.2c0.2,0,0.3,0.1,0.5,0.2c0.1,0.1,0.3,0.3,0.3,0.6v3.2h1.9c0.2,0.1,0.4,0.2,0.6,0.3c0.1,0.2,0.2,0.3,0.2,0.5
	c0,0.2-0.1,0.3-0.2,0.5c-0.1,0.1-0.3,0.2-0.6,0.3h-1.8c0,1,0,2,0,3.1c0,1.1,0,2.1,0,3.1c0,0.3-0.1,0.5-0.3,0.7
	c-0.2,0.1-0.4,0.2-0.5,0.2c-0.2,0-0.4-0.1-0.5-0.2c-0.2-0.1-0.3-0.4-0.3-0.6c0-1,0-2.1,0-3.1s0-2.1,0-3.1H161
	C160.7,56.8,160.5,56.7,160.3,56.5z"/>
<path d="M176.2,63.4c-0.2,0.1-0.4,0.2-0.6,0.2c-0.2,0-0.4-0.1-0.5-0.2c-0.1-0.1-0.2-0.3-0.2-0.5c0-0.2,0-0.4,0.2-0.6l0.1-0.1V52
	c0.1-0.2,0.2-0.4,0.3-0.6c0.1-0.1,0.3-0.2,0.5-0.2c0.2,0,0.3,0,0.5,0.2c0.2,0.1,0.3,0.3,0.4,0.5v4.7c0.3-0.3,0.6-0.5,0.9-0.6
	c0.3-0.2,0.6-0.3,0.9-0.4s0.6-0.1,0.9-0.2c0.3-0.1,0.7,0,1,0.1c0.3,0.1,0.6,0.3,0.9,0.4c0.4,0.2,0.7,0.5,0.9,0.9
	c0.2,0.4,0.3,0.8,0.4,1.3c0.1,0.5,0.1,0.9,0.1,1.4c0,0.5-0.1,0.9-0.1,1.2c0,0.2-0.1,0.4-0.2,0.6c-0.1,0.2-0.2,0.4-0.3,0.6
	c-0.2,0.4-0.4,0.7-0.7,0.9c-0.3,0.3-0.7,0.5-1.1,0.6c-0.4,0.2-0.8,0.3-1.2,0.3c-0.4,0.1-0.8,0.1-1.2,0c-0.3,0-0.6-0.1-0.9-0.1
	S176.5,63.5,176.2,63.4C176.2,63.4,176.2,63.4,176.2,63.4z M176.7,59v2.8c0,0,0.1,0.1,0.2,0.1c0,0,0.1,0,0.1,0.1s0.1,0,0.1,0.1
	c0.7,0.3,1.3,0.3,1.9,0.1c0.6-0.2,1.2-0.5,1.6-1.1c0.1-0.3,0.2-0.6,0.3-0.9c0.1-0.3,0.1-0.5,0.1-0.8s0-0.5-0.1-0.8
	c-0.1-0.3-0.1-0.6-0.3-0.9c-0.1-0.1-0.1-0.1-0.2-0.2c0-0.1-0.1-0.1-0.2-0.2c-0.1,0-0.1-0.1-0.2-0.1c-0.1,0-0.1-0.1-0.2-0.1
	c-0.1,0-0.1,0-0.2,0c-0.1,0-0.1,0-0.2,0c-0.6,0.1-1.1,0.3-1.6,0.6c-0.4,0.3-0.8,0.7-1.1,1.2L176.7,59z"/>
<path d="M192,62.9C192,62.9,192,62.9,192,62.9c0.1,0.2,0.1,0.4,0,0.5c0,0.2-0.1,0.3-0.2,0.4c-0.1,0.1-0.3,0.2-0.4,0.2
	c-0.2,0-0.4,0-0.6-0.1c-0.1-0.1-0.2-0.2-0.3-0.4c-0.1-0.1-0.2-0.3-0.3-0.4c-0.3,0.2-0.5,0.4-0.8,0.6c-0.3,0.2-0.6,0.3-0.9,0.3
	c-0.5,0-1,0-1.6,0c-0.5,0-1-0.2-1.5-0.5c-0.4-0.3-0.7-0.6-0.9-1c-0.2-0.4-0.3-0.8-0.4-1.2c-0.1-0.4-0.1-0.9,0-1.3
	c0.1-0.4,0.2-0.9,0.3-1.3c0.1-0.2,0.1-0.4,0.3-0.5c0.1-0.2,0.2-0.3,0.3-0.5c0.1-0.3,0.3-0.5,0.5-0.7c0.2-0.2,0.4-0.4,0.6-0.6
	c0.2-0.1,0.3-0.2,0.5-0.4c0.2-0.1,0.3-0.2,0.5-0.3c0.1-0.1,0.3-0.2,0.5-0.2c0.2-0.1,0.5-0.2,0.8-0.2c0.3-0.1,0.6-0.1,0.8-0.1
	c0.3,0,0.5,0,0.7,0.1c0.2,0,0.4,0,0.5,0.1c0.2,0.1,0.3,0.3,0.4,0.6c0,0.9,0,1.8,0,2.7c0,0.9,0,1.8,0.2,2.7c0,0.1,0.1,0.3,0.1,0.4
	c0.1,0.2,0.2,0.3,0.3,0.5c0.1,0.2,0.2,0.3,0.3,0.4C192,62.7,192,62.8,192,62.9z M189.5,61.5C189.5,61.5,189.6,61.5,189.5,61.5
	c0.1-0.1,0.1-0.1,0.1-0.1c-0.2-0.8-0.3-1.6-0.2-2.4c0-0.8,0-1.6,0-2.3c-0.1,0-0.2,0-0.4,0c-0.1,0-0.3,0.1-0.4,0.1
	c-0.1,0-0.3,0.1-0.4,0.1c-0.1,0-0.2,0.1-0.2,0.1c-0.4,0.2-0.7,0.4-1,0.7c-0.3,0.3-0.5,0.6-0.7,1c-0.2,0.4-0.3,0.7-0.4,1.1
	c-0.1,0.4-0.1,0.8-0.1,1.2c0,0.1,0.1,0.2,0.1,0.3c0,0.1,0.1,0.2,0.1,0.3c0.1,0.1,0.1,0.1,0.2,0.2c0.1,0.1,0.1,0.2,0.2,0.2
	c0.1,0.1,0.2,0.1,0.4,0.1c0.1,0,0.2,0.1,0.4,0.1c0.2,0,0.4,0,0.6,0c0.2,0,0.4,0,0.6-0.1c0.2-0.1,0.4-0.3,0.6-0.4
	C189.1,61.8,189.3,61.7,189.5,61.5z"/>
<path d="M195.9,62.8c0.2,0.2,0.4,0.4,0.4,0.6c0,0.2,0,0.4-0.1,0.6c-0.1,0.2-0.2,0.3-0.5,0.3c-0.2,0.1-0.4,0-0.7-0.1
	c-0.1-0.1-0.2-0.2-0.4-0.2c-0.1-0.1-0.2-0.2-0.4-0.2c-0.1-0.1-0.2-0.2-0.2-0.3c0-0.1-0.1-0.2-0.1-0.4V52.1c0.1-0.2,0.2-0.4,0.3-0.6
	c0.2-0.1,0.3-0.2,0.5-0.2c0.2,0,0.3,0,0.5,0.2s0.3,0.3,0.4,0.6v10.6c0,0,0.1,0.1,0.1,0.1C195.8,62.7,195.8,62.7,195.9,62.8z"/>
<path d="M200.9,62.8c0.2,0.2,0.4,0.4,0.4,0.6c0,0.2,0,0.4-0.1,0.6c-0.1,0.2-0.2,0.3-0.5,0.3c-0.2,0.1-0.4,0-0.7-0.1
	c-0.1-0.1-0.2-0.2-0.4-0.2c-0.1-0.1-0.2-0.2-0.4-0.2c-0.1-0.1-0.2-0.2-0.2-0.3c0-0.1-0.1-0.2-0.1-0.4V52.1c0.1-0.2,0.2-0.4,0.3-0.6
	c0.2-0.1,0.3-0.2,0.5-0.2c0.2,0,0.3,0,0.5,0.2s0.3,0.3,0.4,0.6v10.6c0,0,0.1,0.1,0.1,0.1C200.8,62.7,200.9,62.7,200.9,62.8z"/>
<circle class="st5" cx="112.5" cy="285.2" r="29"/>
<g>
	<path class="st4" d="M88.7,288.3c-0.1-0.3-0.2-0.5-0.1-0.7s0.1-0.4,0.3-0.5c0.1-0.1,0.3-0.2,0.5-0.2c0.2,0,0.4,0.1,0.7,0.2
		c0.3,0.4,0.7,0.7,1.2,1s0.9,0.4,1.4,0.4l0.4-0.1c0.1-0.1,0.2-0.1,0.2-0.2c0,0,0.1-0.1,0.1-0.1c0,0,0.1-0.1,0.1-0.1
		c0,0,0.1-0.1,0.2-0.2c0-0.1,0.1-0.1,0.1-0.2c0-0.1,0-0.1,0.1-0.2c0-0.1,0-0.1,0-0.2c0-0.1,0-0.1,0-0.2l-0.1-0.4
		c0-0.1-0.1-0.1-0.1-0.2c-0.1-0.1-0.1-0.1-0.1-0.2c-0.4-0.2-0.7-0.4-1.1-0.5c-0.4-0.1-0.7-0.2-1-0.3c-0.3-0.1-0.7-0.2-1-0.4
		c-0.3-0.2-0.6-0.4-0.9-0.8c-0.3-0.3-0.4-0.7-0.4-1.2c0-0.4,0-0.9,0.2-1.3c0.2-0.4,0.4-0.8,0.7-1.1c0.3-0.3,0.7-0.5,1.1-0.6
		c0.6-0.1,1.2-0.2,1.8,0c0.6,0.1,1.2,0.3,1.7,0.6c0.3,0.2,0.4,0.4,0.4,0.6s0,0.4-0.1,0.6c-0.1,0.2-0.3,0.3-0.5,0.4
		c-0.2,0.1-0.5,0-0.8-0.1c-0.3-0.2-0.7-0.3-1.1-0.4c-0.4-0.1-0.8-0.1-1.1,0c0,0-0.1,0-0.1,0.1c-0.1,0-0.1,0-0.1,0.1
		c-0.2,0.2-0.3,0.3-0.3,0.5c-0.1,0.2-0.1,0.4-0.1,0.6c0,0.1,0.1,0.1,0.1,0.3c0,0.1,0.1,0.1,0.1,0.1c0,0,0.1,0.1,0.1,0.1
		c0.3,0.2,0.7,0.3,1.1,0.4c0.4,0.1,0.8,0.2,1.2,0.4c0.4,0.1,0.7,0.3,1.1,0.5c0.3,0.2,0.6,0.5,0.8,1c0.3,0.8,0.4,1.6,0.2,2.2
		c-0.2,0.7-0.7,1.3-1.4,1.7c-0.2,0.1-0.4,0.2-0.6,0.3c-0.2,0.1-0.4,0.1-0.6,0.1c-0.8,0-1.5-0.2-2.3-0.5
		C89.7,289.4,89.1,288.9,88.7,288.3z"/>
	<path class="st4" d="M98,280.6c0.2-0.1,0.3-0.2,0.5-0.2c0.2,0,0.4,0.1,0.5,0.2c0.2,0.1,0.3,0.3,0.4,0.6v0.2
		c0.3-0.3,0.7-0.5,1.1-0.6c0.4-0.1,0.8-0.2,1.2-0.2c0.6,0,1.1,0.1,1.5,0.4c0.5,0.2,0.9,0.6,1.2,1c0.4,0.4,0.6,0.9,0.8,1.4
		c0.2,0.5,0.3,1.1,0.3,1.8c0,0.7-0.1,1.3-0.3,1.9c-0.2,0.6-0.5,1.1-1,1.5c-0.4,0.4-1,0.7-1.6,1c-0.6,0.2-1.4,0.4-2.2,0.4
		c-0.2,0-0.4,0-0.6,0c-0.2,0-0.4,0-0.6-0.1v4.5c0,0.3-0.1,0.6-0.3,0.7c-0.2,0.2-0.4,0.2-0.6,0.2c-0.2,0-0.4-0.1-0.6-0.2
		c-0.2-0.1-0.3-0.4-0.3-0.7v-13C97.8,280.9,97.9,280.7,98,280.6z M99.7,283.6c0,0-0.1,0.1-0.1,0.1c0,0-0.1,0.1-0.1,0.1v4
		c0.2,0,0.4,0.1,0.6,0.1c0.2,0,0.4,0,0.6,0c0.5,0,0.9-0.1,1.3-0.2c0.4-0.1,0.8-0.3,1.1-0.6c0.3-0.2,0.5-0.5,0.7-0.9
		c0.2-0.4,0.3-0.8,0.3-1.2c0-0.3-0.1-0.7-0.2-1c-0.1-0.3-0.3-0.7-0.4-0.9c-0.2-0.3-0.4-0.5-0.7-0.7c-0.3-0.2-0.5-0.3-0.9-0.3
		c-0.2,0-0.5,0-0.7,0.1c-0.2,0.1-0.4,0.2-0.6,0.3c-0.2,0.1-0.4,0.3-0.5,0.4C99.9,283.3,99.8,283.5,99.7,283.6z"/>
	<path class="st4" d="M115.2,287.4c0.3-0.1,0.6-0.1,0.8,0c0.2,0.1,0.4,0.2,0.5,0.4c0.1,0.2,0.1,0.4,0,0.6c-0.1,0.2-0.2,0.4-0.5,0.6
		c-0.5,0.3-1,0.5-1.5,0.7c-0.5,0.2-1.1,0.4-1.6,0.5c-0.6,0.1-1.1,0.1-1.6,0c-0.5-0.1-1.1-0.3-1.6-0.7c-0.6-0.4-1.1-1-1.4-1.7
		c-0.3-0.7-0.5-1.4-0.5-2.2c0-0.8,0.1-1.5,0.4-2.2c0.3-0.7,0.8-1.3,1.4-1.7c0.7-0.4,1.4-0.8,2.1-1c0.8-0.2,1.5-0.2,2.3-0.1
		c0.4,0.1,0.7,0.3,1,0.5c0.3,0.3,0.6,0.6,0.8,1c0.2,0.4,0.3,0.7,0.3,1.2c0,0.4-0.1,0.8-0.3,1.1c-0.2,0.4-0.6,0.7-1,1
		c-0.5,0.3-1,0.5-1.5,0.7c-0.5,0.2-1.1,0.4-1.6,0.5c-0.5,0.1-1,0.2-1.4,0.4c-0.2,0-0.3,0-0.5,0c0.2,0.5,0.5,0.8,1,1.1
		c0.4,0.3,0.9,0.4,1.6,0.4c0.5,0,1-0.2,1.5-0.4C114.3,287.8,114.8,287.6,115.2,287.4z M111,282.8c-0.5,0.3-0.9,0.7-1.2,1.1
		c-0.3,0.5-0.4,1-0.4,1.5c0.1-0.1,0.2-0.1,0.3-0.2c0.3-0.1,0.5-0.1,0.8-0.2c0.3-0.1,0.5-0.2,0.8-0.2c0.2,0,0.4-0.1,0.7-0.2
		c0.3-0.1,0.6-0.2,0.9-0.3c0.3-0.1,0.6-0.2,0.9-0.4c0.3-0.1,0.4-0.3,0.5-0.5c0-0.5-0.1-0.8-0.3-1c-0.3-0.2-0.6-0.3-0.9-0.3
		c-0.4,0-0.7,0.1-1.1,0.2C111.6,282.6,111.3,282.7,111,282.8z"/>
	<path class="st4" d="M126.6,288.9C126.6,289,126.6,289,126.6,288.9c0.1,0.2,0.1,0.4,0,0.6c0,0.2-0.1,0.3-0.2,0.4
		c-0.1,0.1-0.3,0.2-0.5,0.2c-0.2,0-0.4,0-0.6-0.1c-0.1-0.1-0.2-0.3-0.4-0.4s-0.2-0.3-0.3-0.5c-0.3,0.2-0.6,0.5-0.9,0.7
		s-0.7,0.3-1,0.3c-0.6,0-1.1,0-1.7,0c-0.6,0-1.1-0.2-1.6-0.6c-0.4-0.3-0.7-0.7-1-1.1c-0.2-0.4-0.4-0.9-0.4-1.3
		c-0.1-0.5-0.1-0.9,0-1.4c0.1-0.5,0.2-0.9,0.4-1.4c0.1-0.2,0.2-0.4,0.3-0.6c0.1-0.2,0.2-0.4,0.3-0.6c0.2-0.3,0.3-0.6,0.5-0.8
		c0.2-0.2,0.4-0.5,0.7-0.7c0.2-0.1,0.4-0.3,0.5-0.4c0.2-0.1,0.4-0.2,0.5-0.4c0.1-0.1,0.3-0.2,0.6-0.3c0.3-0.1,0.5-0.2,0.9-0.2
		c0.3-0.1,0.6-0.1,0.9-0.1c0.3,0,0.6,0,0.8,0.1c0.2,0,0.4,0,0.6,0.1c0.2,0.1,0.3,0.3,0.4,0.6c0,1,0,1.9,0,2.9c0,1,0,2,0.2,2.9
		c0,0.1,0.1,0.3,0.2,0.5c0.1,0.2,0.2,0.4,0.3,0.5c0.1,0.2,0.2,0.3,0.3,0.5C126.6,288.8,126.6,288.9,126.6,288.9z M123.9,287.5
		C123.9,287.4,123.9,287.4,123.9,287.5c0.1-0.1,0.1-0.1,0.1-0.1c-0.2-0.9-0.3-1.7-0.3-2.7c0-0.9,0-1.8,0-2.5c-0.1,0-0.3,0-0.4,0
		c-0.2,0-0.3,0.1-0.5,0.1c-0.1,0-0.3,0.1-0.4,0.1c-0.1,0-0.2,0.1-0.3,0.1c-0.4,0.2-0.8,0.5-1.1,0.8c-0.3,0.3-0.5,0.7-0.7,1.1
		c-0.2,0.4-0.3,0.8-0.4,1.2c-0.1,0.4-0.1,0.9-0.1,1.3c0,0.1,0.1,0.2,0.1,0.3c0,0.1,0.1,0.2,0.1,0.3c0.1,0.1,0.1,0.1,0.2,0.2
		c0.1,0.1,0.2,0.2,0.2,0.2c0.1,0.1,0.3,0.1,0.4,0.1c0.1,0,0.3,0.1,0.4,0.1c0.2,0,0.5,0,0.7,0c0.2,0,0.5,0,0.7-0.1
		c0.2-0.1,0.4-0.3,0.6-0.4C123.5,287.8,123.7,287.6,123.9,287.5z"/>
	<path class="st4" d="M130.1,289.8c-0.2,0.2-0.4,0.2-0.6,0.3c-0.2,0-0.4-0.1-0.6-0.2c-0.2-0.1-0.3-0.4-0.3-0.7V277
		c0.1-0.3,0.2-0.5,0.3-0.6c0.2-0.1,0.3-0.2,0.5-0.2c0.2,0,0.4,0.1,0.5,0.2c0.2,0.1,0.3,0.3,0.4,0.6v6.3c0.4-0.2,0.7-0.4,1-0.7
		c0.3-0.2,0.6-0.5,0.9-0.7c0.3-0.3,0.6-0.6,0.9-0.9c0.3-0.3,0.6-0.7,1-1.1c0.2-0.2,0.5-0.3,0.7-0.3c0.2,0,0.4,0.1,0.6,0.2
		s0.2,0.3,0.2,0.6c0,0.2-0.1,0.5-0.3,0.7c-0.5,0.6-1,1.2-1.5,1.6c-0.5,0.5-0.9,0.9-1.5,1.2c0.7,0.8,1.4,1.6,2.1,2.3
		c0.6,0.7,1.3,1.5,2.1,2.3c0.2,0.3,0.3,0.5,0.2,0.7c0,0.2-0.1,0.4-0.3,0.6c-0.1,0.1-0.3,0.2-0.6,0.2c-0.2,0-0.5-0.1-0.7-0.4
		c-0.8-0.8-1.5-1.6-2.1-2.4c-0.7-0.8-1.4-1.5-2.1-2.4c-0.1,0-0.2,0.1-0.2,0.1c-0.1,0-0.2,0.1-0.2,0.1v3.9
		C130.3,289.4,130.3,289.6,130.1,289.8z"/>
</g>
</svg>
