<?xml version="1.0" encoding="utf-8"?>
<!-- Generator: Adobe Illustrator 21.0.0, SVG Export Plug-In . SVG Version: 6.00 Build 0)  -->
<svg version="1.1" id="Layer_1" xmlns="http://www.w3.org/2000/svg" xmlns:xlink="http://www.w3.org/1999/xlink" x="0px" y="0px"
	 viewBox="0 0 225 402.7" style="enable-background:new 0 0 225 402.7;" xml:space="preserve">
<style type="text/css">
	.st0{fill:#E6D365;}
	.st1{fill:#69C9CA;}
	.st2{fill:#E69A45;}
	.st3{fill:#74AD66;}
	.st4{opacity:0.5;fill:#FFFFFF;}
	.st5{fill:#010101;}
	.st6{fill:#FFFFFF;}
	.st7{fill:none;stroke:#FFFFFF;stroke-width:2;stroke-miterlimit:10;}
	.st8{fill:none;stroke:#010101;stroke-width:2;stroke-miterlimit:10;}
</style>
<rect y="1.1" class="st1" width="225" height="400.5"/>
<rect x="14.8" y="206.1" class="st4" width="198.5" height="171.5"/>
<g>
	<path class="st5" d="M20.4,23.3c-0.3,0-0.5-0.1-0.7-0.3c-0.1-0.2-0.2-0.3-0.2-0.5c0-0.1,0-0.2,0.1-0.3v-8.6c-0.1,0-0.2,0.1-0.4,0.1
		c-0.2,0-0.4-0.1-0.6-0.2c-0.1-0.1-0.2-0.3-0.2-0.5c0-0.3,0.2-0.6,0.5-0.8c0.3-0.3,0.7-0.5,1.2-0.7c0.5-0.2,0.9-0.3,1.4-0.5
		c0.5-0.1,0.9-0.2,1.2-0.2c0.6,0,1.1,0.1,1.6,0.3s0.9,0.5,1.2,0.8c0.3,0.3,0.6,0.7,0.8,1c0.2,0.4,0.3,0.8,0.3,1.1
		c0,0.5-0.1,1-0.4,1.5c-0.3,0.5-0.6,0.9-1.1,1.2c0.7,0.3,1.2,0.8,1.5,1.3c0.3,0.5,0.5,1.1,0.5,1.6c0,0.4-0.1,0.7-0.2,1.1
		c-0.1,0.4-0.3,0.7-0.5,1c-0.2,0.3-0.5,0.6-0.8,0.8c-0.3,0.2-0.7,0.4-1.1,0.5c-0.5,0.2-1,0.3-1.5,0.3c-0.5,0-1,0.1-1.5,0.1
		c-0.2,0-0.4,0-0.6,0C20.7,23.3,20.6,23.3,20.4,23.3z M21.9,16c0.2,0,0.4,0,0.6,0c0.2,0,0.4-0.1,0.7-0.1c0.3-0.1,0.6-0.2,0.8-0.4
		c0.3-0.2,0.5-0.3,0.7-0.6s0.3-0.5,0.3-0.8c0-0.3-0.1-0.5-0.2-0.8s-0.3-0.4-0.6-0.5c-0.2-0.1-0.5-0.2-0.8-0.3
		c-0.3-0.1-0.6-0.1-0.8-0.1c-0.5,0-1,0.1-1.4,0.3v3.3C21.4,15.9,21.7,15.9,21.9,16z M24.8,18.3c-0.3-0.2-0.6-0.4-1-0.5
		c-0.4-0.1-0.7-0.2-1.1-0.2c-0.2,0-0.5,0.1-0.7,0.1c-0.2,0-0.5,0-0.7,0v4c0.3,0,0.7,0,1.1,0c0.5,0,1-0.1,1.4-0.2
		c0.5-0.1,0.9-0.3,1.2-0.6c0.3-0.3,0.5-0.7,0.5-1.2c0-0.3-0.1-0.5-0.2-0.8C25.2,18.7,25,18.5,24.8,18.3z"/>
	<path class="st5" d="M37.1,22.4C37.1,22.4,37.1,22.4,37.1,22.4c0.1,0.2,0.1,0.4,0,0.5c0,0.2-0.1,0.3-0.2,0.4
		c-0.1,0.1-0.3,0.2-0.4,0.2c-0.2,0-0.4,0-0.6-0.1c-0.1-0.1-0.2-0.3-0.3-0.4c-0.1-0.1-0.2-0.3-0.3-0.4c-0.3,0.2-0.6,0.4-0.9,0.6
		c-0.3,0.2-0.6,0.3-0.9,0.3c-0.5,0-1.1,0-1.6,0c-0.5,0-1-0.2-1.5-0.5c-0.4-0.3-0.7-0.6-0.9-1c-0.2-0.4-0.3-0.8-0.4-1.2
		c-0.1-0.4-0.1-0.9,0-1.3c0.1-0.5,0.2-0.9,0.3-1.3c0.1-0.2,0.2-0.4,0.3-0.5c0.1-0.2,0.2-0.4,0.3-0.5c0.1-0.3,0.3-0.5,0.5-0.8
		c0.2-0.2,0.4-0.4,0.6-0.6c0.2-0.1,0.3-0.2,0.5-0.4c0.2-0.1,0.3-0.2,0.5-0.3c0.1-0.1,0.3-0.2,0.5-0.3c0.2-0.1,0.5-0.2,0.8-0.2
		c0.3-0.1,0.6-0.1,0.9-0.1s0.5,0,0.7,0.1c0.2,0,0.4,0,0.5,0.1c0.2,0.1,0.3,0.3,0.4,0.6c0,0.9,0,1.8,0,2.7c0,0.9,0,1.8,0.2,2.7
		c0,0.1,0.1,0.3,0.1,0.4c0.1,0.2,0.2,0.3,0.3,0.5c0.1,0.2,0.2,0.3,0.3,0.4C37.1,22.2,37.1,22.3,37.1,22.4z M34.6,21
		C34.6,21,34.6,21,34.6,21c0.1-0.1,0.1-0.1,0.1-0.1c-0.2-0.8-0.3-1.6-0.3-2.5c0-0.9,0-1.7,0-2.4c-0.1,0-0.3,0-0.4,0
		c-0.1,0-0.3,0.1-0.4,0.1c-0.1,0-0.3,0.1-0.4,0.1c-0.1,0-0.2,0.1-0.3,0.1c-0.4,0.2-0.7,0.4-1,0.7c-0.3,0.3-0.5,0.6-0.7,1
		c-0.2,0.4-0.3,0.8-0.4,1.2c-0.1,0.4-0.1,0.8-0.1,1.2c0,0.1,0.1,0.2,0.1,0.3c0,0.1,0.1,0.2,0.1,0.3c0.1,0.1,0.1,0.1,0.2,0.2
		c0.1,0.1,0.1,0.2,0.2,0.2c0.1,0.1,0.2,0.1,0.4,0.1c0.1,0,0.2,0.1,0.4,0.1c0.2,0,0.4,0,0.7,0c0.2,0,0.4,0,0.6-0.1
		c0.2-0.1,0.4-0.3,0.6-0.4C34.2,21.3,34.4,21.1,34.6,21z"/>
	<path class="st5" d="M43.6,21.1c0.2-0.2,0.5-0.3,0.7-0.3c0.2,0,0.4,0.1,0.5,0.2c0.1,0.1,0.2,0.3,0.2,0.5c0,0.2-0.1,0.4-0.3,0.7
		c-0.4,0.5-1,0.8-1.6,1c-0.6,0.2-1.2,0.3-1.8,0.2c-0.6-0.1-1.1-0.3-1.6-0.7c-0.5-0.4-0.9-0.9-1.1-1.5c-0.1-0.4-0.3-0.7-0.3-1.1
		s-0.1-0.8-0.1-1.2c0-0.6,0.2-1.3,0.5-1.9c0.3-0.6,0.6-1.2,1.1-1.7c0.4-0.5,1-0.8,1.6-1.1c0.6-0.2,1.3-0.2,2,0
		c0.4,0.1,0.7,0.3,1,0.4c0.3,0.2,0.6,0.4,0.8,0.7c0.1,0.2,0.2,0.4,0.2,0.6s-0.1,0.4-0.2,0.5c-0.1,0.1-0.3,0.2-0.5,0.3
		c-0.2,0-0.4,0-0.7-0.1c-0.4-0.4-0.9-0.7-1.3-0.8s-0.8-0.1-1.1,0.1c-0.4,0.2-0.7,0.4-0.9,0.8c-0.3,0.4-0.5,0.8-0.6,1.2
		c-0.1,0.4-0.2,0.9-0.2,1.4c0,0.5,0.1,0.9,0.3,1.4c0.2,0.4,0.4,0.7,0.7,0.9c0.3,0.2,0.6,0.3,0.9,0.3c0.3,0,0.6,0,1-0.1
		C43,21.6,43.3,21.3,43.6,21.1z"/>
	<path class="st5" d="M48.6,23.2c-0.2,0.2-0.3,0.2-0.5,0.2c-0.2,0-0.4-0.1-0.5-0.2c-0.2-0.1-0.3-0.4-0.3-0.7V11.2
		c0.1-0.3,0.2-0.4,0.3-0.6c0.2-0.1,0.3-0.2,0.5-0.2c0.2,0,0.3,0.1,0.5,0.2c0.2,0.1,0.3,0.3,0.4,0.6V17c0.3-0.2,0.7-0.4,0.9-0.6
		c0.3-0.2,0.5-0.4,0.8-0.7c0.3-0.3,0.5-0.5,0.8-0.8c0.3-0.3,0.6-0.6,0.9-1c0.2-0.2,0.5-0.3,0.7-0.3c0.2,0,0.4,0.1,0.5,0.2
		s0.2,0.3,0.2,0.5c0,0.2-0.1,0.4-0.3,0.7c-0.5,0.6-1,1.1-1.4,1.5c-0.4,0.4-0.9,0.8-1.4,1.2c0.7,0.8,1.3,1.5,1.9,2.2
		c0.6,0.7,1.3,1.4,1.9,2.2c0.2,0.2,0.2,0.5,0.2,0.7c0,0.2-0.1,0.4-0.3,0.5c-0.1,0.1-0.3,0.2-0.5,0.2c-0.2,0-0.4-0.1-0.7-0.3
		c-0.7-0.8-1.4-1.5-2-2.2c-0.6-0.7-1.3-1.4-2-2.2c-0.1,0-0.2,0.1-0.2,0.1c-0.1,0-0.1,0.1-0.2,0.1v3.7C48.8,22.8,48.7,23,48.6,23.2z"
		/>
</g>
<g>
	<path class="st5" d="M22.4,94.5c-0.1-0.2-0.1-0.4-0.1-0.6c0-0.3,0.1-0.5,0.2-0.6c0.2-0.2,0.4-0.2,0.6-0.2c0.2,0,0.5,0.1,0.7,0.2
		c0.3,0.3,0.6,0.6,0.9,0.8c0.3,0.2,0.7,0.4,1.1,0.5c0.4,0.1,0.8,0.2,1.2,0.2c0.4,0,0.8,0.1,1.2,0.1c0.3-0.1,0.4-0.1,0.5-0.2
		c0.1,0,0.2,0,0.2-0.1c0.1,0,0.1-0.1,0.2-0.1c0.1-0.1,0.2-0.2,0.4-0.3c0.1-0.1,0.1-0.2,0.2-0.3c0.1-0.1,0.1-0.2,0.2-0.3l0.2-0.6
		c0-0.1,0-0.2,0-0.3c0-0.1,0-0.2,0-0.3c0-0.1-0.1-0.2-0.1-0.3c0-0.1-0.1-0.2-0.1-0.3c-0.1-0.1-0.2-0.2-0.3-0.3
		c-0.1-0.1-0.2-0.2-0.3-0.3c-0.1-0.1-0.3-0.2-0.4-0.3c-0.1-0.1-0.3-0.2-0.5-0.2c-0.6-0.2-1.2-0.4-1.7-0.4c-0.5-0.1-1-0.2-1.5-0.3
		c-0.5-0.1-0.9-0.3-1.3-0.6c-0.4-0.3-0.8-0.7-1.2-1.3c-0.1-0.1-0.1-0.2-0.1-0.3c0-0.1,0-0.2,0-0.3c0-0.1,0-0.2,0-0.4
		c0-0.1,0-0.2,0-0.3c0-0.3,0-0.5,0.1-0.7c0.1-0.2,0.1-0.4,0.2-0.6c0.1-0.2,0.2-0.4,0.4-0.6c0.2-0.2,0.4-0.4,0.6-0.7
		c0.3-0.3,0.6-0.5,0.9-0.7c0.3-0.2,0.7-0.3,1-0.4c0.4-0.1,0.7-0.2,1.1-0.2c0.4,0,0.8-0.1,1.1-0.1c0.1,0,0.2,0,0.3,0
		c0.1,0,0.2,0,0.3,0c0.3,0,0.7,0.1,1,0.3c0.3,0.1,0.6,0.3,1,0.3c0.3,0.2,0.5,0.5,0.5,0.9c0,0.2-0.1,0.4-0.3,0.6
		c-0.2,0.2-0.4,0.3-0.7,0.3c0,0-0.1,0-0.1,0c0,0-0.1,0-0.1,0c-0.5-0.2-0.9-0.3-1.3-0.4c-0.4-0.1-0.7-0.1-1.1-0.1
		c-0.4,0-0.7,0.1-1.1,0.2c-0.4,0.1-0.8,0.3-1.3,0.6c-0.1,0.1-0.2,0.2-0.3,0.3s-0.2,0.2-0.3,0.3c0,0.1-0.1,0.2-0.1,0.3
		c0,0.1-0.1,0.2-0.1,0.3c0,0.1,0,0.2,0,0.3s0,0.2,0,0.3c0.1,0.1,0.1,0.2,0.2,0.2c0,0.1,0.1,0.2,0.2,0.2l1,0.5
		c0.5,0.1,0.9,0.2,1.3,0.3c0.4,0.1,0.8,0.2,1.1,0.3c0.4,0.1,0.7,0.2,1.1,0.4c0.4,0.1,0.7,0.3,1.1,0.5c0.2,0.1,0.4,0.3,0.5,0.5
		c0.2,0.2,0.3,0.4,0.4,0.5c0.2,0.3,0.4,0.6,0.5,1c0.1,0.4,0.2,0.7,0.2,1.1c0,0.5-0.1,1.1-0.3,1.6c-0.2,0.5-0.5,0.9-0.9,1.3
		c-0.1,0.1-0.3,0.2-0.4,0.3c-0.1,0.1-0.3,0.2-0.4,0.3c-0.3,0.2-0.7,0.4-1.1,0.5c-0.4,0.1-0.8,0.2-1.2,0.2c-0.5,0-1-0.1-1.5-0.2
		c-0.5-0.1-1-0.3-1.5-0.5c-0.5-0.2-0.9-0.4-1.3-0.7C23,95.1,22.6,94.8,22.4,94.5z"/>
	<path class="st5" d="M35.9,96.3c-0.2,0.2-0.4,0.3-0.6,0.3s-0.4-0.1-0.6-0.2c-0.2-0.2-0.3-0.4-0.4-0.7V82.9c0.1-0.3,0.2-0.5,0.4-0.7
		c0.2-0.2,0.4-0.2,0.5-0.2c0.2,0,0.4,0.1,0.6,0.2c0.2,0.1,0.3,0.3,0.4,0.6v5.3c0.2-0.2,0.4-0.4,0.6-0.5c0.3-0.2,0.6-0.4,0.9-0.5
		c0.3-0.1,0.6-0.2,0.9-0.3c0.3-0.1,0.5-0.1,0.8,0c0.3,0,0.6,0.1,0.8,0.2c0.5,0.1,0.8,0.4,1.2,0.7c0.3,0.3,0.6,0.7,0.8,1.1
		c0.2,0.4,0.4,0.8,0.5,1.3c0.1,0.5,0.2,0.9,0.2,1.3c0,0.7,0,1.4,0,2.1c0,0.7,0,1.4,0,2.1c0,0.3-0.1,0.6-0.3,0.8
		c-0.2,0.2-0.4,0.3-0.6,0.3c-0.2,0-0.4-0.1-0.6-0.2c-0.2-0.2-0.3-0.4-0.4-0.7c0-0.7,0-1.4,0-2.1s0-1.4,0-2.1c0-0.5-0.1-1-0.3-1.5
		c-0.2-0.4-0.5-0.8-1-1.1c-0.4-0.1-0.7-0.1-1.1,0c-0.3,0.1-0.6,0.3-0.9,0.5c-0.3,0.2-0.5,0.5-0.7,0.8c-0.2,0.3-0.4,0.6-0.7,0.8
		c0,0-0.1,0.1-0.1,0.1c0,0-0.1,0.1-0.1,0.1v4.4C36.2,95.8,36.1,96.1,35.9,96.3z"/>
	<path class="st5" d="M53,93.5c0.3-0.1,0.6-0.1,0.8,0c0.2,0.1,0.4,0.2,0.5,0.4c0.1,0.2,0.1,0.4,0,0.7c-0.1,0.2-0.2,0.4-0.5,0.6
		c-0.5,0.3-1,0.6-1.6,0.8c-0.6,0.2-1.2,0.4-1.7,0.5s-1.2,0.1-1.7,0c-0.6-0.1-1.1-0.3-1.7-0.7c-0.6-0.4-1.1-1-1.5-1.8
		c-0.3-0.8-0.5-1.5-0.5-2.3c0-0.8,0.1-1.6,0.4-2.3c0.3-0.7,0.8-1.4,1.5-1.8c0.7-0.5,1.5-0.8,2.3-1.1c0.8-0.2,1.6-0.3,2.5-0.1
		c0.4,0.1,0.8,0.3,1.1,0.6c0.3,0.3,0.6,0.6,0.8,1c0.2,0.4,0.3,0.8,0.3,1.2c0,0.4-0.1,0.8-0.3,1.2c-0.3,0.4-0.6,0.8-1.1,1.1
		c-0.5,0.3-1,0.5-1.6,0.7c-0.6,0.2-1.1,0.4-1.7,0.5c-0.6,0.1-1.1,0.3-1.5,0.4c-0.2,0-0.4,0.1-0.5,0c0.2,0.5,0.6,0.9,1,1.2
		c0.4,0.3,1,0.4,1.7,0.4c0.5,0,1.1-0.2,1.6-0.4C52.1,94.1,52.6,93.8,53,93.5z M48.6,88.7c-0.6,0.3-1,0.7-1.2,1.2
		c-0.3,0.5-0.4,1.1-0.4,1.6c0.1-0.1,0.2-0.1,0.3-0.2c0.3-0.1,0.5-0.2,0.8-0.2c0.3-0.1,0.6-0.2,0.9-0.2c0.2,0,0.4-0.1,0.7-0.2
		c0.3-0.1,0.6-0.2,1-0.3c0.3-0.1,0.6-0.3,0.9-0.4s0.5-0.3,0.5-0.5c0-0.5-0.1-0.8-0.4-1c-0.3-0.2-0.6-0.3-1-0.3
		c-0.4,0-0.8,0.1-1.2,0.2C49.2,88.5,48.8,88.6,48.6,88.7z"/>
</g>
<g>
	<path class="st5" d="M153,89.9c-0.2-0.2-0.2-0.4-0.2-0.6c0-0.2,0.1-0.4,0.3-0.6c0.2-0.2,0.4-0.3,0.8-0.3h1.3v-3.6
		c0.1-0.3,0.2-0.5,0.4-0.7c0.2-0.2,0.4-0.2,0.6-0.2c0.2,0,0.4,0.1,0.6,0.2c0.2,0.1,0.3,0.3,0.4,0.6v3.7h2.2c0.3,0.1,0.5,0.2,0.6,0.4
		c0.1,0.2,0.2,0.4,0.2,0.6c0,0.2-0.1,0.4-0.2,0.6c-0.2,0.2-0.4,0.3-0.7,0.4H157c0,1.2,0,2.4,0,3.6c0,1.2,0,2.4,0,3.6
		c0,0.3-0.1,0.6-0.3,0.8c-0.2,0.2-0.4,0.3-0.6,0.3c-0.2,0-0.4-0.1-0.6-0.2c-0.2-0.2-0.3-0.4-0.3-0.7c0-1.2,0-2.4,0-3.6
		c0-1.2,0-2.5,0-3.6h-1.3C153.4,90.2,153.2,90.1,153,89.9z"/>
	<path class="st5" d="M160.5,92.7c0.2-0.5,0.4-1,0.6-1.4s0.5-0.9,0.9-1.3c0.3-0.4,0.7-0.7,1.1-1c0.4-0.3,0.9-0.5,1.4-0.6
		c0.9-0.2,1.6-0.1,2.3,0.2c0.7,0.3,1.2,0.8,1.6,1.4s0.7,1.3,0.8,2.1c0.1,0.8,0.1,1.6-0.1,2.3c-0.2,0.9-0.6,1.7-1.2,2.5
		c-0.6,0.8-1.3,1.3-2.2,1.7c-0.7,0.3-1.3,0.4-1.9,0.3c-0.6-0.1-1.1-0.3-1.6-0.6c-0.5-0.3-0.9-0.7-1.2-1.2c-0.3-0.5-0.6-1.1-0.7-1.7
		c-0.1-0.4-0.1-0.8-0.1-1.2c0-0.4,0.1-0.8,0.1-1.2L160.5,92.7z M162.3,93.2c-0.1,0.3-0.1,0.6-0.1,0.9c0,0.3,0,0.6,0,0.9
		c0,0.4,0.2,0.8,0.4,1.1c0.2,0.3,0.5,0.6,0.8,0.8s0.6,0.3,1,0.2c0.4,0,0.7-0.1,1.1-0.4c0.5-0.3,0.9-0.7,1.2-1.2
		c0.3-0.5,0.5-1,0.7-1.6c0.1-0.5,0.1-0.9,0.1-1.5c-0.1-0.5-0.2-1-0.5-1.4c-0.2-0.4-0.6-0.7-1-0.9c-0.4-0.2-0.9-0.1-1.5,0.1
		c-0.6,0.3-1.1,0.6-1.4,1.2C162.8,92.1,162.5,92.6,162.3,93.2z"/>
</g>
<g>
	<path class="st5" d="M111.9,140.6C111.9,140.6,111.9,140.6,111.9,140.6c0.1,0.2,0.1,0.4,0,0.6c0,0.2-0.1,0.3-0.3,0.4
		c-0.1,0.1-0.3,0.2-0.5,0.2c-0.2,0-0.4,0-0.7-0.1c-0.1-0.1-0.3-0.3-0.4-0.4c-0.1-0.2-0.2-0.3-0.3-0.5c-0.3,0.3-0.6,0.5-1,0.7
		c-0.3,0.2-0.7,0.3-1,0.4c-0.6,0-1.2,0-1.8,0c-0.6,0-1.2-0.2-1.7-0.6c-0.4-0.3-0.8-0.7-1-1.1c-0.2-0.4-0.4-0.9-0.5-1.4
		c-0.1-0.5-0.1-1,0-1.5c0.1-0.5,0.2-1,0.4-1.5c0.1-0.2,0.2-0.4,0.3-0.6c0.1-0.2,0.2-0.4,0.4-0.6c0.2-0.3,0.4-0.6,0.6-0.9
		c0.2-0.3,0.5-0.5,0.7-0.7c0.2-0.1,0.4-0.3,0.6-0.4c0.2-0.1,0.4-0.3,0.6-0.4c0.1-0.1,0.3-0.2,0.6-0.3c0.3-0.1,0.6-0.2,0.9-0.3
		s0.7-0.1,1-0.1s0.6,0,0.8,0.1c0.2,0,0.4,0,0.6,0.2c0.2,0.1,0.4,0.4,0.5,0.7c0,1,0,2.1,0,3.1c0,1,0.1,2.1,0.2,3.1
		c0,0.1,0.1,0.3,0.2,0.5c0.1,0.2,0.2,0.4,0.3,0.6c0.1,0.2,0.2,0.3,0.3,0.5C111.9,140.4,111.9,140.5,111.9,140.6z M109.1,139
		C109.1,139,109.1,139,109.1,139c0.1-0.1,0.1-0.1,0.1-0.1c-0.2-0.9-0.3-1.9-0.3-2.8c0-1,0-1.9,0-2.7c-0.1,0-0.3,0-0.5,0
		s-0.3,0.1-0.5,0.1c-0.2,0.1-0.3,0.1-0.4,0.1c-0.1,0-0.2,0.1-0.3,0.1c-0.5,0.2-0.8,0.5-1.2,0.8c-0.3,0.3-0.6,0.7-0.8,1.1
		c-0.2,0.4-0.4,0.9-0.5,1.3c-0.1,0.5-0.2,0.9-0.2,1.4c0,0.1,0.1,0.2,0.1,0.4c0,0.1,0.1,0.2,0.1,0.4c0.1,0.1,0.2,0.2,0.2,0.2
		c0.1,0.1,0.2,0.2,0.3,0.3c0.1,0.1,0.3,0.1,0.4,0.2c0.1,0,0.3,0.1,0.4,0.1c0.3,0,0.5,0,0.7,0c0.2,0,0.5,0,0.7-0.1
		c0.2-0.2,0.5-0.3,0.7-0.5C108.6,139.4,108.8,139.2,109.1,139z"/>
	<path class="st5" d="M121.8,141.7c-0.2,0.2-0.4,0.3-0.6,0.3c-0.2,0-0.4-0.1-0.6-0.2c-0.2-0.2-0.3-0.4-0.3-0.7c0-0.7,0-1.4,0-2.1
		s0-1.4,0-2.1c0-0.5,0-1,0-1.5c0-0.5,0-1-0.1-1.5c-0.1-0.2-0.3-0.4-0.4-0.4c-0.1-0.1-0.3-0.1-0.5-0.1c-0.5,0-1,0.1-1.5,0.4
		c-0.5,0.3-0.9,0.6-1.2,1c-0.2,0.3-0.3,0.5-0.4,0.6c-0.1,0.2-0.2,0.4-0.2,0.8c0,0.8,0,1.5,0,2.3s0,1.5,0,2.3c0,0.3-0.1,0.6-0.3,0.8
		c-0.2,0.2-0.4,0.3-0.6,0.3c-0.2,0-0.4-0.1-0.6-0.2c-0.2-0.2-0.3-0.4-0.3-0.7c0-0.7,0-1.4,0-2.1c0-0.7,0-1.4,0-2c0-0.7,0-1.3,0-2
		s0-1.4,0-2.1c0.1-0.3,0.2-0.5,0.4-0.7c0.2-0.2,0.4-0.2,0.6-0.2c0.2,0,0.4,0.1,0.6,0.2c0.2,0.1,0.3,0.3,0.4,0.6v0.2
		c0.4-0.4,0.9-0.7,1.5-0.9c0.6-0.2,1.1-0.3,1.7-0.3c0.6,0,1.1,0.1,1.6,0.4s0.9,0.7,1.2,1.2c0.1,0.2,0.2,0.4,0.2,0.7
		c0,0.3,0.1,0.6,0.1,0.9c0,0.3,0,0.7,0,1c0,0.3,0,0.7,0,1v2.7v1.5C122.1,141.2,122,141.5,121.8,141.7z"/>
</g>
<rect x="65" y="75.9" class="st6" width="74.6" height="31"/>
<g>
	<g>
		<path class="st5" d="M124.4,350.6C124.4,350.7,124.4,350.7,124.4,350.6c0.1,0.2,0.1,0.4,0,0.6c0,0.2-0.1,0.3-0.3,0.4
			c-0.1,0.1-0.3,0.2-0.5,0.2c-0.2,0-0.4,0-0.7-0.1c-0.1-0.1-0.3-0.3-0.4-0.4c-0.1-0.2-0.2-0.3-0.3-0.5c-0.3,0.3-0.6,0.5-1,0.7
			c-0.3,0.2-0.7,0.3-1,0.4c-0.6,0-1.2,0-1.8,0c-0.6,0-1.2-0.2-1.7-0.6c-0.4-0.3-0.8-0.7-1-1.1c-0.2-0.4-0.4-0.9-0.5-1.4
			c-0.1-0.5-0.1-1,0-1.5c0.1-0.5,0.2-1,0.4-1.5c0.1-0.2,0.2-0.4,0.3-0.6c0.1-0.2,0.2-0.4,0.4-0.6c0.2-0.3,0.4-0.6,0.6-0.9
			c0.2-0.3,0.5-0.5,0.7-0.7c0.2-0.1,0.4-0.3,0.6-0.4c0.2-0.1,0.4-0.3,0.6-0.4c0.1-0.1,0.3-0.2,0.6-0.3c0.3-0.1,0.6-0.2,0.9-0.3
			s0.7-0.1,1-0.1c0.3,0,0.6,0,0.8,0.1c0.2,0,0.4,0,0.6,0.2s0.4,0.4,0.5,0.7c0,1,0,2.1,0,3.1c0,1,0.1,2.1,0.2,3.1
			c0,0.1,0.1,0.3,0.2,0.5c0.1,0.2,0.2,0.4,0.3,0.6c0.1,0.2,0.2,0.3,0.3,0.5C124.4,350.5,124.4,350.6,124.4,350.6z M121.5,349.1
			C121.5,349.1,121.6,349,121.5,349.1c0.1-0.1,0.1-0.1,0.1-0.1c-0.2-0.9-0.3-1.9-0.3-2.8c0-1,0-1.9,0-2.7c-0.1,0-0.3,0-0.5,0
			c-0.2,0-0.3,0.1-0.5,0.1c-0.2,0.1-0.3,0.1-0.4,0.1c-0.1,0-0.2,0.1-0.3,0.1c-0.5,0.2-0.8,0.5-1.2,0.8c-0.3,0.3-0.6,0.7-0.8,1.1
			c-0.2,0.4-0.4,0.9-0.5,1.3c-0.1,0.5-0.2,0.9-0.2,1.4c0,0.1,0.1,0.2,0.1,0.4c0,0.1,0.1,0.2,0.1,0.4c0.1,0.1,0.2,0.2,0.2,0.2
			c0.1,0.1,0.2,0.2,0.3,0.3c0.1,0.1,0.3,0.1,0.4,0.2c0.1,0,0.3,0.1,0.4,0.1c0.3,0,0.5,0,0.7,0c0.2,0,0.5,0,0.7-0.1
			c0.2-0.2,0.5-0.3,0.7-0.5S121.3,349.3,121.5,349.1z"/>
		<path class="st5" d="M127,341.8c0.2-0.2,0.4-0.2,0.6-0.2c0.2,0,0.4,0.1,0.6,0.2c0.2,0.1,0.3,0.3,0.4,0.6v0.2
			c0.3-0.3,0.7-0.5,1.2-0.7c0.4-0.1,0.9-0.2,1.3-0.2c0.6,0,1.1,0.1,1.6,0.4c0.5,0.3,1,0.6,1.3,1c0.4,0.4,0.7,0.9,0.9,1.5
			c0.2,0.6,0.3,1.2,0.3,1.9c0,0.7-0.1,1.4-0.4,2c-0.2,0.6-0.6,1.1-1,1.6c-0.5,0.4-1,0.8-1.7,1c-0.7,0.3-1.5,0.4-2.4,0.4
			c-0.2,0-0.4,0-0.6,0c-0.2,0-0.4,0-0.6-0.1v4.8c0,0.3-0.1,0.6-0.3,0.8c-0.2,0.2-0.4,0.3-0.6,0.3c-0.2,0-0.4-0.1-0.6-0.2
			c-0.2-0.2-0.3-0.4-0.3-0.7v-13.8C126.7,342.1,126.8,341.9,127,341.8z M128.7,345c0,0-0.1,0.1-0.1,0.1c0,0-0.1,0.1-0.1,0.1v4.3
			c0.2,0,0.4,0.1,0.6,0.1c0.2,0,0.4,0,0.6,0c0.5,0,1-0.1,1.4-0.2c0.4-0.1,0.8-0.3,1.1-0.6c0.3-0.3,0.6-0.6,0.8-1
			c0.2-0.4,0.3-0.8,0.3-1.3c0-0.4-0.1-0.7-0.2-1.1c-0.1-0.4-0.3-0.7-0.5-1c-0.2-0.3-0.4-0.5-0.7-0.7c-0.3-0.2-0.6-0.3-0.9-0.3
			c-0.3,0-0.5,0-0.7,0.1c-0.2,0.1-0.4,0.2-0.6,0.4c-0.2,0.1-0.4,0.3-0.5,0.5C129,344.7,128.8,344.8,128.7,345z"/>
		<path class="st5" d="M137.8,341.8c0.2-0.2,0.4-0.2,0.6-0.2c0.2,0,0.4,0.1,0.6,0.2c0.2,0.1,0.3,0.3,0.4,0.6v0.2
			c0.3-0.3,0.7-0.5,1.2-0.7c0.4-0.1,0.9-0.2,1.3-0.2c0.6,0,1.1,0.1,1.6,0.4c0.5,0.3,1,0.6,1.3,1c0.4,0.4,0.7,0.9,0.9,1.5
			c0.2,0.6,0.3,1.2,0.3,1.9c0,0.7-0.1,1.4-0.4,2c-0.2,0.6-0.6,1.1-1,1.6c-0.5,0.4-1,0.8-1.7,1c-0.7,0.3-1.5,0.4-2.4,0.4
			c-0.2,0-0.4,0-0.6,0c-0.2,0-0.4,0-0.6-0.1v4.8c0,0.3-0.1,0.6-0.3,0.8c-0.2,0.2-0.4,0.3-0.6,0.3c-0.2,0-0.4-0.1-0.6-0.2
			c-0.2-0.2-0.3-0.4-0.3-0.7v-13.8C137.5,342.1,137.7,341.9,137.8,341.8z M139.5,345c0,0-0.1,0.1-0.1,0.1c0,0-0.1,0.1-0.1,0.1v4.3
			c0.2,0,0.4,0.1,0.6,0.1c0.2,0,0.4,0,0.6,0c0.5,0,1-0.1,1.4-0.2c0.4-0.1,0.8-0.3,1.1-0.6c0.3-0.3,0.6-0.6,0.8-1
			c0.2-0.4,0.3-0.8,0.3-1.3c0-0.4-0.1-0.7-0.2-1.1c-0.1-0.4-0.3-0.7-0.5-1c-0.2-0.3-0.4-0.5-0.7-0.7c-0.3-0.2-0.6-0.3-0.9-0.3
			c-0.3,0-0.5,0-0.7,0.1c-0.2,0.1-0.4,0.2-0.6,0.4c-0.2,0.1-0.4,0.3-0.5,0.5C139.8,344.7,139.7,344.8,139.5,345z"/>
		<path class="st5" d="M150.7,350.5c0.3,0.2,0.4,0.4,0.5,0.7c0,0.3,0,0.5-0.1,0.6c-0.1,0.2-0.3,0.3-0.5,0.4c-0.2,0.1-0.5,0-0.8-0.1
			c-0.1-0.1-0.3-0.2-0.4-0.3c-0.1-0.1-0.3-0.2-0.4-0.3c-0.1-0.1-0.2-0.2-0.3-0.3c0-0.1-0.1-0.3-0.1-0.5v-12.6
			c0.1-0.3,0.2-0.5,0.4-0.7c0.2-0.1,0.4-0.2,0.5-0.2c0.2,0,0.4,0.1,0.6,0.2c0.2,0.1,0.3,0.3,0.4,0.6v12.2c0,0,0.1,0.1,0.1,0.1
			C150.6,350.5,150.7,350.5,150.7,350.5z"/>
		<path class="st5" d="M160.9,349c0.3-0.1,0.6-0.1,0.8,0c0.2,0.1,0.4,0.2,0.5,0.4c0.1,0.2,0.1,0.4,0,0.7s-0.2,0.4-0.5,0.6
			c-0.5,0.3-1,0.6-1.6,0.8c-0.6,0.2-1.2,0.4-1.7,0.5s-1.2,0.1-1.7,0c-0.6-0.1-1.1-0.3-1.7-0.7c-0.6-0.4-1.1-1-1.5-1.8
			c-0.3-0.8-0.5-1.5-0.5-2.3c0-0.8,0.1-1.6,0.4-2.3c0.3-0.7,0.8-1.4,1.5-1.8c0.7-0.5,1.5-0.8,2.3-1.1c0.8-0.2,1.6-0.3,2.5-0.1
			c0.4,0.1,0.8,0.3,1.1,0.6c0.3,0.3,0.6,0.6,0.8,1c0.2,0.4,0.3,0.8,0.3,1.2c0,0.4-0.1,0.8-0.3,1.2c-0.3,0.4-0.6,0.8-1.1,1.1
			c-0.5,0.3-1,0.5-1.6,0.7c-0.6,0.2-1.1,0.4-1.7,0.5c-0.6,0.1-1.1,0.3-1.5,0.4c-0.2,0-0.4,0.1-0.5,0c0.2,0.5,0.6,0.9,1,1.2
			c0.4,0.3,1,0.4,1.7,0.4c0.5,0,1.1-0.2,1.6-0.4C159.9,349.5,160.4,349.2,160.9,349z M156.4,344.1c-0.6,0.3-1,0.7-1.2,1.2
			c-0.3,0.5-0.4,1.1-0.4,1.6c0.1-0.1,0.2-0.1,0.3-0.2c0.3-0.1,0.5-0.2,0.8-0.2c0.3-0.1,0.6-0.2,0.9-0.2c0.2,0,0.4-0.1,0.7-0.2
			c0.3-0.1,0.6-0.2,1-0.3c0.3-0.1,0.6-0.3,0.9-0.4s0.5-0.3,0.5-0.5c0-0.5-0.1-0.8-0.4-1c-0.3-0.2-0.6-0.3-1-0.3s-0.8,0.1-1.2,0.2
			C157,343.9,156.7,344,156.4,344.1z"/>
	</g>
	<rect x="102.3" y="331.8" class="st7" width="74.6" height="31"/>
</g>
<rect x="17.5" y="115.9" class="st6" width="74.6" height="31"/>
<g>
	<g>
		<path class="st5" d="M48.5,302.5c0.3-0.1,0.6-0.1,0.8,0c0.2,0.1,0.4,0.2,0.5,0.4c0.1,0.2,0.1,0.4,0,0.7s-0.2,0.4-0.5,0.6
			c-0.5,0.3-1,0.6-1.6,0.8c-0.6,0.2-1.2,0.4-1.7,0.5s-1.2,0.1-1.7,0c-0.6-0.1-1.1-0.3-1.7-0.7c-0.6-0.4-1.1-1-1.5-1.8
			c-0.3-0.8-0.5-1.5-0.5-2.3c0-0.8,0.1-1.6,0.4-2.3c0.3-0.7,0.8-1.4,1.5-1.8c0.7-0.5,1.5-0.8,2.3-1.1c0.8-0.2,1.6-0.3,2.5-0.1
			c0.4,0.1,0.8,0.3,1.1,0.6c0.3,0.3,0.6,0.6,0.8,1c0.2,0.4,0.3,0.8,0.3,1.2c0,0.4-0.1,0.8-0.3,1.2c-0.3,0.4-0.6,0.8-1.1,1.1
			c-0.5,0.3-1,0.5-1.6,0.7c-0.6,0.2-1.1,0.4-1.7,0.5c-0.6,0.1-1.1,0.3-1.5,0.4c-0.2,0-0.4,0.1-0.5,0c0.2,0.5,0.6,0.9,1,1.2
			c0.4,0.3,1,0.4,1.7,0.4c0.5,0,1.1-0.2,1.6-0.4C47.6,303,48.1,302.7,48.5,302.5z M44.1,297.6c-0.6,0.3-1,0.7-1.2,1.2
			c-0.3,0.5-0.4,1.1-0.4,1.6c0.1-0.1,0.2-0.1,0.3-0.2c0.3-0.1,0.5-0.2,0.8-0.2s0.6-0.2,0.9-0.2c0.2,0,0.4-0.1,0.7-0.2
			c0.3-0.1,0.6-0.2,1-0.3c0.3-0.1,0.6-0.3,0.9-0.4c0.3-0.2,0.5-0.3,0.5-0.5c0-0.5-0.1-0.8-0.4-1c-0.3-0.2-0.6-0.3-1-0.3
			c-0.4,0-0.8,0.1-1.2,0.2C44.7,297.4,44.4,297.5,44.1,297.6z"/>
		<path class="st5" d="M60.7,304.2C60.7,304.2,60.7,304.2,60.7,304.2c0.1,0.2,0.1,0.4,0,0.6c0,0.2-0.1,0.3-0.3,0.4
			c-0.1,0.1-0.3,0.2-0.5,0.2c-0.2,0-0.4,0-0.7-0.1c-0.1-0.1-0.3-0.3-0.4-0.4c-0.1-0.2-0.2-0.3-0.3-0.5c-0.3,0.3-0.6,0.5-1,0.7
			c-0.3,0.2-0.7,0.3-1,0.4c-0.6,0-1.2,0-1.8,0s-1.2-0.2-1.7-0.6c-0.4-0.3-0.8-0.7-1-1.1c-0.2-0.4-0.4-0.9-0.5-1.4
			c-0.1-0.5-0.1-1,0-1.5c0.1-0.5,0.2-1,0.4-1.5c0.1-0.2,0.2-0.4,0.3-0.6c0.1-0.2,0.2-0.4,0.4-0.6c0.2-0.3,0.4-0.6,0.6-0.9
			c0.2-0.3,0.5-0.5,0.7-0.7c0.2-0.1,0.4-0.3,0.6-0.4c0.2-0.1,0.4-0.3,0.6-0.4c0.1-0.1,0.3-0.2,0.6-0.3c0.3-0.1,0.6-0.2,0.9-0.3
			s0.7-0.1,1-0.1s0.6,0,0.8,0.1c0.2,0,0.4,0,0.6,0.2c0.2,0.1,0.4,0.4,0.5,0.7c0,1,0,2.1,0,3.1c0,1,0.1,2.1,0.2,3.1
			c0,0.1,0.1,0.3,0.2,0.5c0.1,0.2,0.2,0.4,0.3,0.6c0.1,0.2,0.2,0.3,0.3,0.5C60.6,304,60.7,304.1,60.7,304.2z M57.8,302.6
			C57.8,302.6,57.8,302.6,57.8,302.6c0.1-0.1,0.1-0.1,0.1-0.1c-0.2-0.9-0.3-1.9-0.3-2.8c0-1,0-1.9,0-2.7c-0.1,0-0.3,0-0.5,0
			c-0.2,0-0.3,0.1-0.5,0.1c-0.2,0.1-0.3,0.1-0.4,0.1c-0.1,0-0.2,0.1-0.3,0.1c-0.5,0.2-0.8,0.5-1.2,0.8c-0.3,0.3-0.6,0.7-0.8,1.1
			c-0.2,0.4-0.4,0.9-0.5,1.3c-0.1,0.5-0.2,0.9-0.2,1.4c0,0.1,0.1,0.2,0.1,0.4c0,0.1,0.1,0.2,0.1,0.4c0.1,0.1,0.2,0.2,0.2,0.2
			c0.1,0.1,0.2,0.2,0.3,0.3c0.1,0.1,0.3,0.1,0.4,0.2c0.1,0,0.3,0.1,0.4,0.1c0.3,0,0.5,0,0.7,0c0.2,0,0.5,0,0.7-0.1
			c0.2-0.2,0.5-0.3,0.7-0.5C57.4,302.9,57.6,302.8,57.8,302.6z"/>
		<path class="st5" d="M61.9,296.8c-0.2-0.2-0.2-0.4-0.2-0.6c0-0.2,0.1-0.4,0.3-0.6c0.2-0.2,0.4-0.3,0.8-0.3H64v-3.6
			c0.1-0.3,0.2-0.5,0.4-0.7c0.2-0.2,0.4-0.2,0.6-0.2c0.2,0,0.4,0.1,0.6,0.2c0.2,0.1,0.3,0.3,0.4,0.6v3.7h2.2
			c0.3,0.1,0.5,0.2,0.6,0.4c0.1,0.2,0.2,0.4,0.2,0.6c0,0.2-0.1,0.4-0.2,0.6c-0.2,0.2-0.4,0.3-0.7,0.4h-2.1c0,1.2,0,2.4,0,3.6
			c0,1.2,0,2.4,0,3.6c0,0.3-0.1,0.6-0.3,0.8c-0.2,0.2-0.4,0.3-0.6,0.3c-0.2,0-0.4-0.1-0.6-0.2c-0.2-0.2-0.3-0.4-0.3-0.7
			c0-1.2,0-2.4,0-3.6c0-1.2,0-2.5,0-3.6h-1.3C62.3,297.1,62.1,297,61.9,296.8z"/>
	</g>
	<rect x="19.5" y="283.1" class="st7" width="74.6" height="31"/>
</g>
<rect x="139.6" y="115.9" class="st6" width="74.6" height="31"/>
<g>
	<g>
		<path class="st5" d="M149.1,257.4c0.2-0.3,0.3-0.4,0.5-0.5c0.2-0.1,0.4-0.1,0.6,0c0.2,0.1,0.3,0.2,0.5,0.4
			c0.1,0.2,0.2,0.4,0.2,0.7c-0.4,1.5-0.9,2.9-1.4,4.4s-1,2.9-1.7,4.3c-0.2,0.3-0.5,0.4-0.7,0.4c-0.3,0-0.5-0.1-0.8-0.4
			c-0.4-0.8-0.8-1.7-1.2-2.6c-0.4-0.9-0.7-1.7-1.1-2.6c-0.1-0.1-0.1-0.2-0.2-0.4c-0.1-0.1-0.1-0.3-0.1-0.4c-0.2,0.5-0.4,1-0.6,1.4
			c-0.2,0.5-0.4,0.9-0.5,1.4c-0.2,0.5-0.4,1-0.6,1.5c-0.2,0.5-0.4,1-0.6,1.6c-0.3,0.3-0.6,0.5-0.9,0.4c-0.3,0-0.6-0.3-0.8-0.6
			c-0.3-0.8-0.7-1.7-0.9-2.5c-0.3-0.8-0.5-1.7-0.8-2.6c-0.2-0.6-0.3-1.1-0.5-1.7c-0.1-0.6-0.3-1.1-0.4-1.7c0-0.3,0-0.6,0.2-0.8
			c0.2-0.2,0.3-0.3,0.5-0.4c0.2,0,0.4,0,0.6,0.1c0.2,0.1,0.4,0.4,0.5,0.7c0.2,1,0.4,2,0.7,3c0.3,1,0.6,2,0.9,3
			c0.2-0.5,0.4-1,0.6-1.4c0.2-0.4,0.3-0.9,0.5-1.3c0.2-0.4,0.4-0.9,0.6-1.4c0.2-0.5,0.4-1.1,0.7-1.7c0.1-0.2,0.3-0.4,0.4-0.5
			c0.2-0.1,0.3-0.1,0.5-0.1c0.2,0,0.3,0.1,0.5,0.2c0.2,0.1,0.3,0.3,0.3,0.6c0.1,0.5,0.3,1,0.5,1.4c0.2,0.5,0.4,0.9,0.6,1.4
			c0.2,0.5,0.4,1,0.6,1.5c0.2,0.5,0.4,1,0.6,1.5c0.4-1.1,0.8-2.1,1.1-3.2C148.4,259.6,148.8,258.5,149.1,257.4z"/>
		<path class="st5" d="M161.3,265.9C161.3,265.9,161.3,266,161.3,265.9c0.1,0.2,0.1,0.4,0,0.6c0,0.2-0.1,0.3-0.3,0.4
			c-0.1,0.1-0.3,0.2-0.5,0.2c-0.2,0-0.4,0-0.7-0.1c-0.1-0.1-0.3-0.3-0.4-0.4c-0.1-0.2-0.2-0.3-0.3-0.5c-0.3,0.3-0.6,0.5-1,0.7
			c-0.3,0.2-0.7,0.3-1,0.4c-0.6,0-1.2,0-1.8,0c-0.6,0-1.2-0.2-1.7-0.6c-0.4-0.3-0.8-0.7-1-1.1c-0.2-0.4-0.4-0.9-0.5-1.4
			c-0.1-0.5-0.1-1,0-1.5c0.1-0.5,0.2-1,0.4-1.5c0.1-0.2,0.2-0.4,0.3-0.6c0.1-0.2,0.2-0.4,0.4-0.6c0.2-0.3,0.4-0.6,0.6-0.9
			c0.2-0.3,0.5-0.5,0.7-0.7c0.2-0.1,0.4-0.3,0.6-0.4c0.2-0.1,0.4-0.3,0.6-0.4c0.1-0.1,0.3-0.2,0.6-0.3c0.3-0.1,0.6-0.2,0.9-0.3
			s0.7-0.1,1-0.1s0.6,0,0.8,0.1c0.2,0,0.4,0,0.6,0.2c0.2,0.1,0.4,0.4,0.5,0.7c0,1,0,2.1,0,3.1c0,1,0.1,2.1,0.2,3.1
			c0,0.1,0.1,0.3,0.2,0.5c0.1,0.2,0.2,0.4,0.3,0.6c0.1,0.2,0.2,0.3,0.3,0.5C161.3,265.8,161.3,265.9,161.3,265.9z M158.4,264.4
			C158.5,264.3,158.5,264.3,158.4,264.4c0.1-0.1,0.1-0.1,0.1-0.1c-0.2-0.9-0.3-1.9-0.3-2.8c0-1,0-1.9,0-2.7c-0.1,0-0.3,0-0.5,0
			c-0.2,0-0.3,0.1-0.5,0.1c-0.2,0.1-0.3,0.1-0.4,0.1c-0.1,0-0.2,0.1-0.3,0.1c-0.5,0.2-0.8,0.5-1.2,0.8c-0.3,0.3-0.6,0.7-0.8,1.1
			c-0.2,0.4-0.4,0.9-0.5,1.3c-0.1,0.5-0.2,0.9-0.2,1.4c0,0.1,0.1,0.2,0.1,0.4c0,0.1,0.1,0.2,0.1,0.4c0.1,0.1,0.2,0.2,0.2,0.2
			c0.1,0.1,0.2,0.2,0.3,0.3c0.1,0.1,0.3,0.1,0.4,0.2c0.1,0,0.3,0.1,0.4,0.1c0.3,0,0.5,0,0.7,0c0.2,0,0.5,0,0.7-0.1
			c0.2-0.2,0.5-0.3,0.7-0.5C158,264.7,158.2,264.5,158.4,264.4z"/>
		<path class="st5" d="M171.2,267c-0.2,0.2-0.4,0.3-0.6,0.3c-0.2,0-0.4-0.1-0.6-0.2c-0.2-0.2-0.3-0.4-0.3-0.7c0-0.7,0-1.4,0-2.1
			c0-0.7,0-1.4,0-2.1c0-0.5,0-1,0-1.5c0-0.5,0-1-0.1-1.5c-0.1-0.2-0.3-0.4-0.4-0.4c-0.1-0.1-0.3-0.1-0.5-0.1c-0.5,0-1,0.1-1.5,0.4
			c-0.5,0.3-0.9,0.6-1.2,1c-0.2,0.3-0.3,0.5-0.4,0.6c-0.1,0.2-0.2,0.4-0.2,0.8c0,0.8,0,1.5,0,2.3s0,1.5,0,2.3c0,0.3-0.1,0.6-0.3,0.8
			c-0.2,0.2-0.4,0.3-0.6,0.3c-0.2,0-0.4-0.1-0.6-0.2c-0.2-0.2-0.3-0.4-0.3-0.7c0-0.7,0-1.4,0-2.1c0-0.7,0-1.4,0-2c0-0.7,0-1.3,0-2
			s0-1.4,0-2.1c0.1-0.3,0.2-0.5,0.4-0.7c0.2-0.2,0.4-0.2,0.6-0.2c0.2,0,0.4,0.1,0.6,0.2c0.2,0.1,0.3,0.3,0.4,0.6v0.2
			c0.4-0.4,0.9-0.7,1.5-0.9c0.6-0.2,1.1-0.3,1.7-0.3c0.6,0,1.1,0.1,1.6,0.4c0.5,0.3,0.9,0.7,1.2,1.2c0.1,0.2,0.2,0.4,0.2,0.7
			s0.1,0.6,0.1,0.9c0,0.3,0,0.7,0,1c0,0.3,0,0.7,0,1v2.7v1.5C171.5,266.6,171.4,266.8,171.2,267z"/>
		<path class="st5" d="M173.7,258.6c-0.2-0.2-0.2-0.4-0.2-0.6c0-0.2,0.1-0.4,0.3-0.6c0.2-0.2,0.4-0.3,0.8-0.3h1.3v-3.6
			c0.1-0.3,0.2-0.5,0.4-0.7c0.2-0.2,0.4-0.2,0.6-0.2c0.2,0,0.4,0.1,0.6,0.2s0.3,0.3,0.4,0.6v3.7h2.2c0.3,0.1,0.5,0.2,0.6,0.4
			c0.1,0.2,0.2,0.4,0.2,0.6c0,0.2-0.1,0.4-0.2,0.6s-0.4,0.3-0.7,0.4h-2.1c0,1.2,0,2.4,0,3.6c0,1.2,0,2.4,0,3.6
			c0,0.3-0.1,0.6-0.3,0.8c-0.2,0.2-0.4,0.3-0.6,0.3c-0.2,0-0.4-0.1-0.6-0.2s-0.3-0.4-0.3-0.7c0-1.2,0-2.4,0-3.6c0-1.2,0-2.5,0-3.6
			h-1.3C174.1,258.9,173.9,258.8,173.7,258.6z"/>
		<path class="st5" d="M189.1,264.2c0.3-0.1,0.6-0.1,0.8,0c0.2,0.1,0.4,0.2,0.5,0.4c0.1,0.2,0.1,0.4,0,0.7s-0.2,0.4-0.5,0.6
			c-0.5,0.3-1,0.6-1.6,0.8c-0.6,0.2-1.2,0.4-1.7,0.5s-1.2,0.1-1.7,0c-0.6-0.1-1.1-0.3-1.7-0.7c-0.6-0.4-1.1-1-1.5-1.8
			c-0.3-0.8-0.5-1.5-0.5-2.3c0-0.8,0.1-1.6,0.4-2.3c0.3-0.7,0.8-1.4,1.5-1.8c0.7-0.5,1.5-0.8,2.3-1.1c0.8-0.2,1.6-0.3,2.5-0.1
			c0.4,0.1,0.8,0.3,1.1,0.6c0.3,0.3,0.6,0.6,0.8,1c0.2,0.4,0.3,0.8,0.3,1.2c0,0.4-0.1,0.8-0.3,1.2c-0.3,0.4-0.6,0.8-1.1,1.1
			c-0.5,0.3-1,0.5-1.6,0.7c-0.6,0.2-1.1,0.4-1.7,0.5c-0.6,0.1-1.1,0.3-1.5,0.4c-0.2,0-0.4,0.1-0.5,0c0.2,0.5,0.6,0.9,1,1.2
			c0.4,0.3,1,0.4,1.7,0.4c0.5,0,1.1-0.2,1.6-0.4C188.2,264.8,188.7,264.5,189.1,264.2z M184.7,259.4c-0.6,0.3-1,0.7-1.2,1.2
			c-0.3,0.5-0.4,1.1-0.4,1.6c0.1-0.1,0.2-0.1,0.3-0.2c0.3-0.1,0.5-0.2,0.8-0.2c0.3-0.1,0.6-0.2,0.9-0.2c0.2,0,0.4-0.1,0.7-0.2
			c0.3-0.1,0.6-0.2,1-0.3c0.3-0.1,0.6-0.3,0.9-0.4c0.3-0.2,0.5-0.3,0.5-0.5c0-0.5-0.1-0.8-0.4-1c-0.3-0.2-0.6-0.3-1-0.3
			c-0.4,0-0.8,0.1-1.2,0.2C185.3,259.2,185,259.3,184.7,259.4z"/>
		<path class="st5" d="M201.3,265.3c0.2,0.3,0.3,0.5,0.2,0.8c0,0.3-0.1,0.4-0.3,0.6c-0.2,0.1-0.4,0.2-0.6,0.2
			c-0.2,0-0.5-0.1-0.7-0.4c-0.1-0.1-0.1-0.2-0.2-0.2c-0.1-0.1-0.1-0.2-0.1-0.2c-0.5,0.4-1,0.7-1.6,0.9s-1.2,0.3-1.8,0.3
			c-0.6,0-1.2-0.1-1.8-0.4c-0.6-0.3-1-0.6-1.4-1.2c-0.3-0.4-0.5-0.9-0.6-1.4c-0.1-0.5-0.2-1-0.2-1.5c0-0.5,0.1-1,0.2-1.5
			c0.1-0.5,0.3-1,0.5-1.4c0.2-0.4,0.4-0.7,0.8-1.1c0.3-0.3,0.7-0.6,1.1-0.8c0.3-0.2,0.7-0.4,1.2-0.5c0.4-0.1,0.8-0.2,1.2-0.2
			c0.4,0,0.7,0,1.1,0c0.4,0,0.7,0.1,1.1,0.2c0-1.1,0-2,0-2.8c0-0.7,0-1.3,0-1.5c0.1-0.3,0.2-0.5,0.4-0.7c0.2-0.2,0.4-0.2,0.5-0.2
			c0.2,0,0.4,0.1,0.6,0.2c0.2,0.1,0.3,0.3,0.4,0.6V265c0,0,0.1,0.1,0.1,0.1C201.2,265.2,201.2,265.2,201.3,265.3z M199.3,263.7v-0.3
			c0-0.6,0-1.2,0-1.9s0-1.3,0-1.9l-0.1-0.1c0,0-0.1-0.1-0.1-0.1c0,0-0.1-0.1-0.1-0.1c-0.5-0.1-0.9-0.2-1.4-0.2c-0.5,0-1,0.1-1.4,0.3
			c-0.4,0.2-0.8,0.4-1.2,0.8c-0.3,0.3-0.6,0.8-0.7,1.3c-0.1,0.5-0.2,0.9-0.1,1.2c0,0.3,0.1,0.8,0.1,1.2c0.1,0.1,0.1,0.2,0.2,0.4
			c0.1,0.1,0.1,0.2,0.2,0.4l0.5,0.5c0.2,0.1,0.4,0.1,0.5,0.2c0.6,0.1,1.2,0,1.7-0.1c0.5-0.1,1-0.4,1.5-0.8c0,0,0-0.1,0.1-0.1
			s0.1-0.1,0.2-0.2c0.1-0.1,0.1-0.1,0.2-0.2c0.1-0.1,0.1-0.1,0.1-0.1L199.3,263.7z"/>
	</g>
	<rect x="132.5" y="244.9" class="st7" width="74.6" height="31"/>
</g>
<polyline class="st8" points="17.5,6.4 6.7,17.2 17.1,27.6 "/>
</svg>
