<?xml version="1.0" encoding="utf-8"?>
<!-- Generator: Adobe Illustrator 16.0.0, SVG Export Plug-In . SVG Version: 6.00 Build 0)  -->
<!DOCTYPE svg PUBLIC "-//W3C//DTD SVG 1.1//EN" "http://www.w3.org/Graphics/SVG/1.1/DTD/svg11.dtd">
<svg version="1.1" id="Layer_1" xmlns="http://www.w3.org/2000/svg" xmlns:xlink="http://www.w3.org/1999/xlink" x="0px" y="0px"
	 width="235.714px" height="189.796px" viewBox="0 0 235.714 189.796" enable-background="new 0 0 235.714 189.796"
	 xml:space="preserve">
<path fill="#F2F2F2" stroke="#828181" stroke-miterlimit="10" d="M229.955,74.958c0.806,21.637-55.622,35.485-115.284,35.485
	S1,96.594,1,74.958c0-15.774,53.203-31.158,112.865-31.158C173.527,43.799,229.367,59.196,229.955,74.958z"/>
<path fill="#F7ED38" d="M223.103,105.449c0.763,21.725-52.585,35.629-108.992,35.629c-56.406,0-107.467-13.904-107.467-35.629
	c0-15.838,50.299-31.284,106.706-31.284S222.548,89.624,223.103,105.449z"/>
<path fill="#F2F2F2" stroke="#828181" stroke-miterlimit="10" d="M1,77.39c22.573,45.952,211.219,43.533,228.955,0
	C218.668,228.951,8.255,218.471,1,77.39z"/>
<path opacity="0.6" fill="#434343" d="M175.336,93.917c3.225-2.217,15.721-9.473,15.721-9.473s8.732-17.786,12.46-28.564
	c0,0-8.429-5.094-8.843-3.639c-3.241,11.385-9.663,30.591-9.663,30.591l-16.724,10.239
	C168.287,93.071,173.642,95.082,175.336,93.917z"/>
<path fill="#A3A2A2" d="M174.974,93.678c9.487-12.723,51.223-68.758,58.138-79.143c7.812-11.73-4.654-21.09-12.953-8.625
	c-8.301,12.464-52.232,86.923-52.232,86.923S173.744,95.328,174.974,93.678z"/>
<path fill="#7BCFD9" d="M21.557,139.264c-8.465-13.504-14.376-25.865-15.922-36.076c52.603,43.802,185.623,32.516,219.281,0.806
	c0,0-3.56,18.542-15.721,34.867C156.056,174.938,63.344,169.026,21.557,139.264z"/>
<path opacity="0.5" fill="#434343" d="M229.552,78.196c-4.031,7.659-6.046,8.465-6.046,8.465
	c-9.675,29.022-36.682,83.037-79.409,97.548C214.638,169.294,231.164,99.157,229.552,78.196z"/>
<path fill="#E5D438" d="M166.051,93.882c2.636,1.671,5.417,2.683,8.856,2.024c1.324-0.254,6.104-2.938,6.192-1.501
	c0.084,1.379-4.66,3.347-6.337,3.759c-2.261,0.555-4.999,0.397-7.038-0.47c-2.513-1.069-2.375-2.725-1.924-4.448"/>
<path fill="#E5D438" d="M106.266,94.969c2.022,0.914,4.155,1.468,6.793,1.107c1.017-0.139,4.683-1.607,4.75-0.821
	c0.064,0.754-3.574,1.831-4.86,2.056c-1.734,0.304-3.834,0.218-5.398-0.256c-1.927-0.586-1.822-1.491-1.476-2.434"/>
<path fill="#E5D438" d="M120.838,87.975c-6.163-1.58-12.656-2.498-20.659-1.723c-3.081,0.3-14.176,3.146-14.401,1.713
	c-0.217-1.375,10.805-3.504,14.705-3.975c5.257-0.631,11.639-0.568,16.401,0.229c5.867,0.983,5.57,2.644,4.545,4.383"/>
<path fill="#E5D438" d="M98.336,99.78c6.097,1.819,12.549,2.989,20.576,2.525c3.09-0.18,14.287-2.593,14.457-1.151
	c0.163,1.382-10.933,3.082-14.848,3.4c-5.277,0.426-11.652,0.114-16.381-0.867c-5.824-1.212-5.463-2.858-4.371-4.557"/>
</svg>
