<?xml version="1.0" encoding="utf-8"?>
<!-- Generator: Adobe Illustrator 16.0.0, SVG Export Plug-In . SVG Version: 6.00 Build 0)  -->
<!DOCTYPE svg PUBLIC "-//W3C//DTD SVG 1.1//EN" "http://www.w3.org/Graphics/SVG/1.1/DTD/svg11.dtd">
<svg version="1.1" id="Layer_1" xmlns="http://www.w3.org/2000/svg" xmlns:xlink="http://www.w3.org/1999/xlink" x="0px" y="0px"
	 width="176.857px" height="140.398px" viewBox="0 0 176.857 140.398" enable-background="new 0 0 176.857 140.398"
	 xml:space="preserve">
<path fill="#F2F2F2" stroke="#828181" stroke-miterlimit="10" d="M171.849,55.935c0.603,16.146-41.505,26.479-86.026,26.479
	C41.302,82.414,1,72.079,1,55.935c0-11.771,39.701-23.25,84.222-23.25C129.742,32.683,171.411,44.172,171.849,55.935z"/>
<path fill="#F7ED38" d="M166.737,78.687c0.569,16.211-39.24,26.587-81.332,26.587c-42.091,0-80.193-10.375-80.193-26.587
	c0-11.818,37.534-23.344,79.626-23.344S166.323,66.878,166.737,78.687z"/>
<path fill="#F2F2F2" stroke="#828181" stroke-miterlimit="10" d="M1,57.75c16.844,34.29,157.615,32.485,170.849,0
	C163.427,170.846,6.414,163.027,1,57.75z"/>
<path opacity="0.6" fill="#434343" enable-background="new    " d="M131.091,70.082c2.407-1.654,11.732-7.069,11.732-7.069
	s6.516-13.272,9.298-21.315c0,0-6.291-3.801-6.6-2.715c-2.418,8.496-7.21,22.828-7.21,22.828l-12.48,7.64
	C125.832,69.451,129.829,70.952,131.091,70.082z"/>
<path fill="#A3A2A2" d="M130.822,69.904c7.079-9.494,38.224-51.309,43.384-59.058c5.829-8.753-3.473-15.738-9.665-6.436
	c-6.195,9.301-38.977,64.863-38.977,64.863S129.904,71.135,130.822,69.904z"/>
<path fill="#7BCFD9" d="M16.34,103.92C10.023,93.843,5.612,84.62,4.458,77c39.253,32.686,138.515,24.265,163.631,0.601
	c0,0-2.656,13.837-11.731,26.018C116.705,130.542,47.522,126.129,16.34,103.92z"/>
<path opacity="0.5" fill="#434343" enable-background="new    " d="M171.549,58.351c-3.009,5.715-4.513,6.317-4.513,6.317
	c-7.219,21.657-27.372,61.964-59.255,72.792C160.42,126.33,172.751,73.993,171.549,58.351z"/>
<path fill="#E5D438" d="M124.163,70.056c1.968,1.247,4.043,2.002,6.61,1.51c0.987-0.189,4.555-2.192,4.62-1.12
	c0.063,1.029-3.478,2.497-4.729,2.805c-1.687,0.414-3.729,0.296-5.252-0.351c-1.875-0.798-1.771-2.034-1.436-3.319"/>
<path fill="#E5D438" d="M79.551,70.867c1.509,0.682,3.1,1.096,5.069,0.826c0.759-0.104,3.495-1.199,3.544-0.612
	c0.048,0.563-2.667,1.366-3.626,1.534c-1.294,0.227-2.861,0.163-4.028-0.191c-1.438-0.438-1.359-1.113-1.101-1.816"/>
<path fill="#E5D438" d="M90.424,65.648c-4.599-1.179-9.443-1.864-15.415-1.286c-2.299,0.224-10.579,2.348-10.747,1.278
	c-0.162-1.026,8.063-2.615,10.973-2.966c3.923-0.471,8.685-0.424,12.238,0.17c4.379,0.734,4.157,1.973,3.392,3.271"/>
<path fill="#E5D438" d="M73.634,74.458c4.55,1.357,9.364,2.23,15.354,1.884c2.306-0.135,10.662-1.935,10.788-0.859
	c0.123,1.032-8.158,2.3-11.08,2.538c-3.938,0.317-8.695,0.084-12.224-0.647c-4.346-0.904-4.077-2.132-3.262-3.4"/>
</svg>
