<?xml version="1.0" encoding="utf-8"?>
<!-- Generator: Adobe Illustrator 16.0.0, SVG Export Plug-In . SVG Version: 6.00 Build 0)  -->
<!DOCTYPE svg PUBLIC "-//W3C//DTD SVG 1.1//EN" "http://www.w3.org/Graphics/SVG/1.1/DTD/svg11.dtd">
<svg version="1.1" id="Layer_1" xmlns="http://www.w3.org/2000/svg" xmlns:xlink="http://www.w3.org/1999/xlink" x="0px" y="0px"
	 width="208px" height="96.432px" viewBox="69.439 0 208 96.432" enable-background="new 69.439 0 208 96.432" xml:space="preserve"
	>
<path fill="#EFEFED" stroke="#E2E0E1" stroke-miterlimit="10" d="M171.118,16.082c18.75-2.226,31.297,3.282,40.825,21.51
	c7.417,14.188,11.511,38.852-3.217,50.068c-14.544,11.076-39.505,4.838-54.689-1.484c-16.102-6.705-31.224-20.42-26.792-39.509
	C132.038,26.017,152.772,19.497,171.118,16.082z"/>
<path fill="#F7ED38" d="M157.941,43.206c4.872-3.942,10.638-8.441,17.307-6.594c6.719,1.862,11.399,9.157,11.958,15.847
	c1.439,17.234-23.574,19.279-31.376,6.942C151.291,52.224,153.17,48.996,157.941,43.206z"/>
<path fill="#E5D438" d="M157.4,58.232c2.945,4.238,13.001,11.434,22.18,5.458c8.38-5.456,5.2-7.261,4.125-5.971
	c-6.926,8.312-18.427,4.327-24.958-0.794C152.215,51.804,157.4,58.232,157.4,58.232z"/>
<path fill="#E2E0E1" stroke="#EFEADA" stroke-miterlimit="10" d="M156.42,23.045c2.825-3.574,26.078-8.467,35.839-3.49
	c8.911,4.545,6.238,6.393,5.065,5.313c-7.556-6.95-32.974-5.063-39.452-0.733C151.395,28.466,156.42,23.045,156.42,23.045z"/>
<path fill="#E2E0E1" stroke="#EFEADA" stroke-miterlimit="10" d="M203.853,86.162c6.944,6.916-30.916,8.916-52.82-3.966
	c-14.929-8.781-8.498-10.652-6.859-8.777C161.473,93.222,193.892,76.245,203.853,86.162z"/>
<path fill="#E5D438" d="M180.659,43.842c2.152,6.889,6.553,2.3-0.226-2.489C173.655,36.564,180.659,43.842,180.659,43.842z"/>
<path fill="#E2E0E1" stroke="#EFEADA" stroke-miterlimit="10" d="M180.035,67.597c-17.766,3.428,2.395,5.226,7.887-2.368
	C195.383,54.909,180.035,67.597,180.035,67.597z"/>
<g>
	<path fill="#FCF9CE" d="M215.771,19.739c1.156,0.716-0.002,3.358,1.155,4.075c5.12,4.129,17.509,2.204,15.03,12.665
		c0,0,1.486,0.44,1.706,1.376c0.166,1.542-2.037,2.258-1.872,3.799c0.275,0.33,1.156,0.715,1.817,0.165
		c-0.11,1.21-0.826,2.367-1.817,3.193c4.184,0.991,1.32,5.616,3.909,7.377c1.707,1.377,5.009-1.375,7.543-2.366l-0.331,0.275
		c4.404,1.928,5.945,5.122,1.98,8.424c1.486,0.441,3.304,0.606,4.129,1.598c0.881,0.385-0.439,1.486-1.101,2.037
		c3.608,0.911,5.456,3.517,7.599,5.957c17.516-17.192,24.263-48.959,16.504-58.271c-8.264-9.92-38.971-8.558-59.031,4.836
		C213.784,16.671,214.158,18.351,215.771,19.739z"/>
	<path fill="#CECAAA" d="M271.084,43.19c-3.978,8.812-10.438,16.623-18.093,22.271c0.889,0.91,1.698,1.909,2.553,2.881
		C267.602,56.28,272.133,40.867,271.084,43.19z"/>
</g>
<g>
	<path fill="#FCF9CE" d="M107.109,67.008c0.845,0.158,2.537,0.475,2.271-0.45c0.237-1.268-0.793-2.773-1.401-4.199
		c5.072,0.95,6.55-2.273,5.229-6.896l0.423,0.08c-2.378-1.32-6.604-2.111-6.631-4.304c-0.291-3.117,5.097-3.857,3.195-7.714
		c1.268,0.238,2.615,0.052,3.619-0.635c-0.845-0.158-1.11-1.083-1.03-1.506c1.083-1.109,3.038,0.132,4.121-0.977
		c0.581-0.766-0.027-2.193-0.027-2.193c9.64-4.757,0.261-13.075,0.18-19.653c-0.185-1.347,2.588-2.14,2.403-3.487
		c0.042-2.127,1.099-3.485,1.974-5.24c-1.746-0.523-3.505-0.958-5.271-1.289c-25.129-4.706-40.888,7.997-44.381,26.654
		c-3.494,18.656,6.6,36.202,31.729,40.908c1.268,0.237,2.553,0.419,3.85,0.553C107.877,73.454,108.706,70.369,107.109,67.008z"/>
	<path fill="#CECAAA" d="M107.949,72.896c-23.372-5.818-40.94-26.371-24.852-57.599c-9.986,6.262-22.539,37.034,2.817,54.087
		c6.798,4.573,14.314,6.642,21.44,7.315C107.559,75.42,107.814,74.16,107.949,72.896z"/>
</g>
</svg>
