<?xml version="1.0" encoding="utf-8"?>
<!-- Generator: Adobe Illustrator 16.0.0, SVG Export Plug-In . SVG Version: 6.00 Build 0)  -->
<!DOCTYPE svg PUBLIC "-//W3C//DTD SVG 1.1//EN" "http://www.w3.org/Graphics/SVG/1.1/DTD/svg11.dtd">
<svg version="1.1" id="Layer_1" xmlns="http://www.w3.org/2000/svg" xmlns:xlink="http://www.w3.org/1999/xlink" x="0px" y="0px"
	 width="593.878px" height="226.531px" viewBox="0 0 593.878 226.531" enable-background="new 0 0 593.878 226.531"
	 xml:space="preserve">
<path fill="#EFEFED" stroke="#E2E0E1" stroke-miterlimit="10" d="M303.809,32.677c43.605-5.176,72.783,7.631,94.939,50.021
	c17.248,32.995,26.77,90.352-7.482,116.436c-33.824,25.756-91.871,11.25-127.181-3.453c-37.445-15.592-72.611-47.488-62.305-91.879
	C212.928,55.781,261.146,40.618,303.809,32.677z"/>
<path fill="#F7ED38" d="M273.167,95.755c11.33-9.168,24.739-19.632,40.246-15.335c15.625,4.33,26.51,21.295,27.809,36.854
	c3.346,40.077-54.823,44.834-72.966,16.143C257.701,116.727,262.072,109.218,273.167,95.755z"/>
<path fill="#E5D438" d="M271.909,130.698c6.849,9.857,30.234,26.59,51.58,12.693c19.488-12.689,12.092-16.887,9.592-13.887
	c-16.107,19.33-42.853,10.063-58.042-1.846C259.849,115.75,271.909,130.698,271.909,130.698z"/>
<path fill="#E2E0E1" stroke="#EFEADA" stroke-miterlimit="10" d="M269.629,48.869c6.57-8.311,60.644-19.69,83.345-8.115
	c20.723,10.57,14.508,14.865,11.779,12.356c-17.57-16.163-76.681-11.774-91.746-1.704C257.943,61.476,269.629,48.869,269.629,48.869
	z"/>
<path fill="#E2E0E1" stroke="#EFEADA" stroke-miterlimit="10" d="M379.934,195.651c16.15,16.082-71.895,20.732-122.833-9.223
	c-34.719-20.422-19.762-24.773-15.951-20.412C281.379,212.069,356.771,172.586,379.934,195.651z"/>
<path fill="#E5D438" d="M325.998,97.234c5.004,16.021,15.238,5.349-0.525-5.788C309.709,80.309,325.998,97.234,325.998,97.234z"/>
<path fill="#E2E0E1" stroke="#EFEADA" stroke-miterlimit="10" d="M324.547,152.477c-41.316,7.971,5.57,12.152,18.34-5.506
	C360.238,122.97,324.547,152.477,324.547,152.477z"/>
<g>
	<path fill="#FCF9CE" d="M455.649,42.181c2.688,1.665-0.002,7.811,2.686,9.476c11.906,9.604,40.717,5.125,34.953,29.452
		c0,0,3.457,1.023,3.967,3.2c0.385,3.585-4.736,5.25-4.354,8.835c0.641,0.768,2.689,1.664,4.227,0.384
		c-0.256,2.816-1.922,5.505-4.227,7.426c9.73,2.306,3.072,13.061,9.09,17.157c3.969,3.203,11.65-3.199,17.541-5.502l-0.768,0.639
		c10.242,4.482,13.826,11.91,4.605,19.59c3.457,1.025,7.684,1.41,9.604,3.715c2.049,0.896-1.023,3.457-2.561,4.736
		c8.391,2.119,12.688,8.178,17.67,13.854c40.734-39.982,56.424-113.856,38.381-135.512C567.243-3.439,495.833-0.27,449.183,30.877
		C451.03,35.047,451.899,38.952,455.649,42.181z"/>
	<path fill="#CECAAA" d="M584.282,96.718c-9.25,20.492-24.273,38.656-42.076,51.792c2.068,2.115,3.949,4.439,5.939,6.701
		C576.185,127.157,586.722,91.314,584.282,96.718z"/>
</g>
<g>
	<path fill="#FCF9CE" d="M87.955,203.108c1.965,0.367,5.898,1.104,5.282-1.047c0.552-2.949-1.844-6.449-3.258-9.766
		c11.795,2.209,15.233-5.287,12.159-16.037l0.983,0.186c-5.53-3.07-15.358-4.91-15.421-10.01c-0.677-7.248,11.854-8.971,7.43-17.939
		c2.949,0.553,6.081,0.121,8.415-1.477c-1.966-0.367-2.581-2.518-2.396-3.502c2.518-2.58,7.064,0.307,9.583-2.273
		c1.351-1.781-0.063-5.1-0.063-5.1c22.419-11.063,0.607-30.407,0.419-45.704c-0.43-3.132,6.019-4.977,5.588-8.109
		c0.099-4.946,2.556-8.104,4.591-12.186c-4.061-1.216-8.151-2.229-12.257-2.998C50.571,56.202,13.925,85.744,5.8,129.131
		c-8.125,43.385,15.348,84.189,73.788,95.133c2.948,0.551,5.937,0.975,8.954,1.287C89.74,218.096,91.669,210.922,87.955,203.108z"/>
	<path fill="#CECAAA" d="M89.908,216.799C35.557,203.27-5.299,155.473,32.116,82.852c-23.224,14.563-52.415,86.122,6.551,125.782
		c15.808,10.633,33.287,15.445,49.86,17.01C89.002,222.668,89.595,219.739,89.908,216.799z"/>
</g>
</svg>
