<?xml version="1.0" encoding="utf-8"?>
<!-- Generator: Adobe Illustrator 16.0.0, SVG Export Plug-In . SVG Version: 6.00 Build 0)  -->
<!DOCTYPE svg PUBLIC "-//W3C//DTD SVG 1.1//EN" "http://www.w3.org/Graphics/SVG/1.1/DTD/svg11.dtd">
<svg version="1.1" id="Layer_1" xmlns="http://www.w3.org/2000/svg" xmlns:xlink="http://www.w3.org/1999/xlink" x="0px" y="0px"
	 width="167.347px" height="219.388px" viewBox="0 0 167.347 219.388" enable-background="new 0 0 167.347 219.388"
	 xml:space="preserve">
<path fill="#FCF9CE" d="M164.106,125.269c0,59.455-35.783,90.037-79.924,90.037c-44.141,0-79.924-30.582-79.924-90.037
	C4.258,65.814,51.887,0,84.182,0C113.868,0,164.106,65.814,164.106,125.269z"/>
<path fill="#CECAAA" d="M33.849,197.958c18.59,20.146,94.298,35.668,122.427-29.592c25.512-59.183-17.941-124.916-14.264-117.347
	C176.706,122.449,143.032,230.613,33.849,197.958z"/>
<path fill="none" stroke="#A4A089" stroke-miterlimit="10" d="M43.271,137.439c-0.012-0.955-0.12-1.986-0.008-2.932
	c0.192-1.623,1.033-2.578,1.989-3.785c0.818-1.033,1.112-1.697,2.478-1.777c1.128-0.066,1.769,0.148,2.652,0.818
	c2.624-2.203,4.88-4.969,7.629-7.01c1.639-1.217,2.771-2.441,3.196-4.572c0.424-2.128-0.673-2.535-1.696-4.186
	c-0.613-0.987-1.265-2.376-0.248-3.222c1.143-0.953,2.66-0.842,4.014-0.85c0.604-0.004,1.461,0.249,2.028,0.084
	c0.789-0.23,1.119-1.209,1.687-1.727c0.642-0.584,1.426-0.889,2.002-1.574c0.466-0.553,0.809-1.209,1.277-1.769"/>
<path fill="none" stroke="#A4A089" stroke-miterlimit="10" d="M51.271,129.439c1.603-0.029,2.563,1.291,3.979,2.127
	c1.404,0.828,1.749,1.283,2.12,2.822c0.605-0.184,0.787-0.629,1.238-0.986c0.628-0.498,0.818-0.465,1.66-0.457
	c1.541,0.016,2.719,0.064,4.205,0.408c1.125,0.26,2.772,0.504,3.271,1.807c0.223,0.582-0.328,1.531,0.054,2.014
	c0.425,0.535,1.356,0.25,1.973,0.266"/>
<path fill="none" stroke="#A4A089" stroke-miterlimit="10" d="M50.771,127.939c-0.618-1.318-1.207-2.604-1.732-3.998
	c-0.84-2.23-2.057-2.018-4.257-2.014c-1.313,0.004-3.524,0.441-4.541-0.467c-0.709-0.635-0.425-1.275-0.458-2.299
	c-0.023-0.74-0.028-2.105-1.012-2.223"/>
<path fill="none" stroke="#A4A089" stroke-miterlimit="10" d="M48.271,127.439c-0.504,0.143-1.526-0.354-1.982-0.498
	c-0.911-0.289-1.501-0.488-2.464-0.496c-1.611-0.012-3.223-0.006-4.835-0.006c-1.74,0-3.48-0.002-5.222-0.004
	c-1.218-0.002-1.255,0.08-1.849-0.947c-0.506-0.873-0.458-1.604-0.723-2.512c-1.542-0.164-2.754,2.91-4.659,1.971
	c-0.703-0.346-0.644-1.412-0.889-2.021c-0.395-0.984-0.947-2.08-1.507-2.973c-2.898,0.18-5.465,1.201-8.011,2.549
	c-1.056,0.561-2.65,1.889-3.952,1.459c-1.66-0.547-2.31-3.332-2.707-4.742c-0.338-1.199-1.149-3.16-0.733-4.426
	c0.405-1.237,1.959-2.296,2.757-3.278c0.424-0.521,1.545-1.631,1.732-2.282c0.395-1.36-1.193-3.776-1.761-4.932
	c-0.613-1.251-1.389-2.431-1.792-3.774c-0.135-0.029-0.27-0.058-0.404-0.087"/>
<path fill="none" stroke="#A4A089" stroke-miterlimit="10" d="M51.271,124.439c-0.037-0.957,0.134-2.049-0.211-2.967
	c-0.271-0.721-0.861-1.307-1.211-1.994c-0.658-1.295-1.306-2.732-2.138-3.934c-0.777-1.123-2.001-1.485-2.939-2.368
	c-0.925-0.869-1.667-1.679-2.423-2.727c-0.626-0.867-0.505-0.563-0.547-1.582c-0.027-0.678-0.168-1.439-0.11-2.117
	c0.211-2.494,1.881-4.689,3.398-6.539c1.104-1.346,2.43-2.602,3.692-3.803c1.145-1.09,1.595-2.201,2.488-3.47"/>
<path fill="none" stroke="#A4A089" stroke-miterlimit="10" d="M55.771,126.439c2.701,1.051,6.789,0.932,9.259-0.484
	c1.42-0.813,3.055-1.471,4.692-0.951c1.768,0.561,3.658,2.607,5.018,3.836c1.966,1.777,3.104,3.844,5.785,1.463
	c0.705-0.627,1.079-1.563,2.011-1.854c1.167-0.367,2.968-0.002,4.188-0.025c6.749-0.135,13.433,1.834,20.111,2.627
	c1.762,0.211,3.543,0.279,5.125,1.141c1.076,0.586,2.049,1.256,3.186,1.742c0.846-2.111,2-4.355,3.107-6.336
	c0.807-1.441,1.449-3.271,2.5-4.549c0.348-0.422,1.244-0.879,1.465-1.285c0.141-0.262-0.061-0.793,0.063-1.064
	c0.182-0.4,0.867-0.631,1.197-0.92c0.717-0.631,1.281-1.459,2.031-2.064c1.02-0.825,2.102-1.583,3.129-2.4
	c0.885-0.703,1.346-1.598,2.145-2.391c0.953-0.946,1.955-1.566,2.021-2.98c0.047-0.983-0.029-2.016-0.031-3.005"/>
<path fill="none" stroke="#A4A089" stroke-miterlimit="10" d="M50.271,131.439c0.714,0.238,0.979,1.031,1.47,1.543
	c0.598,0.623,1.443,0.855,2.036,1.455c0.571,0.578,0.653,1.385,1.138,2.01c0.42,0.539,1.036,0.828,1.557,1.258
	c1.208,1,2.9,1.316,3.255,3.004c0.218,1.037,0.285,2.734-0.405,3.602c1.555,1.143,3.059,0.516,4.686,0.154
	c0.909-0.201,1.852-0.201,2.776-0.41c0.825-0.188,1.664-0.482,2.488-0.615"/>
<path fill="none" stroke="#A4A089" stroke-miterlimit="10" d="M52.771,127.939c1.435-0.002,2.568-0.223,3.816-0.936
	c1.055-0.604,1.98-1.551,3.236-1.973c0.502-0.17,0.814-0.006,1.289-0.242c0.456-0.229,1.181-1.018,1.527-1.393
	c0.825-0.893,1.537-1.623,2.552-2.354c1.99-1.436,4.607-2.277,6.822-3.318c2.411-1.132,4.797-2.327,7.247-3.376
	c0.726-0.311,2.574-1.424,3.443-1.472c0.68-0.037,0.815,0.245,1.518,0.442c2.51,0.703,5.483,1.015,7.936,2.122
	c0.347-1.687,1.532-3.038,2.264-4.566c0.316-0.659,0.594-1.528,1.316-1.853c0.568-0.255,1.234-0.022,1.824-0.307
	c1.277-0.615,1.932-1.141,3.453-1.283c1.281-0.121,2.441-0.398,3.756-0.493"/>
<path fill="none" stroke="#A4A089" stroke-miterlimit="10" d="M44.271,128.939c-1.107,0.375-2.175,0.844-3.201,1.402
	c-0.396,0.283-0.783,0.576-1.16,0.883c-0.969,0.42-2.091,0.133-3.084,0.498c-0.594,0.221-0.889,0.561-1.562,0.684
	c-0.49,0.09-1.036-0.053-1.512,0.123c-0.398,0.148-0.831,0.85-1.13,0.881c-0.539,0.055-1.74-0.643-2.191-0.945
	c-1.273-0.857-1.021-1.861-2.674-1.355c-4.54,1.393-8.438-2.172-12.986-2.17"/>
</svg>
