<?xml version="1.0" encoding="utf-8"?>
<!-- Generator: Adobe Illustrator 16.0.0, SVG Export Plug-In . SVG Version: 6.00 Build 0)  -->
<!DOCTYPE svg PUBLIC "-//W3C//DTD SVG 1.1//EN" "http://www.w3.org/Graphics/SVG/1.1/DTD/svg11.dtd">
<svg version="1.1" id="Layer_1" xmlns="http://www.w3.org/2000/svg" xmlns:xlink="http://www.w3.org/1999/xlink" x="0px" y="0px"
	 width="167.347px" height="219.388px" viewBox="0 0 167.347 219.388" enable-background="new 0 0 167.347 219.388"
	 xml:space="preserve">
<path fill="#FCF9CE" d="M163.849,127.269c0,59.455-35.783,90.037-79.924,90.037C39.784,217.306,4,186.724,4,127.269
	C4,67.814,51.629,2,83.924,2C113.61,2,163.849,67.814,163.849,127.269z"/>
<path fill="#CECAAA" d="M33.591,199.958c18.59,20.146,94.298,35.668,122.427-29.592c25.512-59.183-17.941-124.916-14.264-117.347
	C176.448,124.449,142.774,232.613,33.591,199.958z"/>
<path fill="none" stroke="#A4A089" stroke-miterlimit="10" d="M43.014,139.439c-0.012-0.955-0.12-1.986-0.008-2.932
	c0.192-1.623,1.033-2.578,1.989-3.785c0.818-1.033,1.112-1.697,2.478-1.777c1.128-0.066,1.769,0.148,2.652,0.818
	c2.624-2.203,4.88-4.969,7.629-7.01c1.639-1.217,2.771-2.441,3.196-4.572c0.424-2.128-0.673-2.535-1.696-4.186
	c-0.613-0.987-1.265-2.376-0.248-3.222c1.143-0.953,2.66-0.842,4.014-0.85c0.604-0.004,1.461,0.249,2.028,0.084
	c0.789-0.23,1.119-1.209,1.687-1.727c0.642-0.584,1.426-0.889,2.002-1.574c0.466-0.553,0.809-1.209,1.277-1.769"/>
<path fill="none" stroke="#A4A089" stroke-miterlimit="10" d="M51.014,131.439c1.603-0.029,2.563,1.291,3.979,2.127
	c1.404,0.828,1.749,1.283,2.12,2.822c0.605-0.184,0.787-0.629,1.238-0.986c0.628-0.498,0.818-0.465,1.66-0.457
	c1.541,0.016,2.719,0.064,4.205,0.408c1.125,0.26,2.772,0.504,3.271,1.807c0.223,0.582-0.328,1.531,0.054,2.014
	c0.425,0.535,1.356,0.25,1.973,0.266"/>
<path fill="none" stroke="#A4A089" stroke-miterlimit="10" d="M50.514,129.939c-0.618-1.318-1.207-2.604-1.732-3.998
	c-0.84-2.23-2.057-2.018-4.257-2.014c-1.313,0.004-3.524,0.441-4.541-0.467c-0.709-0.635-0.425-1.275-0.458-2.299
	c-0.023-0.74-0.028-2.105-1.012-2.223"/>
</svg>
