<?xml version="1.0" encoding="utf-8"?>
<!-- Generator: Adobe Illustrator 16.0.0, SVG Export Plug-In . SVG Version: 6.00 Build 0)  -->
<!DOCTYPE svg PUBLIC "-//W3C//DTD SVG 1.1//EN" "http://www.w3.org/Graphics/SVG/1.1/DTD/svg11.dtd">
<svg version="1.1" id="Layer_1" xmlns="http://www.w3.org/2000/svg" xmlns:xlink="http://www.w3.org/1999/xlink" x="0px" y="0px"
	 width="217.347px" height="186.735px" viewBox="0 0 217.347 186.735" enable-background="new 0 0 217.347 186.735"
	 xml:space="preserve">
<path fill="#EFEFED" stroke="#E2E0E1" stroke-miterlimit="10" d="M105.85,3.085c43.605-5.176,72.783,7.631,94.939,50.021
	c17.248,32.995,26.77,90.352-7.482,116.436c-33.824,25.756-91.871,11.25-127.181-3.453C28.681,150.497-6.486,118.6,3.821,74.209
	C14.969,26.189,63.187,11.026,105.85,3.085z"/>
<path fill="#F7ED38" d="M75.208,66.163c11.33-9.168,24.739-19.632,40.246-15.335c15.625,4.33,26.51,21.295,27.809,36.854
	c3.346,40.077-54.823,44.834-72.966,16.143C59.742,87.135,64.113,79.626,75.208,66.163z"/>
<path fill="#E5D438" d="M73.95,101.106c6.849,9.857,30.234,26.59,51.58,12.693c19.488-12.689,12.092-16.887,9.592-13.887
	c-16.107,19.33-42.853,10.063-58.042-1.846C61.89,86.158,73.95,101.106,73.95,101.106z"/>
<path fill="#E2E0E1" stroke="#EFEADA" stroke-miterlimit="10" d="M71.67,19.277c6.57-8.311,60.644-19.69,83.345-8.115
	c20.723,10.57,14.508,14.865,11.779,12.356c-17.57-16.163-76.681-11.774-91.746-1.704C59.984,31.884,71.67,19.277,71.67,19.277z"/>
<path fill="#E2E0E1" stroke="#EFEADA" stroke-miterlimit="10" d="M181.975,166.059c16.15,16.082-71.895,20.732-122.833-9.223
	c-34.719-20.422-19.762-24.773-15.951-20.412C83.42,182.477,158.813,142.995,181.975,166.059z"/>
<path fill="#E5D438" d="M128.039,67.643c5.004,16.021,15.238,5.349-0.525-5.788C111.75,50.717,128.039,67.643,128.039,67.643z"/>
<path fill="#E2E0E1" stroke="#EFEADA" stroke-miterlimit="10" d="M126.588,122.885c-41.316,7.971,5.57,12.152,18.34-5.506
	C162.279,93.378,126.588,122.885,126.588,122.885z"/>
</svg>
