<?xml version="1.0" encoding="utf-8"?>
<!-- Generator: Adobe Illustrator 16.0.0, SVG Export Plug-In . SVG Version: 6.00 Build 0)  -->
<!DOCTYPE svg PUBLIC "-//W3C//DTD SVG 1.1//EN" "http://www.w3.org/Graphics/SVG/1.1/DTD/svg11.dtd">
<svg version="1.1" id="Layer_1" xmlns="http://www.w3.org/2000/svg" xmlns:xlink="http://www.w3.org/1999/xlink" x="0px" y="0px"
	 width="59.184px" height="146.939px" viewBox="0 0 59.184 146.939" enable-background="new 0 0 59.184 146.939"
	 xml:space="preserve">
<g>
	<path fill="#A3A2A2" d="M31.613,0.008c-1.832-0.787-18.751,54.418-3.328,55.442c0,0-22.111,69.226-25.073,80.574
		s9.384,15.328,12.53,3.271c3.147-12.059,17.507-82.549,17.507-82.549C50.567,62.837,61.198,7.479,58.863,6.87
		c-2.275-0.594-8.478,17.021-10.459,28.582c-1.633,9.518-10.961,6.072-8.236-2.433c2.685-8.376,6.403-28.885,4.158-29.471
		c-1.537-0.401-8.577,22.328-9.308,28.884c-0.751,6.748-11.386,6.371-7.953-2.299C30.303,21.955,34.421,1.215,31.613,0.008z"/>
	<path fill="#757576" d="M44.748,48.561c-1.036,3.531-3.787,7.225-8.583,7.014c-7.282-0.319-8.449-3.882-7.403-4.462
		C29.805,50.534,39.511,55.725,44.748,48.561z"/>
</g>
</svg>
