<?xml version="1.0" encoding="utf-8"?>
<!-- Generator: Adobe Illustrator 16.0.0, SVG Export Plug-In . SVG Version: 6.00 Build 0)  -->
<!DOCTYPE svg PUBLIC "-//W3C//DTD SVG 1.1//EN" "http://www.w3.org/Graphics/SVG/1.1/DTD/svg11.dtd">
<svg version="1.1" id="Layer_1" xmlns="http://www.w3.org/2000/svg" xmlns:xlink="http://www.w3.org/1999/xlink" x="0px" y="0px"
	 width="213px" height="96.667px" viewBox="0 0 213 96.667" enable-background="new 0 0 213 96.667" xml:space="preserve">
<path fill="#3F3D3E" d="M2.429,68.393c18.063,0,206.865,0,208.767,0s3.422,8.746-3.803,9.126s-9.126-2.662-12.549-2.662
	s-71.871-0.761-71.871-0.761c-3.802,11.408-2.662,21.295-14.07,21.295c-11.408,0-86.701,0-94.687,0
	C6.232,95.392-2.705,68.393,2.429,68.393z"/>
<path fill="#EAE8C1" stroke="#BABABA" stroke-width="0.5" stroke-miterlimit="10" d="M13.424,21.979
	c0.77,4.048-12.531,11.734-7.12,20.377c5.246,8.375,8.86,9.169,16.191,8.076c7.33-1.093,15.334-17.771,6.259-23.912
	c-9.074-6.14-8.873-3.673-10.752-6.223c-1.879-2.55,2.075-7.303,1.978-7.954c-2.527,2.042-3.989,6.755-3.989,6.755
	s0.908-3.965-0.09-7.313c0,0-0.298,4.708-0.714,5.269c0,0-1.455-1.947-2.936-4.058C12.251,12.996,15.008,18.08,13.424,21.979z"/>
<path fill="#BCBBAD" d="M15.296,50.174c-3.688-1.281-9.349-9.097-9.248-11.776c4.326,6.682,6.815,9.975,9.078,10.636
	c-2.205-2.502-5.452-4.182-6.105-11.912c1.446,4.114,4.892,11.592,7.457,12.043c-5.505-9.003-6.806-12.14-6.002-17.921
	c0.121,0.814,0.871,9.195,6.15,15.568c-1.248-6.141-4.169-7.87-2.566-16.102c0.606,4.072,1.364,13.617,4.872,15.925
	c-0.372-3.609-2.549-9.278-1.33-15.621c1.144,4.325,3.676,14.605,3.755,16.258c1.501-2.222,3.246-13.972,0.417-19.544
	c2.829,5.573,3.617,16.445,2.907,18.383c1.736-1.757,2.311-6.839,1.801-10.26c0.909,3.861,0.424,8.429,0.203,10.294
	c2.127-2.482,6.67-9.986,2.833-16.741c1.806,2.063,4.333,7.847,0.826,13.365C26.837,48.287,24.522,50.63,15.296,50.174z"/>
<path fill="none" stroke="#BABABA" stroke-width="0.5" stroke-miterlimit="10" d="M17.157,19.091
	c0.627-0.533,1.152-1.416,1.688-2.08c0.693-0.855,1.36-1.267,2.223-1.835c1.237-0.817,3.4-1.77,2.96-3.604"/>
<path fill="none" stroke="#BABABA" stroke-width="0.5" stroke-miterlimit="10" d="M16.54,17.186
	c-0.579-2.16,1.136-2.748,1.836-4.437"/>
<path fill="none" stroke="#BABABA" stroke-width="0.5" stroke-miterlimit="10" d="M14.862,17.102
	c-0.043-0.671-0.554-1.42-0.479-2.066c0.077-0.654,0.73-0.891,0.596-1.614"/>
<path fill="none" stroke="#BABABA" stroke-width="0.5" stroke-miterlimit="10" d="M13.653,21.278
	c-0.077-2.112-0.7-4.009-0.867-6.091c-0.099-1.23-0.009-2.069-0.781-2.903c-0.368-0.397-0.968-0.563-1.347-1.049"/>
<path fill="none" stroke="#BABABA" stroke-width="0.5" stroke-miterlimit="10" d="M15.319,15.702
	c-1.468-0.983-1.742-2.226-1.233-3.813"/>
<path fill="none" stroke="#BABABA" stroke-width="0.5" stroke-miterlimit="10" d="M16.574,15.182
	c0.358-0.628,1.029-1.154,0.689-1.909c-2.236,0.43,0.57-2.735,0.724-3.13"/>
<path fill="none" stroke="#BABABA" stroke-width="0.5" stroke-miterlimit="10" d="M13.451,18.811
	c-0.443-1.335-0.958-4.699-2.936-4.058"/>
<linearGradient id="SVGID_1_" gradientUnits="userSpaceOnUse" x1="-272.9243" y1="334.2217" x2="-272.9243" y2="366.4598" gradientTransform="matrix(0.9694 0.2455 -0.2455 0.9694 416.8298 -249.4402)">
	<stop  offset="0" style="stop-color:#603913"/>
	<stop  offset="0.0466" style="stop-color:#6F3A18"/>
	<stop  offset="0.1398" style="stop-color:#9A3424"/>
	<stop  offset="0.2056" style="stop-color:#BE1E2D"/>
	<stop  offset="0.4956" style="stop-color:#CF1D2A"/>
	<stop  offset="0.8226" style="stop-color:#ED1C24"/>
</linearGradient>
<path fill="url(#SVGID_1_)" d="M66.973,9.741c1.745-3.715,3.802-6.011,4.281-7.901c0.479-1.891,0.509-1.481,0.855-1.258
	c0.346,0.222,4.69,2.126,3.491,2.627s-0.535-0.538-1.199,0.501c-0.666,1.038-4.112,4.054-4.782,6.7
	c3.461,2.218,5.675-0.172,9.799,2.08c4.124,2.251,3.512,6.253-0.354,12.515c-3.866,6.263-6.111,8.242-7.32,11.958
	c-1.209,3.717-5.285,6.573-7.767,3.665c-2.482-2.908-2.61-2.404-3.81-1.903c-1.2,0.501-4.704,2.161-5.792-3.076
	c-1.087-5.237,1.083-13.806-0.32-18.855c-1.333-4.795,3.772-9.971,6.428-8.965C64.766,9.449,64.354,10.552,66.973,9.741z"/>
<path fill="#FFFFFF" d="M71.923,14.547c2.956-0.727,7.121-1.391,9.009,2.55c0.877,1.832-1.75,5.323-4.444,9.602
	c-2.595,4.125-4.05,4.875-5.925,9.629c1.275-4.503,11.469-18.282,7.882-20.531C74.858,13.547,75.072,15.881,71.923,14.547z"/>
<path fill="#FFFFFF" d="M65.767,13.793c-3.728-3.173-4.958-3.547-6.737-3.183c-1.779,0.365-3.872,1.313-1.835,1.51
	C59.231,12.317,62.55,10.884,65.767,13.793z"/>
<path fill="#FFFFFF" d="M61.513,34.584c1.816-6.242,2.775-9.304,2.574-11.558c-0.13-1.465,1.077-7.595,0.247-4.915
	C62.614,23.663,62.595,30.568,61.513,34.584z"/>
<path fill="#EACB46" d="M95.75,32.886l2.132,21.194c10.552-2.607,24.383-3.335,24.073-10.809
	c-0.311-7.473,0.035-15.011-1.693-16.824c-1.211-1.272-11.933-4.538-16.04-3.683C100.114,23.619,95.75,32.886,95.75,32.886z"/>
<path fill="#FBDE4E" d="M95.946,32.646c2.469,0.414,26.917-4.474,23.878-6.154c-3.038-1.681-12.588-4.473-16.04-3.683
	C100.333,23.598,95.946,32.646,95.946,32.646z"/>
</svg>
