<?xml version="1.0" encoding="utf-8"?>
<!-- Generator: Adobe Illustrator 16.0.0, SVG Export Plug-In . SVG Version: 6.00 Build 0)  -->
<!DOCTYPE svg PUBLIC "-//W3C//DTD SVG 1.1//EN" "http://www.w3.org/Graphics/SVG/1.1/DTD/svg11.dtd">
<svg version="1.1" id="Layer_1" xmlns="http://www.w3.org/2000/svg" xmlns:xlink="http://www.w3.org/1999/xlink" x="0px" y="0px"
	 width="91.837px" height="128.571px" viewBox="0 0 91.837 128.571" enable-background="new 0 0 91.837 128.571"
	 xml:space="preserve">
<linearGradient id="SVGID_1_" gradientUnits="userSpaceOnUse" x1="46.5317" y1="23.269" x2="46.5317" y2="121.1418">
	<stop  offset="0" style="stop-color:#603913"/>
	<stop  offset="0.0466" style="stop-color:#6F3A18"/>
	<stop  offset="0.1398" style="stop-color:#9A3424"/>
	<stop  offset="0.2056" style="stop-color:#BE1E2D"/>
	<stop  offset="0.4956" style="stop-color:#CF1D2A"/>
	<stop  offset="0.8226" style="stop-color:#ED1C24"/>
</linearGradient>
<path fill="url(#SVGID_1_)" d="M38.678,32.149c2.368-12.234,6.709-20.521,6.709-26.441s0.395-4.736,1.579-4.341
	c1.184,0.394,15.391,2.762,12.234,5.13c-3.158,2.368-1.975-1.184-3.158,2.368s-9.076,14.996-9.076,23.284
	c11.839,3.947,16.575-4.736,30.387-1.185c13.813,3.553,14.998,15.786,8.288,37.097c-6.709,21.312-11.84,28.81-12.629,40.649
	c-0.789,11.839-10.655,23.284-20.127,16.575s-9.472-5.13-12.628-2.763c-3.157,2.368-12.234,9.866-19.339-4.735
	c-7.103-14.602-7.103-41.438-14.996-55.25c-7.497-13.12,3.67-32.157,12.234-31.178C31.969,32.938,31.575,36.49,38.678,32.149z"/>
<path fill="#FFFFFF" d="M56.833,42.607c8.155-4.342,19.921-9.402,28.414,0.789c3.946,4.736-1.184,16.97-5.92,31.571
	c-4.563,14.072-8.287,17.365-10.261,32.757c0.395-14.208,20.127-62.354,7.894-66.301C64.725,37.476,67.092,44.185,56.833,42.607z"/>
<path fill="#FFFFFF" d="M38.153,44.975c-13.334-6.559-17.234-6.741-22.199-4.345c-4.963,2.397-10.417,6.75-4.277,5.813
	C17.815,45.504,26.515,38.811,38.153,44.975z"/>
<path fill="#FFFFFF" d="M41.127,109.337c0.692-19.725,1.234-29.453-1.037-35.935c-1.476-4.214-2.492-23.153-2.937-14.646
	C36.23,76.372,41.319,96.708,41.127,109.337z"/>
</svg>
