<?xml version="1.0" encoding="utf-8"?>
<!-- Generator: Adobe Illustrator 16.0.0, SVG Export Plug-In . SVG Version: 6.00 Build 0)  -->
<!DOCTYPE svg PUBLIC "-//W3C//DTD SVG 1.1//EN" "http://www.w3.org/Graphics/SVG/1.1/DTD/svg11.dtd">
<svg version="1.1" id="Layer_1" xmlns="http://www.w3.org/2000/svg" xmlns:xlink="http://www.w3.org/1999/xlink" x="0px" y="0px"
	 width="59.184px" height="146.939px" viewBox="0 0 59.184 146.939" enable-background="new 0 0 59.184 146.939"
	 xml:space="preserve">
<g>
	<path fill="#A3A2A2" d="M20.6,2.259c-24.809,5.502-8.789,59.68,8.335,53.991c0,0,11.896,71.691,14.436,83.14
		c2.539,11.451,15.341,9.361,12.643-2.803C53.314,124.421,33.943,55.14,33.943,55.14C52.806,51.178,45.726-3.314,20.6,2.259z"/>
	<path fill="#757576" d="M14.554,9.605c3.757-4.462,16.8-9.858,23.317,4.715c6.52,14.572,4.523,20.396,2.788,19.153
		C38.924,32.232,34.4-2.43,14.554,9.605z"/>
	<path fill="#757576" d="M29.627,51.989c-2.915,1.46-5.969,3.931-9.74-1.411c-3.773-5.344-2.604-7.938-1.594-7.601
		C19.301,43.316,21.815,52.879,29.627,51.989z"/>
</g>
</svg>
