<?xml version="1.0" encoding="utf-8"?>
<!-- Generator: Adobe Illustrator 16.0.0, SVG Export Plug-In . SVG Version: 6.00 Build 0)  -->
<!DOCTYPE svg PUBLIC "-//W3C//DTD SVG 1.1//EN" "http://www.w3.org/Graphics/SVG/1.1/DTD/svg11.dtd">
<svg version="1.1" id="Layer_1" xmlns="http://www.w3.org/2000/svg" xmlns:xlink="http://www.w3.org/1999/xlink" x="0px" y="0px"
	 width="124.49px" height="58.163px" viewBox="0 0 124.49 58.163" enable-background="new 0 0 124.49 58.163" xml:space="preserve">
<path fill="#F7941E" d="M123.49,46.163c0,6.627-5.373,12-12,12H16.102c-6.627,0-12-5.373-12-12V15.061c0-6.627,5.373-12,12-12
	h95.388c6.627,0,12,5.373,12,12V46.163z"/>
<g>
	<g>
		<path fill="#FFFFFF" d="M39.334,49.703h-3.959l6.119-13.038l-6.959-14.118h4.039l4.84,10.118l4.639-10.118h3.999L39.334,49.703z"
			/>
		<path fill="#FFFFFF" d="M68.772,38.745c-2.159,1.44-4.119,2.12-7.158,2.12c-5.6,0-8.719-4.599-8.719-9.558
			c0-5.439,3.439-9.119,8.398-9.119c4.76,0,7.799,3.239,7.799,9.878H56.455c0.56,3.559,2.6,5.399,6.039,5.399
			c2.159,0,4.199-0.8,6.278-2.16V38.745z M65.573,29.707c-0.12-2.719-1.68-4.439-4.199-4.439c-2.72,0-4.359,1.6-4.839,4.439H65.573z
			"/>
		<path fill="#FFFFFF" d="M83.373,27.187c-2-1.32-3.88-1.879-5.199-1.879c-1.439,0-2.359,0.68-2.359,1.64
			c0,0.8,1.199,1.76,4.359,3.599c2.959,1.96,4.039,3.2,4.039,5.04c0,3.159-2.52,5.279-5.919,5.279c-2.2,0-3.92-0.44-6.239-1.64
			v-3.839c2.319,1.6,4.439,2.359,5.879,2.359c1.439-0.08,2.64-0.76,2.64-2.04c0-2.479-8.398-3.799-8.398-8.639
			c0-3.039,2.319-4.879,5.919-4.879c1.68,0,3.399,0.48,5.279,1.479V27.187z"/>
		<path fill="#FFFFFF" d="M93.653,38.465c0,1.32-1.08,2.399-2.399,2.399c-1.32,0-2.4-1.08-2.4-2.399s1.08-2.4,2.4-2.4
			C92.573,36.065,93.653,37.146,93.653,38.465z M91.213,12.87c1.52,0,2.239,1.959,2.239,5.919c0,1.76-0.08,3.199-0.24,4.279
			l-1,6.879c-0.239,1.76-0.479,2.52-0.999,2.52c-0.521,0-0.76-0.76-1-2.52l-1-6.879c-0.16-1.08-0.24-2.52-0.24-4.279
			C88.973,14.829,89.693,12.87,91.213,12.87z"/>
	</g>
</g>
</svg>
