<?xml version="1.0" encoding="utf-8"?>
<!-- Generator: Adobe Illustrator 21.0.0, SVG Export Plug-In . SVG Version: 6.00 Build 0)  -->
<svg version="1.1" id="Layer_1" xmlns="http://www.w3.org/2000/svg" xmlns:xlink="http://www.w3.org/1999/xlink" x="0px" y="0px"
	 viewBox="0 0 149 138" style="enable-background:new 0 0 149 138;" xml:space="preserve">
<style type="text/css">
	.st0{opacity:0.4;fill:#59595A;}
	.st1{fill:#FCF3E3;}
	.st2{fill:#E69A45;}
</style>
<rect x="18.4" y="12.9" class="st0" width="119.8" height="119.8"/>
<rect x="10.9" y="5.3" class="st1" width="119.8" height="119.8"/>
<g>
	<g>
		<path d="M36.8,109.1c0.3,0,0.6,0,0.8,0c1.6,0,1.6-2.5,0-2.5c-0.3,0-0.6,0-0.8,0C35.2,106.6,35.2,109.1,36.8,109.1L36.8,109.1z"/>
	</g>
</g>
<g>
	<g>
		<path d="M109.1,109.1c0.3,0,0.6,0,0.8,0c1.6,0,1.6-2.5,0-2.5c-0.3,0-0.6,0-0.8,0C107.4,106.6,107.4,109.1,109.1,109.1L109.1,109.1
			z"/>
	</g>
</g>
<g>
	<path d="M46.2,103.8h2.1v8c0,0.4,0.2,0.6,0.4,0.6c0.1,0,0.1,0,0.3,0l0.3,1.6c-0.2,0.1-0.6,0.2-1.1,0.2c-1.5,0-2-1-2-2.4V103.8z"/>
	<path d="M50.1,104.6c0-0.7,0.5-1.1,1.2-1.1c0.7,0,1.2,0.4,1.2,1.1s-0.5,1.1-1.2,1.1C50.7,105.7,50.1,105.3,50.1,104.6z M50.3,106.8
		h2.1v7.2h-2.1V106.8z"/>
	<path d="M54.6,111.8c0.7,0.5,1.2,0.8,1.9,0.8c0.6,0,0.9-0.2,0.9-0.6c0-0.5-0.7-0.7-1.5-1c-0.9-0.3-1.9-0.9-1.9-2.1
		c0-1.3,1.1-2.2,2.8-2.2c1.1,0,1.9,0.5,2.5,0.9l-1,1.3c-0.5-0.4-1-0.6-1.5-0.6c-0.6,0-0.8,0.2-0.8,0.6c0,0.5,0.7,0.6,1.4,0.9
		c0.9,0.3,1.9,0.8,1.9,2.2c0,1.3-1,2.3-3,2.3c-0.9,0-2-0.4-2.8-1L54.6,111.8z"/>
	<path d="M61,108.5h-1v-1.6l1.1-0.1l0.2-1.9h1.8v1.9h1.7v1.7h-1.7v2.9c0,0.8,0.4,1.1,0.9,1.1c0.2,0,0.5-0.1,0.7-0.1l0.3,1.6
		c-0.4,0.1-0.9,0.3-1.6,0.3c-1.8,0-2.5-1.1-2.5-2.8V108.5z"/>
	<path d="M69.1,106.6c2,0,3.1,1.5,3.1,3.5c0,0.4,0,0.7-0.1,0.9h-4.3c0.2,1.1,0.9,1.6,1.9,1.6c0.5,0,1-0.2,1.6-0.5l0.7,1.3
		c-0.7,0.5-1.7,0.8-2.6,0.8c-2.1,0-3.6-1.4-3.6-3.8C65.8,108.1,67.4,106.6,69.1,106.6z M70.4,109.6c0-0.8-0.3-1.4-1.2-1.4
		c-0.7,0-1.2,0.4-1.4,1.4H70.4z"/>
	<path d="M73.7,106.8h1.7l0.1,0.9h0.1c0.6-0.6,1.3-1.1,2.3-1.1c1.6,0,2.2,1.1,2.2,2.9v4.5H78v-4.2c0-1-0.3-1.4-0.9-1.4
		c-0.5,0-0.9,0.2-1.3,0.7v4.9h-2.1V106.8z"/>
	<path d="M81.8,104.6c0-0.7,0.5-1.1,1.2-1.1c0.7,0,1.2,0.4,1.2,1.1s-0.5,1.1-1.2,1.1C82.3,105.7,81.8,105.3,81.8,104.6z M82,106.8
		h2.1v7.2H82V106.8z"/>
	<path d="M86,106.8h1.7l0.1,0.9h0.1c0.6-0.6,1.3-1.1,2.3-1.1c1.6,0,2.2,1.1,2.2,2.9v4.5h-2.1v-4.2c0-1-0.3-1.4-0.9-1.4
		c-0.5,0-0.9,0.2-1.3,0.7v4.9H86V106.8z"/>
	<path d="M94.9,113.8L94.9,113.8c-0.4-0.3-0.7-0.7-0.7-1.3c0-0.5,0.3-1,0.8-1.3v-0.1c-0.5-0.3-1-1-1-1.9c0-1.7,1.4-2.6,3-2.6
		c0.4,0,0.8,0.1,1.1,0.2h2.6v1.6h-1.1c0.1,0.2,0.2,0.6,0.2,0.9c0,1.7-1.2,2.4-2.8,2.4c-0.3,0-0.6,0-0.9-0.1
		c-0.2,0.2-0.3,0.3-0.3,0.5c0,0.4,0.3,0.5,1.1,0.5h1.2c1.8,0,2.7,0.5,2.7,1.8c0,1.5-1.6,2.6-4,2.6c-1.7,0-3-0.6-3-1.8
		C93.9,114.6,94.2,114.1,94.9,113.8z M97.2,115.7c1,0,1.7-0.4,1.7-0.9c0-0.5-0.4-0.6-1.1-0.6H97c-0.5,0-0.8,0-1-0.1
		c-0.3,0.2-0.4,0.5-0.4,0.7C95.6,115.4,96.3,115.7,97.2,115.7z M98,109.2c0-0.8-0.4-1.2-1-1.2s-1,0.4-1,1.2c0,0.8,0.4,1.2,1,1.2
		S98,110,98,109.2z"/>
</g>
<g>
	<path class="st2" d="M68.2,82.2c4.1,19.7,22.7,12.3,26.8,1.3c6.4-17.3,26.4-29.2,18.8-52.3c-7.6-22.9-32.5-18.2-44.1,8.9
		c-1.9,4.5-1.1,9.7,4.1,14.3c5.2,4.5,3.2,8.4-1.9,11.7"/>
	<g>
		<path d="M66.5,82.7c1.2,5.3,3.8,10.9,9.3,12.8c4.5,1.6,9.5,0.2,13.4-2.4c5-3.4,6.5-8,9.2-13.2c3.4-6.6,8.2-12.3,12.1-18.5
			c7.4-11.8,9.7-26.9,0.9-38.8c-6.9-9.3-18.7-9.6-27.8-3.3C76.8,24,71.8,31.1,68.5,38.5c-1.5,3.4-2,6.9-0.7,10.5
			c0.7,1.7,1.6,3.3,2.9,4.7c0.9,1,2.1,1.8,2.8,2.9c2.4,3.7,0.7,5.7-2.5,7.9c-1.9,1.3-0.1,4.3,1.8,3c3.5-2.4,7.2-5.9,5.3-10.5
			c-1.6-3.8-5.8-5.6-7.1-9.6c-1.4-4.4,1.1-8.8,3.3-12.5c5.1-8.9,15.9-20,27.4-15.7c12,4.5,14.1,21.8,10.1,32.2
			c-4.2,11-13.3,19.4-17.9,30.2c-2.1,5-5.5,9.2-11,10.6c-7.4,1.9-11.4-4.1-12.9-10.6C69.4,79.6,66,80.5,66.5,82.7L66.5,82.7z"/>
	</g>
</g>
<g>
	<g>
		<path d="M74.8,76.3c8.2,6.4,17.8,0.7,22.2-7c4.9-8.5,14.4-19.4,12.6-30c-1.4-8.1-8-16.7-17-14.5c-7.7,1.9-14.7,9.8-16.6,17.3
			C73.1,53,84.4,57.9,93.5,57.1c1.6-0.1,1.6-2.6,0-2.5c-31.5,2.6-6-37.3,7.9-25.5c9,7.6,5.7,18,0.8,26.5c-3,5.3-5.9,11.4-9.7,16.1
			c-3.7,4.4-11,6.6-15.9,2.8C75.3,73.6,73.5,75.3,74.8,76.3L74.8,76.3z"/>
	</g>
</g>
<g>
	<g>
		<path d="M80.9,46.8c4.2-2.5,13-3.6,16.4,1c1,1.3,3.1,0,2.2-1.3c-4.3-5.7-14.3-5.2-19.8-1.9C78.2,45.5,79.5,47.6,80.9,46.8
			L80.9,46.8z"/>
	</g>
</g>
<g>
	<g>
		<path d="M28,40.1c6.3,6.5,6.3,12.8,0,19.4c-1.1,1.2,0.7,2.9,1.8,1.8c3.2-3.3,6-7.2,5.8-12c-0.2-4.3-2.9-7.9-5.8-10.9
			C28.7,37.2,26.9,39,28,40.1L28,40.1z"/>
	</g>
</g>
<g>
	<g>
		<path d="M42.2,62c-1.7,2.6-3.7,4.9-5.9,7.1c-1.1,1.1,0.6,2.9,1.8,1.8c2.3-2.3,4.5-4.8,6.3-7.6C45.3,61.9,43.1,60.6,42.2,62
			L42.2,62z"/>
	</g>
</g>
<g>
	<g>
		<path d="M36.4,30.6c7.5,7.7,12.9,16.8,8.1,27.5c-0.7,1.5,1.5,2.7,2.2,1.3c5.3-11.8,0-21.8-8.4-30.5C37,27.7,35.2,29.5,36.4,30.6
			L36.4,30.6z"/>
	</g>
</g>
<g>
	<g>
		<path d="M54.7,32.5c11,16.3,2.1,34.3-10.2,46.9c-1.1,1.2,0.6,2.9,1.8,1.8c13.1-13.4,22.2-32.7,10.6-50
			C56,29.9,53.8,31.1,54.7,32.5L54.7,32.5z"/>
	</g>
</g>
<g>
	<g>
		<path d="M50.9,27.3c0.4,0.5,0.9,1,1.3,1.5c0.4,0.5,1.1,0.8,1.7,0.4c0.5-0.3,0.9-1.2,0.4-1.7c-0.5-0.7-1.1-1.4-1.7-2
			c-0.4-0.5-1.3-0.5-1.8,0C50.4,26.1,50.5,26.8,50.9,27.3L50.9,27.3z"/>
	</g>
</g>
<g>
	<g>
		<path d="M44.5,20.3c1.2,1.2,2.3,2.4,3.4,3.6c1.1,1.2,2.8-0.6,1.8-1.8c-1.1-1.3-2.2-2.5-3.4-3.6C45.1,17.4,43.4,19.1,44.5,20.3
			L44.5,20.3z"/>
	</g>
</g>
</svg>
