<?xml version="1.0" encoding="utf-8"?>
<!-- Generator: Adobe Illustrator 21.0.0, SVG Export Plug-In . SVG Version: 6.00 Build 0)  -->
<svg version="1.1" id="Layer_1" xmlns="http://www.w3.org/2000/svg" xmlns:xlink="http://www.w3.org/1999/xlink" x="0px" y="0px"
	 viewBox="0 0 144 144.7" style="enable-background:new 0 0 144 144.7;" xml:space="preserve">
<style type="text/css">
	.st0{opacity:0.4;fill:#59595A;enable-background:new    ;}
	.st1{fill:#FCF3E3;}
	.st2{fill:none;}
	.st3{font-family:'SourceSansPro-Bold';}
	.st4{font-size:16.4223px;}
	.st5{fill:#E79B46;}
	.st6{fill:#010101;}
</style>
<rect x="8.5" y="9.2" class="st0" width="135.5" height="135.5"/>
<rect y="0.6" class="st1" width="135.5" height="135.5"/>
<g>
	<g>
		<path d="M35.3,117.4c0.3,0,0.5,0,0.9,0c1.1,0,1.1-1.7,0-1.7c-0.3,0-0.5,0-0.9,0C34.2,115.8,34.2,117.4,35.3,117.4L35.3,117.4z"/>
	</g>
</g>
<g>
	<g>
		<path d="M109.2,117.4c0.3,0,0.5,0,0.9,0c1.1,0,1.1-1.7,0-1.7c-0.3,0-0.5,0-0.9,0C108.1,115.8,108.1,117.4,109.2,117.4L109.2,117.4
			z"/>
	</g>
</g>
<rect x="32.9" y="112" class="st2" width="75.3" height="19.1"/>
<text transform="matrix(1 0 0 1 44.728 123.5498)" class="st3 st4">LISTEN</text>
<g>
	<path class="st5" d="M63.9,81.8c4,19.3,22.3,12.1,26.4,1.3c6.3-17,26-28.7,18.5-51.5c-7.5-22.6-32-17.9-43.4,8.8
		c-1.9,4.4-1.1,9.6,4,14.1c5.1,4.4,3.1,8.2-1.9,11.5"/>
	<g>
		<path class="st6" d="M62.2,82.3c1.2,5.2,3.7,10.7,9.2,12.6c4.4,1.6,9.4,0.2,13.2-2.3c4.9-3.3,6.4-7.9,9-13
			c3.3-6.5,8-12.1,11.9-18.2c7.3-11.6,9.6-26.4,0.9-38.1C99.6,14,88,13.7,79,20c-6.7,4.6-11.6,11.6-14.9,18.9
			c-1.5,3.3-1.9,6.8-0.7,10.3c0.7,1.7,1.6,3.2,2.9,4.6c0.9,1,2.1,1.7,2.7,2.9c2.3,3.6,0.7,5.6-2.5,7.8c-1.9,1.3-0.1,4.2,1.7,2.9
			c3.4-2.3,7.1-5.8,5.2-10.3c-1.6-3.7-5.7-5.5-7-9.4c-1.4-4.3,1.1-8.6,3.2-12.3c5-8.8,15.7-19.7,27-15.5
			c11.8,4.4,13.9,21.4,9.9,31.7c-4.1,10.8-13,19.1-17.6,29.7c-2.1,4.9-5.4,9-10.8,10.4c-7.3,1.9-11.2-4-12.7-10.4
			C65.1,79.2,61.8,80.1,62.2,82.3L62.2,82.3z"/>
	</g>
</g>
<g>
	<g>
		<path class="st6" d="M70.4,76c8,6.3,17.5,0.7,21.8-6.9c4.8-8.4,14.2-19.1,12.4-29.5c-1.4-8-7.9-16.4-16.7-14.3
			c-7.6,1.9-14.5,9.6-16.3,17C68.7,53,79.8,57.8,88.7,57c1.6-0.1,1.6-2.5,0-2.5c-31,2.5-5.9-36.7,7.8-25.1c8.8,7.5,5.6,17.7,0.8,26
			c-2.9,5.2-5.8,11.2-9.6,15.9c-3.6,4.3-10.8,6.5-15.7,2.7C70.9,73.3,69.1,75,70.4,76L70.4,76z"/>
	</g>
</g>
<g>
	<g>
		<path class="st6" d="M76.4,46.9c4.1-2.5,12.8-3.5,16.1,1c1,1.3,3.1,0,2.1-1.3c-4.2-5.6-14.1-5.1-19.5-1.9
			C73.7,45.6,75,47.7,76.4,46.9L76.4,46.9z"/>
	</g>
</g>
<g>
	<g>
		<path class="st6" d="M24.4,40.4c6.2,6.4,6.2,12.6,0,19.1c-1.1,1.2,0.7,2.9,1.7,1.7c3.1-3.2,5.9-7.1,5.7-11.8
			c-0.2-4.2-2.9-7.8-5.7-10.7C25.1,37.5,23.3,39.3,24.4,40.4L24.4,40.4z"/>
	</g>
</g>
<g>
	<g>
		<path class="st6" d="M38.3,61.9c-1.7,2.5-3.6,4.8-5.8,7c-1.1,1.1,0.6,2.9,1.7,1.7c2.3-2.3,4.4-4.8,6.2-7.5
			C41.4,61.8,39.2,60.5,38.3,61.9L38.3,61.9z"/>
	</g>
</g>
<g>
	<g>
		<path class="st6" d="M32.7,31c7.4,7.6,12.7,16.5,8,27c-0.7,1.5,1.5,2.7,2.1,1.3c5.2-11.6,0-21.4-8.2-30
			C33.3,28.2,31.4,29.9,32.7,31L32.7,31z"/>
	</g>
</g>
<g>
	<g>
		<path class="st6" d="M50.7,32.9c10.8,16.1,2.1,33.7-10,46.1c-1.1,1.2,0.6,2.9,1.7,1.7c12.8-13.2,21.8-32.2,10.4-49.2
			C51.9,30.3,49.8,31.5,50.7,32.9L50.7,32.9z"/>
	</g>
</g>
<g>
	<g>
		<path class="st6" d="M46.9,27.8c0.4,0.5,0.9,1,1.3,1.5s1.1,0.8,1.7,0.4c0.5-0.3,0.9-1.2,0.4-1.7c-0.5-0.7-1.1-1.4-1.7-1.9
			c-0.4-0.5-1.3-0.5-1.7,0C46.4,26.6,46.5,27.3,46.9,27.8L46.9,27.8z"/>
	</g>
</g>
<g>
	<g>
		<path class="st6" d="M40.6,20.9c1.2,1.2,2.3,2.3,3.3,3.5c1.1,1.2,2.7-0.6,1.7-1.7c-1.1-1.3-2.1-2.5-3.3-3.5
			C41.2,18,39.5,19.7,40.6,20.9L40.6,20.9z"/>
	</g>
</g>
</svg>
