<?xml version="1.0" encoding="utf-8"?>
<!-- Generator: Adobe Illustrator 16.0.0, SVG Export Plug-In . SVG Version: 6.00 Build 0)  -->
<!DOCTYPE svg PUBLIC "-//W3C//DTD SVG 1.1//EN" "http://www.w3.org/Graphics/SVG/1.1/DTD/svg11.dtd">
<svg version="1.1" id="Layer_1" xmlns="http://www.w3.org/2000/svg" xmlns:xlink="http://www.w3.org/1999/xlink" x="0px" y="0px"
	 width="610px" height="612px" viewBox="90.5 0 610 612" enable-background="new 90.5 0 610 612" xml:space="preserve">
<rect x="127.431" y="38.911" opacity="0.4" fill="#59595A" enable-background="new    " width="573.088" height="573.089"/>
<rect x="91.48" y="2.538" fill="#FCF3E3" width="573.089" height="573.089"/>
<g>
	<g>
		<path d="M240.78,496.536c1.269,0,2.114,0,3.806,0c4.652,0,4.652-7.189,0-7.189c-1.269,0-2.115,0-3.806,0
			C236.127,489.77,236.127,496.536,240.78,496.536L240.78,496.536z"/>
	</g>
</g>
<g>
	<g>
		<path d="M553.335,496.536c1.269,0,2.115,0,3.807,0c4.652,0,4.652-7.189,0-7.189c-1.269,0-2.113,0-3.807,0
			C548.683,489.77,548.683,496.536,553.335,496.536L553.335,496.536z"/>
	</g>
</g>
<rect x="230.629" y="473.697" fill="none" width="318.477" height="80.781"/>
<g enable-background="new    ">
	<path d="M285.933,477.26h10.28v36.674h17.851v8.613h-28.13L285.933,477.26L285.933,477.26z"/>
	<path d="M321.772,477.26h10.28v45.287h-10.28V477.26z"/>
	<path d="M345.596,509.836c3.195,2.778,7.362,4.724,11.113,4.724c4.237,0,6.32-1.667,6.32-4.376c0-2.848-2.57-3.751-6.529-5.418
		l-5.834-2.5c-4.723-1.876-9.168-5.766-9.168-12.363c0-7.501,6.737-13.476,16.114-13.476c5.209,0,10.697,2.084,14.586,5.975
		l-5.14,6.459c-2.987-2.292-5.834-3.611-9.446-3.611c-3.473,0-5.765,1.528-5.765,4.098c0,2.778,2.987,3.751,6.946,5.35l5.765,2.36
		c5.487,2.224,8.96,5.904,8.96,12.294c0,7.502-6.251,14.031-17.017,14.031c-5.904,0-12.155-2.223-16.809-6.529L345.596,509.836z"/>
	<path d="M388.589,485.873h-12.502v-8.613h35.146v8.613H398.8v36.674h-10.21L388.589,485.873L388.589,485.873z"/>
	<path d="M418.246,477.26h28.409v8.613h-18.129v9.099h15.42v8.544h-15.42v10.418h18.822v8.613h-29.104L418.246,477.26
		L418.246,477.26z"/>
	<path d="M456.17,477.26h10.487l11.809,22.505l4.516,10.002h0.276c-0.485-4.793-1.318-11.183-1.318-16.53V477.26h9.724v45.287
		h-10.488l-11.808-22.574l-4.445-9.861h-0.277c0.486,5.001,1.319,11.044,1.319,16.392v16.045h-9.793L456.17,477.26L456.17,477.26z"
		/>
</g>
<g>
	<path fill="#E79B46" d="M361.742,345.968c16.917,81.629,94.315,51.177,111.657,5.499c26.646-71.901,109.966-121.385,78.244-217.816
		c-31.721-95.585-135.342-75.707-183.558,37.219c-8.036,18.61-4.652,40.603,16.917,59.635c21.57,18.61,13.112,34.682-8.036,48.639"
		/>
	<g>
		<path fill="#010101" d="M354.552,348.083c5.075,21.993,15.648,45.255,38.911,53.291c18.61,6.767,39.756,0.846,55.829-9.728
			c20.725-13.957,27.068-33.413,38.064-54.983c13.958-27.491,33.836-51.176,50.331-76.976
			c30.875-49.062,40.603-111.657,3.807-161.142c-28.761-39.334-77.822-40.603-115.887-13.957
			c-28.339,19.456-49.063,49.062-63.02,79.937c-6.344,13.957-8.036,28.76-2.96,43.563c2.96,7.19,6.767,13.534,12.265,19.456
			c3.807,4.229,8.882,7.19,11.419,12.265c9.728,15.226,2.961,23.685-10.573,32.99c-8.036,5.499-0.423,17.764,7.19,12.266
			c14.38-9.728,30.029-24.531,21.993-43.563c-6.767-15.649-24.107-23.262-29.606-39.757c-5.921-18.187,4.652-36.373,13.534-52.022
			c21.147-37.219,66.403-83.32,114.195-65.556c49.907,18.609,58.789,90.51,41.872,134.073
			c-17.341,45.678-54.983,80.782-74.438,125.613c-8.883,20.726-22.84,38.064-45.679,43.986
			c-30.875,8.036-47.37-16.918-53.714-43.986C366.817,334.972,352.86,338.778,354.552,348.083L354.552,348.083z"/>
	</g>
</g>
<g>
	<g>
		<path fill="#010101" d="M389.233,321.438c33.835,26.646,74.015,2.962,92.202-29.183c20.303-35.527,60.06-80.782,52.445-124.769
			c-5.921-33.835-33.413-69.363-70.632-60.481c-32.145,8.036-61.327,40.603-68.94,71.9c-12.265,45.255,34.681,65.556,72.324,62.173
			c6.768-0.423,6.768-10.574,0-10.574c-131.113,10.574-24.954-155.22,32.989-106.159c37.22,31.721,23.686,74.861,3.384,109.965
			c-12.266,21.993-24.531,47.37-40.603,67.248c-15.228,18.187-45.679,27.492-66.402,11.418
			C391.348,310.018,383.734,317.208,389.233,321.438L389.233,321.438z"/>
	</g>
</g>
<g>
	<g>
		<path fill="#010101" d="M414.609,198.361c17.341-10.574,54.137-14.803,68.094,4.229c4.229,5.498,13.111,0,8.882-5.499
			c-17.764-23.685-59.635-21.57-82.474-8.036C403.19,192.862,408.688,201.744,414.609,198.361L414.609,198.361z"/>
	</g>
</g>
<g>
	<g>
		<path fill="#010101" d="M194.679,170.869c26.223,27.069,26.223,53.291,0,80.783c-4.652,5.075,2.96,12.265,7.19,7.19
			c13.111-13.534,24.954-30.029,24.108-49.907c-0.846-17.764-12.266-32.99-24.108-45.255
			C197.639,158.604,190.026,166.217,194.679,170.869L194.679,170.869z"/>
	</g>
</g>
<g>
	<g>
		<path fill="#010101" d="M253.468,261.802c-7.19,10.574-15.226,20.301-24.531,29.606c-4.652,4.653,2.538,12.266,7.19,7.19
			c9.728-9.728,18.61-20.301,26.223-31.721C266.579,261.379,257.274,255.881,253.468,261.802L253.468,261.802z"/>
	</g>
</g>
<g>
	<g>
		<path fill="#010101" d="M229.783,131.113c31.298,32.144,53.714,69.786,33.835,114.195c-2.961,6.344,6.344,11.419,8.882,5.498
			c21.993-49.062,0-90.51-34.682-126.883C232.321,119.27,224.285,126.46,229.783,131.113L229.783,131.113z"/>
	</g>
</g>
<g>
	<g>
		<path fill="#010101" d="M305.913,139.148c45.678,68.094,8.882,142.532-42.294,194.978c-4.652,5.075,2.538,12.266,7.19,7.189
			c54.137-55.829,92.202-136.188,43.986-208.088C310.988,128.152,302.106,133.228,305.913,139.148L305.913,139.148z"/>
	</g>
</g>
<g>
	<g>
		<path fill="#010101" d="M289.841,117.579c1.692,2.115,3.807,4.229,5.499,6.344c1.692,2.114,4.652,3.383,7.19,1.691
			c2.115-1.269,3.807-5.075,1.692-7.19c-2.115-2.96-4.652-5.921-7.19-8.036c-1.692-2.115-5.499-2.115-7.19,0
			C287.727,112.503,288.149,115.464,289.841,117.579L289.841,117.579z"/>
	</g>
</g>
<g>
	<g>
		<path fill="#010101" d="M263.196,88.396c5.075,5.075,9.728,9.728,13.957,14.803c4.652,5.075,11.419-2.538,7.19-7.19
			c-4.652-5.499-8.882-10.574-13.957-14.803C265.733,76.13,258.543,83.32,263.196,88.396L263.196,88.396z"/>
	</g>
</g>
</svg>
