<?xml version="1.0" encoding="utf-8"?>
<!-- Generator: Adobe Illustrator 21.0.0, SVG Export Plug-In . SVG Version: 6.00 Build 0)  -->
<svg version="1.1" id="Layer_1" xmlns="http://www.w3.org/2000/svg" xmlns:xlink="http://www.w3.org/1999/xlink" x="0px" y="0px"
	 viewBox="0 0 149 138" style="enable-background:new 0 0 149 138;" xml:space="preserve">
<style type="text/css">
	.st0{opacity:0.4;fill:#59595A;}
	.st1{fill:#FCF3E3;}
	.st2{fill:none;}
	.st3{fill:#74AD66;}
	.st4{opacity:0.7;fill:#FFFFFF;stroke:#000000;stroke-miterlimit:10;}
</style>
<rect x="18.4" y="12.9" class="st0" width="119.8" height="119.8"/>
<rect x="10.9" y="5.4" class="st1" width="119.8" height="119.8"/>
<g>
	<g>
		<path d="M40.3,110.3c0.3,0,0.6,0,0.9,0c1.6,0,1.6-2.5,0-2.5c-0.3,0-0.6,0-0.9,0C38.7,107.8,38.7,110.3,40.3,110.3L40.3,110.3z"/>
	</g>
</g>
<g>
	<g>
		<path d="M105,110.3c0.3,0,0.6,0,0.9,0c1.6,0,1.6-2.5,0-2.5c-0.3,0-0.6,0-0.9,0C103.4,107.8,103.4,110.3,105,110.3L105,110.3z"/>
	</g>
</g>
<g>
	<path class="st2" d="M30.7,77.3c10.5-29.4,56.6-32.7,79-1c0,0-8,17.7-38.7,17.7C45.6,94,27.9,85.2,30.7,77.3z"/>
	<g>
		<g>
			<path d="M31.7,77.2C38.3,63.7,51.8,55.6,66.7,55c16.9-0.6,31.9,8.4,41.2,22.1c1.3,1.9,4.3,0.1,3-1.8
				c-10-14.8-26.1-24.5-44.2-23.9c-16,0.6-30.9,9.3-38.1,23.9C27.7,77.4,30.7,79.2,31.7,77.2L31.7,77.2z"/>
		</g>
	</g>
	<g>
		<g>
			<path d="M106.4,80.8c-7.2,10.3-22.8,13-34.4,13.3C58.1,94.4,42.7,91,32.9,80.4c-1.5-1.6-4,0.8-2.5,2.5
				C41.2,94.4,58,98.1,73.2,97.5c12.7-0.5,28.5-3.8,36.3-15C110.8,80.7,107.7,79,106.4,80.8L106.4,80.8z"/>
		</g>
	</g>
	<g>
		<path class="st3" d="M56.5,78.2c-3.7-5-1.9-13.8,4.6-18.2c6.5-4.4,15.3-2.7,19.7,3.8c4.4,6.5,2.7,15.3-3.8,19.7
			c-5.3,3.6-11.5,3.1-16.2,0"/>
		<g>
			<path d="M58,77.3C50.7,66,67.4,54,77,62.3c4.7,4,5.9,10.8,2.6,16.1c-4,6.3-11.8,7.3-17.9,3.6c-1.9-1.2-3.7,1.9-1.8,3
				c7.1,4.3,16.2,3.4,21.6-3.3c5.2-6.5,4.5-16.1-1.6-21.7c-12.4-11.5-34.5,4.1-24.9,19C56.2,81,59.2,79.2,58,77.3L58,77.3z"/>
		</g>
	</g>
	<g>
		<g>
			<path d="M30.4,63.1c-2.7-1.6-5.3-3.2-8-4.7c-1.9-1.2-3.7,1.9-1.8,3c2.7,1.6,5.3,3.2,8,4.7C30.6,67.3,32.3,64.3,30.4,63.1
				L30.4,63.1z"/>
		</g>
	</g>
	<g>
		<g>
			<path d="M46.7,51.7c-1.6-2.7-3.2-5.3-4.7-8c-1.1-1.9-4.2-0.2-3,1.8c1.6,2.7,3.2,5.3,4.7,8C44.9,55.4,47.9,53.6,46.7,51.7
				L46.7,51.7z"/>
		</g>
	</g>
	<g>
		<g>
			<path d="M67.2,46.3c-0.6-3.2-1.2-6.4-1.8-9.7c-0.4-2.2-3.8-1.3-3.4,0.9c0.6,3.2,1.2,6.4,1.8,9.7C64.2,49.5,67.6,48.5,67.2,46.3
				L67.2,46.3z"/>
		</g>
	</g>
	<g>
		<g>
			<path d="M86.7,48.9c1.3-2.9,2.6-5.7,3.9-8.6c0.9-2-2.1-3.8-3-1.8c-1.3,2.9-2.6,5.7-3.9,8.6C82.7,49.2,85.8,50.9,86.7,48.9
				L86.7,48.9z"/>
		</g>
	</g>
	<g>
		<g>
			<path d="M104.5,60.1c2.2-2.1,4.4-4.2,6.6-6.4c1.6-1.6-0.9-4-2.5-2.5c-2.2,2.1-4.4,4.2-6.6,6.4C100.4,59.2,102.9,61.7,104.5,60.1
				L104.5,60.1z"/>
		</g>
	</g>
	<circle cx="69.1" cy="71.8" r="5.1"/>
	<circle class="st4" cx="73.4" cy="67.8" r="3.8"/>
	<g>
		<g>
			<path d="M20.7,17.4c7.7,0,15.4,0,23.1,0c1.6,0,1.6-2.5,0-2.5c-7.7,0-15.4,0-23.1,0C19.1,14.9,19.1,17.4,20.7,17.4L20.7,17.4z"/>
		</g>
	</g>
	<g>
		<g>
			<path d="M51.6,17.4c2.6,0,5.1,0,7.7,0c1.6,0,1.6-2.5,0-2.5c-2.6,0-5.1,0-7.7,0C50,14.9,50,17.4,51.6,17.4L51.6,17.4z"/>
		</g>
	</g>
	<g>
		<g>
			<path d="M71.2,38.7c2.9,0,5.8,0,8.7,0c1.6,0,1.6-2.5,0-2.5c-2.9,0-5.8,0-8.7,0C69.6,36.2,69.6,38.7,71.2,38.7L71.2,38.7z"/>
		</g>
	</g>
	<g>
		<g>
			<path d="M66.6,17.4c5.9,0,11.8,0,17.7,0c1.6,0,1.6-2.5,0-2.5c-5.9,0-11.8,0-17.7,0C65,14.9,64.9,17.4,66.6,17.4L66.6,17.4z"/>
		</g>
	</g>
	<g>
		<g>
			<path d="M67.3,24.8c4.9,0,9.8,0,14.7,0c1.6,0,1.6-2.5,0-2.5c-4.9,0-9.8,0-14.7,0C65.7,22.3,65.7,24.8,67.3,24.8L67.3,24.8z"/>
		</g>
	</g>
	<g>
		<g>
			<path d="M89.7,24.8c2.6,0,5.1,0,7.7,0c1.6,0,1.6-2.5,0-2.5c-2.6,0-5.1,0-7.7,0C88.1,22.3,88.1,24.8,89.7,24.8L89.7,24.8z"/>
		</g>
	</g>
	<g>
		<g>
			<path d="M104.7,24.8c5.9,0,11.8,0,17.7,0c1.6,0,1.6-2.5,0-2.5c-5.9,0-11.8,0-17.7,0C103.1,22.3,103.1,24.8,104.7,24.8L104.7,24.8
				z"/>
		</g>
	</g>
	<g>
		<g>
			<path d="M20.7,24.5c2.6,0,5.1,0,7.7,0c1.6,0,1.6-2.5,0-2.5c-2.6,0-5.1,0-7.7,0C19.1,22,19.1,24.5,20.7,24.5L20.7,24.5z"/>
		</g>
	</g>
	<g>
		<g>
			<path d="M35.7,24.5c5.9,0,11.8,0,17.7,0c1.6,0,1.6-2.5,0-2.5c-5.9,0-11.8,0-17.7,0C34.1,22,34.1,24.5,35.7,24.5L35.7,24.5z"/>
		</g>
	</g>
	<g>
		<g>
			<path d="M20.7,38.7c2.6,0,5.1,0,7.7,0c1.6,0,1.6-2.5,0-2.5c-2.6,0-5.1,0-7.7,0C19.1,36.2,19.1,38.7,20.7,38.7L20.7,38.7z"/>
		</g>
	</g>
	<g>
		<g>
			<path d="M39.6,38.7c5.3,0,10.6,0,15.9,0c1.6,0,1.6-2.5,0-2.5c-5.3,0-10.6,0-15.9,0C38,36.2,38,38.7,39.6,38.7L39.6,38.7z"/>
		</g>
	</g>
	<g>
		<g>
			<path d="M90.4,53.8c3.1,0,6.2,0,9.3,0c1.6,0,1.6-2.5,0-2.5c-3.1,0-6.2,0-9.3,0C88.8,51.3,88.8,53.8,90.4,53.8L90.4,53.8z"/>
		</g>
	</g>
	<g>
		<g>
			<path d="M117.1,53.8c1.9,0,3.7,0,5.6,0c1.6,0,1.6-2.5,0-2.5c-1.9,0-3.7,0-5.6,0C115.5,51.3,115.5,53.8,117.1,53.8L117.1,53.8z"/>
		</g>
	</g>
	<g>
		<g>
			<path d="M113.4,61.1c3.5,0,7,0,10.4,0c1.6,0,1.6-2.5,0-2.5c-3.5,0-7,0-10.4,0C111.8,58.6,111.8,61.1,113.4,61.1L113.4,61.1z"/>
		</g>
	</g>
	<g>
		<g>
			<path d="M115.3,68.8c1.9,0,3.7,0,5.6,0c1.6,0,1.6-2.5,0-2.5c-1.9,0-3.7,0-5.6,0C113.7,66.3,113.7,68.8,115.3,68.8L115.3,68.8z"/>
		</g>
	</g>
	<g>
		<g>
			<path d="M95.3,38.7c5.6,0,11.2,0,16.8,0c1.6,0,1.6-2.5,0-2.5c-5.6,0-11.2,0-16.8,0C93.7,36.2,93.7,38.7,95.3,38.7L95.3,38.7z"/>
		</g>
	</g>
	<g>
		<g>
			<path d="M91.1,17.4c5.6,0,11.2,0,16.8,0c1.6,0,1.6-2.5,0-2.5c-5.6,0-11.2,0-16.8,0C89.5,14.9,89.5,17.4,91.1,17.4L91.1,17.4z"/>
		</g>
	</g>
	<g>
		<g>
			<path d="M114.4,17.4c0.3,0,0.6,0,0.8,0c1.6,0,1.6-2.5,0-2.5c-0.3,0-0.6,0-0.8,0C112.8,14.9,112.8,17.4,114.4,17.4L114.4,17.4z"/>
		</g>
	</g>
	<g>
		<g>
			<path d="M90.9,32c7.7,0,15.4,0,23.1,0c1.6,0,1.6-2.5,0-2.5c-7.7,0-15.4,0-23.1,0C89.3,29.5,89.3,32,90.9,32L90.9,32z"/>
		</g>
	</g>
	<g>
		<g>
			<path d="M47.4,32c2.6,0,5.1,0,7.7,0c1.6,0,1.6-2.5,0-2.5c-2.6,0-5.1,0-7.7,0C45.7,29.5,45.7,32,47.4,32L47.4,32z"/>
		</g>
	</g>
	<g>
		<g>
			<path d="M48.8,45.8c2.1,0,4.2,0,6.3,0c1.6,0,1.6-2.5,0-2.5c-2.1,0-4.2,0-6.3,0C47.1,43.3,47.1,45.8,48.8,45.8L48.8,45.8z"/>
		</g>
	</g>
	<g>
		<g>
			<path d="M72.9,45.8c2.3,0,4.5,0,6.8,0c1.6,0,1.6-2.5,0-2.5c-2.3,0-4.5,0-6.8,0C71.3,43.3,71.3,45.8,72.9,45.8L72.9,45.8z"/>
		</g>
	</g>
	<g>
		<g>
			<path d="M94.1,45.8c2.6,0,5.1,0,7.7,0c1.6,0,1.6-2.5,0-2.5c-2.6,0-5.1,0-7.7,0C92.5,43.3,92.5,45.8,94.1,45.8L94.1,45.8z"/>
		</g>
	</g>
	<g>
		<g>
			<path d="M106.9,45.8c5.5,0,11,0,16.5,0c1.6,0,1.6-2.5,0-2.5c-5.5,0-11,0-16.5,0C105.3,43.3,105.3,45.8,106.9,45.8L106.9,45.8z"/>
		</g>
	</g>
	<g>
		<g>
			<path d="M20.9,32c5.9,0,11.8,0,17.7,0c1.6,0,1.6-2.5,0-2.5c-5.9,0-11.8,0-17.7,0C19.3,29.5,19.3,32,20.9,32L20.9,32z"/>
		</g>
	</g>
	<g>
		<g>
			<path d="M20.9,45.8c4.4,0,8.8,0,13.2,0c1.6,0,1.6-2.5,0-2.5c-4.4,0-8.8,0-13.2,0C19.3,43.3,19.3,45.8,20.9,45.8L20.9,45.8z"/>
		</g>
	</g>
	<g>
		<g>
			<path d="M61.4,32c5.6,0,11.2,0,16.8,0c1.6,0,1.6-2.5,0-2.5c-5.6,0-11.2,0-16.8,0C59.8,29.5,59.8,32,61.4,32L61.4,32z"/>
		</g>
	</g>
	<g>
		<g>
			<path d="M83.9,32c0.3,0,0.6,0,0.8,0c1.6,0,1.6-2.5,0-2.5c-0.3,0-0.6,0-0.8,0C82.3,29.5,82.3,32,83.9,32L83.9,32z"/>
		</g>
	</g>
	<g>
		<g>
			<path d="M119.3,38.7c0.3,0,0.6,0,0.8,0c1.6,0,1.6-2.5,0-2.5c-0.3,0-0.6,0-0.8,0C117.7,36.2,117.7,38.7,119.3,38.7L119.3,38.7z"/>
		</g>
	</g>
	<g>
		<g>
			<path d="M110.1,68.8c0.3,0,0.6,0,0.8,0c1.6,0,1.6-2.5,0-2.5c-0.3,0-0.6,0-0.8,0C108.5,66.3,108.5,68.8,110.1,68.8L110.1,68.8z"/>
		</g>
	</g>
	<g>
		<g>
			<path d="M60.2,24.6c0.3,0,0.6,0,0.8,0c1.6,0,1.6-2.5,0-2.5c-0.3,0-0.6,0-0.8,0C58.6,22.1,58.6,24.6,60.2,24.6L60.2,24.6z"/>
		</g>
	</g>
	<g>
		<g>
			<path d="M34,38.7c0.3,0,0.6,0,0.8,0c1.6,0,1.6-2.5,0-2.5c-0.3,0-0.6,0-0.8,0C32.4,36.2,32.4,38.7,34,38.7L34,38.7z"/>
		</g>
	</g>
	<g>
		<g>
			<path d="M20.7,53.8c2.6,0,5.1,0,7.7,0c1.6,0,1.6-2.5,0-2.5c-2.6,0-5.1,0-7.7,0C19.1,51.3,19.1,53.8,20.7,53.8L20.7,53.8z"/>
		</g>
	</g>
	<g>
		<g>
			<path d="M20.7,68.8c0.6,0,1.2,0,1.8,0c1.6,0,1.6-2.5,0-2.5c-0.6,0-1.2,0-1.8,0C19.1,66.3,19.1,68.8,20.7,68.8L20.7,68.8z"/>
		</g>
	</g>
	<g>
		<g>
			<path d="M34,53.8c0.3,0,0.6,0,0.8,0c1.6,0,1.6-2.5,0-2.5c-0.3,0-0.6,0-0.8,0C32.4,51.3,32.4,53.8,34,53.8L34,53.8z"/>
		</g>
	</g>
</g>
<g>
	<path d="M49.6,106.8h1.7l0.1,1.3h0.1c0.5-1,1.3-1.4,2-1.4c0.4,0,0.7,0.1,0.9,0.1l-0.3,1.8c-0.3-0.1-0.5-0.1-0.8-0.1
		c-0.5,0-1.2,0.3-1.6,1.3v4.2h-2.1V106.8z"/>
	<path d="M58.2,106.6c2,0,3.1,1.5,3.1,3.5c0,0.4,0,0.7-0.1,0.9h-4.3c0.2,1.1,0.9,1.6,1.9,1.6c0.5,0,1-0.2,1.6-0.5l0.7,1.3
		c-0.7,0.5-1.7,0.8-2.6,0.8c-2.1,0-3.6-1.4-3.6-3.8C54.8,108.1,56.4,106.6,58.2,106.6z M59.4,109.7c0-0.8-0.3-1.4-1.2-1.4
		c-0.7,0-1.2,0.5-1.4,1.4H59.4z"/>
	<path d="M66.3,109.4c0-0.6-0.4-1-1.1-1c-0.6,0-1.2,0.2-1.9,0.7l-0.8-1.4c0.9-0.6,1.9-0.9,3.1-0.9c1.8,0,2.9,1,2.9,3.3v4.1h-1.7
		l-0.2-0.7h0c-0.6,0.5-1.3,0.9-2.1,0.9c-1.3,0-2.1-1-2.1-2.2C62.3,110.5,63.5,109.7,66.3,109.4z M65.1,112.5c0.5,0,0.8-0.2,1.2-0.6
		v-1.3c-1.5,0.2-2,0.6-2,1.2C64.3,112.3,64.6,112.5,65.1,112.5z"/>
	<path d="M72.9,106.6c0.8,0,1.3,0.3,1.8,0.8l-0.1-1.1v-2.5h2.1V114H75l-0.1-0.7h-0.1c-0.5,0.5-1.2,0.9-1.9,0.9
		c-1.8,0-2.9-1.4-2.9-3.8C69.9,108.1,71.4,106.6,72.9,106.6z M73.4,112.5c0.5,0,0.8-0.2,1.2-0.7v-2.9c-0.4-0.3-0.8-0.5-1.2-0.5
		c-0.7,0-1.3,0.6-1.3,2C72.1,111.8,72.6,112.5,73.4,112.5z"/>
	<path d="M78.4,104.6c0-0.7,0.5-1.1,1.2-1.1c0.7,0,1.2,0.4,1.2,1.1c0,0.7-0.5,1.1-1.2,1.1C79,105.8,78.4,105.3,78.4,104.6z
		 M78.6,106.8h2.1v7.2h-2.1V106.8z"/>
	<path d="M82.6,106.8h1.7l0.1,0.9h0.1c0.6-0.6,1.3-1.1,2.3-1.1c1.6,0,2.2,1.1,2.2,2.9v4.5H87v-4.2c0-1-0.3-1.4-0.9-1.4
		c-0.5,0-0.9,0.2-1.3,0.7v4.9h-2.1V106.8z"/>
	<path d="M91.5,113.8L91.5,113.8c-0.4-0.3-0.7-0.7-0.7-1.3c0-0.5,0.3-1,0.8-1.3v-0.1c-0.5-0.3-1-1-1-1.9c0-1.7,1.4-2.6,3-2.6
		c0.4,0,0.8,0.1,1.1,0.2h2.6v1.6h-1.1c0.1,0.2,0.2,0.6,0.2,0.9c0,1.7-1.2,2.4-2.8,2.4c-0.3,0-0.6,0-0.9-0.1
		c-0.2,0.2-0.3,0.3-0.3,0.5c0,0.4,0.3,0.5,1.1,0.5h1.2c1.8,0,2.7,0.5,2.7,1.8c0,1.5-1.6,2.6-4,2.6c-1.7,0-3-0.6-3-1.8
		C90.5,114.7,90.8,114.2,91.5,113.8z M93.8,115.7c1,0,1.7-0.4,1.7-0.9c0-0.5-0.4-0.6-1.1-0.6h-0.7c-0.5,0-0.8,0-1-0.1
		c-0.3,0.2-0.4,0.5-0.4,0.7C92.2,115.5,92.9,115.7,93.8,115.7z M94.6,109.2c0-0.8-0.4-1.2-1-1.2s-1,0.4-1,1.2c0,0.8,0.4,1.2,1,1.2
		S94.6,110,94.6,109.2z"/>
</g>
</svg>
