<?xml version="1.0" encoding="utf-8"?>
<!-- Generator: Adobe Illustrator 21.0.0, SVG Export Plug-In . SVG Version: 6.00 Build 0)  -->
<svg version="1.1" id="Layer_1" xmlns="http://www.w3.org/2000/svg" xmlns:xlink="http://www.w3.org/1999/xlink" x="0px" y="0px"
	 viewBox="0 0 144 143.6" style="enable-background:new 0 0 144 143.6;" xml:space="preserve">
<style type="text/css">
	.st0{opacity:0.4;fill:#59595A;enable-background:new    ;}
	.st1{fill:#FCF3E3;}
	.st2{fill:none;}
	.st3{font-family:'SourceSansPro-Bold';}
	.st4{font-size:16.2712px;}
	.st5{fill:#010101;}
	.st6{fill:#75AD66;}
	.st7{opacity:0.7;fill:#FFFFFF;stroke:#010101;stroke-miterlimit:10;enable-background:new    ;}
</style>
<rect x="9.7" y="9.3" class="st0" width="134.3" height="134.3"/>
<rect x="1.3" y="0.9" class="st1" width="134.3" height="134.3"/>
<g>
	<g>
		<path d="M36.3,116.6c0.3,0,0.5,0,0.9,0c1.1,0,1.1-1.7,0-1.7c-0.3,0-0.5,0-0.9,0C35.2,115,35.2,116.6,36.3,116.6L36.3,116.6z"/>
	</g>
</g>
<g>
	<g>
		<path d="M109.5,116.6c0.3,0,0.5,0,0.9,0c1.1,0,1.1-1.7,0-1.7c-0.3,0-0.5,0-0.9,0C108.5,115,108.5,116.6,109.5,116.6L109.5,116.6z"
			/>
	</g>
</g>
<rect x="33.9" y="111.2" class="st2" width="74.6" height="19"/>
<text transform="matrix(1 0 0 1 51.8965 122.6548)" class="st3 st4">READ</text>
<g>
	<path class="st2" d="M28.1,76.6c10.7-29.8,57.4-33.1,80.1-1c0,0-8.1,18-39.2,18C43.2,93.6,25.3,84.7,28.1,76.6z"/>
	<g>
		<g>
			<path class="st5" d="M29.2,76.6C35.9,62.9,49.5,54.7,64.6,54c17.1-0.6,32.4,8.5,41.8,22.4c1.3,1.9,4.4,0.1,3-1.9
				C99.3,59.6,83,49.8,64.6,50.4C48.4,51,33.3,59.8,26,74.6C25.1,76.8,28.1,78.6,29.2,76.6L29.2,76.6z"/>
		</g>
	</g>
	<g>
		<g>
			<path class="st5" d="M104.9,80.2C97.6,90.7,81.7,93.4,70,93.7C55.9,94,40.3,90.6,30.4,79.7c-1.5-1.6-4,0.8-2.5,2.5
				c10.9,11.7,28,15.4,43.4,14.8c12.9-0.5,28.9-3.8,36.8-15.2C109.4,80.1,106.2,78.4,104.9,80.2L104.9,80.2z"/>
		</g>
	</g>
	<g>
		<path class="st6" d="M54.3,77.6c-3.8-5-1.9-14,4.6-18.4s15.5-2.7,20,3.8s2.7,15.5-3.8,20c-5.4,3.6-11.7,3.1-16.4,0"/>
		<g>
			<path class="st5" d="M55.8,76.6C48.4,65.2,65.4,53,75.1,61.5c4.8,4,6,10.9,2.7,16.3c-4,6.4-11.9,7.4-18.2,3.6
				c-1.9-1.2-3.8,1.9-1.9,3c7.2,4.4,16.4,3.4,21.9-3.3c5.3-6.6,4.6-16.3-1.6-22c-12.6-11.7-35,4.2-25.3,19.3
				C54,80.4,57,78.6,55.8,76.6L55.8,76.6z"/>
		</g>
	</g>
	<g>
		<g>
			<path class="st5" d="M27.8,62.2c-2.7-1.6-5.4-3.2-8.1-4.8c-1.9-1.2-3.8,1.9-1.9,3c2.7,1.6,5.4,3.2,8.1,4.8
				C28,66.5,29.8,63.4,27.8,62.2L27.8,62.2z"/>
		</g>
	</g>
	<g>
		<g>
			<path class="st5" d="M44.4,50.7c-1.6-2.7-3.2-5.4-4.8-8.1c-1.1-1.9-4.2-0.2-3,1.9c1.6,2.7,3.2,5.4,4.8,8.1
				C42.6,54.4,45.5,52.6,44.4,50.7L44.4,50.7z"/>
		</g>
	</g>
	<g>
		<g>
			<path class="st5" d="M65.2,45.2c-0.6-3.2-1.2-6.5-1.9-9.8c-0.4-2.3-3.8-1.3-3.4,0.9c0.6,3.2,1.2,6.5,1.9,9.8
				C62.1,48.5,65.6,47.5,65.2,45.2L65.2,45.2z"/>
		</g>
	</g>
	<g>
		<g>
			<path class="st5" d="M84.9,47.9c1.3-2.9,2.7-5.8,4-8.8c0.9-2.1-2.1-3.8-3-1.9c-1.3,2.9-2.7,5.8-4,8.8
				C80.9,48.1,84,49.8,84.9,47.9L84.9,47.9z"/>
		</g>
	</g>
	<g>
		<g>
			<path class="st5" d="M103,59.2c2.3-2.1,4.4-4.2,6.7-6.5c1.6-1.6-0.9-4-2.5-2.5c-2.3,2.1-4.4,4.2-6.7,6.5
				C98.8,58.3,101.4,60.9,103,59.2L103,59.2z"/>
		</g>
	</g>
	<circle class="st5" cx="67.1" cy="71.1" r="5.2"/>
	<circle class="st7" cx="71.4" cy="67" r="3.8"/>
	<g>
		<g>
			<path class="st5" d="M18,15.9c7.8,0,15.6,0,23.4,0c1.6,0,1.6-2.5,0-2.5c-7.8,0-15.6,0-23.4,0C16.4,13.4,16.4,15.9,18,15.9
				L18,15.9z"/>
		</g>
	</g>
	<g>
		<g>
			<path class="st5" d="M49.3,15.9c2.7,0,5.2,0,7.8,0c1.6,0,1.6-2.5,0-2.5c-2.7,0-5.2,0-7.8,0C47.7,13.4,47.7,15.9,49.3,15.9
				L49.3,15.9z"/>
		</g>
	</g>
	<g>
		<g>
			<path class="st5" d="M69.2,37.5c2.9,0,5.9,0,8.8,0c1.6,0,1.6-2.5,0-2.5c-2.9,0-5.9,0-8.8,0C67.6,35,67.6,37.5,69.2,37.5
				L69.2,37.5z"/>
		</g>
	</g>
	<g>
		<g>
			<path class="st5" d="M64.5,15.9c6,0,11.9,0,18,0c1.6,0,1.6-2.5,0-2.5c-6,0-11.9,0-18,0C62.9,13.4,62.8,15.9,64.5,15.9L64.5,15.9z
				"/>
		</g>
	</g>
	<g>
		<g>
			<path class="st5" d="M65.2,23.4c5,0,9.9,0,14.9,0c1.6,0,1.6-2.5,0-2.5c-5,0-9.9,0-14.9,0C63.6,20.9,63.6,23.4,65.2,23.4
				L65.2,23.4z"/>
		</g>
	</g>
	<g>
		<g>
			<path class="st5" d="M88,23.4c2.7,0,5.2,0,7.8,0c1.6,0,1.6-2.5,0-2.5c-2.7,0-5.2,0-7.8,0C86.3,20.9,86.3,23.4,88,23.4L88,23.4z"
				/>
		</g>
	</g>
	<g>
		<g>
			<path class="st5" d="M103.2,23.4c6,0,11.9,0,18,0c1.6,0,1.6-2.5,0-2.5c-6,0-11.9,0-18,0C101.6,20.9,101.6,23.4,103.2,23.4
				L103.2,23.4z"/>
		</g>
	</g>
	<g>
		<g>
			<path class="st5" d="M18,23.1c2.7,0,5.2,0,7.8,0c1.6,0,1.6-2.5,0-2.5c-2.7,0-5.2,0-7.8,0C16.4,20.5,16.4,23.1,18,23.1L18,23.1z"
				/>
		</g>
	</g>
	<g>
		<g>
			<path class="st5" d="M33.2,23.1c6,0,11.9,0,18,0c1.6,0,1.6-2.5,0-2.5c-6,0-11.9,0-18,0C31.6,20.5,31.6,23.1,33.2,23.1L33.2,23.1z
				"/>
		</g>
	</g>
	<g>
		<g>
			<path class="st5" d="M18,37.5c2.7,0,5.2,0,7.8,0c1.6,0,1.6-2.5,0-2.5c-2.7,0-5.2,0-7.8,0C16.4,35,16.4,37.5,18,37.5L18,37.5z"/>
		</g>
	</g>
	<g>
		<g>
			<path class="st5" d="M37.2,37.5c5.4,0,10.7,0,16.1,0c1.6,0,1.6-2.5,0-2.5c-5.4,0-10.7,0-16.1,0C35.5,35,35.5,37.5,37.2,37.5
				L37.2,37.5z"/>
		</g>
	</g>
	<g>
		<g>
			<path class="st5" d="M88.7,52.8c3.1,0,6.3,0,9.4,0c1.6,0,1.6-2.5,0-2.5c-3.1,0-6.3,0-9.4,0C87,50.3,87,52.8,88.7,52.8L88.7,52.8z
				"/>
		</g>
	</g>
	<g>
		<g>
			<path class="st5" d="M115.8,52.8c1.9,0,3.8,0,5.7,0c1.6,0,1.6-2.5,0-2.5c-1.9,0-3.8,0-5.7,0C114.1,50.3,114.1,52.8,115.8,52.8
				L115.8,52.8z"/>
		</g>
	</g>
	<g>
		<g>
			<path class="st5" d="M112,60.2c3.6,0,7.1,0,10.5,0c1.6,0,1.6-2.5,0-2.5c-3.6,0-7.1,0-10.5,0C110.4,57.7,110.4,60.2,112,60.2
				L112,60.2z"/>
		</g>
	</g>
	<g>
		<g>
			<path class="st5" d="M113.9,68c1.9,0,3.8,0,5.7,0c1.6,0,1.6-2.5,0-2.5c-1.9,0-3.8,0-5.7,0C112.3,65.5,112.3,68,113.9,68L113.9,68
				z"/>
		</g>
	</g>
	<g>
		<g>
			<path class="st5" d="M93.6,37.5c5.7,0,11.3,0,17,0c1.6,0,1.6-2.5,0-2.5c-5.7,0-11.3,0-17,0C92,35,92,37.5,93.6,37.5L93.6,37.5z"
				/>
		</g>
	</g>
	<g>
		<g>
			<path class="st5" d="M89.4,15.9c5.7,0,11.3,0,17,0c1.6,0,1.6-2.5,0-2.5c-5.7,0-11.3,0-17,0C87.8,13.4,87.8,15.9,89.4,15.9
				L89.4,15.9z"/>
		</g>
	</g>
	<g>
		<g>
			<path class="st5" d="M113,15.9c0.3,0,0.6,0,0.8,0c1.6,0,1.6-2.5,0-2.5c-0.3,0-0.6,0-0.8,0C111.4,13.4,111.4,15.9,113,15.9
				L113,15.9z"/>
		</g>
	</g>
	<g>
		<g>
			<path class="st5" d="M89.2,30.7c7.8,0,15.6,0,23.4,0c1.6,0,1.6-2.5,0-2.5c-7.8,0-15.6,0-23.4,0C87.6,28.2,87.6,30.7,89.2,30.7
				L89.2,30.7z"/>
		</g>
	</g>
	<g>
		<g>
			<path class="st5" d="M45.1,30.7c2.7,0,5.2,0,7.8,0c1.6,0,1.6-2.5,0-2.5c-2.7,0-5.2,0-7.8,0C43.4,28.2,43.4,30.7,45.1,30.7
				L45.1,30.7z"/>
		</g>
	</g>
	<g>
		<g>
			<path class="st5" d="M46.5,44.7c2.1,0,4.2,0,6.4,0c1.6,0,1.6-2.5,0-2.5c-2.1,0-4.2,0-6.4,0C44.8,42.2,44.8,44.7,46.5,44.7
				L46.5,44.7z"/>
		</g>
	</g>
	<g>
		<g>
			<path class="st5" d="M70.9,44.7c2.3,0,4.6,0,6.9,0c1.6,0,1.6-2.5,0-2.5c-2.3,0-4.6,0-6.9,0C69.3,42.2,69.3,44.7,70.9,44.7
				L70.9,44.7z"/>
		</g>
	</g>
	<g>
		<g>
			<path class="st5" d="M92.4,44.7c2.7,0,5.2,0,7.8,0c1.6,0,1.6-2.5,0-2.5c-2.7,0-5.2,0-7.8,0C90.8,42.2,90.8,44.7,92.4,44.7
				L92.4,44.7z"/>
		</g>
	</g>
	<g>
		<g>
			<path class="st5" d="M105.4,44.7c5.6,0,11.1,0,16.7,0c1.6,0,1.6-2.5,0-2.5c-5.6,0-11.1,0-16.7,0
				C103.8,42.2,103.8,44.7,105.4,44.7L105.4,44.7z"/>
		</g>
	</g>
	<g>
		<g>
			<path class="st5" d="M18.2,30.7c6,0,11.9,0,18,0c1.6,0,1.6-2.5,0-2.5c-6,0-11.9,0-18,0C16.6,28.2,16.6,30.7,18.2,30.7L18.2,30.7z
				"/>
		</g>
	</g>
	<g>
		<g>
			<path class="st5" d="M18.2,44.7c4.4,0,9,0,13.4,0c1.6,0,1.6-2.5,0-2.5c-4.4,0-9,0-13.4,0C16.6,42.2,16.6,44.7,18.2,44.7
				L18.2,44.7z"/>
		</g>
	</g>
	<g>
		<g>
			<path class="st5" d="M59.3,30.7c5.7,0,11.3,0,17,0c1.6,0,1.6-2.5,0-2.5c-5.7,0-11.3,0-17,0C57.6,28.2,57.6,30.7,59.3,30.7
				L59.3,30.7z"/>
		</g>
	</g>
	<g>
		<g>
			<path class="st5" d="M82.1,30.7c0.3,0,0.6,0,0.8,0c1.6,0,1.6-2.5,0-2.5c-0.3,0-0.6,0-0.8,0C80.5,28.2,80.5,30.7,82.1,30.7
				L82.1,30.7z"/>
		</g>
	</g>
	<g>
		<g>
			<path class="st5" d="M118,37.5c0.3,0,0.6,0,0.8,0c1.6,0,1.6-2.5,0-2.5c-0.3,0-0.6,0-0.8,0C116.4,35,116.4,37.5,118,37.5L118,37.5
				z"/>
		</g>
	</g>
	<g>
		<g>
			<path class="st5" d="M108.7,68c0.3,0,0.6,0,0.8,0c1.6,0,1.6-2.5,0-2.5c-0.3,0-0.6,0-0.8,0C107,65.5,107,68,108.7,68L108.7,68z"/>
		</g>
	</g>
	<g>
		<g>
			<path class="st5" d="M58.1,23.2c0.3,0,0.6,0,0.8,0c1.6,0,1.6-2.5,0-2.5c-0.3,0-0.6,0-0.8,0C56.4,20.7,56.4,23.2,58.1,23.2
				L58.1,23.2z"/>
		</g>
	</g>
	<g>
		<g>
			<path class="st5" d="M31.5,37.5c0.3,0,0.6,0,0.8,0c1.6,0,1.6-2.5,0-2.5c-0.3,0-0.6,0-0.8,0C29.8,35,29.8,37.5,31.5,37.5
				L31.5,37.5z"/>
		</g>
	</g>
	<g>
		<g>
			<path class="st5" d="M18,52.8c2.7,0,5.2,0,7.8,0c1.6,0,1.6-2.5,0-2.5c-2.7,0-5.2,0-7.8,0C16.4,50.3,16.4,52.8,18,52.8L18,52.8z"
				/>
		</g>
	</g>
	<g>
		<g>
			<path class="st5" d="M18,68c0.6,0,1.2,0,1.9,0c1.6,0,1.6-2.5,0-2.5c-0.6,0-1.2,0-1.9,0C16.4,65.5,16.4,68,18,68L18,68z"/>
		</g>
	</g>
	<g>
		<g>
			<path class="st5" d="M31.5,52.8c0.3,0,0.6,0,0.8,0c1.6,0,1.6-2.5,0-2.5c-0.3,0-0.6,0-0.8,0C29.8,50.3,29.8,52.8,31.5,52.8
				L31.5,52.8z"/>
		</g>
	</g>
</g>
</svg>
