<?xml version="1.0" encoding="utf-8"?>
<!-- Generator: Adobe Illustrator 21.0.0, SVG Export Plug-In . SVG Version: 6.00 Build 0)  -->
<svg version="1.1" id="Layer_1" xmlns="http://www.w3.org/2000/svg" xmlns:xlink="http://www.w3.org/1999/xlink" x="0px" y="0px"
	 viewBox="0 0 141.8 141.9" style="enable-background:new 0 0 141.8 141.9;" xml:space="preserve">
<style type="text/css">
	.st0{opacity:0.4;fill:#59595A;enable-background:new    ;}
	.st1{fill:#FCF3E3;}
	.st2{fill:none;}
	.st3{font-family:'SourceSansPro-Bold';}
	.st4{font-size:16.1714px;}
	.st5{fill:#CC3333;}
	.st6{fill:#220D0E;}
</style>
<rect x="8.4" y="8.4" class="st0" width="133.4" height="133.4"/>
<rect class="st1" width="133.4" height="133.4"/>
<g>
	<g>
		<path d="M34.7,115c0.3,0,0.5,0,0.9,0c1.1,0,1.1-1.6,0-1.6c-0.3,0-0.5,0-0.9,0C33.7,113.4,33.7,115,34.7,115L34.7,115z"/>
	</g>
</g>
<g>
	<g>
		<path d="M107.5,115c0.3,0,0.5,0,0.9,0c1.1,0,1.1-1.6,0-1.6c-0.3,0-0.5,0-0.9,0C106.5,113.4,106.5,115,107.5,115L107.5,115z"/>
	</g>
</g>
<rect x="32.4" y="109.7" class="st2" width="74.1" height="18.8"/>
<text transform="matrix(1 0 0 1 48.2414 121.0559)" class="st3 st4">SPEAK</text>
<g>
	<g>
		<path d="M113.3,48.6c4.3-1.4,8.6-2.9,13-4.3c1-0.3,0.6-1.9-0.5-1.6c-4.3,1.4-8.6,2.9-13,4.3C111.8,47.3,112.3,48.9,113.3,48.6
			L113.3,48.6z"/>
	</g>
</g>
<g>
	<g>
		<path d="M115,61.3c4.5,0.3,9.1,0.7,13.6,1.1c1.1,0.1,1.1-1.6,0-1.6c-4.5-0.3-9.1-0.7-13.6-1.1C113.9,59.6,113.9,61.3,115,61.3
			L115,61.3z"/>
	</g>
</g>
<g>
	<g>
		<path d="M111.4,73.7c4.1,2.1,8.1,4.2,12.2,6.3c0.9,0.5,1.8-0.9,0.9-1.4c-4.1-2.1-8.1-4.2-12.2-6.3
			C111.2,71.8,110.4,73.2,111.4,73.7L111.4,73.7z"/>
	</g>
</g>
<g>
	<g>
		<path d="M21.5,47c-4.3-1.4-8.6-2.9-13-4.3c-1-0.3-1.4,1.3-0.5,1.6c4.3,1.4,8.6,2.9,13,4.3C22.1,48.9,22.5,47.3,21.5,47L21.5,47z"
			/>
	</g>
</g>
<g>
	<g>
		<path d="M19.4,59.7c-4.5,0.3-9.1,0.7-13.6,1.1c-1.1,0.1-1.1,1.7,0,1.6c4.5-0.3,9.1-0.7,13.6-1.1C20.5,61.3,20.5,59.6,19.4,59.7
			L19.4,59.7z"/>
	</g>
</g>
<g>
	<g>
		<path d="M22.2,72.3c-4.1,2.1-8.1,4.2-12.2,6.3C9.1,79,9.9,80.5,10.9,80c4.1-2.1,8.1-4.2,12.2-6.3C24,73.2,23.1,71.8,22.2,72.3
			L22.2,72.3z"/>
	</g>
</g>
<g>
	<path class="st5" d="M29.5,62.9c4.9,13.7,61.3,22,75.6,0.2C100.8,50.4,36.8,48.9,29.5,62.9z"/>
	<g>
		<path d="M28.7,63.1c1.4,3.7,5.1,6.1,8.4,7.7c5.5,2.7,11.6,4.3,17.6,5.3c12.9,2.1,27.5,2.1,39.7-3.4c2.6-1.2,5.1-2.7,7.3-4.5
			c1.3-1.1,4.3-3.6,4.2-5.4c-0.3-3.2-5.7-5.3-8-6.2c-11.5-4.4-25-4.8-37.2-4.3c-6.9,0.3-14,1.1-20.7,3.1c-4.2,1.3-9,3.2-11.2,7.1
			c-0.5,0.9,0.9,1.8,1.4,0.9c1.8-3.3,5.9-4.9,9.2-6.1c5.2-1.7,10.7-2.5,16.2-3c11.7-1,23.9-0.7,35.3,1.9c3.9,0.9,8.4,2,11.5,4.6
			c1.8,1.5,2,2.1,0.4,3.9c-1.8,2.1-4,3.8-6.5,5.1c-10.7,6.1-24.2,6.5-36.2,5.3c-6.4-0.7-12.8-2-18.9-4.3c-4-1.5-9.4-3.9-11-8.2
			C30,61.7,28.3,62.1,28.7,63.1z"/>
	</g>
</g>
<g>
	<path class="st5" d="M104.6,61.5c-4.5-9.4-25.2-32.5-37.4-19.1c-12.2-13.4-32.9,9.8-37.4,19.1"/>
	<g>
		<path d="M105.4,61.1c-5.7-11.5-25.7-32.8-38.6-19.2c0.4,0,0.8,0,1.2,0c-13-13.6-33.1,7.8-38.7,19.2c-0.5,0.9,0.9,1.8,1.4,0.9
			c5.1-10.4,24.1-31.5,36-18.9c0.3,0.3,0.9,0.3,1.2,0c12-12.6,30.9,8.5,36,18.9C104.4,62.9,105.8,62.1,105.4,61.1L105.4,61.1z"/>
	</g>
</g>
<g>
	<path class="st5" d="M32.3,66.2c11.3,11.3,23,19.5,34.8,19.6s23.6-8,35.2-19.6"/>
	<g>
		<path d="M31.7,66.7C41.1,76,53,86.5,67.1,86.6c14.1,0.1,26.3-10.5,35.7-19.8c0.7-0.7-0.4-1.9-1.2-1.2c-9.1,9-20.9,19.4-34.6,19.3
			c-13.6-0.1-25.2-10.3-34.2-19.3C32.1,64.8,31,66,31.7,66.7L31.7,66.7z"/>
	</g>
</g>
<g>
	<path class="st6" d="M34.8,62.9c5.7,3.7,20.6,7.4,32.2,7.4c12.3,0.1,27.3-3.5,33-7.2c-9.6-5.9-22.8-11.6-32.9-11.5
		C57.3,51.6,44.5,57,34.8,62.9z"/>
	<g>
		<path d="M34.3,63.9c4.3,2.6,9.3,4,14.2,5.2c6.3,1.4,12.7,2.4,19.1,2.4c6.3,0,12.7-0.9,18.8-2.2c4.9-1.1,10-2.4,14.3-5.1
			c0.7-0.5,0.7-1.5,0-2c-9.8-5.9-21.7-11.7-33.5-11.7C55.6,50.5,44,56.1,34.3,61.9c-1.3,0.8-0.1,2.8,1.2,2
			c9.3-5.7,20.6-11.1,31.7-11.2c11.3-0.1,22.8,5.7,32.3,11.4c0-0.7,0-1.3,0-2c-4,2.5-8.7,3.8-13.2,4.8c-6.1,1.4-12.4,2.2-18.6,2.2
			c-6.1,0-12.1-0.9-18-2.2c-4.8-1.1-9.9-2.4-14.1-5.1C34.1,61.1,32.9,63.1,34.3,63.9z"/>
	</g>
</g>
<path class="st1" d="M85.8,55.8l0.3,1.6c0,1.6-2,1.9-4.4,1.9c-1.3,0-2.3-0.1-3.2-0.3c-0.1-0.1-0.3-0.1-0.4-0.1c-0.3,1.7-2.6,2-5.3,2
	c-1.5,0-2.8-0.1-3.8-0.4c-0.7-0.2-1.1-0.5-1.4-1c-0.7,1.2-2.7,1.4-5.1,1.4c-1.5,0-2.8-0.1-3.8-0.4S57,59.5,57,58.5l0,0
	c-0.7,0.7-2.2,0.9-4,0.9c-1.3,0-2.3-0.1-3.2-0.3c-0.8-0.3-1.3-0.7-1.3-1.6l0.4-2.6c0,0,1.6-0.5,4.1-0.5c0.9,0,1.6-0.8,2.2-0.8
	c1,0,1.7,0.1,2,0.7c0.7-1.3,2.7-1.8,5.1-1.8c1.5,0,2.8,0.3,3.8,0.7c0.7,0.3,1.1,0.7,1.4,1.3c0.7-1.3,2.7-2,5.1-2
	c1.5,0,2.8,0.3,3.8,0.7c0.4,0.2,0.8,0.5,1.1,0.8c0.7-0.5,2.2-0.2,4-0.2c0.9,0,1.9,0.9,2.6,0.9C85.5,54.4,85.8,54.8,85.8,55.8z"/>
<g>
	<path class="st1" d="M87.6,56.5c-13.2-5.8-27.3-5.9-40.9,0"/>
	<g>
		<path d="M88,55.9c-13.6-5.8-28.1-5.8-41.6,0c-1,0.4-0.1,1.8,0.9,1.4c13-5.5,27-5.5,40,0C88.2,57.7,89,56.3,88,55.9L88,55.9z"/>
	</g>
</g>
<g>
	<path class="st5" d="M54.8,50.3c8.1,5.9,16.8,5.9,25,0"/>
	<g>
		<path d="M54.4,51c8.4,5.7,17.5,5.7,25.9,0c0.9-0.6,0.1-2-0.9-1.4c-7.9,5.4-16.3,5.5-24.2,0C54.3,49,53.5,50.4,54.4,51L54.4,51z"/>
	</g>
</g>
</svg>
